<?xml version="1.0" encoding="UTF-8"?>
<svg version="1.1" viewBox="0 0 1024 1024" width="120" height="120" xmlns="http://www.w3.org/2000/svg">
<path transform="translate(248,219)" d="m0 0h75v37h37v77h40v-38l5-1h218l3 1v39h39l1 1v37h38v226h-38v38h-40v38l-3 1h-223v-39h-40v76h-37v39h-75v-77h36v-38l75-1 1-37-38 1v-228h37v-38h-75v-38l-36-1z" fill="#FDC519"/>
<path transform="translate(625,334)" d="m0 0h40l1 1v37h38v226h-38v38h-40v38l-3 1h-223v-39h-40v76h-37v39h-75v-77h36v-38l75-1 1-37 189-1 1-37h38v-37l37-1z" fill="#FC9911"/>
<path transform="translate(248,219)" d="m0 0h75v37h37v77h40v-38l5-1h218l2 1v38h-188l1 3-1 36h-37v38l-36 1-3-1-1 187-1 1-37 1v-228h37v-38h-75v-38l-36-1z" fill="#EA6525"/>
<path transform="translate(625,334)" d="m0 0h40l1 1v37h38v226h-38v38h-40v38l-3 1h-223v-39h225v-35l1-3 38-1 1-5v-219l-1-1h-38z" fill="#C72E4E"/>
<path transform="translate(437,333)" d="m0 0h113v27l-1 12h-75v38l-14 1h-23l-1 37h-36v74l-5 1h-34v70h-1v-188h1v5h39v-38h37z" fill="#FEEC80"/>
<path transform="translate(360,598)" d="m0 0h40v38h-40v76h-37v39h-75v-77h36v-38l75-1z" fill="#EA6527"/>
<path transform="translate(401,294)" d="m0 0h222l2 1v38h-188l1 3-1 36h-37v-38h-6v-1h6v-38z" fill="#EA6325"/>
<path transform="translate(703,219)" d="m0 0h74v75h-36v39l-2 1-73-1v-77h36v-36z" fill="#EB6726"/>
<path transform="translate(666,636)" d="m0 0h75v38h34l1 1v76h-73l-1-1v-25l1-13h-37z" fill="#E96226"/>
<path transform="translate(474,141)" d="m0 0h76l1 1v113l-1 1h-76l-1-3v-111z" fill="#EA6325"/>
<path transform="translate(741,448)" d="m0 0h114v76h-115v-75z" fill="#FC9811"/>
<path transform="translate(474,712)" d="m0 0h77v113h-77l-1-1v-111z" fill="#EA6326"/>
<path transform="translate(171,448)" d="m0 0h113v76h-113z" fill="#EA6226"/>
<path transform="translate(360,372)" d="m0 0h40v38l-36 1-3-1-1 150h-37v-187z" fill="#EB6424"/>
<path transform="translate(284,672)" d="m0 0 1 2 38 1v76h-75v-77h36z" fill="#EB6424"/>
<path transform="translate(666,256)" d="m0 0h37v38h36l2 1v38l-2 1-73-1z" fill="#E96226"/>
<path transform="translate(248,220)" d="m0 0h74v36h-37v35l1 3h-38z" fill="#E96226"/>
<path transform="translate(766,674)" d="m0 0h9l1 1v76h-73l-1-1v-25l1-13h37l1-1v-36z" fill="#C7304E"/>
<path transform="translate(665,376)" d="m0 0h1v220l-2 2h-38v36l-3 3h-222v-1l186-1 1-37 37-1v-22l1-15h39z" fill="#EB6425"/>
<path transform="translate(283,448)" d="m0 0h1v76h-113v-1l37-1v-37l5-1h64l6 1-1-36z" fill="#FC9811"/>
<path transform="translate(550,142)" d="m0 0h1v113l-1 1h-43v-1l5-1v-73h38z" fill="#FC9912"/>
<path transform="translate(475,712)" d="m0 0h76v75l-39-1v-72h-35l-2 1z" fill="#FC9912"/>
<path transform="translate(741,448)" d="m0 0h114v76l-37-1-1-43v-30l-76-1z" fill="#C8304C"/>
<path transform="translate(742,449)" d="m0 0h76v69h-1v-33h-75l-1-1v-34z" fill="#EA6325"/>
<path transform="translate(772,219)" d="m0 0h5v75h-36v-74z" fill="#C72E4D"/>
<path transform="translate(322,371)" d="m0 0 38 1v1h-37v187h37v37l-1 1-37 1z" fill="#C72F4E"/>
<path transform="translate(401,294)" d="m0 0h222l2 1v38h-37l1-2-2-1v-33l-186-1 1 37h-2v-38z" fill="#C72F4F"/>
<path transform="translate(248,674)" d="m0 0 36 1v1h-35v73h36l-1-9v-26l2-2 1 1 36-1v39h-75z" fill="#C8314D"/>
<path transform="translate(248,219)" d="m0 0h75v76h-35l-4-4v-23l1-12h37v-36h-74z" fill="#FC9811"/>
<path transform="translate(377,333)" d="m0 0h14l9 1v38h-41l1-38z" fill="#E96227"/>
<path transform="translate(739,674)" d="m0 0h23v1l-20 1v35l-2 2h-34l-39-1 1-2 35 1v-36z" fill="#FC9917"/>
<path transform="translate(625,295)" d="m0 0h1v77h-38v-38h-28v-1h65z" fill="#FC9711"/>
<path transform="translate(360,372)" d="m0 0h40v38l-36 1-3-1-1-5z" fill="#FDC61C"/>
<path transform="translate(360,598)" d="m0 0h40v38h-40z" fill="#C72E4D"/>
<path transform="translate(625,334)" d="m0 0h40l1 1v34l-2 3h-38z" fill="#C8304C"/>
<path transform="translate(361,560)" d="m0 0h39v38h-41l1-5z" fill="#FC9911"/>
<path transform="translate(704,256)" d="m0 0h38v36l-1 3-38-1v-36l-2-1z" fill="#FC9812"/>
<path transform="translate(284,672)" d="m0 0 1 2 38 1v37l-2 1-35 1-2-6v-26l1-7h-13v-1h12z" fill="#FC9915"/>
<path transform="translate(394,333)" d="m0 0h43l1 3-1 36h-37v-38h-6z" fill="#FDC51A"/>
<path transform="translate(703,295)" d="m0 0h38v38l-2 1-36-1-1-33z" fill="#C72E4E"/>
<path transform="translate(512,787)" d="m0 0h39v37h-39z" fill="#C72F4D"/>
<path transform="translate(474,141)" d="m0 0 70 1v1h-69v110h-1l-1-37v-74z" fill="#D04F5B"/>
</svg>
