<?xml version="1.0" encoding="UTF-8"?>
<svg version="1.1" viewBox="0 0 1024 1024" width="96" height="96" xmlns="http://www.w3.org/2000/svg">
<path transform="translate(569,43)" d="m0 0 24 1v50l27-1-1 23h48l-1-23h20l6-1-1 26-24-1 1 46h24v31h26l-1-15 1-6 24-1 1 23-3 1h-14l-8-1v88h38v23h-38v87h24v23l-8 1h-16l1 50-3 1-24-1v43l25-1 1 27-2-1-48-1v22l-1 23h129l-1 202-28-1v48l-25-1v27h-25l1 26h-27v23l-25-1v26h-309v-26h-24l1-22h-25v-26h-25v-27l-26 1-1-3 1-45h-27v-201l4-1 122 1v-44h-34l-15-1v-24l24-1 1-42-24 1-2 1 1-52h-23l-1-24 23-1 1-85-40-1v-22l13-1h27v-88l-23 1-1-3v-22l2 1 22 1v21h26l-1-22v-9l24 1v-47h-23v-24h24v23l33 1-1-24h28v-49h23v25h129z" fill="#042415"/>
<path transform="translate(569,43)" d="m0 0 24 1v50l27-1-1 23h48l-1-23h20l6-1-1 26-24-1 1 51v25l22 1 2 1v224h-21l-3 1-1 52v43h-1l-1 14-2 3h-7v2l-12 1-1 1-1 22-2 5h-17l-2 2v9l-1 3-1 9-3 2h-224l-1-22 1-2h-16l-1-31-1-5v-30l-1-4h-13v-2h-2l-1 3v-28h-22l-2-1v-270l1-1 10-1h13v-77h-23v-24h24v23l33 1-1-24h28v-49h23v25h129z" fill="#016008"/>
<path transform="translate(258,606)" d="m0 0h53l1 1v21h-1l-1-20h-1l1 1v19h-25l-1 1h435v-13h1v14l-80 1 1 1v18h2l1-2 1 3 73 1 1 4v120h-2l1 3h-26v29h-52v20h-23v26l-261 1-3 3h-8l-8-3-1-4-6-1h-17l-2-3v-21l-3-1v-1h-19l-2-2-1-42-2-1v-1h-22l-1-4-1-144v149h23v1h-25z" fill="#F95A01"/>
<path transform="translate(424,94)" d="m0 0h146v1h-69l1 21h20l1 1v24h5l-4 1v22l12-1h10v32h24v48l25-1v78h-25v144h-1v-22l-2 1h-41l-1 24h-1l-1-51v-22l1-2h22v-16l1-7-19 1h-25v-1h21v-25h-12v-1h12v-7l-3-1v-17h2l1-48-20-1-1 21h-1l-1-21 1-2h22v-25h-23v26h-19v25h19v195l-1 3h-35v-22l-1-1h-22v-99l-24 1-1-1v-126l-25 1-1 49h-28v26h27v99h-2v-25l-31 1v-37l-22 1v26l-1 36h-1v-224l1-1 10-1h13v-30h16v1h-15v29h17l-1-2v-28l2-1 15 1v-21h-15v19h-1v-20h16v-24l1-1 72-1 1-21h-41z" fill="#4AC703"/>
<path transform="translate(718,606)" d="m0 0h48l1 2v152l-1 19-4 2h-16l-3 2-1 43-2 1-20-1v2h-2v23l-1 2-4 1-19 1-2 4-1 44-25-1v26h-309v-26h-24l1-22h-25v-26h-25v-27l-26 1-1-3 1-45 2-1-1-99v-72h1l1 22 1 144 1 3h21l3 5 1 40 1 1h19l3 3 1 9v12l1 2h19l4 2 1 4 5 1 3 1h8l1-3h263v-26h23v-20l32-1h17l3 1v-29l25-1v-2h2l-1-8v-115l-91-1v-1l14-1-1-18-256-1v-1h336l-1-1h-435l1-4v3l24-1v-18h-25l-1-2h27 3l1 20h401l1-3 1-16z" fill="#AA1912"/>
<path transform="translate(569,43)" d="m0 0 24 1v50l27-1-1 23h48l-1-23h20l6-1-1 26-24-1 1 51v25l22 1 2 1v224h-21l-3 1-1 55-2 10-1 3-8 2-12 2v20l-2 2-18 1h-2l-1 22-1 3-6 1h-14l-1-3-3-2-1-44-1-5v-45l-1-18-1-2h2v-3l26-1v-94l1-4h3v-28h-3v-75h-22l-1-9v-13h-24l-3-1-1-52-23-1v-24h-46v-22h-36v21l-1 1-72 1-1 24h-16l1 1h15v21h-16v30h-17v-29l-1-1v-47h-23v-24h24v23l33 1-1-24h28v-49h23v25h129z" fill="#015F09"/>
<path transform="translate(261,630)" d="m0 0h22l1 25v100l4-1v-2l4-1 7 1 1-7 3-1 2 7-1 2 2 1v1l1 1 1 24 1 5 1-5h23l1 1v26l236 1v-26l1-1 21-1 1-23 1-1h23v-27h23v-77h78l1 4v120h-2l1 3h-26v29h-52v20h-23v26l-261 1-3 3h-8l-8-3-1-4-6-1h-17l-2-3v-21l-3-1v-1h-19l-2-2-1-42-2-1v-1h-22l-1-4z" fill="#EE4001"/>
<path transform="translate(391,243)" d="m0 0h26l1 9v117h24l1 98h21l2 3v19l-1 2h35l1-3v32l-1 65-1 2h-31l-2-2-1-19-1-2h-20l-1 4-1 19h-23l-2-3v-20l-36-1-5-3-1-27-1-5v-30l-1-4h-13v-2h-2l-1 3v-28h-22l-2-1v-46l1-44v-18l1-1h22l1 36h30v25h2v-99h-27v-26h28z" fill="#028005"/>
<path transform="translate(501,141)" d="m0 0h27l-4 1v22l12-1h10v32h24v48l25-1v78h-25v144h-1v-22l-2 1h-41l-1 24h-1l-1-51v-22l1-2h22v-16l1-7-19 1h-25v-1h21v-25h-12v-1h12v-7l-3-1v-17h2l1-48-20-1-1 21h-1l-1-21 1-2h22v-25h-23z" fill="#12A403"/>
<path transform="translate(501,443)" d="m0 0h22v25l-19 1 19 1 1 70 24 1v-25l1-1h19l1-23 2-2 24 1 1 1 1 44 3 2v3l17-1h3l1-25 3-1 18-1 1-1 1-20 5-2 15-2 2-13h1v40h-1l-1 14-2 3h-7v2l-12 1-1 1-1 22-2 5h-17l-2 2v9l-1 3-1 9-3 2h-224l-1-22 1-2h-16l1-3 4 1 34 1 3 3v18l1 3h23v-19l1-5h21l2 3 1 19 1 1 31 1z" fill="#02400D"/>
<path transform="translate(569,43)" d="m0 0 24 1v50l27-1-1 23h48l-1-23h20l6-1-1 26-24-1v47l-2 1-19-1-1-22h-25l-1-1v-24h-24l-1-21-2-1h-127v21l-1 1-72 1-1 24h-16l1 1h15v21h-16v30h-17v-29l-1-1v-47h-23v-24h24v23l33 1-1-24h28v-49h23v25h129z" fill="#042515"/>
<path transform="translate(259,608)" d="m0 0h1l1 22 1 144 1 3h21l3 5 1 40 1 1h19l3 3 1 9v12l1 2h19l4 2 1 4 5 1 3 1h8l1-3h263v-26h23v-20l24-1 1 1v44l-1 1h-23v19l-2 4-15 1 16 1v1l-331 1v-26h-25v-27l-26 1-1-3 1-45 2-1-1-99z" fill="#CD2A09"/>
<path transform="translate(333,163)" d="m0 0 24 1v30l-23 2-1 270 24 1 1 25h2v2h13l2 4v30l1 7-4 1-13-1-2-2v-19l1-2h-2l-1-2-1-13-1-9v-15l-1-3h-17l-1 39h-1v-42l-24 1-2 1 1-52h-23l-1-24 23-1 1-85-40-1v-22l13-1h27v-88l-23 1-1-3v-22l2 1 22 1v21h26l-1-22z" fill="#022416"/>
<path transform="translate(570,94)" d="m0 0h22l3 2v46h16v21l1 1h7v30h24l-1 2h-4l2 2 2 4 2-2v18h23v24h-22v26h22v44h-1v-43l-9 1 6 3-1 16-2 2 4 2h-35l-1-5-5-2-1 5h3v29h-1v-28h-3v-75h-22l-1-9v-13h-24l-3-1-1-52-23-1v-24h-46v-22z" fill="#12A304"/>
<path transform="translate(501,242)" d="m0 0h23v25h-22v3l2-2 21 1-1 43-1 6h-2l1 17 2 1v33h23l-1 23h-22v24l1 26h44l1 26h-22v23h21v43h-1v-19l-19 1-1 25h-24l-1-1v-70h-21l2-2h19v-25h-22v-150h-19v-25h19z" fill="#027F05"/>
<path transform="translate(741,172)" d="m0 0h1l1 23-3 1h-14l-8-1v88h38v23h-38v87h24v23l-8 1h-16l1 50-3 1-27-1 3-3v-38l1-2 1-40v-186l1-1h17v-2l6-1-1-15 1-6z" fill="#022415"/>
<path transform="translate(357,902)" d="m0 0 3 1h158l148-1v26h-309z" fill="#022415"/>
<path transform="translate(389,193)" d="m0 0h1v25h27v1h-27l1 29v45h-28v26h27v99h-2v-25l-31 1v-37l-22 1v26l-1 36h-1v-221h1v19h21v1l-20 1-1 48h23v-71h1v21l29-1 2 1z" fill="#4BC703"/>
<path transform="translate(335,357)" d="m0 0h22l1 36h30v25l30 1 1 72-1 13h-1v-13l-6 1h-32l-2-1v24h-1l-1-24v-48h-17v24h-23l-2-1v-46l1-44v-18z" fill="#12A404"/>
<path transform="translate(656,269)" d="m0 0h10l1 29h1v19l-1 3-18 1-2-1-1 2-1 14v16l1 16h21l1 7v18l-4 1h-19v49l-21 1-1 4-1 1-1 42h-24v27h-1l-1-26-1-5v-45l-1-18-1-2h2v-3l26-1v-94l1-4h4v-29h-3v-5l2-1v2l5 1 2 4h28l2-3 1-16-6-3z" fill="#059404"/>
<path transform="translate(391,243)" d="m0 0h26l1 9v117h24v49h-25v-25h-27v-74h-27v-26h28z" fill="#038205"/>
<path transform="translate(595,117)" d="m0 0h24l1 2v22h21l4 1 1 3v19h20l2-1v30l22 1 2 1v221h-1v-220l-2 1 1 4v53l-1 7-3 2-12 1h-5l1 5-1 2-1 22h-1v-25h-22v-26l21-1v-22h-22l-1-2v-14h-3l-2-6-6-1v-1h10l1-1h-24v-30l-8 1-1-2v-20l-15-1z" fill="#037F06"/>
<path transform="translate(358,443)" d="m0 0h17l1 48v24l5 2 6 2 1 5-1 5 4 7v5h50l2-6v-13l3-3h17l1 2v15l-1 2h2v3h35v44l-1 2h-31l-2-2-1-19-1-2h-20l-1 4-1 19h-23l-2-3v-20l-36-1-5-3-1-27-1-5v-30l-1-4h-13v-2h-2l-1 3v-28z" fill="#016008"/>
<path transform="translate(523,116)" d="m0 0 24 1v24h23l1 1v52l27 1 1 22h22v75l3 1h-29v-51l-2 1h-23v-48h-24v-32l-12 1h-10v-22l-1-1z" fill="#027E06"/>
<path transform="translate(350,630)" d="m0 0h10l1 2-9 1v17h33l-4-2 1-7-1-8-1-2h260l1 1v18h2l1-2 1 3-18 1h-277z" fill="#ED3F01"/>
<path transform="translate(419,48)" d="m0 0h1l1 43h23l12 1v-1l40-1 1-2h15v2h19l1-2h24v3l17-1v2h-29l-4-1-4 1 34 1v1l-105 1v21l-1 1-72 1-1 24h-16l1 1h15v21h-16v30h-17v-29l-1-1v-47h-23v-24h24v23l33 1-1-24h28v-24z" fill="#022516"/>
<path transform="translate(335,648)" d="m0 0 10 1 2-1 3 1v3h34l34 1v25h-37v30h-47v-30l-23 1v-29l1 2 17-1 2-2z" fill="#FB9010"/>
<path transform="translate(501,242)" d="m0 0h23v25h-22v3l2-2 21 1-1 43-1 6h-2l1 17 2 1v33h23l-1 23h-21l-2-10h-1l-2-7-5-1h-7l-5 1-1 62h-1v-144h-19v-25h19z" fill="#049205"/>
<path transform="translate(482,164)" d="m0 0h19v104h-19v25h19v77h-1v-26h-17v-50l-3-1h-17l-2-1-1-4v-16l1-4 20-1z" fill="#7DE00F"/>
<path transform="translate(442,418)" d="m0 0h40v25h19v45l-1 3h-35v-22l-1-1h-22z" fill="#12A403"/>
<path transform="translate(595,293)" d="m0 0h29v27h-3l-1 98-2 1h-22l-1-1z" fill="#016008"/>
<path transform="translate(620,324)" d="m0 0h1l1 10h1l1 26v9l1 8-1 3v12l19 1v47h2v3l-21 1-1 4-1 1-1 42h-24v27h-1l-1-26-1-5v-45l-1-18-1-2h2v-3l26-1z" fill="#027F05"/>
<path transform="translate(691,92)" d="m0 0 1 2-1 24-24-1v47l-2 1-19-1-1-22h-25l-1-1v-24h-24v-22l3 1 1-1 20-1v22h48l-1-23h20z" fill="#032415"/>
<path transform="translate(689,163)" d="m0 0h3v31h24l-4 1v2l-17 1v186l-1 40-1 2v39l-1 3-5 2-15 1-2 1-1 20-1 37-1 5-3 1-8-1v-2l7-1 1-2 1-33h1v-28l1-48 6-2h18l1-223-25-1v-29l1-1z" fill="#022A0D"/>
<path transform="translate(418,163)" d="m0 0h24v79l-1 1h-23v-25h-28v-24h28z" fill="#028105"/>
<path transform="translate(335,357)" d="m0 0h22v110h-22l-2-1v-46l1-44v-18z" fill="#028005"/>
<path transform="translate(719,616)" d="m0 0h1v14l-336 1-3 1 1 2 1 8-1 6 3 1h32l15 1v1h-80l-1-3v-15l1-1 8-1-10-1v19l-6 1-9-1-5 2-1 1h-45v-22l1-1h434z" fill="#FC6E06"/>
<path transform="translate(415,344)" d="m0 0h1l1 24 2 1h23v49h-25v-25h-27v-33l1-15z" fill="#12A404"/>
<path transform="translate(523,116)" d="m0 0 24 1v24h23l1 1v52l3 1h-28v-32l-12 1h-10v-22l-1-1z" fill="#027E06"/>
<path transform="translate(688,468)" d="m0 0h4v42l25-1 1 27-2-1-48-1v22h-1l-1-19-1-4 2-4 1-37 1-20 3-2 15-1z" fill="#042618"/>
<path transform="translate(501,443)" d="m0 0h22v25l-19 1 19 1v70l-3 1h-20v-21z" fill="#016008"/>
<path transform="translate(549,515)" d="m0 0h19l1 19v28l-9 1-6-1-6 2-1 20-2 1h-21l-1-45 25 1v-25z" fill="#016009"/>
<path transform="translate(384,630)" d="m0 0h334l1 1v22l-92-1v-1l14-1-1-18-256-1z" fill="#CB2909"/>
<path transform="translate(570,320)" d="m0 0h25v73h-22l-1 4v-4h-2z" fill="#027F06"/>
<path transform="translate(523,141)" d="m0 0h5l-4 1v22l12-1h10v32h24v29h-1v-7h-46v-52h-21v-1h21z" fill="#4AC703"/>
<path transform="translate(389,193)" d="m0 0h1v25h27v1h-27l1 29v21h-34v-72h1v21l29-1 2 1z" fill="#7CE00E"/>
<path transform="translate(344,194)" d="m0 0h13v74h-23v-48-2l-1-22 1-1z" fill="#11A204"/>
<path transform="translate(334,93)" d="m0 0h24v23l32 1-2 12 1 4-5 5-10 3-2 2v14l-1 4-3 1h-9v2h-2v-47h-23z" fill="#022415"/>
<path transform="translate(523,371)" d="m0 0h1l1 21-1 2v49h-23l1-69 13-1 6 2 1 1z" fill="#049205"/>
<path transform="translate(258,606)" d="m0 0h53l1 1v21h-1l-1-20h-1l1 1v19h-25l-1 24h-1v-22h-23v149h23v1h-25z" fill="#FA6403"/>
<path transform="translate(718,712)" d="m0 0h1v64h-2l1 3h-26l-1-3v-48h27z" fill="#CC2909"/>
<path transform="translate(720,826)" d="m0 0h21l1 1v27h-25l1 26h-27v-21l3-5 20-1h3l1-25h2z" fill="#022415"/>
<path transform="translate(391,243)" d="m0 0h26l1 9v28l-1 12-1 1h-25z" fill="#11A304"/>
<path transform="translate(377,561)" d="m0 0 4 1 34 1 3 3v18l1 3h23v-19l1-5h21l2 3 1 19 1 1 30 1v1h-106l-1-22 1-2h-16z" fill="#02410D"/>
<path transform="translate(656,269)" d="m0 0h10l1 29h1v19l-1 3-18 1-2-1-1 2-1 14h-1v-16h-19v-29h-3v-5l2-1v2l5 1 2 4h28l2-3 1-16-6-3z" fill="#027F05"/>
<path transform="translate(285,827)" d="m0 0h3 17l3 4v20l2 2 18 1 5 2v24h-24v-26h-25v-26z" fill="#022415"/>
<path transform="translate(501,345)" d="m0 0h22v23l-2 1h26l-1 23h-21l-2-10h-1l-2-7-5-1h-7l-5 1-1 62h-1z" fill="#027F05"/>
<path transform="translate(671,418)" d="m0 0h20v45l-3 4-17 1-5 1 1-49z" fill="#02410D"/>
<path transform="translate(258,780)" d="m0 0 3 1h20l2 2 1 44-26 1-1-3z" fill="#022416"/>
<path transform="translate(334,653)" d="m0 0h46v25h-46z" fill="#7DE00F"/>
<path transform="translate(718,606)" d="m0 0h48v1l-23 1v22h-23l-1-1h-435l1-4v3l24-1v-18h-25l-1-2h27 3l1 20h401l1-3 1-16z" fill="#EE4001"/>
<path transform="translate(419,93)" d="m0 0h21v1l25 1v21l-1 1h-47v-23z" fill="#048105"/>
<path transform="translate(501,242)" d="m0 0h23v25h-22l-1 26h-19v-25h19z" fill="#022B0D"/>
<path transform="translate(481,271)" d="m0 0h1v22h19v77h-1v-26h-17v-50h-2z" fill="#7ADF10"/>
<path transform="translate(333,466)" d="m0 0 24 1 1 25h2v2h13l2 4v30l1 7-4 1-13-1-2-2v-19l1-2h-2l-1-2-1-13-1-9v-15l-1-3h-17l-1 39h-1z" fill="#01410C"/>
<path transform="translate(358,443)" d="m0 0h17v48h-17l-1 4v-28z" fill="#038005"/>
<path transform="translate(384,652)" d="m0 0h64l7 1-3 2 1 1v8l3 1-1 7-3 1-1-9-5 1 3 8h-2v2h-11l-5 3h-11l-2-1-1-22 1-2h-34z" fill="#FC6C05"/>
<path transform="translate(595,293)" d="m0 0h29v27l-7 2v2l-6-1h-5v-2h-10l-1-1z" fill="#022416"/>
<path transform="translate(335,357)" d="m0 0h22v36h-21l-1-29-1-6z" fill="#11A304"/>
<path transform="translate(689,779)" d="m0 0h3v29h-27v-28z" fill="#CD2A09"/>
<path transform="translate(689,163)" d="m0 0h3v32l-25-1v-29l1-1z" fill="#032416"/>
<path transform="translate(597,390)" d="m0 0h20l3 3v25l-2 1h-22l-1-1v-26z" fill="#022416"/>
<path transform="translate(331,196)" d="m0 0h2v270l-2-1-1-18v-131h-1v-12h2l-1-17v-79l-1-9z" fill="#022B0D"/>
<path transform="translate(360,630)" d="m0 0h24l-3 2 1 2 1 8-1 6 3 1h32l15 1v1h-80l-1-3v-15l1-1 8-1z" fill="#F95901"/>
<path transform="translate(570,490)" d="m0 0 25 1 1 5-1 20-4 2-11 1-4-2v-2l-6 1-1-3v-21z" fill="#022416"/>
<path transform="translate(390,393)" d="m0 0h27v25h-27z" fill="#022416"/>
<path transform="translate(364,293)" d="m0 0h27v25h-27z" fill="#022415"/>
<path transform="translate(390,194)" d="m0 0h28v24h-28z" fill="#022415"/>
<path transform="translate(570,195)" d="m0 0h28l1 21-7 2h-22z" fill="#022415"/>
<path transform="translate(417,392)" d="m0 0h25v26h-25z" fill="#16A603"/>
<path transform="translate(312,678)" d="m0 0h22v30h-2l-1 2-1-9v-14l-6 4 1 9-6 7 1 10-3 1-1 4h-3l-1 14h-1v-16h3l-1-12-2-4v-25z" fill="#FC6B05"/>
<path transform="translate(392,118)" d="m0 0h25v24h-25z" fill="#027E06"/>
<path transform="translate(564,153)" d="m0 0 3 2 1 11 1 28h-16l1-2-1-6-1 7-5-1v-24h2v-5l2 2 1-5 4-1 3 2v15h3v-16z" fill="#016009"/>
<path transform="translate(333,163)" d="m0 0 24 1-2 4-1 24-1 1h-12l-5-1-2 1-1-21z" fill="#07291A"/>
<path transform="translate(259,608)" d="m0 0h1l1 22 1 144 1 3h21l3 5 1 40 1 1h19l1 3v26l-2-1v-20l-2-3h-17-3l-2-3-1-42-1-1h-21v-3l-1-99z" fill="#E44B07"/>
<path transform="translate(644,352)" d="m0 0h1l1 16h21l1 7v18l-4 1h-19l-1 3z" fill="#027F06"/>
<path transform="translate(523,116)" d="m0 0 24 1 1 25-2 1v-2h-23z" fill="#017E06"/>
<path transform="translate(419,369)" d="m0 0h23v23h-25v-20z" fill="#028105"/>
<path transform="translate(570,94)" d="m0 0h22l3 2v21h-25z" fill="#017C06"/>
<path transform="translate(691,92)" d="m0 0 1 2-1 24-24-1-1-24h20z" fill="#0A2B1D"/>
<path transform="translate(283,607)" d="m0 0h27 3l1 20h401l1-3 1-16 2-1v22h-435l1-4v3l24-1v-18h-25z" fill="#AE1A11"/>
<path transform="translate(501,443)" d="m0 0h22v25h-22z" fill="#022416"/>
<path transform="translate(344,194)" d="m0 0h13v24h-23l-1-22 1-1z" fill="#048205"/>
<path transform="translate(419,491)" d="m0 0h22l1 1v23h-23z" fill="#022416"/>
<path transform="translate(334,93)" d="m0 0h24v26l-1-2h-23z" fill="#072819"/>
<path transform="translate(284,171)" d="m0 0 2 1 22 1v21h22v1l-45 1-1-3z" fill="#102B18"/>
<path transform="translate(741,172)" d="m0 0h1l1 23-3 1h-14l-9-1v-16l1-6z" fill="#0B2918"/>
<path transform="translate(283,608)" d="m0 0h26l1 1v19h-25l-2 1z" fill="#EE4001"/>
<path transform="translate(668,880)" d="m0 0h23v23l-24-1-1-4 1-17z" fill="#022416"/>
<path transform="translate(501,345)" d="m0 0h22v23l-2 1h-20z" fill="#022415"/>
<path transform="translate(442,95)" d="m0 0h23v21l-1 1h-23v-21z" fill="#10A204"/>
<path transform="translate(618,94)" d="m0 0h1v23h-24v-22l3 1 1-1z" fill="#022415"/>
<path transform="translate(501,141)" d="m0 0h22v23h-22z" fill="#022416"/>
<path transform="translate(528,141)" d="m0 0h18v22l-12 1h-10v-22z" fill="#11A304"/>
<path transform="translate(334,880)" d="m0 0h20l2 3 1 19h-24z" fill="#022416"/>
<path transform="translate(418,163)" d="m0 0h24v17l-6 2-2-1v2l-4 1-8-2-1 2-1 1-1 9h-1z" fill="#016008"/>
<path transform="translate(382,491)" d="m0 0h34l-1 4-5 3v15l-10-1 3 5-1 7-4-1-2-3v-9l1-6h-2l-3 6-4-1-1-4 4-5 1-7h-8l-1 2h-2v-2l-2-1z" fill="#039205"/>
<path transform="translate(373,164)" d="m0 0h1l1 30h-17v-29z" fill="#027E06"/>
<path transform="translate(792,583)" d="m0 0h1v17h2v181h-1l-1-61h-1z" fill="#385610"/>
<path transform="translate(595,293)" d="m0 0h29v27l-7 2v2l-6-1h-5v-2h-10l-1-1zm4 2-1 1-1 7 1 16h3l1-11 2 1 2 7h2v3h8l4-10v-11l-2-2-8-1z" fill="#022D0D"/>
<path transform="translate(510,244)" d="m0 0 11 1 1 8v9l-2 3-12-1-4 1-1-1v-17l3-2z" fill="#022416"/>
<path transform="translate(376,143)" d="m0 0h15v21h-17v-20z" fill="#059504"/>
<path transform="translate(416,94)" d="m0 0h1v23l-25 1-1 24h-16l-1 22h-15v-2l12-1v-19l5-3 8-2 4-4-1-5 1-9h2l2-4 4-1h12l6-2v-15z" fill="#022E0D"/>
<path transform="translate(418,196)" d="m0 0 2 3 2-2h7l2 2 3-2h7l-1 12-10 3 1 3h-10v2l-3 1z" fill="#4CC803"/>
<path transform="translate(497,88)" d="m0 0h15v2h19l1-2h24v3l17-1v2h-29l-4-1-4 1 34 1v1h-105v-1l-9-1v-1l40-1z" fill="#013D0B"/>
<path transform="translate(597,390)" d="m0 0h20l3 3v25l-2 1h-22l-1-1v-26zm8 5-7 2-1 2v16l1 1 9 1 10-1 1-1v-17l-1-3z" fill="#022D0D"/>
<path transform="translate(570,490)" d="m0 0 25 1 1 5-1 20-4 2-11 1-4-2v-2l-6 1-1-3v-21zm4 3-3 5v11l1 3 8 1h11l3-4-1-12-2-2-13-1z" fill="#022B0D"/>
<path transform="translate(485,271)" d="m0 0h15l-1 9 1 10-6 1v-2l-5 2h-4l-1-17z" fill="#022415"/>
<path transform="translate(441,180)" d="m0 0h1v14h-23v-9l2-3 13 1v-2z" fill="#027F06"/>
<path transform="translate(259,608)" d="m0 0h1l1 22 1 144 1 3h21v3l-24-1-1-99z" fill="#CB2909"/>
<path transform="translate(418,194)" d="m0 0h24v23l-2 1h-21l2-1v-2l6-1h3v-2l6-3h4v-10l1-2-7 1-4 2-1-2h-5l-2 2-1-1-1 17h-1z" fill="#15A603"/>
<path transform="translate(419,491)" d="m0 0h22l1 1v23h-23zm13 2-8 1-2 3v11l3 5h12l2-8v-11z" fill="#022C0D"/>
<path transform="translate(312,629)" d="m0 0h56v1h-18l-2 10-3 3-1-2h-2v-3h-4l1 5-4 1-4-5-7-1-4 1 2-4h10l6-1 4 1 3-3-11 1-8-1v-2h-14z" fill="#FB9111"/>
<path transform="translate(364,293)" d="m0 0h27v25h-27zm20 2-19 1 1 12-1 5 4 4 15-1v-2h4l-1-11 2-3v-4z" fill="#022D0D"/>
<path transform="translate(688,466)" d="m0 0 4 2-5 2-15 1-2 1-1 20-1 37-1 5-3 1-8-1v-2l7-1 1-2 1-33h1v-25l2-3 3-1z" fill="#022C0D"/>
<path transform="translate(390,393)" d="m0 0h27v25h-27zm3 2-2 5v15l3 1 3-1 3 2h7l4-1 3-10v-7l1-2-4-2z" fill="#022B0D"/>
<path transform="translate(333,466)" d="m0 0 24 1v26l-1 17h-1l-1-13-1-9v-15l-1-3h-17l-1 39h-1z" fill="#323D0B"/>
<path transform="translate(501,443)" d="m0 0h22v25h-22zm3 2-1 1v17l2 2h14l2-2v-16l-1-1z" fill="#022B0D"/>
<path transform="translate(718,606)" d="m0 0h48v1l-23 1v22h-23zm7 2-3 1-1 5v13h18l2-3 1 2v-17l-6-1z" fill="#DE4307"/>
<path transform="translate(501,345)" d="m0 0h22v23l-2 1h-20zm6 2-3 2v18h16l1-4v-12l-1-3-5-1z" fill="#022D0D"/>
<path transform="translate(570,195)" d="m0 0h28l1 21-7 2h-22zm6 1-4 2v17l4 1h16l3-2 1-8-1-4 1-5-4-1z" fill="#022C0D"/>
<path transform="translate(501,141)" d="m0 0h22v23h-22zm2 3v16l2 2h15v-17l-1-1z" fill="#012D0D"/>
<path transform="translate(390,194)" d="m0 0h28v24h-28v-20l2-1 1 17h22v-16l1-2-26-1z" fill="#02470A"/>
<path transform="translate(503,268)" d="m0 0 22 1-4 2-7 1-3 1-1 2-1 12h-4v10l-1-4h-3v-23z" fill="#027F06"/>
<path transform="translate(331,196)" d="m0 0h2v75h-1l-1-5-1-26v-32l-1-9z" fill="#01350C"/>
<path transform="translate(501,294)" d="m0 0h2v47h18v2l3 1v25l-3-1h2v-23h-22z" fill="#027C06"/>
<path transform="translate(501,164)" d="m0 0 22 1-1 3h-10v2h-2v-2h-2l-1 7h-2l-1 2-1-3-1 67 2 1h-3z" fill="#038705"/>
<path transform="translate(501,242)" d="m0 0h23v25h-1l-2-14v-8h-11l-6 2v9l-1 9-2-1z" fill="#022A0D"/>
<path transform="translate(538,90)" d="m0 0h15v1l22 1 2-1 15 1v2h-22l-78-1v-1l44-1z" fill="#022415"/>
<path transform="translate(503,424)" d="m0 0h1l1 14h14l4-2 1 1v6h-23v-6h2z" fill="#0E8B05"/>
<path transform="translate(355,165)" d="m0 0h2v29l-13 1h-10l1-10h1v7h17l1-26z" fill="#022F0D"/>
<path transform="translate(376,143)" d="m0 0h15v21h-6v-2h4v-18l-10 1-1 19h-4v-20z" fill="#027F05"/>
<path transform="translate(357,534)" d="m0 0 15 1 4 1 1 27-3 1-1-20-1-4-11-2-4-2z" fill="#022B0D"/>
<path transform="translate(620,118)" d="m0 0h2v17l2 3h18l3 1v3h-25l-1-1z" fill="#02300D"/>
<path transform="translate(418,194)" d="m0 0h24v5l-1-2-7 1-4 2-1-2h-5l-2 2-1-1-1 17h-1z" fill="#12A404"/>
<path transform="translate(312,629)" d="m0 0h56v1h-18v2h-3l-1 2-1-1h-11l-8-1v-2h-14z" fill="#BDB813"/>
<path transform="translate(350,630)" d="m0 0h10l1 2-9 1v17l64 1v1h-66z" fill="#CD2A09"/>
<path transform="translate(570,490)" d="m0 0 25 1 1 5-1 9-2-1-1-7-1-1-13-1-2-1v-2h-6z" fill="#02300D"/>
<path transform="translate(656,269)" d="m0 0h10v23h-7l2-3 1-16-6-3z" fill="#049105"/>
<path transform="translate(645,142)" d="m0 0 3 2 1 16 15 1v2l2 1h-20z" fill="#022D0D"/>
<path transform="translate(374,140)" d="m0 0 15 1v1h-14l-1 22h-15v-2l12-1v-19z" fill="#022F0C"/>
<path transform="translate(595,95)" d="m0 0 2 1 1 18h18l3 3h-24z" fill="#022B0D"/>
<path transform="translate(482,268)" d="m0 0h14l-1 3h-10l1 20 1 2h-5z" fill="#012C0C"/>
<path transform="translate(570,195)" d="m0 0h5v2l-2 1-1 17 3-1 1 1 15 1 1 2h-22z" fill="#02300D"/>
<path transform="translate(376,564)" d="m0 0h16v21h-1v-6h-2l-3-11-10-2z" fill="#022B0D"/>
<path transform="translate(388,119)" d="m0 0h2v23l-15-1 1-2 8-2 4-4-1-5z" fill="#022B0D"/>
<path transform="translate(458,588)" d="m0 0h45l-3 3-3 1-1-1-19-1h-10l-9-1z" fill="#022B0D"/>
<path transform="translate(667,165)" d="m0 0 3 3 1 23 1 1h16l2 2h-23z" fill="#022B0D"/>
<path transform="translate(739,624)" d="m0 0 4 1v5h-23v-3l19-1z" fill="#D52F06"/>
<path transform="translate(259,780)" d="m0 0h25v45h-1l-1-42-1-1h-21z" fill="#A91813"/>
<path transform="translate(420,88)" d="m0 0 1 3h23l21 2v1h-25l-20-1z" fill="#01350C"/>
<path transform="translate(355,510)" d="m0 0 1 2h2v16l-1 5-3-4v-18z" fill="#022B0D"/>
<path transform="translate(692,194)" d="m0 0h24l-4 1v2l-18 1-2-1z" fill="#5D400D"/>
<path transform="translate(602,308)" d="m0 0 3 1 1 7h2v3h6v1h-15l2-1z" fill="#022B0D"/>
<path transform="translate(443,587)" d="m0 0 4 1-3 2-4 2-24-3v-1z" fill="#022B0D"/>
<path transform="translate(597,390)" d="m0 0h20l2 3h-24z" fill="#02410D"/>
<path transform="translate(284,826)" d="m0 0h25v26l-2-1v-20l-2-3h-17-3z" fill="#A91813"/>
<path transform="translate(331,196)" d="m0 0h2v24l-2-2-2-19z" fill="#022B0D"/>
<path transform="translate(333,852)" d="m0 0h1v27h-1v-23l-5-1-18-1v-1z" fill="#A91813"/>
<path transform="translate(331,266)" d="m0 0h1l1 5v16h-3v-20z" fill="#02290F"/>
<path transform="translate(522,242)" d="m0 0h2v25h-1l-2-14v-10z" fill="#01440B"/>
<path transform="translate(644,534)" d="m0 0 3 1h-2l-1 17v10l-4 1 1-5 1-22z" fill="#022B0D"/>
<path transform="translate(520,587)" d="m0 0 28 1-3 2-18 1-7-2z" fill="#022B0D"/>
<path transform="translate(311,629)" d="m0 0 15 1-6 3h-8v-1l-23-1v-1z" fill="#FB9111"/>
<path transform="translate(358,491)" d="m0 0h17v7l-2-4h-13v-2z" fill="#015E09"/>
<path transform="translate(418,194)" d="m0 0h22v1l-16 1-3 3-1 17h-1z" fill="#27B103"/>
<path transform="translate(389,143)" d="m0 0h2v21h-6v-2h4z" fill="#038905"/>
<path transform="translate(311,784)" d="m0 0 3 1 1 15-4-1z" fill="#F85701"/>
<path transform="translate(623,562)" d="m0 0h16v2l-13 1-3 3-2 3-1-7z" fill="#022B0D"/>
<path transform="translate(263,777)" d="m0 0h21v3l-23-1z" fill="#CD2A09"/>
<path transform="translate(309,757)" d="m0 0 2 3v19l-2 1-1-6z" fill="#EE4001"/>
<path transform="translate(596,320)" d="m0 0h22l-1 4-6-1h-5v-2h-10z" fill="#02410D"/>
<path transform="translate(577,91)" d="m0 0 15 1v2h-21l4-2z" fill="#02350D"/>
<path transform="translate(499,245)" d="m0 0h1v22h-7l3-2h2v-17z" fill="#4BC703"/>
<path transform="translate(350,630)" d="m0 0h10l1 2-9 1v16l-2 1z" fill="#E53A03"/>
<path transform="translate(506,165)" d="m0 0h17l-1 3h-10l-6-1z" fill="#038905"/>
<path transform="translate(643,194)" d="m0 0h1l-1 9h-3l-2-6-6-1v-1h10z" fill="#049304"/>
<path transform="translate(623,285)" d="m0 0 1 2 5 1v5h-4v-2h-3v-5z" fill="#049005"/>
<path transform="translate(331,696)" d="m0 0h2l1 4v8h-2l-1 2-1-9z" fill="#FD6D06"/>
<path transform="translate(286,822)" d="m0 0 3 1h19v3l-23-1z" fill="#C92809"/>
<path transform="translate(667,527)" d="m0 0 1 2-1 5-3 1-8-1v-2l7-1z" fill="#022B0D"/>
<path transform="translate(335,185)" d="m0 0h1v7l8 1v2h-10z" fill="#02320C"/>
<path transform="translate(496,268)" d="m0 0h5v5l-1-2-15-1v-1z" fill="#022810"/>
<path transform="translate(334,708)" d="m0 0 9 1v3h-7l-3-2z" fill="#FC6C05"/>
<path transform="translate(414,502)" d="m0 0h1v11l-3-1v-8h2z" fill="#049305"/>
<path transform="translate(328,681)" d="m0 0 3 3-3 2-5-1h-3l1-3z" fill="#FA5A01"/>
</svg>
