<?xml version="1.0" encoding="UTF-8"?>
<svg version="1.1" viewBox="0 0 1024 1024" width="96" height="96" xmlns="http://www.w3.org/2000/svg">
<path transform="translate(396,45)" d="m0 0h22v27l2-1h150v-26l22 1v51h25v23h39v-23l23-1v25h-23v48h24v36h22v79l4-1h19l1 3v22l-1 1h-16l-7-1v88l2-1h21l1 2v23l-1 1h-45v49l2-1h21l1 30-2 1-46-1v64h144v222h-25v29l-23-1 1 25-1 1h-22l-3-1v28l-24-1 1 25h-23l-2-1v27h-338v-27l-9 1h-16v-25h-29v-26l-23 1-1-7 1-20h-23l1-28-28 1v-223h128v-33h-25l1-60h-14l1 11v18h-21v-30h20v-48h-40v-26h23v-86h-24v-26h24v-78h16v-25l15-1 1-32h23v-26h29l-1-24 2-1 23 1v-51z" fill="#02A505"/>
<path transform="translate(241,597)" d="m0 0h49v22h436v-21l1-1h47l1 5-1 155h-23v28l-1 1h-23l-1 26h-23v27l-46 1v24l-24 1-1 24h-288l-2-2h2l-1-7h-3v-15h-23l-1-1-1-25-28-1-1-24-1-1-21-1-1-1v-24h-20l-3-3z" fill="#EA3903"/>
<path transform="translate(396,45)" d="m0 0h22v27l2-1h150v-26l22 1v51h25v23h39v-23l23-1v25h-23v48h24v36h22v79l4-1h19l1 3v22l-1 1h-16l-7-1v88l2-1h21l1 2v23l-1 1h-45v49l2-1h21l1 30-2 1-46-1v64h144v222h-25v29l-23-1 1 25-1 1h-22l-3-1v28l-24-1 1 25h-23l-2-1v27h-338v-27l-9 1h-16v-25h-29v-26l-23 1-1-7 1-20h-23l1-27 21 1 1 24 21 1 2 2v24h28l1 1 1 25 23 1v15h3l1 8 288 1v-24l1-1h24l-1-3v-21l1-1h46v-27h23v-26l2-1h22l1-28h23v-160l-47 1-1 21-2 1h-428l-6-1v-22h-49v187l-1 1-26 1v-223h128v-33h-25l1-60h-14l1 11v18h-21v-30h20v-48h-40v-26h23v-86h-24v-26h24v-78h16v-25l15-1 1-32h24l-1 33-22 1-1 1v238l25 1-2 1 1 13v29l-1 65h52l1-56h23l1 88 26 1 4 1h87l8-2v-48l1-1 12-1 5-1 3 2 1 15 3 3 25 1v-21l4-2h12l8 1 1-59h3v3l9-2 9-1 2-3 1-13v-11h-1v-58l13-1-1-104-12-1-1-89-20-1-3-1-1-8-1-15h-24l-1-7 1-16h-17l-6-2-1-4v-15l-19-1-7-1v-1h-146v23h-25l-1-24 2-1 23 1v-51z" fill="#042914"/>
<path transform="translate(316,639)" d="m0 0h211l176 1v1h-47v54l-24-1v32l-2 1h-19v29l-1 1h-20l-1 28h-21v25l-250 1-30 1v-2h28v-54h-26l-1-3-1-17 1-32v-62l1-2h25z" fill="#FC5001"/>
<path transform="translate(419,97)" d="m0 0h120v1h-22v22h25l1 2-1 22-23 1h-26v52h-24v61h-26l1 26v137h-27v-28h-22v136l-1 1h-50l-2-1v-107l-23-2-1-74v-164l2-2h22v-59h54v-23z" fill="#018B03"/>
<path transform="translate(544,196)" d="m0 0h48l1 1v32h26l1 1v77l-3 4v106l-2 3h-7v2h-6-1l-8 1-1 2v19l1 4v58l10-1 7 1 6-2 1-5v-19l1-31 5-1 17 1 2-26 2-4v15l-1 13-3 4-18 2-2-2-1 56-1 2h-20l-4 1v21h-25l-4-4-1-15-4-1-3 1-12 1v48l-3 2-13 1h-80l-4-1-26-1-1-1v-52l4-2h21l1 1 1 21 23 1 1-80v-2-112h28l23 1-1 7v9l-1 9-1 2h-23v85 2 79l24-1v-52l1-5h22l1-1v-77l1-1h26v-163h6l-7-1h-24l-1-1-1-29h2z" fill="#018B03"/>
<path transform="translate(396,45)" d="m0 0h22v27l2-1h150v-26l22 1v75h24l1 1v22h25l1 1v23h12l1 2v59h24v164h-25v104h-13v32l-1 1-23 1v31l-1 1-48 1-25 1-1 3 1 24 1 2-2 1h-23l-1-3v-16l1-12-47 1 1 2 6 1v2h8l2 1 1 6v14l-2 2-5-1-1-2v-14-3l-8 1 3 10-2 8-4 3-27 1-3-2-1-3v-18l1-6-23-1 3 6-2 22-1 1h-24v-32l-23 1-1-1v-33l23-1 1-56h23l1 88 26 1 4 1h87l8-2v-48l1-1 12-1 5-1 3 2 1 15 3 3 25 1v-21l4-2h12l8 1 1-59h3v3l9-2 9-1 2-3 1-13v-11h-1v-58l13-1-1-104-12-1-1-89-20-1-3-1-1-8-1-15h-24l-1-7 1-16h-17l-6-2-1-4v-15l-19-1-7-1v-1h-146v23h-25l-1-24 2-1 23 1v-51z" fill="#025D1D"/>
<path transform="translate(289,597)" d="m0 0h1v22h436v-21l1-1h47l1 5-1 155h-23v28l-1 1h-23l-1 26h-23v27l-46 1v24l-24 1-1 24h-288l-2-2h2l-1-7h-3v-15h-23l-1-1-1-26h27l5 1-3 1-1 5h-1l-1 19h249v-25l1-1h20v-26l2 1v24h14l5-1 23-1 1-24 43-1 1-3h1l1-49 1-2h24l-1-117h-31l-4-1-1 1h-155v-1h121v-14l-30-1-48-1-289-1z" fill="#AE0C0E"/>
<path transform="translate(774,597)" d="m0 0h2v188l-1 29-23-1 1 25-1 1h-22l-3-1v28l-24-1 1 25h-23l-2-1v27h-338v-27l-9 1h-16v-25h-29v-26l-23 1-1-7 1-20h-23l1-27 21 1 1 24 21 1 2 2v24h28l1 1 1 25 23 1v15h3l1 8 288 1v-24l1-1h24l-1-3v-21l1-1h46v-27h23v-26l2-1h22l1-28h23z" fill="#97050D"/>
<path transform="translate(519,144)" d="m0 0h24v53h-49v140l-25-1 1 112 5 1v1h-6v78l-1 2h-24l-1-22h-23l-2 1v-36h-24l1-80h22v28l26-1v-162h26v-61h24v-52z" fill="#02A505"/>
<path transform="translate(488,97)" d="m0 0h51v1h-22v22h25l1 2-1 22-23 1h-26v52h-24v61h-26l1 26v137h-27v-28h-22v-164h23v-31h-22v-1l23-1h23l1-51h25v-23h25v-24h-5z" fill="#27CC04"/>
<path transform="translate(544,196)" d="m0 0h48l1 1v32h26l1 1v77l-3 4v106l-2 3h-7v2h-6-1l-8 1-1 2v19l1 4v58l10-1 7 1 6-2 1-5v-19l1-31 5-1 17 1 2-26 2-4v15l-1 13-3 4-18 2-2-2-1 56-1 2h-20l-4 1v21h-25l-4-4-1-15-4-1-3 1-12 1v48l-3 2-13 1-1-2 13-2v-46l2-6 3-1h23l-1-18 1-38 2-4v-12l1-4v-17l-1-12-1-5-1-61v-106h6l-7-1h-24l-1-1-1-29h2z" fill="#016A08"/>
<path transform="translate(789,45)" d="m0 0h22v24l22-1v47h23v67h-23v26h-67v-26h-23v-67h23v-46h23z" fill="#02BFEE"/>
<path transform="translate(824,244)" d="m0 0h23v23h23l-1 40 23-1v68h-23l1 24-3 1h-65v-25h-23v-67l4-1 19 1v-41h21z" fill="#02BFEE"/>
<path transform="translate(396,98)" d="m0 0h47v45h-24v25h-24v29h-25v32h-28v108l-2 1h-19v82h-2l-1-74v-164l2-2h22v-59h54z" fill="#46D904"/>
<path transform="translate(241,597)" d="m0 0h48v23h-9v-1h7v-19h-21l-1 40h24l1 72-1 29 1 15h26l1 12v32l-1 10h-28l1 1h25l2 1v25h-29l-1-23-1-1-21-1-1-1v-24h-20l-3-3z" fill="#EA3903"/>
<path transform="translate(654,394)" d="m0 0h1v103h-13v32l-1 1-23 1v31l-1 1-48 1-25 1-1 3 1 24 1 2-2 1h-23l-1-3v-16l1-12-47 1 1 2 6 1v2h8l2 1 1 6v14l-2 2-5-1-1-2v-14-3l-8 1 3 10-2 8-4 3-27 1-3-2-1-3v-18l1-6-23-1 3 6-2 22-1 1h-24v-32l-23 1-1-1v-33l23-1 1-56h23l1 88 26 1 4 1h87l8-2v-48l1-1 12-1 5-1 3 2 1 15 3 3 25 1v-21l4-2h12l8 1 1-59h1l1 6h2l2 4 13 3-1 4h-10l2 7 3 1v-2l5-1 2 15 4 1v-23l5-1v31h-8l1 1 12-1-1-4v-28l1-1z" fill="#024711"/>
<path transform="translate(319,147)" d="m0 0h24l-1 33-22 1-1 1v280l-3 6 2 1h-14v-48h-40v-26h23v-86h-24v-26h24v-78h16v-25l15-1z" fill="#042915"/>
<path transform="translate(352,228)" d="m0 0h16l2 1v58l-1 19 7 1h8l5 1v1h-17l-2-1v124l1 17-1 23v24l-1 1h-26l-1-33v-42l-21-2-1-1v-81l1-1h20l1-108z" fill="#01B90E"/>
<path transform="translate(702,864)" d="m0 0h1l1 26h-23l-2-1v27h-338v-26l336-1 1-24z" fill="#022815"/>
<path transform="translate(592,145)" d="m0 0h24l2 15v8l23 1 1 1v89h12l1 1v104l-2 1h-11v70l-1 12-1 2h-21l-1 31v21l-3 5-7 1-8-1h-7l-1-58-1-10v-13l2-3 6-1v-1h5l4 2v-2l7-1 1-2v-106l3-4 1-26 21-1-1-83-19 1-4-2v-27h-23l-2-1-1-16z" fill="#018B03"/>
<path transform="translate(315,838)" d="m0 0h27l5 1-3 1-1 5h-1l-1 19h291v-25h25v25l-24 1-1 24h-288l-2-2h2l-1-7h-3v-15h-23l-1-1z" fill="#AD0B0E"/>
<path transform="translate(539,97)" d="m0 0 4 1 6 1 19 1 1 1v17l1 2 8 1 14 1v46l25 1 1 7v20l5 1 18-1 1 84v1h-22l-1-51-26-1-1-32-49-1-1-52v-23h-22l-3-1v-22z" fill="#02A505"/>
<path transform="translate(266,599)" d="m0 0 21 1v19l2 1 289 1 48 1 28 1 2 1 1 10 1 2h-2v2h34l1-1h5v1l7 1v1h-285l-102-1v26h-1v-25h-25l-1 2v-2h-24v-40z" fill="#E93803"/>
<path transform="translate(396,45)" d="m0 0h22v27l2-1h150v-26l22 1v51l-145 1h-51v23h-25l-1-24 2-1 23 1v-51z" fill="#082B14"/>
<path transform="translate(544,196)" d="m0 0h48l1 1v32h26l1 1v51h-27l2 47 1 1v7l-1 5 1 7-2 4v13h-24l-1-29v-106h6l-7-1h-24l-1-1-1-29h2z" fill="#018A03"/>
<path transform="translate(488,97)" d="m0 0h51v1h-22v22h25l1 2-1 22-23 1h-26v52l-24 1-1 30h-24l-1-3v-80h25v-23h25v-24h-5z" fill="#48DA04"/>
<path transform="translate(766,69)" d="m0 0h23v46l-22 1v66h42v1l-19 1-1 22h22l-1-6v-10l1-9h22l-1-21h2l-1-26v-19h23v67h-23v26h-67v-26h-23v-67h23z" fill="#062854"/>
<path transform="translate(654,394)" d="m0 0h1v103h-13v32l-1 1-23 1v31l-1 1h-75l2-3v-47l1-1 12-1 5-1 3 2 1 15 3 3 25 1v-21l4-2h12l8 1 1-59h1l1 6h2l2 4 13 3-1 4h-10l2 7 3 1v-2l5-1 2 15 4 1v-23l5-1v31h-8l1 1 12-1-1-4v-28l1-1z" fill="#02451C"/>
<path transform="translate(780,306)" d="m0 0 22 1 1 65h66v-65l23-1v68h-23l1 24-3 1h-65v-25h-23v-67z" fill="#052752"/>
<path transform="translate(519,144)" d="m0 0h24v53h-49v61l-1 1h-24v23h-25v-24h25v-61h24v-52z" fill="#018B03"/>
<path transform="translate(316,639)" d="m0 0h111l3 2-1 2 2 6v8l2-1 2-8 8-2h10l9 1 4 1v6l-4 9-9 2-21 1-7 1-4-1-3 1-40 2-1 1h-8l-2-3-2 1-28-1-42 1-5-2-1-10v-14l1-2h25z" fill="#FE7303"/>
<path transform="translate(370,393)" d="m0 0h25v136l-1 1h-50l-2-1v-57h1v25l26-1v-32l1-16-1-26v-28z" fill="#018B03"/>
<path transform="translate(469,336)" d="m0 0h28l23 1-1 7v9l-1 9-1 2h-23v85l-1 1v29h-23l-1-4v-25-2z" fill="#018B03"/>
<path transform="translate(494,197)" d="m0 0h35v1h-11v138l-6 1h-18z" fill="#27CC04"/>
<path transform="translate(266,599)" d="m0 0 21 1v19l2 1 128 1v17l-101 1v26h-1v-25h-25l-1 2v-2h-24v-40z" fill="#FB4F01"/>
<path transform="translate(395,473)" d="m0 0h23l1 88 26 1v1l-73 1-1-1v-33l23-1z" fill="#016909"/>
<path transform="translate(727,639)" d="m0 0h24v117l-1 1h-47v-1h24z" fill="#CB1B0C"/>
<path transform="translate(620,308)" d="m0 0h22v116l-23-1v-71z" fill="#02A505"/>
<path transform="translate(242,786)" d="m0 0 21 1 1 24 21 1 2 2v24h28l1 1 1 25 23 1v24l-8 1h-16v-25h-29v-26l-23 1-1-7 1-20h-23z" fill="#042815"/>
<path transform="translate(678,96)" d="m0 0h1v25h-23v48l-13-1-1-23-25-1-1-22-24-1v-24h25v23h39v-23z" fill="#072914"/>
<path transform="translate(824,244)" d="m0 0h23v23h23l-1 40h-22v-39h-23v39h-22v-41h21z" fill="#03264F"/>
<path transform="translate(539,97)" d="m0 0 4 1 6 1 19 1 1 1v17l1 2 8 1 14 1v23h-48l-2-1v-23h-22l-3-1v-22z" fill="#018B03"/>
<path transform="translate(393,307)" d="m0 0h2v86h-25l-1-31v-49l1-5h22z" fill="#018C03"/>
<path transform="translate(619,450)" d="m0 0h1l1 6h2l2 4 13 3-1 4h-10l2 7 3 1v-2l5-1 2 15 4 1v-23l5-1v31h-8v2h-15l-3-1 1 12-3 1-1 3h-11v8l-2 9-4 1 1 5 2-3h3v4h2v-5l-2-1 5-1 3 2v5h-3l1 6-2 17h-20l-1-6 2-5-2-6-13 1-3 2-1 7h7l1 3-5 2-2 4-5 1-1-2v-25l1-4h24v-21l4-2h12l8 1z" fill="#024811"/>
<path transform="translate(337,666)" d="m0 0 28 1h3l1 3 8-1 1-1 17-1v27l-5 1h-62l-11-1-1-1v-23l-2-2h23z" fill="#FD6204"/>
<path transform="translate(833,115)" d="m0 0h23v67h-23l-1 24h-21l-1-6v-10l1-9h22l-1-21h2l-1-26z" fill="#032652"/>
<path transform="translate(594,423)" d="m0 0h24v78l-3 5-7 1-8-1h-7v-82z" fill="#03A604"/>
<path transform="translate(543,97)" d="m0 0h49v24h24l1 1v22h25l1 1 1 25 1 5v41l-1 9h-1l-1-8-1-47-20-1-3-1-1-8-1-15h-24l-1-7 1-16h-17l-6-2-1-4v-15l-19-1-7-1z" fill="#016909"/>
<path transform="translate(318,349)" d="m0 0h1v71l25 1-2 1 1 13v29l-1 5-23 1v60l-2-1 1-59h-14l1 11v18h-21v-30l32-1 1-4 1-6z" fill="#018B04"/>
<path transform="translate(443,258)" d="m0 0h1l1 22 1 2h23v-23l25-1v73l-1 4h-24v-51l-26-1z" fill="#018B03"/>
<path transform="translate(419,97)" d="m0 0h69l5 1v24h-25v23h-48v23h-1v-25h24v-45h-24z" fill="#01A204"/>
<path transform="translate(420,145)" d="m0 0h23l1 3-1 49h-46l-2-1v-28h25z" fill="#03A604"/>
<path transform="translate(315,838)" d="m0 0h27l5 1-3 1-1 5h-1l-1 19h291v-25h25v25l-24 1-1 1h-291v14h-1v-15h-23l-1-1z" fill="#A1080E"/>
<path transform="translate(656,811)" d="m0 0h24v25l-3 1h3v2h-48v25h-42v-25l1-1h20v-26l2 1v24h14l5-1 23-1z" fill="#CC1C0B"/>
<path transform="translate(789,45)" d="m0 0h22v24l22-1v47h-22l-1-45-21-1z" fill="#082750"/>
<path transform="translate(578,621)" d="m0 0h148v18h-31l-4-1-1 1h-155v-1h121v-14l-30-1-48-1z" fill="#CB1B0C"/>
<path transform="translate(643,419)" d="m0 0h1v15l-1 13-3 4-18 2-2-2-1 56-1 2h-20l-4 1v21h-25l-4-4-1-15-4-1-3 1-12 1v48l-3 2-13 1-1-2 13-2v-46l2-6 3-1h23l-1-18 1-38h1l1 29 1 1 1 18 1 5 7-1h6l3-1 1-20 2-1v25l10-1 7 1 6-2 1-5v-19l1-31 5-1 17 1 2-26z" fill="#016909"/>
<path transform="translate(494,365)" d="m0 0h24l1 2-1 55-1 1h-23z" fill="#27CC04"/>
<path transform="translate(472,227)" d="m0 0h20l2 2v29l-1 1h-24v23h-25v-24h25v-29z" fill="#022814"/>
<path transform="translate(469,336)" d="m0 0h28l23 1-1 7v9l-1 9-1 2-25 1-22-1-1-1z" fill="#018903"/>
<path transform="translate(592,145)" d="m0 0h24l2 15v8l23 1 1 1v89h-1l-1-62-19 1-4-2v-27h-23l-2-1-1-16z" fill="#018B03"/>
<path transform="translate(543,144)" d="m0 0h26v51h23v1h-49z" fill="#27CC04"/>
<path transform="translate(752,786)" d="m0 0h23v28l-23-1 1 25-1 1h-22l-3-1v-25l1-1 23-1v-24z" fill="#032916"/>
<path transform="translate(369,447)" d="m0 0 2 2-1 23v24l-1 1h-26l-1-33v-12l2-2h25z" fill="#01A505"/>
<path transform="translate(560,510)" d="m0 0 5 2 1 15 4 4v32h-28l2-3v-47l1-1 12-1z" fill="#025E1D"/>
<path transform="translate(317,640)" d="m0 0h46v26l-1 1h-42l-3-1z" fill="#C0F1BA"/>
<path transform="translate(596,230)" d="m0 0h22l-2 2 1 1v28l-1 15 4 4v1h-27v27h-1v-28l2-4 1-10-1-8 1-18-1-5 3-3z" fill="#016909"/>
<path transform="translate(266,599)" d="m0 0 21 1v19l2 1 128 1v1l-70 1-58-1v18h-24v-40z" fill="#FE7403"/>
<path transform="translate(618,308)" d="m0 0h2v109l-1 6h21l2 1v11l-1 12-1 2h-22v-26l-24 1-1 24-2-4v-19l2-3 6-1v-1h5l4 2v-2l7-1 1-2v-106z" fill="#018B03"/>
<path transform="translate(342,472)" d="m0 0h1v25h28v33h-27l-2-1z" fill="#025E1D"/>
<path transform="translate(824,244)" d="m0 0h23l-2 2h-20v21l-1 40h-22v-41h21z" fill="#072A52"/>
<path transform="translate(372,639)" d="m0 0h55l3 2-1 2 2 6v8l2-1 2-8 8-2h10l9 1 4 1v6l-4 9-9 2-21 1-7 1-4-1h-3l-1-19v-6l-45-1z" fill="#FD6203"/>
<path transform="translate(241,597)" d="m0 0h1v160h22l1 11v18l-1 25h-1v-24h-20l-3-3z" fill="#CA1B0C"/>
<path transform="translate(472,529)" d="m0 0 21 1v31l30 1v1l-55 1h-19v-1l20-1v-31z" fill="#016909"/>
<path transform="translate(544,196)" d="m0 0h25l-1 33h-24l-1-1-1-29h2z" fill="#018B03"/>
<path transform="translate(395,473)" d="m0 0h23v34l-20 1-3-2z" fill="#022815"/>
<path transform="translate(569,196)" d="m0 0h23l1 1v27l-1 5h-23z" fill="#022814"/>
<path transform="translate(469,197)" d="m0 0h25v32l-7-1h-15l-3 1z" fill="#018E03"/>
<path transform="translate(285,811)" d="m0 0h29l2 1v25h-29l-1-23z" fill="#CA1B0C"/>
<path transform="translate(387,531)" d="m0 0h8l1 28-1 4-23 1-1-1v-31h12z" fill="#024811"/>
<path transform="translate(319,147)" d="m0 0h24l-1 33-23-1z" fill="#012A14"/>
<path transform="translate(541,563)" d="m0 0h28v1l-25 1-1 3 1 24 1 2-2 1h-23l-1-3v-16l1-11h21z" fill="#02451C"/>
<path transform="translate(320,180)" d="m0 0h19l3 1v25h-22l-1 140h-1v-164z" fill="#029806"/>
<path transform="translate(593,281)" d="m0 0h27v26l-1 1h-26z" fill="#022815"/>
<path transform="translate(395,565)" d="m0 0 5 1h14l5-1 3 7-2 22-1 1h-24z" fill="#03451D"/>
<path transform="translate(342,121)" d="m0 0h29v25h-29z" fill="#022814"/>
<path transform="translate(370,393)" d="m0 0h25v29l-4 1h-19l-2-7z" fill="#022815"/>
<path transform="translate(395,196)" d="m0 0 2 1 21 1v31h-23l-1-32z" fill="#01A304"/>
<path transform="translate(444,230)" d="m0 0h25v28l-26-1v-26z" fill="#02A505"/>
<path transform="translate(395,168)" d="m0 0h24v29h-22l-2-1z" fill="#022815"/>
<path transform="translate(290,640)" d="m0 0h25l1 27-21 1-5-2-1-10v-14z" fill="#FD6203"/>
<path transform="translate(469,450)" d="m0 0h24v29h-23l-1-4z" fill="#01380F"/>
<path transform="translate(680,811)" d="m0 0h23v28h-23v-2l-4 1-3-2h7l-1-20 1-3h-16v-1z" fill="#AE0C0F"/>
<path transform="translate(469,336)" d="m0 0h24v28h-23l-1-1z" fill="#022814"/>
<path transform="translate(315,838)" d="m0 0h27l5 1-3 1-1 5h-1l-1 19h-25z" fill="#B00F0E"/>
<path transform="translate(371,279)" d="m0 0h22l1 2v25l-2 1-19 1-3-1v-19z" fill="#02390F"/>
<path transform="translate(395,46)" d="m0 0h1v75h-25l-1-24 2-1 23 1z" fill="#183319"/>
<path transform="translate(593,479)" d="m0 0h25v22l-3 5-7 1-8-1h-7z" fill="#018B03"/>
<path transform="translate(570,366)" d="m0 0h22l1 1v26l-1 1h-22z" fill="#022815"/>
<path transform="translate(444,565)" d="m0 0 4 2-1 9-2 5 2 11h9l8-1v-16l4-2 4-1-2-6 3-1 1 2 6 1v2h8l2 1 1 6v14l-2 2-5-1-1-2v-14-3l-8 1 3 10-2 8-4 3-27 1-3-2-1-3v-18l1-7z" fill="#03451D"/>
<path transform="translate(395,393)" d="m0 0h22v29h-20l-2-1z" fill="#018B03"/>
<path transform="translate(371,121)" d="m0 0h25v25h-25z" fill="#04A305"/>
<path transform="translate(570,451)" d="m0 0h22v28l-22 1z" fill="#022815"/>
<path transform="translate(543,121)" d="m0 0h26v5l-2 4v7l1-1h1v8l-1 1h-24l-2-1v-22z" fill="#01A405"/>
<path transform="translate(632,839)" d="m0 0h25v25h-25z" fill="#AD0B0E"/>
<path transform="translate(284,469)" d="m0 0 20 1 1 11v18h-21z" fill="#092D19"/>
<path transform="translate(263,180)" d="m0 0h24v25h-24z" fill="#022714"/>
<path transform="translate(444,258)" d="m0 0h26l-1 24h-25z" fill="#016909"/>
<path transform="translate(343,147)" d="m0 0h27l1 4v17l-1 1h-26l-1-1-1-20z" fill="#01A505"/>
<path transform="translate(705,839)" d="m0 0h22v27l-22-1-1-1v-24z" fill="#022815"/>
<path transform="translate(702,180)" d="m0 0h23l1 2-1 24h-20l-3-1z" fill="#082E19"/>
<path transform="translate(316,864)" d="m0 0 24 1v24l-8 1h-16z" fill="#072C18"/>
<path transform="translate(620,281)" d="m0 0h22l1 3v12l-1 11-23 1z" fill="#016909"/>
<path transform="translate(493,145)" d="m0 0h25v23l-5 1-20-1z" fill="#022814"/>
<path transform="translate(727,597)" d="m0 0h47v1h-23v22h-23l-1-1z" fill="#E93803"/>
<path transform="translate(539,97)" d="m0 0 4 1v21l-3 2h-20l-3-1v-22z" fill="#02A505"/>
<path transform="translate(592,97)" d="m0 0h25l-1 23h-24z" fill="#022814"/>
<path transform="translate(802,325)" d="m0 0h22l1 1v23h-23z" fill="#C1F1BC"/>
<path transform="translate(618,144)" d="m0 0h24l1 1v23l-22-1-1-1-1-15z" fill="#025B1D"/>
<path transform="translate(518,146)" d="m0 0h24v13l-4 2-1 6 4 1-5 1h-14l-2 1-25 1-1-2 23-1z" fill="#03A504"/>
<path transform="translate(318,98)" d="m0 0h24v23l-22 1-1-1z" fill="#032916"/>
<path transform="translate(678,96)" d="m0 0h1v25l-23-1v-23z" fill="#022815"/>
<path transform="translate(396,99)" d="m0 0h23v23h-21l-2-1z" fill="#01A405"/>
<path transform="translate(789,45)" d="m0 0h22v25l-22-1z" fill="#022650"/>
<path transform="translate(767,137)" d="m0 0h21l1 1v22h-22z" fill="#C6F2C1"/>
<path transform="translate(570,97)" d="m0 0h22v23h-18l-2-2-1-18z" fill="#025C1D"/>
<path transform="translate(266,599)" d="m0 0 21 1v19l1 2-23 1v-22z" fill="#FC5001"/>
<path transform="translate(571,479)" d="m0 0h21l-1 24-10 1h-7l-2-7z" fill="#025D1D"/>
<path transform="translate(593,122)" d="m0 0h24v22h-15l-3-1-3-8-1-7-2-4z" fill="#025E1D"/>
<path transform="translate(825,246)" d="m0 0h20l1 22h-22z" fill="#022655"/>
<path transform="translate(442,160)" d="m0 0h1v33l-3-3-3 4h-11l1-2h2l-1-13-3 12-3 1v-16h2l-1-6 1-2h12l1 3 4-1z" fill="#018B03"/>
<path transform="translate(241,597)" d="m0 0h1l1 186 2-4 2 4 1-23 2 1v22l6-1 7 1v-23h1l1 8v18l-1 25h-1v-24h-20l-3-3z" fill="#A2090E"/>
<path transform="translate(374,534)" d="m0 0h9l2 4h4l5-2 1 1 1 22-4 1-7-4h-3l-2-12-6-1z" fill="#025D1D"/>
<path transform="translate(593,281)" d="m0 0h27v26l-1 1h-26zm6 2-3 6v9l1 6 7 1 9 1 3-3v-16l1-2h-2v-2z" fill="#02330F"/>
<path transform="translate(472,227)" d="m0 0h20l2 2v29l-1 1h-23l-1-1v-29zm0 3-1 1v25l2 1h14l4-1v-16l-2-2-2-1-2-6h-7v2h-2v-2z" fill="#02370F"/>
<path transform="translate(473,454)" d="m0 0h7l-2 10-2 1v5l2 1v-2l4 1v-8l-2-3 3-3 8 1 1 5v13l-2 1v-2h-2l1-10h-3l1 9-2 3-13 1-1-1v-12z" fill="#022814"/>
<path transform="translate(370,393)" d="m0 0h25v29l-4 1h-19l-2-7zm18 2-6 1h-8l-2 4v16l2 2 16 2 2-1v-22l-1-2z" fill="#02310F"/>
<path transform="translate(456,262)" d="m0 0h10v4l-6 1-5-1h-2v3h8l4 3v5l-2 2-16 1-1-1v-16z" fill="#025E1D"/>
<path transform="translate(469,336)" d="m0 0h24v28h-23l-1-1zm3 1v4 20l4 1h14l1-5 1-13-2-2-3 2-2-5-6 2h-2v-3h9v-1z" fill="#023B10"/>
<path transform="translate(726,598)" d="m0 0h1l1 22-1 1h-231v-1l230-1z" fill="#AB0B0E"/>
<path transform="translate(569,196)" d="m0 0h23l1 1v27l-1 5h-23zm7 1 2 2-6 2-1 3h2l-1 2v19l4 2 15-1 1-29z" fill="#02380F"/>
<path transform="translate(570,366)" d="m0 0h22l1 1v26l-1 1h-22zm2 2v21l3 2h16v-5-2-11l-1-2h-2v-2l-2-1h-7l-4 2z" fill="#02370F"/>
<path transform="translate(395,473)" d="m0 0h23v34l-20 1-3-2zm2 2v26l1 2 8 1h9l2-7v-19l-2-3z" fill="#023B11"/>
<path transform="translate(343,497)" d="m0 0h28v33h-19v-1l16-1v-18l-1-9h-16l-2 3 1 8h-2l-1 2-2-2-1-8h-1z" fill="#016909"/>
<path transform="translate(642,254)" d="m0 0 4 2h7l3 2 1 6v89l-1 12-8 4-6-1v-3l13-1-1-104-12-1z" fill="#016909"/>
<path transform="translate(570,451)" d="m0 0h22v28l-22 1zm6 2-3 1-1 2v14l5 5 8 1 4-2 2 2v-22z" fill="#02310F"/>
<path transform="translate(374,282)" d="m0 0h6l2 4v19h-7l-3-1v-16z" fill="#022814"/>
<path transform="translate(288,620)" d="m0 0 129 1v1l-70 1-58-1v18l-3-1h2l-1-13-4-2-5-2v-1z" fill="#FD6203"/>
<path transform="translate(493,145)" d="m0 0 15 1-4 2-9 1 1 18 20-1-2-6-1-11v-3l5-1v23l-5 1-20-1z" fill="#02300F"/>
<path transform="translate(643,419)" d="m0 0h1v15l-1 13-3 4-18 2-2-2-1 50-2-2v-19l1-31 5-1 17 1 2-26z" fill="#016909"/>
<path transform="translate(387,531)" d="m0 0h8v6l-6 1-1 2-3-2v-2h-5v-1l-6-1v27l10 1v1l-12 1-1-1v-31h12z" fill="#024811"/>
<path transform="translate(417,144)" d="m0 0 2 4v20h-24v29h-25v-1h22v-26l3-4h22z" fill="#29CD04"/>
<path transform="translate(743,115)" d="m0 0 19 1v1h-17v64h19v1h-21z" fill="#64460E"/>
<path transform="translate(395,168)" d="m0 0h24v29h-22l-2-1zm4 1-2 2v23l2 2h17l1-1v-24l-2-2z" fill="#01440D"/>
<path transform="translate(285,811)" d="m0 0h3l1 4 2-1v20h2v2h10v-2l10-1v-18l2-1 1 2v21h-29l-1-23z" fill="#AE0C0F"/>
<path transform="translate(387,281)" d="m0 0h5l1 5-1 19h-7l1-2v-18h-2l1-3z" fill="#022913"/>
<path transform="translate(727,597)" d="m0 0h47v1h-23l-2 10h-1v-9l-5 1-12 1-1 9 1 9h-4z" fill="#E24307"/>
<path transform="translate(420,174)" d="m0 0h1v18h2v-5l2 2 2-10 2-1v14l-2 1h9l3-3 1-14h1l1 16 1 5-24-1z" fill="#019D04"/>
<path transform="translate(780,306)" d="m0 0 21 1v1h-20v63h-1l-1-5v-59z" fill="#564418"/>
<path transform="translate(242,759)" d="m0 0h6l1 4-1 20h-3v-3l-2 4h-1z" fill="#CC1C0C"/>
<path transform="translate(443,145)" d="m0 0h23l-3 2h-18v44l-1 5h-1z" fill="#27CC04"/>
<path transform="translate(766,69)" d="m0 0h23l-2 2h-19v41l-2 1z" fill="#022815"/>
<path transform="translate(318,462)" d="m0 0h1l2 8h-2v60l-2-1 1-59h-31v-1l29-1 1-4z" fill="#FB7A0D"/>
<path transform="translate(370,393)" d="m0 0h25v29l-4 1h-19l-1-2h23l-1-22-1-4-21-1v22h-1z" fill="#01530E"/>
<path transform="translate(395,98)" d="m0 0h1v23h-23v-2l2-1 2-4 4 1-1 4h13l-1-4 1-1v-13z" fill="#02310F"/>
<path transform="translate(477,547)" d="m0 0h2l2 4-1 1v5l2 2 8 2 1 2h-20l5-7z" fill="#035E1E"/>
<path transform="translate(396,98)" d="m0 0h47v12h-2l-1-8 1-3-20 1-1 20h-1v-21h-23z" fill="#27CC04"/>
<path transform="translate(573,508)" d="m0 0 3 1v2l2 1-1 15-4 1-1-1-1-17z" fill="#018B03"/>
<path transform="translate(486,337)" d="m0 0h7v14l-1 8-2-2 1-13h-2-3l-1-5-4 3-4-1v-3z" fill="#02300F"/>
<path transform="translate(642,368)" d="m0 0 2 1v7h1v23h-1l-1 24h-1z" fill="#024811"/>
<path transform="translate(766,184)" d="m0 0 2 2v20h20l1 2h-23z" fill="#403911"/>
<path transform="translate(321,663)" d="m0 0h15l16 2v1l-15 1h-17z" fill="#EDFAEB"/>
<path transform="translate(569,196)" d="m0 0h23v1l-13 1 1 2-7 1-2 3-1 25h-1z" fill="#025212"/>
<path transform="translate(394,168)" d="m0 0h1v29h-25v-1h22v-26z" fill="#27CC04"/>
<path transform="translate(419,639)" d="m0 0h8l-2 2v18l-4-1-1-7v-10z" fill="#FD5101"/>
<path transform="translate(371,532)" d="m0 0h2l1 17v12l10 1v1l-12 1-1-1z" fill="#024B1D"/>
<path transform="translate(488,97)" d="m0 0h51v1h-22l-1 2-21-1v3h-2v-4h-5z" fill="#27CC04"/>
<path transform="translate(486,462)" d="m0 0 4 2v6l-2 4 3 1v-5h2v6l-1 2h-11l-3-2 7-1 1-3-1-9z" fill="#02310F"/>
<path transform="translate(493,145)" d="m0 0 15 1-4 2-9 1 1 18-3 1z" fill="#02330F"/>
<path transform="translate(627,517)" d="m0 0h13v5l-5 1h-8l-2-5z" fill="#024811"/>
<path transform="translate(285,811)" d="m0 0h3l1 4 2-1v20h2l1 3h-7l-1-23z" fill="#AD0D0E"/>
<path transform="translate(395,473)" d="m0 0h23v24h-1l-1-19-1-2h-14l-6-2z" fill="#02330F"/>
<path transform="translate(371,281)" d="m0 0h9v1h-6v5l-1 1-1 16 3 1 1 3-6-1v-19z" fill="#02310F"/>
<path transform="translate(469,229)" d="m0 0h1v27l17 1 1-2 2 1v2l-3 1h-17l-1-1z" fill="#014010"/>
<path transform="translate(616,99)" d="m0 0h1v21h25v1l-26 1-24-1v-1h24z" fill="#83410E"/>
<path transform="translate(492,144)" d="m0 0h26v1h-25v21h-2l-1-15z" fill="#7DE16A"/>
<path transform="translate(321,469)" d="m0 0h21v12l-2-1-1-7-3-1-16-1z" fill="#01410D"/>
<path transform="translate(472,227)" d="m0 0h20l2 2v29h-1v-27h-2v-2l-6 1v-2h-13z" fill="#01610B"/>
<path transform="translate(621,284)" d="m0 0 4 3-1 4 1 7v3h-2l-1 5h-1z" fill="#035E1E"/>
<path transform="translate(655,393)" d="m0 0h25l-3 3h-19l-3 3z" fill="#023910"/>
<path transform="translate(519,144)" d="m0 0h24v14h-1v-12l-3 1-21-1z" fill="#019504"/>
<path transform="translate(479,459)" d="m0 0 4 3-1 8-4-1v2l-3-1v-5l3-1z" fill="#02310F"/>
<path transform="translate(766,69)" d="m0 0h23l-2 2h-19v7l-2 2z" fill="#65460D"/>
<path transform="translate(345,530)" d="m0 0h26l1 2-2 2-2-1-23-1z" fill="#023B10"/>
<path transform="translate(370,128)" d="m0 0h1v18h-29l1-2h25z" fill="#01430D"/>
<path transform="translate(789,45)" d="m0 0h22l-2 2-18 1-1 20h-1z" fill="#3B5C48"/>
<path transform="translate(702,765)" d="m0 0h1v45h-4l1-3h1z" fill="#CC1C0C"/>
<path transform="translate(373,563)" d="m0 0h22v5l-4-2h-8l-10-2z" fill="#02310F"/>
<path transform="translate(318,462)" d="m0 0h1l2 8h-34v-1l29-1 1-4z" fill="#888D48"/>
<path transform="translate(571,389)" d="m0 0 4 1h17v3h-21z" fill="#02310F"/>
<path transform="translate(656,353)" d="m0 0h1l1 12-1 4 1 5-3 3-1-1v-8h-2v-2l3-1z" fill="#024811"/>
<path transform="translate(470,229)" d="m0 0h10l2 2h-4v2h-2v-2h-4l-1 25h-1z" fill="#02310F"/>
<path transform="translate(394,529)" d="m0 0m-23 1h23v1l-11 2h-9z" fill="#01680B"/>
<path transform="translate(266,621)" d="m0 0h6l-3 1v2h-2l1 16h-3v-18z" fill="#FE6304"/>
<path transform="translate(468,122)" d="m0 0h3l-1 22-2 1z" fill="#27CC04"/>
<path transform="translate(569,563)" d="m0 0h23v1l-18 1-4 1-18-1v-1z" fill="#02310F"/>
<path transform="translate(440,176)" d="m0 0h1l1 16 1 5-7-2v-3l3-2z" fill="#01A505"/>
<path transform="translate(342,149)" d="m0 0h1l1 19v3 9l-5 1 3-1z" fill="#26CB04"/>
<path transform="translate(395,98)" d="m0 0h1v23h-1l-2-20z" fill="#023610"/>
<path transform="translate(387,543)" d="m0 0h4v2h2l1 4-5 2-3-5z" fill="#024811"/>
<path transform="translate(618,501)" d="m0 0h1v6l-1 2h-8l1-3 5-2z" fill="#01660F"/>
<path transform="translate(475,476)" d="m0 0 13 1 4 1 1-2v3h-23v-1h5z" fill="#024711"/>
<path transform="translate(802,266)" d="m0 0 15 1-2 2-13 1z" fill="#2D4B4F"/>
<path transform="translate(521,120)" d="m0 0h21l1 2-3 1-20-1z" fill="#27CC04"/>
<path transform="translate(415,168)" d="m0 0h3v28l-2-1v-24z" fill="#02310F"/>
<path transform="translate(370,288)" d="m0 0h1v16l4 1 1 3-6-1z" fill="#014D10"/>
<path transform="translate(285,811)" d="m0 0h3v21h-1l-1-18z" fill="#9B070D"/>
</svg>
