<?xml version="1.0" encoding="UTF-8"?>
<svg version="1.1" viewBox="0 0 1024 1024" width="96" height="96" xmlns="http://www.w3.org/2000/svg">
<path transform="translate(405,69)" d="m0 0 43 1v23l22-1 1 3-1 23h23v18l-1 5 21-1v-22h44v-25h22v-23h43v23l24-1v28h18v69h19v-24h22v-20h37l-1 44h12v68l74-1v48l-1 24h-19v45l-24-1v25h42v23h22v22h22v47h-21l1 21h-43v22h-22v24h24v45l23-1v171l-22-1 1 3v41h-21l-2-1 1 25h-22l-3-1 1 12v12h-37v24h-63l1 2v22h-34v19h-262v-19h-46l-1-23h-42v-25h-42v-24l-2 1h-19v-24l-23 1v-24h-20v-22h-19l-1-144h18v-45h22v-24h-20v-22h-25l-1-1v-14l1-8-14 1-7-1v-68l2-1h44l1-22-27 1 1-24h-22v-23h-25l1-46h15v-20h73l1-25h-19l-1-93 1-1h47v22h37v-93l64 1v23h25l-1 22h14l1-44h18v-26l25-1v-23z" fill="#022E23"/>
<path transform="translate(194,578)" d="m0 0 24 1 2 2v17l1 2 18 1 1 1v22h16v2h25l1 11v11h42l1 22h51l5 1v-15l1-8h87l1 23 4-1h14l4 1 1 24h46l1-23 1-1 17-1 1-22h37l1-22h48l1 21h98l1-21 1-1 15-1 1-1 1-22h22l1 3v22h20l1 1v116h-23v47h-22v24l-14 1-1 1-1 20h-40l1 3v19l-1 2-40 1-1 22-44 1-1 21-2 1h-236l-1-1-1-21h-55l-1-1v-23h-43l-1-23-40-1v-19l-21-1-1-5v-20h-20l-1-1v-47l-22 1-1-1-1-115 1-3h18l1-1v-44z" fill="#F3540A"/>
<path transform="translate(579,70)" d="m0 0h43v23l24-1v28h18v69h19v-24h22v-20h37l-1 44h12v68l74-1v48l-1 24h-19v45l-24-1v25h42v23h22v31l-1 14-22 1-40 1-1 20-20 1h-98l-1-1v-21h-20v67h-44v23h-64v-23h-22v-22h-44v-23h-23v-16l1-7h197v-22l13-1 10-2h11l1-4 1-13 1-3 2-1 37-1v-3h2v-10l-1-4-3-2h-13l-3 1h-23l-11-2v2l-2 1v21l-3 2-19 2-4-1-2-8v-12l-1-3-3-1h-9l-1 7-1 12-107 1-25-1v-23h22v-23h44l-1-1h-43l-1-3 1-19 1-1h21v-23h-21l-1 23h-21v-19l1-49h21v-24h21v-24-1h-21v24l-2 1h-19v23h-23v-70l1-1h21v-21h43v-25h-21v-23h43l-1-22v-26h22z" fill="#022E23"/>
<path transform="translate(643,282)" d="m0 0h21v68l-20 1v33l2 3v5l-2 3 4-2 4-1v2h7v-4h-2v-3h2l-1-5-4-1v-11h2l2 4 6-4 3-1 3 2 11 1v-22l4-4h3v3h15v-21l13-1h11v-22h25v-23h34l-1 23h-24v22l-15 1-1 22-17 1v23l-1 22h54l2 1h42v23h22v31l-1 14-22 1-40 1-1 20-20 1h-98l-1-1v-21h-20v67h-44v23h-64v-23h-22v-22h-44v-23h-23v-16l1-7h197v-22l13-1 10-2h11l1-4 1-13 1-3 2-1 37-1v-3h2v-10l-1-4-3-2h-13l-3 1h-23l-11-2v2l-2 1v21l-3 2-19 2-4-1-2-8v-12l-1-3-3-1h-9l-1 7-1 12-107 1-25-1v-23h22v-23h44v-24h22v-22l4-1h38v-23h21z" fill="#01311C"/>
<path transform="translate(763,601)" d="m0 0h22l1 3v22h20l1 1v116h-23v47h-22v24l-14 1-1 1-1 20h-40l1 3v19l-1 2-40 1-1 22-44 1-1 21-2 1h-236l-1-1-1-21h-55l-1-1v-23h-43l-1-23-40-1v-19l-21-1-1-5v-20h-20l-1-1v-47l-22 1-1-1-1-115 1-3 3 1v3h-2l1 110 1 2h20l2 2v24h20v24h21v24h20l1 16 1 4 16-1 2-1 1 2 39 1 4 1 1 22 56 1 1 1v22h93v-24l81-1 1-21 19-1 24 1v-23h25v-23l37-1 1-22h21v-24l2-1h18l2-24h22v-47h-83l-46-1v-1h45l-1-21-47-1 1-22h48l1 21h98l1-21 1-1 15-1 1-1z" fill="#B4201B"/>
<path transform="translate(405,69)" d="m0 0 43 1v48h21l1 1v22h21l1 17v6l-3 1-19-1v25h-22l-1 43-20 1-1 49h45l-1 115h-22v-22h-44l-1-24h-21v-47h-18l2-1-1-14-1-7h-2v22h-2v-115h21v22l11-1h12l-1-2-2-42-22-1v-44l24-1v-50z" fill="#037417"/>
<path transform="translate(304,465)" d="m0 0h121l1 7 1 19-1 21 11-1 12 1 1 23h19l1 1 1 8v12h21v24h56l-1 23h-10v22l-1 22h-41l-1-4-2 4v-20l1-1-22-1-1-1v-22h-22v-67h-24v21l-20 1v20l-1 1h-44v23h-55l-1-4v-19h-21l-1-91h23z" fill="#035F1A"/>
<path transform="translate(664,672)" d="m0 0h64v47h-22l-1 25h-21v24h-21v20l-3 3h-35v23h-25v23h-43v22l-81 1-1 23h-93l-1-22-56-1-1-1v-22h150v-23h41v-23l5-1h36v-22l6-1h38v-24h24v-24l8-1h32z" fill="#DE3510"/>
<path transform="translate(240,649)" d="m0 0h41v23h23v22h42l35 1 107 1 2 2v4l1 18v24h-19v24h-46v16l-2 6h-10l-3-1-10 1-1 2h2v18l-1 2-3 1h-15l-1-2v-18l2-3h-59v-22h-13l-9-1v-24h-23l1-23h-24l-17-1z" fill="#FC8005"/>
<path transform="translate(763,601)" d="m0 0h22l1 3v22h20l1 1v116h-23v47h-22v24l-14 1-1 1-1 20h-40l1 3v19l-1 2-40 1-1 22-44 1-1 21-2 1h-236l-1-1-1-21h-55l-1-1v-23h-43l-1-23-40-1v-19l-21-1-1-5v-20h-20l-1-1v-47l-22 1-1-1-1-115 1-3 3 1v3h-2l1 110 1 2h20l2 2v24h20v24h21v24h20l1 16 1 4 16-1 2-1 1 2 39 1 4 1 1 22 56 1 1 1v22l183-1 35 1 1-11 1-12 1-1 41-1 1-21 9-1h31v-22h40v-23l1-1h19v-22h18v-47l2-2 20-1v-92h-2v-21h-17v3h-2v8h-1z" fill="#911B1D"/>
<path transform="translate(807,24)" d="m0 0h40v35l-1 10h26v50l23-1v76l-23-1v22h-17v20h-48v-19h-24v-21l1-3h-24v-73h23v-51h23zm-22 103-1 1v25l1 1h21l1-1v-23l-7-3z" fill="#30D4BE"/>
<path transform="translate(172,580)" d="m0 0h21l1 1v43l-2 2h-16l-2-1 1 118h22l1 25v22l20 1 1 9v16h21l1 1v9l-1 10h40l1 1v23h43l1 23h55l1 1 1 21h237l1-21 1-1h99l7 1v1h-63l1 2v22h-34v19h-262v-19h-46l-1-23h-42v-25h-42v-24l-2 1h-19v-24l-23 1v-24h-20v-22h-19l-1-144h18z" fill="#12211C"/>
<path transform="translate(913,232)" d="m0 0 2 2-1 31h22v40h22v89l-22-1v26h-19v17h-45l-1-1v-16l-12 1h-12l-1-23-19-1v-46h19v-45h26v-41h18v-31zm-43 89-1 1v28h12l11-1 1-27z" fill="#0273A4"/>
<path transform="translate(448,465)" d="m0 0h176l20 1v67h-44v23h-64v-23h-22v-22h-44v-23h-23v-16z" fill="#09A111"/>
<path transform="translate(194,578)" d="m0 0 24 1 2 2v17l1 2 18 1 1 1v22h16v1l-37 1-1 23h-20l1 6v20l1 44h18l1 1v24h21v24h19v24h21v23h44v22l-43-1-1-3-1 2h-17l-2-2v-18h-20v-24h-21v-24h-20l-1-5v-19l-5-1h-16l-2-3v-110l2-3 15-1 1-1v-44z" fill="#DD3410"/>
<path transform="translate(557,93)" d="m0 0h43v48h22v71h-22v68h-19l-1-1-1-67h-21v-23h-22v-25h-21v-23h43l-1-22z" fill="#2BC809"/>
<path transform="translate(643,282)" d="m0 0h21v45h-21v23l-1 23-20 1v22l-41 2 1 5h1v13h-5l7 2 15 1v1l-83 1-25-1v-23h22v-23h44v-24h22v-22l4-1h38v-23h21z" fill="#09A111"/>
<path transform="translate(281,648)" d="m0 0h43l1 22h51l5 1v-15l1-8h87l1 23 4-1h14l4 1 1 24h46l1-23 1-1 17-1 1-22h37v24h-37l1 18-1 5-14 1-5 1h-48l-111-1-77-2v-22h-23z" fill="#DD3410"/>
<path transform="translate(360,231)" d="m0 0h12l7 2 1 6h1l1 13v30h21l-1 4h2v19h44v-23h23l-1 115h-22v-22h-44l-1-24h-21v-47h-18l2-1-1-14-1-7h-2v22h-2z" fill="#037516"/>
<path transform="translate(847,69)" d="m0 0h25v50l23-1v76l-23-1v22h-17v20h-48v-19h-24v-21l1-2h42v-18h21z" fill="#0273A4"/>
<path transform="translate(469,92)" d="m0 0 2 1-1 25h23v18l-1 5 21-1v-22h44l1 1v22h-43v23h21v25h-43v21l-3 1h-18l-1 70h22v1h-67v-50h21v-41l1-2h22v-25h21v-23h-21l-1-22-21-1v-25z" fill="#022E23"/>
<path transform="translate(173,189)" d="m0 0h47v23h-27l1 45 25 1 1 47v22h20v23h-44l-1-22h-67v39l-2 7h-24l1-46h15v-20h73l1-25h-19l-1-93z" fill="#022D24"/>
<path transform="translate(305,487)" d="m0 0h15l25 1-1 23 4-1h34l1 2-1 21h-21v23h-17v22l-1 23h-39l-1-4v-19h-21l-1-90z" fill="#08A111"/>
<path transform="translate(683,421)" d="m0 0h78v21h45v24l-22 1-1 20-20 1h-98l-1-1v-44h19z" fill="#09A111"/>
<path transform="translate(127,374)" d="m0 0h23l1 22h44l29 1v1h-28v21h84l2 1v23l-8 1h-34l-43-1v23h-46v45h22l2 1v21l-26 1-1-1v-14l1-8-14 1-7-1v-68l2-1h44l1-22-27 1 1-24h-22z" fill="#022E23"/>
<path transform="translate(240,649)" d="m0 0h41v23h23v22h42l35 1v25h-33l-1 23h-67l1-23h-24l-17-1z" fill="#F1C928"/>
<path transform="translate(621,883)" d="m0 0h99l7 1v1h-63l1 2v22l-34 1-1 1v16h-247l-9-3-2-2v-8l1-2 1-1-3-2 1-4-12 2-8 1h-17v-3l9-4 3-2 6-1v-3-1l19-1 7 2v9l3 1h237l1-21z" fill="#022D24"/>
<path transform="translate(193,212)" d="m0 0h27v22h20v24h18v23h23v24h22l1 22h20l1 22h34l1 1v23h21v24h-1v-23h-76v-24h-23l-1-22-22-1v-15l1-7h-25v-1l5-1 1-21h-21v-24h-25l-1-1z" fill="#98EF04"/>
<path transform="translate(128,328)" d="m0 0h67l1 8v14h44v23l17 1 1 2v20l-74 1h-33l-1-1v-22h-24l1-7z" fill="#0CA410"/>
<path transform="translate(913,232)" d="m0 0 2 2v139h-22v23l-45 1-1-1-1-23v-22l1-1 45-1v-19l1-8h-24v-14l1-3h2v-41h18v-31z" fill="#30D4BF"/>
<path transform="translate(432,696)" d="m0 0h56l2 2v4l1 18v24h-19v24h-46v16l-2 6h-10l-3-1-10 1-1 2h2v18l-1 2-3 1h-15l-1-2v-18l2-3h-2v-21l1-1h21l-1-24 4-1h17l1-23h-21v-1l19-1v-15l-10-4v-1l19-1z" fill="#FC7004"/>
<path transform="translate(664,533)" d="m0 0h63v23h17l1 1v21l-1 1h-17v23h-69l-15-1v-22h-19l-2-3v-20h42z" fill="#037516"/>
<path transform="translate(304,374)" d="m0 0h76l2 2v21h44v19l-1 4h23v24h-80l-9-1v-19l1-4-35 1v-24h-21z" fill="#037417"/>
<path transform="translate(280,142)" d="m0 0h40l1 23 24 1v23l-22 1v89l-2 2h-17v-24h-24z" fill="#30CB08"/>
<path transform="translate(304,465)" d="m0 0h121l1 7 1 19-1 21h-22v22h-12l-9-1v22h-22v-22h21v-22h-38v-14l1-9h-64v-1h23z" fill="#09A111"/>
<path transform="translate(705,166)" d="m0 0h21v90l-1 2h-21v47h-21v-47h-19v-46h19v-23l22 1z" fill="#08A111"/>
<path transform="translate(197,443)" d="m0 0h43l24 1v1h-5v19l-2 46-38 2h-22l-3-2h2v-20h-39l-6-1v-23h46z" fill="#08A111"/>
<path transform="translate(728,397)" d="m0 0h97v23h22v31l-1 14-22 1h-18v-24h-45v-21h-34l-1-5 1-18z" fill="#035F1A"/>
<path transform="translate(360,189)" d="m0 0h21v22l11-1h12v23h21l1 10v39h22v23h-44l-1-17-1-2-2-1v-2l-18-1-1-30-1-12h-1v-7l-17-2v26h-1l-1-26z" fill="#98EF04"/>
<path transform="translate(807,24)" d="m0 0h40v35l-1 10h-19v-16l-12 1-1 15-6 1-1 49-22 1-1 72h-24v-73h23v-51h23z" fill="#042B29"/>
<path transform="translate(536,234)" d="m0 0h22v70h-22v23h-21l-1 23h-21v-19l1-49h21v-24h21z" fill="#2AC809"/>
<path transform="translate(752,282)" d="m0 0h34l-1 23h-24v22l-15 1-1 22-17 1v22h-24v22l-2 1h-14l-14-1-6 1-3-3 1-15 4-1 11 1 1-1 1-27 19-1 1-21 13-1h11v-22h25z" fill="#037516"/>
<path transform="translate(470,579)" d="m0 0h22l56 1-1 23h-10v22l-1 22h-41l-1-4-2 4v-20l1-1-22-1-1-1z" fill="#079413"/>
<path transform="translate(493,189)" d="m0 0h43v44h-21v24l-2 1h-19v23h-23v-70l1-1h21z" fill="#09A210"/>
<path transform="translate(642,140)" d="m0 0 2 1-1 101-1 15-1 1h-19v22h-21l-1-1v-67h22v-71z" fill="#037517"/>
<path transform="translate(762,623)" d="m0 0h1v25h-18v23l-11 1h-89l-46-1v-1h45l-1-21-47-1 1-22h48l1 21h98l1-21 1-1 15-1z" fill="#921B1D"/>
<path transform="translate(846,305)" d="m0 0h24l-1 45-22 1v22l1 23h24l1 22h43l1-18 2-5 5-1h12v25h-19v17h-45l-1-1v-16l-12 1h-12l-1-23-19-1v-46h19z" fill="#042B29"/>
<path transform="translate(405,69)" d="m0 0 43 1v48h-23v23h-22v24h-24v-44l24-1v-50z" fill="#99EF05"/>
<path transform="translate(322,488)" d="m0 0h23l-1 23 4-1h34l1 2-1 21h-21v23h-57v-45h18z" fill="#98EF05"/>
<path transform="translate(382,648)" d="m0 0h87l1 23 4-1h14l4 1 1 24h46l1-23 1-1 17-1 1-22h37v24h-37l1 18-1 5-14 1-5 1h-48l-1-1-1-22-6 1v-2l-3 1-5-1-1 2v-2h-4l-1 2-1-3-88-1v-15z" fill="#911B1E"/>
<path transform="translate(582,327)" d="m0 0h38l2 1v21h-22v25h-24v22l-62 1v-23h44v-24h22v-22z" fill="#98EF04"/>
<path transform="translate(727,421)" d="m0 0h34v21h45v24h-102v-23h23z" fill="#99EF04"/>
<path transform="translate(159,628)" d="m0 0h10l2 3v3h2v54l-1 1 1 11 1 44 1 2 1-1 17-1 3 7v35l-3 3h-17l-1-18 1-2h-16v-2h-2l-1-7v-129z" fill="#022D24"/>
<path transform="translate(560,140)" d="m0 0h20v76l-1-4h-21v-23h-22v-25h-21v-23z" fill="#2BC908"/>
<path transform="translate(786,282)" d="m0 0h21l1 45-25 1v22h-23v22l-32 1-1-2v-20l1-1h17v-22l1-1h15v-22h24v-22z" fill="#035F1A"/>
<path transform="translate(258,378)" d="m0 0h1v18h25v24h20v24h-21v23h-25l1-22 15-2h8v-23l-86-1v-21l-1-2h63z" fill="#03601A"/>
<path transform="translate(847,69)" d="m0 0h25v50l23-1v76l-23-1-1-72-1-1-23-1z" fill="#062A28"/>
<path transform="translate(557,93)" d="m0 0h43v96l-20 1v-50l-22 1-1-22z" fill="#99EF04"/>
<path transform="translate(914,265)" d="m0 0h22v40h22v89l-22-1v-87h-21l-1-5z" fill="#022D24"/>
<path transform="translate(664,533)" d="m0 0h63v23h17l1 1v21l-1 1h-40l-20-1-1-23h-19z" fill="#2DC908"/>
<path transform="translate(805,328)" d="m0 0h1v32l-1 11-21 1-1 26-2-1-54-1-1-4 1-18 1-1 7-1h25v-22h23l1-20 1-1h19z" fill="#022D24"/>
<path transform="translate(174,625)" d="m0 0 3 1v3h-2l1 110 1 2h20l2 2v24h20v24h21v24h20l1 16 1 4 16-1 2-1 1 2 39 1 4 1 1 23h-44l-1-23-40-1v-19l-21-1-1-5v-20h-20l-1-1v-47l-22 1-1-1-1-115z" fill="#921B1D"/>
<path transform="translate(129,442)" d="m0 0 45 1 1 23h-24v45h22l2 1v21l-26 1-1-1v-14l1-8-14 1-7-1v-68z" fill="#022E22"/>
<path transform="translate(425,118)" d="m0 0h44l1 1v23h-22v22h-23v24l-4 1h-19l-1-24h2v-24h22z" fill="#08A011"/>
<path transform="translate(322,189)" d="m0 0h23v115h-23l-1-24 1-1z" fill="#037516"/>
<path transform="translate(128,328)" d="m0 0h67l1 8v14h20l3 1v22h-46v-22h-45z" fill="#99EF04"/>
<path transform="translate(258,121)" d="m0 0h62v21h-40v73l-1 23h-1l-1-22-4-2 1-4h3v2h2l-1-5v-62l-2 3v-2l-4 1 3 3h2v11l-1 1v27l-3 10-4 8-4 3-2-1-1-1-1-8v-20l-1 26-2 2zm-1 87 2 2h-2z" fill="#032B29"/>
<path transform="translate(515,488)" d="m0 0h86l1 1v10l-1 12h-24v23h-21v-23h-42z" fill="#98EF04"/>
<path transform="translate(448,282)" d="m0 0h23l-1 45h-22v23h-22l-1-23h-21v-22h44z" fill="#2CC908"/>
<path transform="translate(151,489)" d="m0 0 45 1v20l1 1h43v22h-19l-1-2v3h-44l-1-1v-21l-24-1-1-3z" fill="#037317"/>
<path transform="translate(494,466)" d="m0 0h108l-1 22h-108v-20z" fill="#2CC908"/>
<path transform="translate(761,421)" d="m0 0h64v21h22l-1 23-22 1h-18v-24h-45z" fill="#09A111"/>
<path transform="translate(197,443)" d="m0 0h43l1 1v24h-21v21h-47l1-23h23z" fill="#97EF04"/>
<path transform="translate(448,465)" d="m0 0h80v1h-34l-1 22h22v16l-1 7h-44v-23h-23v-16z" fill="#037217"/>
<path transform="translate(824,465)" d="m0 0h13v1h-12v21l-42 1 1 21h-57v-21l36-1h20v-20l1-1z" fill="#035F1A"/>
<path transform="translate(579,70)" d="m0 0h43v71h-22v-48h-21z" fill="#09A111"/>
<path transform="translate(381,672)" d="m0 0h24l62 1 2 3v18l-2 1-20 1h-66z" fill="#F3530A"/>
<path transform="translate(528,465)" d="m0 0h96l20 1v42l-2 3h-41v-44l-73-1z" fill="#069214"/>
<path transform="translate(280,142)" d="m0 0h40v23h-17v47l-7 1h-16z" fill="#98EF04"/>
<path transform="translate(271,672)" d="m0 0h31l1 1v31l-1 15h-42v-45l1-1z" fill="#FEFCDE"/>
<path transform="translate(643,327)" d="m0 0h20l1 23-20 1-1 45-1 1-20 1 1 4v15l-1 2 2 1h-24l-15-1-7-1v-2l4-1v-11l-2-4 1-3 20-1h21l-1-10v-12l3-1h18v-23z" fill="#03601A"/>
<path transform="translate(360,231)" d="m0 0h12l7 2 1 6h1l1 13v30h21l-1 4h2v18h-40l2-1-1-14-1-7h-2v22h-2z" fill="#089C11"/>
<path transform="translate(492,397)" d="m0 0h28l56 1v22l-59 1-25-1z" fill="#0AA310"/>
<path transform="translate(705,166)" d="m0 0h21v46h-22v18h-20l-1-3v-38l22 1z" fill="#2DC908"/>
<path transform="translate(784,193)" d="m0 0h23v22h47v-20l1-1 17-1v22h-17v20h-48v-19h-24v-21z" fill="#032C29"/>
<path transform="translate(240,649)" d="m0 0h41v23h-22v47l-2 1-17-1z" fill="#F19C1C"/>
<path transform="translate(304,374)" d="m0 0h76v23h-76z" fill="#0AA310"/>
<path transform="translate(704,466)" d="m0 0h80l-1 21-20 1h-59z" fill="#2BC908"/>
<path transform="translate(760,121)" d="m0 0h20l2 2 2-2v71h-24z" fill="#032B29"/>
<path transform="translate(545,695)" d="m0 0h14v25h-67l-1-8v-16h49z" fill="#DD3410"/>
<path transform="translate(491,397)" d="m0 0h1v23h84v1h-39v21l-1 1h-65l-1-3v-20h21z" fill="#035F1A"/>
<path transform="translate(382,304)" d="m0 0h22l1 22h20l1 1v23l-23 1h-21z" fill="#037317"/>
<path transform="translate(536,234)" d="m0 0h22v70h-21l-1-1z" fill="#2AC809"/>
<path transform="translate(175,535)" d="m0 0h40l4 2v43l-24-1-1-1v-22h-20v-20z" fill="#022D24"/>
<path transform="translate(555,442)" d="m0 0h66l1 6v16l-1 1h-62l-4-1z" fill="#03601A"/>
<path transform="translate(752,282)" d="m0 0h34l-1 23h-24v22l-17 1h-11l-5-1-1-22h25z" fill="#5ADB04"/>
<path transform="translate(559,648)" d="m0 0h37v24h-37l1 18-1 5-14 1-5 1h-48l-1-1-1-22-6 1v-2l-3 1-5-1-1 2v-2h-4l-1 2-1-4 5-1h14l4 1 1 24h46l1-23 1-1 17-1z" fill="#921B1D"/>
<path transform="translate(913,232)" d="m0 0 2 2-1 30-23 1v40h-19v-41h18v-31z" fill="#092C27"/>
<path transform="translate(470,579)" d="m0 0h22v24h21l1 5v16l-1 1h-42l-1-1z" fill="#96EE05"/>
<path transform="translate(175,190)" d="m0 0h44v21l-2 1h-26l-1 5h-2v9l3 7v5h-3l-1 2-1 14-3 1-6-3v-9l1-3h-2v-26l2-3v-2h-2v47h-1l-1-6v-59z" fill="#042C29"/>
<path transform="translate(219,625)" d="m0 0h37l25 1 1 11v11l-1 1h-61l-1-1z" fill="#F3530A"/>
<path transform="translate(449,557)" d="m0 0h43v22h-22v23h-22v-43z" fill="#29C709"/>
<path transform="translate(305,487)" d="m0 0h15l2 1v23h-18v23h-21l-1 2-1-32v-16z" fill="#0EB20E"/>
<path transform="translate(786,282)" d="m0 0h21l-1 38-1 5-4 1-17 1h-23v-22h24v-22z" fill="#037517"/>
<path transform="translate(642,140)" d="m0 0 2 1-1 101-1 15-1 1h-19v22h-21l-1-1v-42l3 3 5 3h5l2 2v3 1l1 4-1 2h3l1-15 2-7 19-2 1-2 1-85h-2v-2l-17 1v-2z" fill="#04551E"/>
<path transform="translate(175,203)" d="m0 0h1v6h2l1 3-2 2-1 26h2v12l5 2 2-1 1-13 3-4v2h2l-1-5-2 2-1-9v-9l3-2 1-3h2l1 45 25 1v24h-27l-18-1v-31l1-2z" fill="#022E23"/>
<path transform="translate(303,165)" d="m0 0h18l24 1v23l-22 1v21l-2 1h-17l-1-1z" fill="#10B40E"/>
<path transform="translate(515,258)" d="m0 0h21l1 46h-43v-22h21z" fill="#2BC908"/>
<path transform="translate(643,282)" d="m0 0h21v45h-42v-23h21z" fill="#0AA011"/>
<path transform="translate(667,602)" d="m0 0h60v22h-62v-20l1 3h2l1-3z" fill="#04551E"/>
<path transform="translate(219,282)" d="m0 0h21v21l-1 1 20 1-1 22h-38l-1-22z" fill="#037516"/>
<path transform="translate(807,70)" d="m0 0h39l-1 49h-18v-28h-20z" fill="#0375A4"/>
<path transform="translate(323,885)" d="m0 0h56v10l-8-1-6 1v1h-11l-1 3-7 2-9 4h-2v3l25-2 9-1 2-2 3 3h-2l1 4h2v2h-2v10l3 2 7 2 247 1-1-5v-12h2v18h-262v-19h-46z" fill="#082821"/>
<path transform="translate(783,68)" d="m0 0h20l4 2v49l-22 1-2 1-1 3-2 1v-4h-20v-2h23zm22 2 1 2z" fill="#042A28"/>
<path transform="translate(492,580)" d="m0 0h56l-1 21-2-1-7 1v1h-24v6h-1v-5h-21l-1-3z" fill="#0EB30E"/>
<path transform="translate(241,444)" d="m0 0h23v1h-5v19l-2 25h-37v-21h21z" fill="#08A011"/>
<path transform="translate(643,508)" d="m0 0h1v25h-45v10h-1v-9h-2l-1-5 4-1v-14l-9-1-1 2-1 11-3 1-1-6v-8h-2v8l-2 6-1 8h-19v-1h17v-23l29-1h36z" fill="#079413"/>
<path transform="translate(174,625)" d="m0 0 3 1v3h-2l1 110 1 2h20l2 2v24h20v24h21v24h-20l1-5-2-1-1-18h-20l-1-1v-47l-22 1-1-1-1-115z" fill="#921B1D"/>
<path transform="translate(223,820)" d="m0 0h12l2 4-1 4 1 5-1 2h3v2h35v2l5 2 1 17-4 3h-38v-24h-20l1-4h2v2l4-2-2-1z" fill="#022D24"/>
<path transform="translate(216,350)" d="m0 0h24v23l17 1 1 2v20h-17l-17-1-1-2 1-3 6-1-5-2 1-5h-2l1-4h9v-3h-13l-2-1v-23z" fill="#08A111"/>
<path transform="translate(914,265)" d="m0 0h22l1 40 9 1-3 1-2 4 2 7-2 16-2 2h-1v39l1 13h2l2-4 2 3-1 4 12-1v2l-20 1v-87h-21l-1-5z" fill="#042A28"/>
<path transform="translate(728,533)" d="m0 0h32v43l-5 2-8 1-6 2-11-1v10l-2 32h-1l-1-16 1-27 17-1v-21l-17-1v-22z" fill="#013413"/>
<path transform="translate(561,579)" d="m0 0h17l1 1v22h-22v22l-1 1h-19v-22l9-1 1-21 1-1z" fill="#035F1A"/>
<path transform="translate(875,121)" d="m0 0h7v3l9 1 1 2 1 32-1 32-1 1h-18v-32h1v18h2l1-22 1-4v-7l-1-3-1-13-1-5z" fill="#022D24"/>
<path transform="translate(924,394)" d="m0 0h12v25h-19l-1 2-1 13h-42v-15l43-1 1-18 2-5z" fill="#032C28"/>
<path transform="translate(536,212)" d="m0 0h1v21h21v1h-22v24h-21v24h-21v-24l21-1v-24h21z" fill="#022E23"/>
<path transform="translate(281,212)" d="m0 0h15l8 1v43l-1 1h-23v-44z" fill="#09A310"/>
<path transform="translate(283,419)" d="m0 0 21 1v24h-21v23h-25l1-22 15-2h8v-14z" fill="#037417"/>
<path transform="translate(515,327)" d="m0 0h21v23l-21 1-1 22h43v-13h1v14l-45 1-21-1 1-24h21v-16z" fill="#03611A"/>
<path transform="translate(448,326)" d="m0 0h21l1 1v33l-1 12-3 2h-18l-1-25v-22z" fill="#079313"/>
<path transform="translate(596,648)" d="m0 0h48v22l-48 1z" fill="#DE3510"/>
<path transform="translate(257,118)" d="m0 0 64 1v23h25l-1 22h13l-2 2-8 1-1 26-1 92h-1v-119h-24l-1-1-1-25v-17l1-2h-62v87h-1z" fill="#023920"/>
<path transform="translate(405,69)" d="m0 0 43 1v23l-44 1-1-8v-16z" fill="#082E27"/>
<path transform="translate(493,189)" d="m0 0h22v23h-21v20h-22v25h-1v-46l1-1h21z" fill="#96EE04"/>
<path transform="translate(492,482)" d="m0 0h1v6h22v16l-1 7h-44l1-23h20z" fill="#09A111"/>
<path transform="translate(425,118)" d="m0 0h44l1 1v23l-23-1-2 1 2-5h-7l-5 2-3 1-1 2-3-2-1 2h-24v-1h22z" fill="#0EB30E"/>
<path transform="translate(383,465)" d="m0 0h42l1 7v16h-43l-1-1v-15z" fill="#037417"/>
<path transform="translate(383,397)" d="m0 0h43v19l-1 5-42-1z" fill="#079413"/>
<path transform="translate(579,70)" d="m0 0h43v22l-1 1h-42z" fill="#042B29"/>
<path transform="translate(683,258)" d="m0 0h21v47h-21z" fill="#037517"/>
<path transform="translate(383,511)" d="m0 0h21v23h-12l-9-1v22h-22v-22h21v-21z" fill="#2BC908"/>
<path transform="translate(704,373)" d="m0 0h24l-1 21h-2v-10l-6 2-1-4-1-2 1-2h2v-2l-8 1v3l3 1 1 3-5 1-1-1v-8h-5l1 16 5 1v1l15 1v1l-22 1h-40v25h-21l-1-24 1-1h20v-23h20l-1 4-1 1-14-1-1 16 3 1 8-1 11 1h16z" fill="#035F1A"/>
<path transform="translate(435,511)" d="m0 0 14 1 1 23h19l1 1 1 8v12h21v1h-43l-1 2v-24h-24l1-4 2-2 7 4v-5l-4-1-3-12v-3z" fill="#036119"/>
<path transform="translate(784,397)" d="m0 0h41v23h-42v-21z" fill="#022E22"/>
<path transform="translate(622,576)" d="m0 0 2 1v2h19v22h15v1h-58v-1l18-1-6-2-1 2h-7l-1-5-1 5h-2v-21h20l2 1z" fill="#04551E"/>
<path transform="translate(240,327)" d="m0 0h40l1 1v22h-41z" fill="#03601A"/>
<path transform="translate(664,510)" d="m0 0h40l1 2v21h-41z" fill="#037616"/>
<path transform="translate(727,310)" d="m0 0h1v17h18l-1 23-25 1-8 1-8-2 1-22 11-1h11z" fill="#0FB20E"/>
<path transform="translate(304,671)" d="m0 0h20l21 1 1 6v16h-42z" fill="#FD7104"/>
<path transform="translate(514,511)" d="m0 0h42v25l-1-2-41-1z" fill="#09A211"/>
<path transform="translate(304,465)" d="m0 0h40l1 3-1 20h-63v-1h23z" fill="#037317"/>
<path transform="translate(285,861)" d="m0 0h31l7 3v17l-1 3h-41v-20l4-2z" fill="#022D24"/>
<path transform="translate(581,397)" d="m0 0h39l2 1 1 4v15l-1 2 2 1h-24l-15-1-7-1v-2l4-1v-11l-2-4z" fill="#04541E"/>
<path transform="translate(824,465)" d="m0 0h13v1h-12v21l-40 1h-22v-1h20v-20l1-1z" fill="#037616"/>
<path transform="translate(222,556)" d="m0 0h35l1 1v21l-2 1-15 1h-22v-23z" fill="#079513"/>
<path transform="translate(664,212)" d="m0 0h19v46h-19z" fill="#037816"/>
<path transform="translate(468,419)" d="m0 0 3 1v22h65l1-21 39-1h48l-1 3h-15v2l-11 1-16 1h-5l-1 1-8 1-20-1-3-1-1-2-5 1 1 10 5 3v4h-5l-2 3-3 3h-9l-21-3v2h-8l-1-1-19-1-8-2-2-4 1-20z" fill="#02301F"/>
<path transform="translate(705,579)" d="m0 0h22v23l-29-1h-10v-1l-9-2v-2l7-2h17l-3-3h-4l1 2h-5l1-2-7-2-5-1v-3l5 1 1-4-4-2z" fill="#09A111"/>
<path transform="translate(664,466)" d="m0 0h40l1 13-1 9h-39l-1-1z" fill="#037417"/>
<path transform="translate(846,305)" d="m0 0h24l-1 44h-1l-2-10-7 3h-11v6l-2 1z" fill="#062926"/>
<path transform="translate(559,672)" d="m0 0h37v23h-37z" fill="#DE3510"/>
<path transform="translate(198,791)" d="m0 0h20l1 9v16h21l1 1v9l-1 10h40l1 1v23h43l1 23h55l1 1v20h-2v-19l-57 1h-42v-25l-6-1v-1l5-1-1-17-4-2v-2l-2 1-33-1v-2h-3l-1-8 1-4-1-2-12-1v12l4 2-6 1v-2h-2v3l17 1v1h-19v-24l-23 1v-11h2v10l2-1h16l1-7h1v-12l-17-1zm87 70v2l-4 1v20h41l1-3v-17l-7-3z" fill="#12241B"/>
<path transform="translate(683,189)" d="m0 0 21 1 1 22-1 18h-20l-1-3z" fill="#99EF04"/>
<path transform="translate(385,923)" d="m0 0h95l11 1 5-1h31l2 1h30l1-1h31l2 1h13l3-1h14l1 4h-241l-1-2z" fill="#042B2A"/>
<path transform="translate(126,328)" d="m0 0h1v24l-1-3-1 3v15l-1 4 3 2-1 1h-24l2-1v-44h10v1l-8 1v24l1-7 2 1 1-5-3-1v-8l5-2 7-1v-2l4 1 1 5h1z" fill="#032C24"/>
<path transform="translate(219,535)" d="m0 0h38l1 1v21h-39z" fill="#04551E"/>
<path transform="translate(552,118)" d="m0 0h5l1 1v17l-2 3h-40l-1-3v-16h37z" fill="#032B29"/>
<path transform="translate(181,581)" d="m0 0 12 1v39l-1 3-15 1-3-2v-41z" fill="#022D24"/>
<path transform="translate(398,93)" d="m0 0h5l1 3v24l-1 1h-24v44h-2v-43h-17l1-2h17v-26z" fill="#042A29"/>
<path transform="translate(621,883)" d="m0 0h99l7 1v1h-63l1 2v22h-20v-1l18-1v-21h-41l-1 20-4 2-233-1v2h-2l-2-4h239l1-21z" fill="#12211C"/>
<path transform="translate(347,625)" d="m0 0h34v22h-34l-1-7v-8z" fill="#037517"/>
<path transform="translate(847,396)" d="m0 0h25l1 22h7v1h-7v15h42v-14l2 1v15h-45l-1-1v-16l-12 1h-12z" fill="#072E27"/>
<path transform="translate(344,556)" d="m0 0h17v21h-2v24h-16v-23z" fill="#037516"/>
<path transform="translate(283,651)" d="m0 0h29l7 1 4 4-4 1-2 4h2v2l3 1 1 2-7 4-12 1h-20l-2-3v-16z" fill="#F4540A"/>
<path transform="translate(600,212)" d="m0 0h22v21l-2 7-1 13-1 2h-3l-1-4-2-3h3l-2-4h-5l-2 4-1-6-2-1-1 5h-1l-1-9z" fill="#08A011"/>
<path transform="translate(728,350)" d="m0 0h15 4 3v2l10-2v22l-32 1-1-2v-20z" fill="#04551E"/>
<path transform="translate(469,92)" d="m0 0 2 1-1 25h23v18h-2v-16h-20l1 18 10 1 9 1v1h-21l-1-22-21-1v-25z" fill="#032B29"/>
<path transform="translate(642,140)" d="m0 0 2 1-1 101-1 15-1 1h-20v-18l1-7 18-2 1-2 1-85h-2v-2l-17 1v-2z" fill="#04551E"/>
<path transform="translate(381,671)" d="m0 0h88l2 2h13 2 5v23h-44v-1l22-1-1-18-1-3h-62l-24-1z" fill="#DE3510"/>
<path transform="translate(220,374)" d="m0 0 14 1v3l-3 1h-6l-1 3h2l1 4-1 1 7 2v1h-9v4l17 1v1h-46v-21z" fill="#0FB40E"/>
<path transform="translate(515,258)" d="m0 0h21l1 46h-10l3-1v-7h1l1 6 1-4 1-2v-14l-1 5-3-4h-3l-3 4-5-1-2-2h-20l-1 2-1 18h-1v-22h21z" fill="#60DE04"/>
<path transform="translate(891,235)" d="m0 0h22l1 29h-23z" fill="#032B29"/>
<path transform="translate(704,466)" d="m0 0h80l-1 4-1 16h-10v-3h5l1-2 1 1 1-8h-5l-1-2 2-1-1-2 1-2h-49v20l-23 1z" fill="#0CB00F"/>
<path transform="translate(757,283)" d="m0 0h28v22h-24l-4-1h-1v-10l-2-2 1-5 2-1-3-1z" fill="#2FCA08"/>
<path transform="translate(704,212)" d="m0 0h1v19l-1 27h-21v-31l1 3h20z" fill="#2DC908"/>
<path transform="translate(491,625)" d="m0 0h12v1l-10 1v7h1l1 9 1 3 40 1v-22h1v23l-24 1v21h-21l-1-1z" fill="#04561E"/>
<path transform="translate(761,421)" d="m0 0h23l16 1-2 2-9 1 2 7-5 1 2 3v4h14l2 2h-43z" fill="#079313"/>
<path transform="translate(193,257)" d="m0 0 26 1v24h-25z" fill="#037616"/>
<path transform="translate(469,360)" d="m0 0h1v37h-22v-22h-44v-8h1l1 5 10 1h50l2-1z" fill="#036119"/>
<path transform="translate(707,162)" d="m0 0h2v3h17v1h-21v24h-21l-1-1v-24l22-1z" fill="#032D23"/>
<path transform="translate(362,282)" d="m0 0h2l2 7v14l16 1v23l-3 1h-18v-24z" fill="#05551F"/>
<path transform="translate(707,147)" d="m0 0h33l1 4-4-2-1 3h2v5h-3l3 3v4h-4v3h-2v9l-3-1v-9l-20-1v-3l-4 2 1-3z" fill="#032B29"/>
<path transform="translate(126,373)" d="m0 0h42l5 1 1 21 10 1v1h-33l-1-1v-22h-24z" fill="#037117"/>
<path transform="translate(557,93)" d="m0 0h22l1 2v23h-23z" fill="#052927"/>
<path transform="translate(471,257)" d="m0 0h41v1h-18v23h-23z" fill="#079114"/>
<path transform="translate(891,264)" d="m0 0h23v5h-2l1 2v17l-23 1v-24z" fill="#0273A4"/>
<path transform="translate(281,350)" d="m0 0h23v24h-23z" fill="#0A9613"/>
<path transform="translate(784,193)" d="m0 0h23v23h-24v-21z" fill="#032E28"/>
<path transform="translate(807,215)" d="m0 0h47l-1 9h-2l1 4-5 2-16-1h-15l-3-1v-2l-4-2z" fill="#032B29"/>
<path transform="translate(557,234)" d="m0 0h1v70h-21l-1-1v-14l1-8h19z" fill="#079313"/>
<path transform="translate(404,233)" d="m0 0h21l1 10v15h-22z" fill="#31CB08"/>
<path transform="translate(472,232)" d="m0 0h22v25l-2 1-20-1z" fill="#2AC809"/>
<path transform="translate(552,164)" d="m0 0h6v25h-22v-24z" fill="#069213"/>
<path transform="translate(425,578)" d="m0 0h23v23h-24v-22z" fill="#035F1A"/>
<path transform="translate(285,509)" d="m0 0 19 1v24h-21l-1 2v-26z" fill="#2DC908"/>
<path transform="translate(127,374)" d="m0 0h23v23h-23z" fill="#032C23"/>
<path transform="translate(151,466)" d="m0 0h23v22l-1 1h-22z" fill="#2ECA08"/>
<path transform="translate(174,442)" d="m0 0 23 1v23h-22l-1-2z" fill="#037716"/>
<path transform="translate(426,258)" d="m0 0h22v24h-22z" fill="#10B40E"/>
<path transform="translate(402,720)" d="m0 0h23v24h-22l-1-6z" fill="#F1A21E"/>
<path transform="translate(494,556)" d="m0 0h20l1 24h-23v-23z" fill="#036219"/>
<path transform="translate(827,350)" d="m0 0h16l2 2h-7l-1 16 3 1v13l3 1-1 6-4-2h-5l1 7h10v2h-17z" fill="#022E24"/>
<path transform="translate(405,326)" d="m0 0h20l1 1v23h-22v-22z" fill="#079413"/>
<path transform="translate(495,304)" d="m0 0h41v23h-21l1-2-1-4v-9h-3v-4l-9-2h-8z" fill="#0EB20E"/>
<path transform="translate(381,602)" d="m0 0h22l1 22-4 1h-18l-2-1v-21z" fill="#05551F"/>
<path transform="translate(258,602)" d="m0 0h24v16l-1 6-3 1h-15l-4-1z" fill="#035D1A"/>
<path transform="translate(216,350)" d="m0 0h24v23h8v1h-29v-23z" fill="#037417"/>
<path transform="translate(578,188)" d="m0 0 2 1v27l-1-4h-21v-23z" fill="#079213"/>
<path transform="translate(173,374)" d="m0 0h2l1 1v-1h44v1l-24 1v19l-1 1h-22z" fill="#079513"/>
<path transform="translate(725,256)" d="m0 0h1v25h-22v-23h21z" fill="#03601A"/>
<path transform="translate(303,165)" d="m0 0h18l-2 6-2-2 1-2-6 1-8-1 1 29 1-4 5-4 9-2 3 5v20l-2 1h-17l-1-1z" fill="#08A111"/>
<path transform="translate(382,304)" d="m0 0h22v23l-21 1-1-1z" fill="#069214"/>
<path transform="translate(848,373)" d="m0 0h21v21l-1 2-20 1-1-1v-22z" fill="#0273A4"/>
<path transform="translate(307,556)" d="m0 0h37v22l-2 1h-19l-1-1v-21h-15z" fill="#2CC908"/>
<path transform="translate(684,555)" d="m0 0h12l10 1v21l4 1h-26z" fill="#97EF04"/>
<path transform="translate(580,279)" d="m0 0 20 1v24h-21v-15z" fill="#03601A"/>
<path transform="translate(382,597)" d="m0 0 4 2h13l4-1 3 4-1 15h-2v-15l-22 1v15l-1 6 20 1-2 4-12 1-3 3-1 15-6 1h-24v2l-5-1-3-4-1-6v-9l1-3h2l1-3v22h34v-22h-33v-1l23-1v-13l3-1 2 14h2v-23z" fill="#01311B"/>
<path transform="translate(219,791)" d="m0 0h21v24h-20l1-5-2-1z" fill="#B4201B"/>
<path transform="translate(362,231)" d="m0 0h10l7 2 1 6h1l1 19h-21z" fill="#2BC908"/>
<path transform="translate(450,560)" d="m0 0h2l1 14 3 2 9 1 1 3v12h2v-16h2v26h-22l2-2z" fill="#0DB10F"/>
<path transform="translate(643,508)" d="m0 0h1v25h-22v-22l20-1z" fill="#035F1A"/>
<path transform="translate(219,626)" d="m0 0h21l1 12-1 11h-20l-1-1z" fill="#FC8206"/>
<path transform="translate(491,511)" d="m0 0h23v22h-22z" fill="#035F1A"/>
<path transform="translate(361,533)" d="m0 0h22v22h-22z" fill="#0EB30E"/>
<path transform="translate(826,420)" d="m0 0h21v22h-22v-21z" fill="#022E23"/>
<path transform="translate(622,304)" d="m0 0h21v23h-21z" fill="#97EF04"/>
<path transform="translate(683,258)" d="m0 0h21v23h-21z" fill="#08A111"/>
<path transform="translate(448,602)" d="m0 0h22v22h-22z" fill="#03601A"/>
<path transform="translate(761,305)" d="m0 0h19l3 1v21h-22z" fill="#079413"/>
<path transform="translate(536,304)" d="m0 0h21v23h-21z" fill="#04541E"/>
<path transform="translate(786,282)" d="m0 0h21l-1 22-4 1h-17v-22z" fill="#08A011"/>
<path transform="translate(580,216)" d="m0 0h1v18l18-1v25h-19z" fill="#64DF04"/>
<path transform="translate(149,512)" d="m0 0h21l2 1 1 3v16h-24z" fill="#022E23"/>
<path transform="translate(643,397)" d="m0 0h19v3 17l-1 2 3 1v2h-21l-1-24z" fill="#03601A"/>
<path transform="translate(382,282)" d="m0 0h21l-1 4h2v18h-22z" fill="#2DCA08"/>
<path transform="translate(601,488)" d="m0 0h21v23h-21z" fill="#29C709"/>
<path transform="translate(259,327)" d="m0 0h21l1 1v22h-21l1-4v2h6v-2l-7-1-1-5v-5l1-2z" fill="#079413"/>
<path transform="translate(448,282)" d="m0 0h23l-1 5-1 17h-21z" fill="#09A111"/>
<path transform="translate(324,327)" d="m0 0h21v22l-20 1-1-1z" fill="#0FB40E"/>
<path transform="translate(435,511)" d="m0 0 14 1v23h-25l1-4 2-2 7 4v-5l-4-1-3-12v-3z" fill="#04551E"/>
<path transform="translate(643,327)" d="m0 0h20l1 23-20 1-2 1z" fill="#037317"/>
<path transform="translate(515,141)" d="m0 0h21v22l-21 1z" fill="#0AA410"/>
<path transform="translate(645,443)" d="m0 0h19l1 3-1 20h-40v-1h21z" fill="#035F1A"/>
<path transform="translate(360,374)" d="m0 0h20v23h-20z" fill="#2BC909"/>
<path transform="translate(264,444)" d="m0 0 17 1 1 4-1 15-1 1-22 1 1-21z" fill="#037517"/>
<path transform="translate(515,375)" d="m0 0h21v21l-7 1h-15z" fill="#5EDD04"/>
<path transform="translate(232,511)" d="m0 0h8v22h-19l-1-2v3h-14l3-2 7-1 2-3 1-14 1-2z" fill="#04541E"/>
<path transform="translate(404,211)" d="m0 0h21v21l-8 1h-13z" fill="#022D24"/>
<path transform="translate(220,282)" d="m0 0h20v21l-6 2h-13l-1-1z" fill="#2DC908"/>
<path transform="translate(547,582)" d="m0 0h3l1 17 4 2v22l-1 1h-17v-21l9-1z" fill="#037516"/>
<path transform="translate(383,397)" d="m0 0 20 1 1 22h-21z" fill="#2BC908"/>
<path transform="translate(643,282)" d="m0 0h20v23l-20-1z" fill="#62DE04"/>
<path transform="translate(623,96)" d="m0 0 2 3 6-1 7 1 3 3 1 12-3 3 2 2 2 4-5 3-1 2-6 3-3-1v-21l-2 3h-2v25h-1z" fill="#032B29"/>
<path transform="translate(536,533)" d="m0 0h16l3 1 1 2v16l-1 2-3 2h-16z" fill="#037417"/>
<path transform="translate(580,258)" d="m0 0h20v22h-19l-1-1z" fill="#0FB40E"/>
<path transform="translate(197,790)" d="m0 0 2 2 15 1 2 1 1 3v12l-3 4-18 1v-10h-2v-13z" fill="#022D24"/>
<path transform="translate(581,397)" d="m0 0h20l1 3v19h-17l-7-1v-2l4-1v-11l-2-4z" fill="#037517"/>
<path transform="translate(762,599)" d="m0 0h24l1 2v23h19v3l-20-1-1-25h-22v22l-2 2-15 1-1 21-1 1h-98l-1-1v-22l2 2 1 19h54l7-1 33 1 1-2 1-19 2-2h14v-22z" fill="#11211C"/>
<path transform="translate(218,800)" d="m0 0h1v9l3 1-1 4-1 1h28l11 1 1 20h-20v-19l-21-1-1-5z" fill="#911B1E"/>
<path transform="translate(240,234)" d="m0 0h16l2 4v20h-18z" fill="#037417"/>
<path transform="translate(362,268)" d="m0 0 3 2 1 11h10l5 1v-9h1v31h-18l2-1-1-14-1-7h-2z" fill="#069114"/>
<path transform="translate(199,491)" d="m0 0h21l-1 10v7l-2 3h-20v-16z" fill="#0DB30E"/>
<path transform="translate(304,258)" d="m0 0h18l1 21-2 2h-17z" fill="#11B50E"/>
<path transform="translate(471,120)" d="m0 0h20l1 21 7 1v2h-3v13h-1v-14l-4-1v-2h-15l-5-2z" fill="#032B29"/>
<path transform="translate(304,671)" d="m0 0h20l21 1 1 6v16h-42zm1 1v21h29l-1-2 1-7-8-9-7-3z" fill="#F3530A"/>
<path transform="translate(198,791)" d="m0 0h20l1 9v16h21l1 1v9l-1 8-4 1-1-8 1-4-1-2-12-1v12l4 2-6 1v-2h-2v3l17 1v1h-19v-24l-23 1v-11h2v10l2-1h16l1-7h1v-12l-17-1z" fill="#052A23"/>
<path transform="translate(240,305)" d="m0 0h19l-1 22h-18z" fill="#29C709"/>
<path transform="translate(685,346)" d="m0 0h3v3h14v1h-19l1 3-1 21h-20v23l-20 1v23l-2-1v-19l-2-2h-14l-3 3v-4l-2-1 22-1 1-12 3 3v5l-2 3 4-2 4-1v2h7v-4h-2v-3h2l-1-5-4-1v-11h2l2 4 6-4 3-1 3 2 11 1v-22z" fill="#02311E"/>
<path transform="translate(403,556)" d="m0 0h21l-2 4-11-1-5-1 1 3-1 19-3 3h-3v-2h-38v18l-1 3-3 2h-5l-1-1h-48v-2h55v-23l44-1z" fill="#01311D"/>
<path transform="translate(222,540)" d="m0 0 6 1v2l7 1 7 2 11 1h2l2-2 1 12h-38l1-12z" fill="#03601A"/>
<path transform="translate(516,235)" d="m0 0h19v21l-2 1h-15l-1-1z" fill="#022D24"/>
<path transform="translate(468,419)" d="m0 0 3 1v22h65l1-20 2 2v12l5 3v4h-5l-2 3-3 3h-9l-21-3v2h-8l-1-1-19-1-8-2-2-4 1-20z" fill="#01311D"/>
<path transform="translate(646,466)" d="m0 0h18l1 21 62 1v21h55l-3 3h-51l-3-3v-2l-3-1 3-3-1-4-4-5h-14l-5-2 1-2-39-1-3-2 1-4 1-2 1-14h-17z" fill="#02301E"/>
<path transform="translate(805,421)" d="m0 0h20v22h-15l2-4-6-2-1-10 1-4z" fill="#0FB40E"/>
<path transform="translate(489,289)" d="m0 0h1l2 14 1 33v36l-1 2h21l1 1v22h-23l2-2 19-1 1-17h-19l-5-5v-19h2v-6l-4 2-1-5 4-2v-6l-1-1v-10l-1-5v-15l-1-9z" fill="#01311C"/>
<path transform="translate(644,466)" d="m0 0h1v11l3-1 3 4v6h-3l-1 3v-4h-2l1 25h2l-1-6 1-8 2 1v14l-3 1v20l-2 3-13 2h-7l-3-2-17 1-2 1-1 12 4-1h2v3l-2 1v4h-6v-23h44l-1-3z" fill="#01311B"/>
<path transform="translate(705,376)" d="m0 0h5l1 8 4-1-4-5 1-2h8v2h-2l1 4 1 3 5-1v10h2v2h54v1l-53 1-1 18h-1l-1-18-21-1v-1l5-1v-2l-3-1-1-6z" fill="#013714"/>
<path transform="translate(683,580)" d="m0 0h22v21h-17v-1l-9-2v-2l7-2h17l-3-3h-4l1 2h-5l1-2-7-2-5-1v-3l5 1 1-4z" fill="#079313"/>
<path transform="translate(240,350)" d="m0 0h18l-3 3h-9l-1 14h2l3 5 8 1 2 4 1 7 2-2-2-6 1-7h3l1 6v19h9l5-2v-2h2l2 6h-25l-1-18-1-4h-9l-8-1z" fill="#01321A"/>
<path transform="translate(154,625)" d="m0 0h18l-2 1 2 1v7l-2-3-1-2-10-1-1 3v136h2v2h-5z" fill="#112724"/>
<path transform="translate(257,481)" d="m0 0h1l-1 29-17 1v-22h17z" fill="#037417"/>
<path transform="translate(760,350)" d="m0 0h21v2h-19v19l-4 4-22 1-6-1v7l4 2v3l-3 2-1 4 5 1h16l2-1 9-1 4-1v2h9l4-1v4h-52l-1-4 1-18 1-1 7-1h25z" fill="#01321B"/>
<path transform="translate(752,260)" d="m0 0 7 1h61v3l-9 1v-2h-8l-4 4-17 2-20-1-7-3-2 1z" fill="#032B29"/>
<path transform="translate(281,648)" d="m0 0h43l1 22h51l5 1v1h-100zm2 3-1 1v16l2 3h20l12-1 7-4-1-3h-3v-2h-2l2-4 4-1-4-4-9-1z" fill="#C32A16"/>
<path transform="translate(664,555)" d="m0 0h19l1 5v18h-3l-5-1-4-1-2-7h-2l-3-8z" fill="#069214"/>
<path transform="translate(825,602)" d="m0 0 5 1 1 168-5-1v-3h2v-144l-1-18z" fill="#052B2A"/>
<path transform="translate(383,645)" d="m0 0 8 1h45l30-1 6 3-1 15v5l19 1 4 2v23h40l2-2h2l1-20h1v23l-1 1h-46l-1-1v-24h-22l-1-2v-21h-87z" fill="#12211C"/>
<path transform="translate(807,628)" d="m0 0h2l1 111-2 6-1 1h-21l-1 44h-1v-47h23z" fill="#11211C"/>
<path transform="translate(462,463)" d="m0 0h35l1 2h-50l-1 23h23v9l-2 4-3 1 1-11-2-1h-16l8 1v1l-8 2h-3l-5-2v-11l1-2v-8h2l-1-4 2-2 2-1z" fill="#01311C"/>
<path transform="translate(279,215)" d="m0 0h1v42h24v24h18v23l-2-2v-16h-18l-2-5v-3h-2v-10l3-1v13h2l-1-17-9-2h-11l-6-3 1-3h2z" fill="#013218"/>
<path transform="translate(807,216)" d="m0 0 2 4 2 5 2 1v2l3-1 1 1h22l10 1 2-2v-3h2v-7h1l1 7v11h-48z" fill="#103420"/>
<path transform="translate(119,330)" d="m0 0 4 1v6l-1 4v6h-2l-1 2 1-5-2-7-5-1 4 31 1 3-9-1-2-1-1-13 1-7 2 1 1-5-3-1v-8l5-2 7-1z" fill="#042B2A"/>
<path transform="translate(809,628)" d="m0 0h3v13l1 2v19l-1 1v70l-2 2-1-1z" fill="#042B2A"/>
<path transform="translate(321,143)" d="m0 0 23 1 1 1v20l-7-1-1-4-3-1-2-11h-2v5l-2 7-3-2-1-12-2-1 1 15 1 2-3 1z" fill="#032B29"/>
<path transform="translate(336,578)" d="m0 0h6l1 2-1 20h-26l-1-3v-3l14-3 6 1v-3l-4-2 1-4-3-1v-2l-4-1z" fill="#079313"/>
<path transform="translate(257,118)" d="m0 0 64 1v23h25v8h-1l-1-5-24-1-1-4v-17l1-2h-62v87h-1z" fill="#335017"/>
<path transform="translate(352,374)" d="m0 0h8l-1 21h-15l-1-20z" fill="#069214"/>
<path transform="translate(239,512)" d="m0 0h1l1 15 2 3 15 1 2 7-1 39 2 1-2 3h-38v-1l37-2-1-42-38-1-1 2-3-1h-41l1-3 45 1v-3l2 1h17z" fill="#023417"/>
<path transform="translate(305,487)" d="m0 0h15l2 1v23h-16l-1-2 8-1-3-2v-3l-1-5 1-7-6-2z" fill="#08A011"/>
<path transform="translate(647,120)" d="m0 0h17v69h19v21h-1l-1-17-1 14h-2l-1-15h-12l-4-2-1-4 1-1 1-62-2-1 1 5-3-1-2-2h-8l-3 1-2-2z" fill="#0C2923"/>
<path transform="translate(194,578)" d="m0 0 24 1 2 2v17l1 2 18 1 1 1v22h16v1h-37v-1h19l-3-21-12-1v2h-3l-2-3v-20h-22v7l1 5-1 33-4 3v-2l-2-1 3-2v-44z" fill="#A81E1C"/>
<path transform="translate(600,94)" d="m0 0h21v10l-1 7-3 1-1-7v-8h-2v21h-2l-1-21h-7v40l-4 4z" fill="#079413"/>
<path transform="translate(304,534)" d="m0 0h1v21l-9 2-9-1-1-4 7-9-3-2v-2l5-1-1-1-6-1v-1h15z" fill="#0FB40E"/>
<path transform="translate(175,535)" d="m0 0h40l4 2v43l-24-1-1-2 1-5h1v5l19-1v-32l1-5v-2l-40-1 1 18h16l1 2h-20v-20z" fill="#01321B"/>
<path transform="translate(621,556)" d="m0 0h1v24l-22-1v21h2l-1-3 2-4 1 7 6-1 3-2 6 3v1h-22l-4-7 1-6 3-9 8-3 7-1 3 1v-14l1-2h2v15h3l-1-17z" fill="#01311D"/>
<path transform="translate(223,820)" d="m0 0h12l2 4-1 4 1 5-1 2h3l1 3 1 21 6 1v1h-9v-24h-20l1-4h2v2l4-2-2-1z" fill="#052A28"/>
<path transform="translate(873,421)" d="m0 0 6 1 1-1h16l2 2-2 3-16 1v4h13v-2h3v-2l12-2 4-3 2 1-4 7h2v3h-35l-3-1z" fill="#022D24"/>
<path transform="translate(938,306)" d="m0 0h8l-3 1-2 4 2 7-2 16-2 2h-1v39l1 13h2l2-4 2 3-1 4 12-1v2l-20 1v-86z" fill="#032B28"/>
<path transform="translate(344,191)" d="m0 0h1v113h-11v-16l7-1 2-8z" fill="#03601A"/>
<path transform="translate(708,148)" d="m0 0h28l-4 2h-8v2l9 2-1 4-3 4-3-2-1 3-4-2-2 3h-5l-1-5-5 2z" fill="#032C27"/>
<path transform="translate(505,553)" d="m0 0h7l5 3v4 15l1 3 26 1 1-2 7 1 26-1 2 4 3 1 1-2h2l1 4-4 2-1 2-1 12-2 1-1-21h-63l-1-1v-23l-22 1-21-1v-2h33z" fill="#01321A"/>
<path transform="translate(555,442)" d="m0 0h66l1 6v16l-1 1h-62v-1h61l-1-16-1-3-10 1-4-1h-45l-1 2-1 17h-2z" fill="#04551E"/>
<path transform="translate(621,233)" d="m0 0h1v24l-1 1h-21v-21l3 3 5 3h5l2 2v3 1l1 4-1 2h3l1-15z" fill="#037616"/>
<path transform="translate(807,91)" d="m0 0h19v5l-5 4-4 7-2 5h-4l-1-2-1 10-2-1z" fill="#FDFEFB"/>
<path transform="translate(545,599)" d="m0 0 2 4-16 1v2l-5 1-1 8-1 9-8 1-1-1-1-20-1-3h23v-1h7z" fill="#08A111"/>
<path transform="translate(873,120)" d="m0 0 3 3v5l1 1 1 13 1 3v7l-1 4-1 20-1 2h-2l-1 6h-1v-63z" fill="#032B29"/>
<path transform="translate(621,883)" d="m0 0h99l7 1v1h-63l1 2v22h-20v-1l18-1v-21h-43z" fill="#36251B"/>
<path transform="translate(221,472)" d="m0 0 6 2 9 1 2 2v3h2l1 3 2 2-2 2 2 2h-23z" fill="#0EB40E"/>
<path transform="translate(336,892)" d="m0 0h35v2l-6 1v1h-11l-1 3-7 2-9 4-5-1-4-2v-2h2l-1-5 4-1z" fill="#032B29"/>
<path transform="translate(557,602)" d="m0 0h23v2h-2v2h-17l-1 1v19l-2 2h-11l-3 2-4 1-1 19-27-1v-1h25v-23l19-1z" fill="#01311C"/>
<path transform="translate(358,578)" d="m0 0h1v23h-16l4-2 2-4-4-7v-7l1-2 5 1 2 1 1-2z" fill="#035F1A"/>
<path transform="translate(344,463)" d="m0 0h40l43 1 1 2 1 12 2 1-1 3-2 2v21l2 3-1 3 2 1h-5v-23l-1-24h-121v-1z" fill="#013C16"/>
<path transform="translate(600,221)" d="m0 0 2 4v9l11-2 5 1 2-2 1 7-1 2-1 13-1 2h-3l-1-4-2-3h3l-2-4h-5l-2 4-1-6-2-1-1 5h-1l-1-9z" fill="#069214"/>
<path transform="translate(640,892)" d="m0 0h12l3 2 1 9-1 2h-24l-2-1v-6h12v-4z" fill="#042B2A"/>
<path transform="translate(687,648)" d="m0 0h19v1l-9 1 7 1-2 1v2h2l2 3-1 5-16 2-3-3 1-6-7-1v-3h8z" fill="#B5211B"/>
<path transform="translate(196,398)" d="m0 0h9l1 5v13l10 2 1-3 4 1 1 1 10 1v1h-36z" fill="#04551E"/>
<path transform="translate(704,373)" d="m0 0h24l-1 21h-2v-10l-6 2-1-4-1-2 1-2h2v-2l-8 1v3l3 1 1 3-5 1-1-1v-8h-5l1 16 5 1v1l15 1v1h-22z" fill="#04541E"/>
<path transform="translate(726,167)" d="m0 0h1l1 89 1 1v11l2 6-2 2-2 7-4 2-4-1-11-1-1 2v-2h-2l1 20-2 2-1-5 1-19h22z" fill="#013218"/>
<path transform="translate(672,504)" d="m0 0h31l1 2-16 1v2h15v1h-39v46h-40v-1l32-1 7-1v-41l-4-1 3-3 10-1v2l7-2-7-1z" fill="#01311B"/>
<path transform="translate(130,312)" d="m0 0 8 1 6 1 1-2h24l-1 5-11 2-2 2-11 1-1-4h-10l-5-1-1 3h-3l-1-4 5-3z" fill="#042B2A"/>
<path transform="translate(725,256)" d="m0 0h1v25h-22v-23h21zm-4 3-1 1h-10l-5 1v4h15l-1 3h-14v10l6 1h8l4-7v-7l-1-2 1-3z" fill="#04551E"/>
<path transform="translate(676,871)" d="m0 0h28l2 1v6l-3 2h-15v-2l-13 1-1-3z" fill="#042B2A"/>
<path transform="translate(440,118)" d="m0 0h29l1 1v11h-2l-2-4-2 2h-12l-4-5-8-1v-2h-7v-1z" fill="#089E11"/>
<path transform="translate(536,212)" d="m0 0h1v21h21v1h-22v24h-21v24h-21v-1l17-1 1-1 1-12-1-5h2l-3-4 4-1v-24h21zm-20 23 1 21 1 1h15l2-1v-21z" fill="#014415"/>
<path transform="translate(684,555)" d="m0 0h12v1l-9 1v17l2-9 1 3h4 2v-5l4 1 1 9 1 2 2-1v-18h2v21l4 1h-26z" fill="#66DF04"/>
<path transform="translate(520,422)" d="m0 0h15l1 3-3 1 1 4v9l-5 2-8-1-1-5z" fill="#037417"/>
<path transform="translate(529,396)" d="m0 0h72v1l-20 1 1 5h1v13h-5l7 2 15 1v1h-24v-22h-56v-1z" fill="#079513"/>
<path transform="translate(528,465)" d="m0 0h96l20 1v30h-1l-1-8v-13l-1-7-2 2h-18l3-1v-2h-22l-74-1z" fill="#079612"/>
<path transform="translate(198,419)" d="m0 0h82l2 1v23l-8 1 4-2h3l-1-12 1-8-6 2-4 2v-4l-73-1z" fill="#013318"/>
<path transform="translate(579,70)" d="m0 0h43v22l-1 1h-40l3-2 10-1 3-3h2l2 3 4-2 3-1 2 2h9l-1-1v-3-5h2l-1-8h-38v18h-2z" fill="#03321C"/>
<path transform="translate(326,420)" d="m0 0h34l-1 23h44l29 1v1l-66 1-2 2h-4l-2-3-1-5-1-16-3-1-25-1z" fill="#013415"/>
<path transform="translate(705,145)" d="m0 0h37l-1 43h-1l-1-10-3-6-4 1v-6h2v-3h4l-1-6-3-1 2-1 2 1v-5h-2l1-4 3 2v-3h-33v14l-2 1z" fill="#062A21"/>
<path transform="translate(444,574)" d="m0 0 2 4-6 1h-15v13l-1 9h24v23h-1l-1-16h-2l-2-2-4-1h-8l-4 1-3-3-1-3v-14l-1-5 5-5 16-1 2 1z" fill="#01321A"/>
<path transform="translate(493,350)" d="m0 0 13 1v1h-12l1 16 4 1 13 1v-11l-2-1h2l1-7h1v22h43v-13h1v14l-45 1-21-1z" fill="#04521B"/>
<path transform="translate(448,111)" d="m0 0 1 3 5-1h10v2l3-1 3 3 23 1v18h-2v-16h-20l1 18 10 1 9 1v1h-21l-1-22-21-1z" fill="#023121"/>
<path transform="translate(924,394)" d="m0 0h12l-1 7-7-3v2h-2l1 7 2 1-2 4-1 3h-4v-4h-2l-1 3-1-5h-1v-9l2-5z" fill="#032E28"/>
<path transform="translate(220,327)" d="m0 0h20v23h-23l1-3-3-1 1-1-3-1v-2h7l1 2-2 1v4l20-1v-2h-15v-2l-2-1 10-2h2l2-7 3-3-18-2z" fill="#01311C"/>
<path transform="translate(174,625)" d="m0 0 3 1v3h-2l1 110 1 2h20l2 2v24h20v1h-22v-25l-22 1-1-1-1-115z" fill="#A01D1C"/>
<path transform="translate(601,467)" d="m0 0h1v7l34-1v4l3 3-7 2h-5l-3-2v-2h-22l3 4-4 5z" fill="#08A111"/>
<path transform="translate(239,601)" d="m0 0h2l1 20 1 1 15 1 7 1h16l2 2 1 5 1 2h-2v3h2v2h-2l1 7 3 1h37v2l-2 1h-38l-2-1-1-11v-11h-25v-2h-16z" fill="#12211C"/>
<path transform="translate(362,282)" d="m0 0h2l2 7v14l4 1 1 16 1 5h-4l-1-4h-2v-3h-2l-1-13z" fill="#03601A"/>
<path transform="translate(815,53)" d="m0 0h12v16h-13v-15z" fill="#0273A4"/>
<path transform="translate(606,258)" d="m0 0h15l-1 6v7l-2 7h-6l-1-1v-6l-7-1-1-4 1-2 6-1 4 1 1-2-7-2z" fill="#03601A"/>
<path transform="translate(173,189)" d="m0 0h47v23l-3-1h2v-21l-44 1-1 90h18l-3 2h-16l-1-93z" fill="#16231E"/>
<path transform="translate(324,327)" d="m0 0h21v21h-9v-1h8v-18l-14 1v3h2v-2h2v5h-4l1 8-1 4-6 1z" fill="#22C00B"/>
<path transform="translate(324,886)" d="m0 0 2 1-1 1v19h27l17-2 2-2 3 3h-2l1 4h2v2h-2v10l3 2 7 2v1h-13l-1-17-46-1v-22z" fill="#032B29"/>
<path transform="translate(705,512)" d="m0 0 3 1 3 12 4 1 2-4 3-1 1 8 5 2 1 2h-22z" fill="#02311E"/>
<path transform="translate(784,194)" d="m0 0 2 4 6-1-2 3 1 10 7 1 2-2h3l1 7h-21v-21z" fill="#123A20"/>
<path transform="translate(807,24)" d="m0 0h40v35l-1 7h-1v-40h-36v22l-2-1z" fill="#142A20"/>
<path transform="translate(722,212)" d="m0 0h4v44l-1 2h-13v-1l9-2 1-11z" fill="#089B12"/>
<path transform="translate(316,860)" d="m0 0h8l1 23h55l1 1v20h-2v-19l-57 1h-34v-1l32-1 2-3 1-17-7-2z" fill="#12211C"/>
<path transform="translate(557,234)" d="m0 0h1v70h-8l1-9 1-13h4z" fill="#079313"/>
<path transform="translate(198,791)" d="m0 0h20l1 9v36l17 1v1h-19v-24l-23 1v-11h2v10l2-1h16l1-7h1v-12l-17-1z" fill="#223C19"/>
<path transform="translate(829,600)" d="m0 0h2v166h-1l-1-163-21-1v-1z" fill="#13231D"/>
<path transform="translate(750,577)" d="m0 0 9 1-3 5-7 3-10 1-4 3h-5l-1-4 1-6h11z" fill="#02301E"/>
<path transform="translate(766,833)" d="m0 0 3 1 15 1 3 1 1-3v5h-22l-3-1 1 12v12h-12l-15-1v-1l16-1 7-1v-21z" fill="#25471C"/>
<path transform="translate(449,512)" d="m0 0 6 1v16l2 1v2h-2v2l8-1v-2h6l3 4-3 1h-19l-1-1z" fill="#01311D"/>
<path transform="translate(283,444)" d="m0 0h9v1l-7 1-1 3h2l2 15v2l-5 4-1 5h-2l-2-4-6-1-4 1-1 5h-1v-6l-7-1-1 2v-4l10-1h12l3 1z" fill="#013218"/>
<path transform="translate(346,207)" d="m0 0h1l1 49 1 1v7h2v10l-2 7h-2v23h-2z" fill="#02301E"/>
<path transform="translate(360,304)" d="m0 0h1v24l21-1v8h-1v-6l-2 1-1 22h-2v-22h-5l-1 3-11-1-2-2-1-7 2-4z" fill="#01311D"/>
<path transform="translate(956,310)" d="m0 0h2v84l-18-1v-1h16z" fill="#14241C"/>
<path transform="translate(470,210)" d="m0 0 2 1-1 70h22v1h-45v-24h1v23l19-1 1-4v-65z" fill="#013B13"/>
<path transform="translate(172,580)" d="m0 0h21l1 1v43l-2 2h-16l-2-1-1 2-1-44zm9 1-7 1v41l3 2 15-1 1-8v-34z" fill="#192D1A"/>
<path transform="translate(491,397)" d="m0 0h1v25h-9v2h-6l-2 1 1 3 4 1v3l-7 1v7l5 1v1l-7 1-1-3v-20h21z" fill="#04551E"/>
<path transform="translate(684,419)" d="m0 0h43v2h-44v22h-25l3-2 8-1h10l1-4 1-13 1-3z" fill="#013B15"/>
<path transform="translate(345,164)" d="m0 0h13l-2 2-8 1-1 26-1 92h-1z" fill="#013513"/>
<path transform="translate(184,396)" d="m0 0 40 1v1h-28v20l-3-1-1-15-2-1-18-1v-2h-13v-1z" fill="#02311D"/>
<path transform="translate(882,121)" d="m0 0h12v71l-3-1 1-39-1-27h-9l-1-2z" fill="#042B2A"/>
<path transform="translate(276,132)" d="m0 0h12v2h15l3 3 12 1-3 2-6 1h-11l-2-1h-16v-2l7-2v-2h-6l-2 4-4-2z" fill="#022D24"/>
<path transform="translate(660,122)" d="m0 0 3 1-1 61h-1v-56h-2v30h-1l-1-14-3-1-1-6 3-4 1-1-5-3v-3l-2-1 9-1 1 1z" fill="#042B2A"/>
<path transform="translate(763,601)" d="m0 0h22l1 3v22h2v2h-3v-2h-2v-21h-17v3h-2v8h-1z" fill="#991C1D"/>
<path transform="translate(607,488)" d="m0 0h15v23h-7l-1-1v-14l-3 1-1-4 6-1 2-1 1 2v-3l-12-1z" fill="#0DB30E"/>
<path transform="translate(360,421)" d="m0 0h2v18l1 2 23 1v-2l17 1 1 1h28l8 1v1h-72l-9-1v-19z" fill="#035B1C"/>
<path transform="translate(596,625)" d="m0 0h1v20l-1 3h-37v22l-1 1h-19l4-4 1 1 12 1v-21l4-2 35 1-1-15z" fill="#12211C"/>
<path transform="translate(118,308)" d="m0 0h74v2h-72v17l-1 2h-15v44h-1v-45h15z" fill="#13241B"/>
<path transform="translate(783,68)" d="m0 0h20l3 2h-21v51h-2l-1 3-2 1v-4h-20v-2h23z" fill="#435B17"/>
<path transform="translate(623,94)" d="m0 0 21 1v25h2v2l-3 1-2-3-2-1-2-3 4-2-1-12-1-2-2 2-1-2-8-1-4 1z" fill="#032E25"/>
<path transform="translate(128,443)" d="m0 0 2 3v57l1 1v5h18v2l-14 1-7-1z" fill="#12211C"/>
<path transform="translate(536,189)" d="m0 0h22v23l2 1-5 1-2-3v-11l-1-8-9-1-5 1-1 20h-1z" fill="#01311C"/>
<path transform="translate(706,836)" d="m0 0h40v1l-25 1-4 2-1-3-7 2v17l-2 5-3 1h-37v10l1 10h-3v-21l1-1h40z" fill="#11211C"/>
<path transform="translate(599,602)" d="m0 0h68l4 2-3 3h-2l-1 16-2-1-1-13-3-3 3-1-1-1h-59z" fill="#02311E"/>
<path transform="translate(129,442)" d="m0 0 1 2h43l-2 2h-33l-5 1-1 14v34l-1 8h-2z" fill="#042B2A"/>
<path transform="translate(261,599)" d="m0 0h22l2 2v7l-1 1-1 13-2 2v-21l-23-1 1 2v20l-4-2 1-4v-16z" fill="#01321B"/>
<path transform="translate(468,419)" d="m0 0 3 1v22l65 1-1 2h-65l-4-4 1-21z" fill="#013318"/>
<path transform="translate(662,377)" d="m0 0h1v20l-20 1v23l-2-1v-19l-2-2h-14l-3 3v-4l-2-1 22-1 1-12 3 3v5l-2 3 4-2 4-1v2l8 1v-8z" fill="#01311C"/>
<path transform="translate(367,502)" d="m0 0h12v2l-10 1-2 3h11l6 1v1h-37l4-2 2-4 3-1z" fill="#079314"/>
<path transform="translate(645,92)" d="m0 0h1v14l-1 14h-1v-25h-20l-1 44h16l3 2h-20v-48z" fill="#013513"/>
<path transform="translate(263,368)" d="m0 0 2 1 1 6v19h9l5-2v-2h2l2 6h-24v-12l3-1-2-7 1-7z" fill="#02301E"/>
<path transform="translate(240,327)" d="m0 0h19v2l-3 1v2l-12 2h-3v4l3-1 4 2v2l-4 2h-3v4l14 1v1l-7 1h-8z" fill="#045C1D"/>
<path transform="translate(300,267)" d="m0 0h1v13l21 1v23l-2-2v-16h-18l-2-5v-3h-2v-10z" fill="#02311E"/>
<path transform="translate(560,439)" d="m0 0h32l7 1h11l7-1 3 2v2h-20l-44-1z" fill="#01311C"/>
<path transform="translate(703,281)" d="m0 0h1v24h-21v-23h1l1 5 1 16h10l1-11 1-3 4-1z" fill="#035E1A"/>
<path transform="translate(786,74)" d="m0 0 1 3 4 1-1 10-1 24-3 1-1 2v-37z" fill="#022C26"/>
<path transform="translate(736,555)" d="m0 0h9l3 2-1 22-6 2-11-1v10l-2 32h-1l-1-16 1-27 17-1v-21l-8-1z" fill="#013514"/>
<path transform="translate(513,649)" d="m0 0h7l5 2-5 5h-2l-1 13-2 3h-12l-8 1-2-3h20z" fill="#02301E"/>
<path transform="translate(346,625)" d="m0 0h1v22h34v-21h1v22l-6 1h-24v2l-5-1-3-4-1-6v-9l1-3h2z" fill="#013413"/>
<path transform="translate(424,535)" d="m0 0h24v43h-1l-1-18v-14l1-9-14 1-6 3v12l-2 2-1-1z" fill="#013219"/>
<path transform="translate(704,397)" d="m0 0h21l1 1 1 20-1 2h-5v-5h2v-10l-1-4-3-2h-13l-3 1h-23l-8-1v-1z" fill="#01311D"/>
<path transform="translate(580,258)" d="m0 0h20v22h-18v-7l5 5 3-1v2h2l1-2h4v-5h1v-11l-5 3h-3v-2l-7 2-2 1z" fill="#089E11"/>
<path transform="translate(642,140)" d="m0 0 2 1v20l-1 72h-11l4-2h4l1-2 1-85h-2v-2l-17 1v-2z" fill="#035E1A"/>
<path transform="translate(347,625)" d="m0 0h34v22l-2-1v-18h-30l-1 17 28 1v1h-29l-1-7v-8z" fill="#035F1A"/>
<path transform="translate(871,419)" d="m0 0h2v15h42v-14l2 1v15h-45l-1-1z" fill="#526614"/>
<path transform="translate(159,698)" d="m0 0 2 1v4l5 1v15l-3 1-2 2-3-3v-20z" fill="#042B2A"/>
<path transform="translate(519,560)" d="m0 0 3 1 1 14 5-1 2 1 15 1-1 3h-27z" fill="#022E22"/>
<path transform="translate(382,392)" d="m0 0 2 3h41l3 2v20l2 1 11-1 8 1 1 1-1 15h-1v-14h-23l1-23h-44z" fill="#013415"/>
<path transform="translate(783,126)" d="m0 0h1v28l-1 1-1 19-2-3-1-17 1-26h3z" fill="#072921"/>
<path transform="translate(848,487)" d="m0 0h19l2 2h-21l1 21h-41l-1-2h40v-20z" fill="#284418"/>
<path transform="translate(783,154)" d="m0 0h1v38h-21v-1l13-2 3-3 1-11 1-1 1-19z" fill="#032C27"/>
<path transform="translate(848,69)" d="m0 0h24v49l-8-4 3-2h2v-32h1l1-10h-23z" fill="#092720"/>
<path transform="translate(600,533)" d="m0 0h41v1l-5 1h-14l-17 1-2 1-1 12 4-1h2v3l-2 1v4h-6z" fill="#023E16"/>
<path transform="translate(621,304)" d="m0 0h1v23l-8-1v-3h-2v-4l2-1v-9l3-4h3v19z" fill="#02301E"/>
<path transform="translate(324,649)" d="m0 0h1l1 13 1 4-1 2h51l2-4 1-8h1v15h-56l-1-5z" fill="#12211C"/>
<path transform="translate(795,288)" d="m0 0 4 1h3v14h2v-6h1v7l-3 1h-14v-2h6v-14z" fill="#079313"/>
<path transform="translate(644,350)" d="m0 0h19l-1 2h-12l-1 4-1 15-5 3v-23z" fill="#02301E"/>
<path transform="translate(824,264)" d="m0 0h1v64l-15-1 1-3 9 1 3-3-1-15 1-2v-17l-1-22z" fill="#042B2A"/>
<path transform="translate(622,258)" d="m0 0h19l-1 2h-16v3l2 1h12l2 1-1 3-9 1-5 1v7l-1 3h-2z" fill="#01311D"/>
<path transform="translate(707,606)" d="m0 0h9l3 2 2 2v4h-2l-1 3-6-1-7-2-1-6z" fill="#03601A"/>
<path transform="translate(827,350)" d="m0 0h16l2 2h-16v43l15-1v2h-17z" fill="#12211C"/>
<path transform="translate(448,189)" d="m0 0h22l-2 3-3-1-16-1-1 44-5 1v2l-2-1h-9l-1 2-1-4h-4l1-2h20v-41z" fill="#013513"/>
<path transform="translate(194,578)" d="m0 0 24 1v1l-22 1v7l1 5-1 33-4 3v-2l-2-1 3-2v-44z" fill="#A11D1C"/>
<path transform="translate(554,443)" d="m0 0h1v21l4 1h-20l-26-1v-1h38v-15z" fill="#01321A"/>
<path transform="translate(470,376)" d="m0 0h1l1 9 1 2v8l-2 5h-23l-2-1 1-17h1v15h22z" fill="#013219"/>
<path transform="translate(403,96)" d="m0 0h1v24l-1 1h-24v44h-2v-43h-17l1-2h21v-2l2 1h16l3-1z" fill="#154513"/>
<path transform="translate(607,94)" d="m0 0h14v10l-1 7-3 1-1-7v-8h-2v21h-2l-1-21-5-1z" fill="#069114"/>
<path transform="translate(281,535)" d="m0 0h1v43h21l1 22h-2l-2-4v-11l-1-3h2l-1-2h-19l-2-4h2z" fill="#014215"/>
<path transform="translate(829,352)" d="m0 0 5 1 1 15 1 1v7l-1 2-1 6h-1l-1-7-1-1v-6h-2z" fill="#032B29"/>
<path transform="translate(471,120)" d="m0 0 7 1v7l-2 2 4 6v2h2v2l-10-1-1-1z" fill="#022E22"/>
<path transform="translate(809,628)" d="m0 0h3v13l1 2v19l-1 1-1 7-2 1z" fill="#032B28"/>
<path transform="translate(657,439)" d="m0 0h8v2l-7 2h-13v22h-6v-2h2v-20h2v-2l6-1h7z" fill="#01321B"/>
<path transform="translate(579,95)" d="m0 0h1v23h-23l1-6 3 1h11l5 1 1-5z" fill="#072B27"/>
<path transform="translate(196,768)" d="m0 0h2v16l-1 7h-23v-22h2v20l16-1 3-2z" fill="#10231F"/>
<path transform="translate(250,492)" d="m0 0h6l1 1v17h-16v-1l14-1v-2l-7-2 4-2h4l-1-3-14-1 1-4z" fill="#03601A"/>
<path transform="translate(384,465)" d="m0 0h41l1 7v9l-3-2v-8l-1-2-37-2z" fill="#035F1A"/>
<path transform="translate(723,153)" d="m0 0 10 1-1 4-3 4-3-2-1 3-4-2-2 3h-5v-7l3-2 5 1z" fill="#012E23"/>
<path transform="translate(644,648)" d="m0 0 2 2v8l1 1v5l-2 1 3 1-1 3 11-1 1-1h5v2h8v1l-27 1h-46v-1h45z" fill="#B5211B"/>
<path transform="translate(760,122)" d="m0 0h2v16h1v31h-1l-1 21h-1z" fill="#0A2720"/>
<path transform="translate(170,689)" d="m0 0h1l2 11v38l-2 1-1 4h-2v-8l2-1z" fill="#032B29"/>
<path transform="translate(366,533)" d="m0 0h17v22h-13l-5-1 2-2 7-2 7 1-1-8 1-4-2-4h-13z" fill="#09A210"/>
<path transform="translate(806,288)" d="m0 0h1l1 39-23 1-6 1h-23l-10-1v-1l38-1 21-1z" fill="#036919"/>
<path transform="translate(263,544)" d="m0 0 3 3v7l-2 12-1 13-4 2v-4l1-17 1-1 1-14z" fill="#02301E"/>
<path transform="translate(808,771)" d="m0 0 2 2v41h-21l-1-2 20-1z" fill="#385716"/>
<path transform="translate(356,232)" d="m0 0 3 4 1 8v53l-2-1v-32l-1-23-2-2z" fill="#042B2A"/>
<path transform="translate(647,120)" d="m0 0h17v61h-1v-59h-3l1 5-3-1-2-2h-8l-3 1-2-2z" fill="#589814"/>
<path transform="translate(728,509)" d="m0 0h54l-3 3h-27l-10-1h-12z" fill="#01321A"/>
<path transform="translate(646,466)" d="m0 0h18l1 21 62 1-1 4v-3h-63l-3-2 1-4 1-2 1-14h-17z" fill="#02371A"/>
<path transform="translate(176,374)" d="m0 0h44v1l-24 1v10l-2 2h-17l1-2h15l-1-8-3-1 1-2h-14z" fill="#089F11"/>
<path transform="translate(381,341)" d="m0 0h1v10l9-1h12l1 1v24h8l-2 2-5 1-4-4v-19l-1-3h-19l-1-2z" fill="#01311B"/>
<path transform="translate(786,745)" d="m0 0h5l-3 7-1 10v14l2 7 3 4-4 4-4-1 1-44z" fill="#042B2A"/>
<path transform="translate(247,656)" d="m0 0h5l2 10 2 2v4h-4l-1 3-1-1v-6l-4-1-1 3v-12h2z" fill="#FD8005"/>
<path transform="translate(536,234)" d="m0 0 19 1 1 2h-2l2 3v11h-1l-3-11h-2v-2l-3 1-1 2h-3l-1 2-2 1-2 3-1-9z" fill="#0CB20F"/>
<path transform="translate(871,193)" d="m0 0h1v22h-11l3-5-3-1-1 4-3-1-1-7 2-1 2 1v2l5-2 5 1-1 5h2z" fill="#022D24"/>
<path transform="translate(360,122)" d="m0 0h12v1l-7 1-3 1v35l3 1-2 4h-3v2l-4-1 3-2z" fill="#0A2924"/>
<path transform="translate(208,282)" d="m0 0h11l1 23v22l-2-2v-14l-3-5 1-18 1-5h-9z" fill="#01311C"/>
<path transform="translate(738,640)" d="m0 0 2 4h3l-1 3-38-1-2 1h-6v-2h4l1-2h15l19 1 1-3z" fill="#032B29"/>
<path transform="translate(490,395)" d="m0 0 3 1h-2v24h-19l3-2 4-2 5 1v2l3-2 1-19z" fill="#02301E"/>
<path transform="translate(150,509)" d="m0 0 1 2h22l2 1v21l-26 1-1-1v-14h1v13l22-1 2 1-1-19-23-1z" fill="#174715"/>
<path transform="translate(935,399)" d="m0 0h1v20h-17l-2-1v-9l2-1 1 3h2l1 4 11 1v-15z" fill="#092624"/>
<path transform="translate(195,387)" d="m0 0h1v8l-1 1h-22l4-1v-2h2v-2l-2-1 13-1 4 1z" fill="#08A111"/>
<path transform="translate(250,847)" d="m0 0 15 1 6 1 9 1-2 4-9-2-1 2-6-2h-9v2h-3l-1-3z" fill="#032B29"/>
<path transform="translate(264,468)" d="m0 0m-5 1h5v27l-2-1-1-13-2 6h-1v-17z" fill="#022F20"/>
<path transform="translate(474,670)" d="m0 0h14l4 1 1 24 19 1v1h-20l-1-1-1-22-6 1v-2l-3 1-5-1-1 2v-2h-4l-1 2-1-4z" fill="#AE1F1B"/>
<path transform="translate(244,662)" d="m0 0h1l1 5 4 1v6l-1 4-4 3-4-1v-16h3z" fill="#F19E1D"/>
<path transform="translate(359,600)" d="m0 0v3l-1 1h-5l-1-1h-48v-2z" fill="#014216"/>
<path transform="translate(685,346)" d="m0 0h3v3h14v1h-19l1 3-1 21h-20l3-3 15 1v-22z" fill="#01321A"/>
<path transform="translate(705,145)" d="m0 0h37v7l-2-2v-3h-33v14l-2 1z" fill="#57421A"/>
<path transform="translate(282,432)" d="m0 0 2 2v9l4 1h-5v23h-25l1-2 21-1 1-15v-4h-9v-2h10z" fill="#035E1A"/>
<path transform="translate(824,95)" d="m0 0 2 2v7l-2 8h-8l-1 2-3-3 3-1 2-5z" fill="#9AF005"/>
<path transform="translate(241,444)" d="m0 0h17l-1 4-1 5-1-2h-2l-1 3-2-2-1-4h-5v6h-3z" fill="#0DB30E"/>
<path transform="translate(913,232)" d="m0 0 2 2-1 29h-1l-1-27h-20l-1 28h-1v-31z" fill="#16251F"/>
<path transform="translate(239,834)" d="m0 0 1 2h40l1 1v23l-2-2-1-17-4-2v-2l-2 1-33-1z" fill="#11211C"/>
<path transform="translate(304,397)" d="m0 0h21v24l-3-3-1-17-1-1h-14v-2z" fill="#02311E"/>
<path transform="translate(466,558)" d="m0 0h26l-1 2h-6l1 5v9l-2 1v-5h-2v-2h-2v-8h-10z" fill="#0CB10F"/>
<path transform="translate(625,398)" d="m0 0h14l3 3v14l-1 5-2-1v-14l-1-3-3-1h-9l-1 7-1 11h-2l1-18z" fill="#01311D"/>
<path transform="translate(425,118)" d="m0 0h15v1l-7 1-5 2-1 4 5 1-3 3h-1l-1 11-1 1h-23v-1h22z" fill="#16B10D"/>
<path transform="translate(472,510)" d="m0 0h15l5 2v11l-2-3-1-2-7-2-1-3h-10z" fill="#02311E"/>
<path transform="translate(217,434)" d="m0 0h17l5 1-1 3-20 2-3-1v-2l-9 1v-2l2-1z" fill="#02311E"/>
<path transform="translate(701,341)" d="m0 0h2v8h-15l-1-5 2-2h8z" fill="#02301E"/>
<path transform="translate(494,258)" d="m0 0h17l3 2v2h-2v2h-15l-2-1-1 2z" fill="#022F21"/>
<path transform="translate(372,122)" d="m0 0h5l1 2v37l-2 1-1-2v-17l1-4h-1v-9l1-2h-3z" fill="#042B2A"/>
<path transform="translate(290,872)" d="m0 0 2 2 10 1 1 1v5l-3 1h-12l-1-3 1-2h2l-1-4z" fill="#042B2A"/>
<path transform="translate(497,275)" d="m0 0h15l1 4-2 2h-17v-5l2 1z" fill="#02301E"/>
<path transform="translate(571,577)" d="m0 0h7l2 4 3 1 1-2h2l1 4-4 2-1 2-1 12-2 1-1-21h-10l-11-1v-1z" fill="#01311B"/>
<path transform="translate(703,328)" d="m0 0h2v13l-1 9-1 1-18 1v20l-2 2v-24l19-1z" fill="#025619"/>
<path transform="translate(304,305)" d="m0 0 3 1 1 2 1 10 1 3-4 1-1 3h5l-1 2-6 1v-21z" fill="#02301E"/>
<path transform="translate(513,118)" d="m0 0h39v2h-37l1 19-2-1z" fill="#43271B"/>
<path transform="translate(726,394)" d="m0 0 1 2h54v1l-53 1-1 18h-1l-1-18-21-1v-1h22z" fill="#013513"/>
<path transform="translate(763,391)" d="m0 0h3v2h9l4-1v4h-43v-1l15-1 2-1 9-1z" fill="#02301E"/>
<path transform="translate(220,216)" d="m0 0h1v8h2l1 8h18l16 1v5l-2-4h-36z" fill="#044D1F"/>
<path transform="translate(727,488)" d="m0 0h56v5l-5-3h-48l-2 3z" fill="#04551E"/>
<path transform="translate(780,531)" d="m0 0 2 3 2-1 1 26-5-1z" fill="#082825"/>
<path transform="translate(525,144)" d="m0 0 4 1 1 7 2 1 1 3 2-4v9l-1 1h-6l-3-3v-7l1-4z" fill="#0DB30F"/>
<path transform="translate(889,159)" d="m0 0h1l1 31-1 1h-6l1-7 1-2 1-11 1-2z" fill="#042B2A"/>
<path transform="translate(643,508)" d="m0 0 1 4-2 1h-18v3h5l-1 2 2 2-5 2v8l-3 3v-22l20-1z" fill="#037517"/>
<path transform="translate(157,489)" d="m0 0h54l-1 2-11 1-1 3-1 16-3-1h2v-20h-39z" fill="#0DA111"/>
<path transform="translate(891,264)" d="m0 0h23v4l-2-1-20-1v22l-2 1v-24z" fill="#18A4B1"/>
<path transform="translate(826,420)" d="m0 0h21l-1 4v11l-2 1v-12l-5 1-3 1-8-3v-2z" fill="#042A29"/>
<path transform="translate(664,278)" d="m0 0 4 1 1 6-2 11-1 23-2-1v-29l1-1v-8z" fill="#042B2A"/>
<path transform="translate(739,152)" d="m0 0h1l1 37-4-2v-3l-3-3-1-8 4-2 1 3z" fill="#032B29"/>
<path transform="translate(219,626)" d="m0 0h21v7l-2-1v-2h-4v-3h-11l-1 5 1 5-3 1v10h-1z" fill="#F39919"/>
<path transform="translate(645,443)" d="m0 0h11l4 2-4 1h-8l-1 18 2 1-2 1h-23v-1h21z" fill="#04581D"/>
<path transform="translate(259,396)" d="m0 0h25v20l-2-3v-15l-10 2-8-1-4 2z" fill="#04551E"/>
<path transform="translate(515,350)" d="m0 0h21l-1 2h-11l-4 1-2-1-1 15-2 4-2-1 1-19z" fill="#01321A"/>
<path transform="translate(536,304)" d="m0 0 3 1 1 7 1 3h2l1 5-3 6h-5z" fill="#036419"/>
<path transform="translate(239,601)" d="m0 0h2l1 20 1 1 15 1 7 1h16l1 1v12h-1v-11h-25v-2h-16z" fill="#521E1C"/>
<path transform="translate(663,212)" d="m0 0 2 2-1 32h-1l-1-5-2-1-1-5v-9l4-2z" fill="#033D1F"/>
<path transform="translate(687,648)" d="m0 0h19v1l-9 1v3l2 1-15 1-4-1v-3h8z" fill="#AD1F1B"/>
<path transform="translate(359,188)" d="m0 0 2 1-1 41-2 1v-23l-2-1v-15l3 1z" fill="#042B2A"/>
<path transform="translate(248,695)" d="m0 0 2 1 1 16-5 1-5-2 4-5 2-2h-2v-8l2 1z" fill="#FD8005"/>
<path transform="translate(316,860)" d="m0 0h8l1 23 2 2-5 1h-34v-1l32-1 2-3 1-17-7-2z" fill="#41201C"/>
<path transform="translate(468,621)" d="m0 0 1 3 2 1-3 3-7 1h-10l-3-5h20z" fill="#01331C"/>
<path transform="translate(330,281)" d="m0 0 4 1-1 5-2 1-1 16-4-1v-14l3-3-1-4z" fill="#03601A"/>
<path transform="translate(320,125)" d="m0 0h1v17h25v8h-1l-1-5-24-1-1-4v-14z" fill="#4E211F"/>
<path transform="translate(514,557)" d="m0 0h1v19h3v2l26 1 1-2 7 1 9 1v1h-46l-1-1z" fill="#013914"/>
<path transform="translate(493,533)" d="m0 0h43v13h-1l-1-11h-31l-10-1z" fill="#013814"/>
<path transform="translate(159,653)" d="m0 0 3 3v24l-3 2-1-19z" fill="#042B2A"/>
<path transform="translate(449,535)" d="m0 0h20l1 1 1 8v12l-3-1v-16l-7-1h-7l-5-1z" fill="#04551E"/>
<path transform="translate(384,397)" d="m0 0h42v19h-1l-1-13-4 2-2-6-34-1z" fill="#057617"/>
<path transform="translate(579,70)" d="m0 0h43v13l-2 1-1-12h-38v18h-2z" fill="#202F1A"/>
<path transform="translate(258,554)" d="m0 0h1v23l2 1-2 3h-38v-1l37-2z" fill="#013613"/>
<path transform="translate(276,512)" d="m0 0h2l1 16v12l-2 2-2-10v-18z" fill="#02311E"/>
<path transform="translate(174,625)" d="m0 0 3 1v3h-2v73h-1l-1-74z" fill="#B2201B"/>
<path transform="translate(537,625)" d="m0 0h4v2h-2l1 4-1 19-27-1v-1h25z" fill="#013218"/>
<path transform="translate(197,328)" d="m0 0h1v16l10 4 9 1v1h-21v-21z" fill="#032B29"/>
<path transform="translate(808,230)" d="m0 0 1 2 12-2h23l7 1 2-1 1 3h-46z" fill="#042B2A"/>
<path transform="translate(378,165)" d="m0 0h23l-1 3h-15l-1 3-6-1z" fill="#033825"/>
<path transform="translate(667,879)" d="m0 0h5v2h50l4-1v3l-6 1-55-1z" fill="#042B2A"/>
<path transform="translate(492,482)" d="m0 0h1v6l-1 2-18-1-1 7 5 2 2 3-2 2-6 1v-16h19z" fill="#079314"/>
<path transform="translate(129,442)" d="m0 0 1 2h43l-2 2h-33l-5 1-2 12h-1l-1-14z" fill="#072D2B"/>
<path transform="translate(324,886)" d="m0 0 2 1-1 1v19h28l14 1v1h-44v-22z" fill="#12211C"/>
<path transform="translate(536,625)" d="m0 0h1v23h-43l-1-1v-13h1l1 9 1 3 40 1z" fill="#037017"/>
<path transform="translate(735,188)" d="m0 0 6 1 2 1-4 2-1 10-1 5-2 1-2-2 1-15z" fill="#032B29"/>
<path transform="translate(470,141)" d="m0 0h21l1 17v6l-3 1-19-1v-1l20-1-1-20-15 1-4 1z" fill="#035E1A"/>
<path transform="translate(807,24)" d="m0 0 38 1v1h-36v22l-2-1z" fill="#32281B"/>
<path transform="translate(810,53)" d="m0 0 4 2v14l-8 1 1-4h2v-11z" fill="#07312C"/>
<path transform="translate(414,211)" d="m0 0h11v21l-8 1h-13v-3l19 1v-9l-1-9-8-1z" fill="#013513"/>
<path transform="translate(686,166)" d="m0 0 1 4-1 6h2l-1 8 1 2 15 1 1 2-20 1v-3l1-20z" fill="#062B29"/>
<path transform="translate(248,673)" d="m0 0 1 4h3v11l-3 3-3-3h-1v-11l2 2 1-1z" fill="#FC8005"/>
<path transform="translate(381,624)" d="m0 0 19 1-2 4-12 1-4 3z" fill="#02311E"/>
<path transform="translate(280,257)" d="m0 0h24v23h-1v-20h-20z" fill="#013713"/>
<path transform="translate(520,226)" d="m0 0h4v2l2 1-1 1 3 1v-4h5v2h2v3h-19v-5z" fill="#079313"/>
<path transform="translate(707,162)" d="m0 0h2v3h17v1h-21v24h-19v-1l17-1 1-23z" fill="#035118"/>
<path transform="translate(645,92)" d="m0 0h1v14l-1 14h-1v-25h-19l-1-2z" fill="#2A421B"/>
<path transform="translate(817,421)" d="m0 0h8v21h-7l3-5 1-9-1-4-6-1z" fill="#0AA210"/>
<path transform="translate(728,378)" d="m0 0 2 4 4 2v3l-3 2-1 4 6 2v1h-9l-1-4 1-13z" fill="#01311D"/>
<path transform="translate(762,790)" d="m0 0h22v1l-20 1v2l4 1v3h-4v12l-2 4-1-6v-16z" fill="#12211C"/>
<path transform="translate(674,665)" d="m0 0 12 1 2 1 18 1v2h-26l-8-1z" fill="#B5211B"/>
<path transform="translate(846,421)" d="m0 0h1v20h-10v-6l7-1 1 1v-12z" fill="#062B1E"/>
<path transform="translate(538,281)" d="m0 0h18l-4 1v15l-1 6-3-1v-12l1-7-10-1-1 2z" fill="#09A210"/>
<path transform="translate(384,392)" d="m0 0h17l3 4h-20z" fill="#02311E"/>
<path transform="translate(127,344)" d="m0 0h1v23l-1 5-4-1 1-4v-18h2z" fill="#02401A"/>
<path transform="translate(798,286)" d="m0 0h6l2 2v16l-4-1-1-14-1 6h-1l-2-8z" fill="#08A111"/>
<path transform="translate(362,282)" d="m0 0h2l2 7v14l-4 1z" fill="#037517"/>
<path transform="translate(754,257)" d="m0 0 44 1v1l-16 1h-28z" fill="#042A29"/>
<path transform="translate(471,118)" d="m0 0h22v18h-2v-16h-20z" fill="#294D1B"/>
<path transform="translate(751,530)" d="m0 0 10 1 2 3v6l-3 4-1-8 1-3h-23l2-2z" fill="#02301E"/>
<path transform="translate(846,488)" d="m0 0h1v20h-19v-1l15-1 1-16z" fill="#032B29"/>
<path transform="translate(663,531)" d="m0 0h1v25h-40v-1l32-1 7-1z" fill="#013513"/>
<path transform="translate(705,517)" d="m0 0h1l2 10 2 3h15l2 3h-22z" fill="#013513"/>
<path transform="translate(816,488)" d="m0 0h8v2l-5 1h-33l-2 16h-1v-18z" fill="#01311B"/>
<path transform="translate(127,374)" d="m0 0h23v21l-2-1-1-11-2-1 1-4h2v-3h-21z" fill="#033217"/>
<path transform="translate(540,190)" d="m0 0h3v2h-2l-1 32h-2v-33z" fill="#02301E"/>
<path transform="translate(728,397)" d="m0 0h36v1l-20 1h-7l-1 1h-8v8h-1v-10z" fill="#04561E"/>
<path transform="translate(374,305)" d="m0 0h4v21h-2l-2-6z" fill="#03601A"/>
<path transform="translate(345,489)" d="m0 0h1l1 9h20l1 2h-16l-1 4h-2l-3-3-1 4z" fill="#079314"/>
<path transform="translate(339,460)" d="m0 0h11l2 3-8 1h-39v-1h32v-2z" fill="#02311E"/>
<path transform="translate(554,338)" d="m0 0 5 2v2l-6 3-4 6-3-2 1-6 4-4z" fill="#02311E"/>
<path transform="translate(939,311)" d="m0 0 3 1 1 9-1 2-1 11-2 2-1-8v-11z" fill="#042B2A"/>
<path transform="translate(558,621)" d="m0 0h2v5l-2 2h-11l-3 2-5-1v-2h2v-2l17-1z" fill="#01311D"/>
<path transform="translate(219,580)" d="m0 0 3 1-1 17 16 1 2 2h-18l-2-3z" fill="#11211C"/>
<path transform="translate(359,578)" d="m0 0h42v1l-39 1-1 1v9l-1 10h-1z" fill="#013513"/>
<path transform="translate(345,164)" d="m0 0h13l-2 2-8 1-1 22h-2z" fill="#1B4415"/>
<path transform="translate(657,276)" d="m0 0h7l2 4v8l-2 1v-7h-21l4-2h11z" fill="#01311C"/>
<path transform="translate(663,246)" d="m0 0h1v12h14v1l-13 2-3 1-2-1-1 2-1-4 1-1 1-7 2 3z" fill="#013218"/>
<path transform="translate(732,149)" d="m0 0h4v3h2v5h-5l-1-2-9-2 1-3z" fill="#042B2A"/>
<path transform="translate(346,625)" d="m0 0h1v15l1 8 4 3-5-1-3-4-1-6v-9l1-3h2z" fill="#013219"/>
<path transform="translate(280,546)" d="m0 0h1v27l-2-1-2-17 2-8z" fill="#042B2A"/>
<path transform="translate(175,535)" d="m0 0h1l1 19h16l1 2h-20v-20z" fill="#16281C"/>
<path transform="translate(867,448)" d="m0 0h1v40l-20-1v-1l18-1z" fill="#042B2A"/>
<path transform="translate(511,374)" d="m0 0 3 1v22h-23l2-2 19-1v-17z" fill="#013513"/>
<path transform="translate(342,145)" d="m0 0h3v19l-3-1-3-11v-4h2z" fill="#062A22"/>
<path transform="translate(574,644)" d="m0 0 8 1 12-1 1 3h-35l1-2z" fill="#042B2A"/>
<path transform="translate(825,421)" d="m0 0h3l-1 16 1 2 3 1 16 1v1h-22z" fill="#013613"/>
<path transform="translate(258,121)" d="m0 0 4 1-1 7-1 44h-1z" fill="#022D24"/>
<path transform="translate(342,666)" d="m0 0h23l3 1v2h-24z" fill="#042B2A"/>
<path transform="translate(514,535)" d="m0 0h14l5 2v4l-5-1-7-2h-8l-1-2z" fill="#032B29"/>
<path transform="translate(272,437)" d="m0 0h2l-2 4-13-1v2h-9l-2-2 6-2z" fill="#02301E"/>
<path transform="translate(345,327)" d="m0 0h2v20h11l1 2h-14z" fill="#024016"/>
<path transform="translate(785,327)" d="m0 0h22l-3 3h-19l-1 17h-1v-19z" fill="#013413"/>
<path transform="translate(264,858)" d="m0 0h7l5 2v1h-29l-6-1v-1z" fill="#042B2A"/>
<path transform="translate(643,549)" d="m0 0h9l4 2v1h-31v-2z" fill="#02301E"/>
<path transform="translate(642,396)" d="m0 0 2 1-1 2v22l-2-1v-19l-2-2h-14l-3 3v-4l-2-1z" fill="#013513"/>
<path transform="translate(127,375)" d="m0 0h21v3h-18l-1 15h-1z" fill="#032B29"/>
<path transform="translate(379,329)" d="m0 0h2l1 12-1 9-3-1v-19z" fill="#032B29"/>
<path transform="translate(487,133)" d="m0 0 3 1 1 3 1 4 7 1v2h-3v13h-1v-14l-4-1v-2l-9-1z" fill="#032C25"/>
<path transform="translate(552,118)" d="m0 0h5l1 1v9h-1l-1 5-4-4z" fill="#052E22"/>
<path transform="translate(621,443)" d="m0 0 3 1 1 19 5 1v1h-9z" fill="#01321A"/>
<path transform="translate(175,421)" d="m0 0h1l1 18h14l1 3-17 1z" fill="#062C1D"/>
<path transform="translate(512,234)" d="m0 0 2 2-1 20h-7l4-1 1-3-2-4v-7l2-1z" fill="#069214"/>
<path transform="translate(469,92)" d="m0 0 2 1-1 21h-1v-19h-20l-1-2z" fill="#1C2B25"/>
<path transform="translate(662,886)" d="m0 0h1v21h-32v-1l26-1 5-2-1-13z" fill="#032B29"/>
<path transform="translate(663,887)" d="m0 0h2v22h-20v-1l18-1z" fill="#356C16"/>
<path transform="translate(491,523)" d="m0 0h1l1 10 10 1h10l1 2h-18l-6-2-2-4 1-6z" fill="#01311D"/>
<path transform="translate(672,504)" d="m0 0h31l1 2-25 1-7-1z" fill="#02301E"/>
<path transform="translate(354,421)" d="m0 0 4 1 1 3 1 20h6l-2 3h-4l-2-3-1-5-1-16-3-2z" fill="#01311C"/>
<path transform="translate(784,397)" d="m0 0h41v19h-1l-1-14-1-3-38-1z" fill="#15211C"/>
<path transform="translate(243,337)" d="m0 0 5 2v2l-4 2h-3v4l14 1v1l-7 1h-8v-12z" fill="#05551F"/>
<path transform="translate(535,172)" d="m0 0h1v17h-23l1-2 18-1 2-1z" fill="#013A14"/>
<path transform="translate(466,116)" d="m0 0 4 1 1 1 1 20 10 1 9 1v1h-21l-1-22-5-1z" fill="#013513"/>
<path transform="translate(470,376)" d="m0 0h1l1 9 1 2v8l-2 5h-9l-1-2 9-1z" fill="#01311C"/>
<path transform="translate(404,367)" d="m0 0h1l1 5 10 1 32 1v1h-44z" fill="#04581D"/>
<path transform="translate(662,331)" d="m0 0h1l1 19h-19l2-2 15-1-1-3v-8z" fill="#035F1A"/>
<path transform="translate(599,266)" d="m0 0h1v14h-18v-7l5 5 3-1v2h2l1-2h4v-5h1z" fill="#09A210"/>
<path transform="translate(426,232)" d="m0 0h22v2l-5 1v2l-2-1h-9l-1 2-1-4h-4z" fill="#013218"/>
<path transform="translate(617,120)" d="m0 0h1l1 5h1v15l-2 1-2-1-1-6z" fill="#079314"/>
<path transform="translate(320,666)" d="m0 0h3l2 4 19 1v1h-20l-20-1v-1l12-1z" fill="#D73211"/>
<path transform="translate(219,625)" d="m0 0h37l1 2h-15l-1 6h-1v-7h-21z" fill="#F46A0C"/>
<path transform="translate(824,465)" d="m0 0h13v1h-12v21h-18v-1l15-1 1-1v-17z" fill="#035D1B"/>
<path transform="translate(643,397)" d="m0 0 5 1-3 3v15l1 5h18v1h-21l-1-24z" fill="#04551E"/>
<path transform="translate(693,177)" d="m0 0 10 1-2 4-3 2h-5l-4-5z" fill="#042B2A"/>
<path transform="translate(248,815)" d="m0 0h12l1 16 1 4 16-1 2-1 1 3h-21l-1-1v-19h-11z" fill="#B5211B"/>
<path transform="translate(600,533)" d="m0 0 4 1h-3l1 15 4-1h2v3l-2 1v4h-6z" fill="#02451A"/>
<path transform="translate(383,533)" d="m0 0h9l4 2-4 1h-7v16l-2 3z" fill="#037B16"/>
<path transform="translate(386,423)" d="m0 0 7 1v1h8v3l-18 1-1-4z" fill="#03601A"/>
<path transform="translate(683,282)" d="m0 0h1l1 5 1 16 18 1v1h-21z" fill="#035C1B"/>
<path transform="translate(576,220)" d="m0 0h2v38l-2-1v-17l-1-17z" fill="#01311D"/>
<path transform="translate(513,181)" d="m0 0 4 1v3l-3 1-1 3h-17l-3-2 18-1z" fill="#032B29"/>
<path transform="translate(281,872)" d="m0 0h1l1 9 2 1h36l1 2h-41z" fill="#042B2A"/>
<path transform="translate(284,556)" d="m0 0h2l1 19 14 1 1 2-18-1z" fill="#079314"/>
<path transform="translate(466,272)" d="m0 0h3v8l-1 1h-19v-6l3 4h10l3-1z" fill="#042B28"/>
<path transform="translate(174,769)" d="m0 0h2v20h16v1l-18 1z" fill="#13211C"/>
<path transform="translate(369,582)" d="m0 0h15l-1 4h-14z" fill="#02311E"/>
<path transform="translate(224,559)" d="m0 0h4v2h-2v12l-1 2h-3v-14z" fill="#08A111"/>
<path transform="translate(781,529)" d="m0 0h20v3l-17 1-3 2z" fill="#042C28"/>
<path transform="translate(841,352)" d="m0 0h3l1 16-2 9h-1l-1-10z" fill="#022E24"/>
<path transform="translate(372,330)" d="m0 0h3v21h-3z" fill="#042B2A"/>
<path transform="translate(536,189)" d="m0 0h22v9h-1v-8l-14 1-5 1-1 20h-1z" fill="#013613"/>
<path transform="translate(305,672)" d="m0 0 3 6h1v15h-4z" fill="#FD7F04"/>
<path transform="translate(518,537)" d="m0 0 9 1 1 4h-13l-2-1v-2z" fill="#02301E"/>
<path transform="translate(472,175)" d="m0 0h2v15l-2 2-2-5v-11z" fill="#032B29"/>
<path transform="translate(197,790)" d="m0 0 5 3-1 5-5-1v7h-2v-13z" fill="#062926"/>
<path transform="translate(493,590)" d="m0 0h1l2 11 18 1v6h-1v-5h-21l-1-3v-8z" fill="#41D106"/>
<path transform="translate(221,558)" d="m0 0h6l-2 2-2 1v17l-3 1h21v1h-22v-4h2z" fill="#057E16"/>
<path transform="translate(281,535)" d="m0 0h1v44h7v1h-8l-2-4h2z" fill="#013414"/>
<path transform="translate(366,533)" d="m0 0h17v21h-1l-1-15-2-4h-13z" fill="#089D11"/>
<path transform="translate(674,394)" d="m0 0 14 1h16v2h-35l1-2z" fill="#03601A"/>
<path transform="translate(726,305)" d="m0 0h1v22h-11l-4-2 2-1 7 1 3-4v3h2l-1-16z" fill="#013513"/>
<path transform="translate(259,265)" d="m0 0h1l1 8 4 1 1 3-1 2h-7v-13z" fill="#032C28"/>
<path transform="translate(259,210)" d="m0 0 4 1-1 3-1-2-2 4v-2h-19l-8-1v-1h20l4 1v-2z" fill="#042A29"/>
<path transform="translate(469,166)" d="m0 0h1v23h-22v-1l21-2z" fill="#035E1A"/>
<path transform="translate(736,555)" d="m0 0h9l3 2-1 21h-2l-1-21-8-1z" fill="#05561E"/>
<path transform="translate(611,538)" d="m0 0 12 1v3l-17 1 2-4z" fill="#02311E"/>
<path transform="translate(469,360)" d="m0 0h1v13l-1 2-14 2h-6l-1-3 18-1 2-1z" fill="#037517"/>
<path transform="translate(848,338)" d="m0 0h16v2l-5 2h-11z" fill="#022E24"/>
<path transform="translate(238,837)" d="m0 0 2 1 1 21 6 1v1h-9z" fill="#16211C"/>
<path transform="translate(528,535)" d="m0 0h6l1 2v9l-1 1v9h-4l1-8-1-4 3-2-1-5z" fill="#02301E"/>
<path transform="translate(344,497)" d="m0 0 2 4 3 1 3 7-4 2h-4z" fill="#11A70F"/>
<path transform="translate(257,490)" d="m0 0h1l1 6v15l-2 1h-17l1-2h16z" fill="#013413"/>
<path transform="translate(280,390)" d="m0 0h2l2 6h-22v-2h2l1-2 7 2 6-1 2-1z" fill="#01321B"/>
<path transform="translate(800,369)" d="m0 0 1 2-17 1-1 21-2 2v-19l-1-5 2-1z" fill="#092624"/>
<path transform="translate(466,344)" d="m0 0h2v24h-2l-1-15z" fill="#037517"/>
<path transform="translate(557,304)" d="m0 0h2l1 22-1 2h-2z" fill="#01311D"/>
<path transform="translate(687,305)" d="m0 0h17v2h-2v2h-12z" fill="#02311E"/>
<path transform="translate(853,217)" d="m0 0h1l1 7v10l-3-1-1-1-7-1v-2l7-1v-4h2z" fill="#092720"/>
<path transform="translate(760,119)" d="m0 0h23v5l-3 1v-4h-20z" fill="#335917"/>
<path transform="translate(259,545)" d="m0 0h2l1 2v12l-1 1-1 12h-1z" fill="#032C27"/>
<path transform="translate(646,466)" d="m0 0h18v23l-4-2 1-4 1-2 1-14h-17z" fill="#013218"/>
<path transform="translate(304,397)" d="m0 0h21v22l-2-4v-16l-19-1z" fill="#013513"/>
<path transform="translate(303,165)" d="m0 0h18l-2 6-2-2 1-2-6 1-8-1v9h-1z" fill="#09A210"/>
<path transform="translate(784,812)" d="m0 0 3 1v23l-3-1z" fill="#092724"/>
<path transform="translate(195,572)" d="m0 0h1v5l21-1 1 3h-23l-1-2z" fill="#12211C"/>
<path transform="translate(704,281)" d="m0 0h10l-3 2h-3l-1 2v-2h-2l1 20-2 2-1-5z" fill="#01311C"/>
<path transform="translate(403,96)" d="m0 0h1v24l-1 1h-21v-3l2 1h16l3-1z" fill="#035A15"/>
<path transform="translate(704,556)" d="m0 0h2v21l4 1h-24v-1l17-1 1-2z" fill="#75E404"/>
<path transform="translate(130,504)" d="m0 0h1v5h18v2l-14 1-7-1 1-3z" fill="#173621"/>
<path transform="translate(657,494)" d="m0 0h2l5 5-1 4-6 1-1-1v-8z" fill="#02311E"/>
<path transform="translate(195,397)" d="m0 0h29v1h-28v19h-1l-1-16v-3z" fill="#013513"/>
<path transform="translate(535,329)" d="m0 0h1v21h-14l1-2 11-1v-9z" fill="#04561E"/>
<path transform="translate(302,240)" d="m0 0h1l1 16h-23v-1l11-1 7-1h2z" fill="#079313"/>
<path transform="translate(577,589)" d="m0 0h1l1 13h-20v-2h18z" fill="#05551F"/>
<path transform="translate(802,558)" d="m0 0h5v42h-1l-1-38z" fill="#042B2A"/>
<path transform="translate(470,536)" d="m0 0h2l3 9 1 4-5 4z" fill="#01321B"/>
<path transform="translate(426,480)" d="m0 0h1l1 14v11l2 3-1 3 2 1h-5z" fill="#013C15"/>
<path transform="translate(662,397)" d="m0 0 2 3v20h-5l2-1v-19l-1-2z" fill="#05551F"/>
<path transform="translate(486,387)" d="m0 0h8l1 3-5 4-5-2z" fill="#02311E"/>
<path transform="translate(621,304)" d="m0 0h1v23l-8-1v-5h6z" fill="#02461D"/>
<path transform="translate(552,228)" d="m0 0h6v4 1h-21l1-3 1 1h9v-2z" fill="#013218"/>
<path transform="translate(219,514)" d="m0 0h1v20h-14l3-2 7-1 2-3z" fill="#035E1A"/>
<path transform="translate(780,397)" d="m0 0h4l-1 22-3-1z" fill="#04541E"/>
<path transform="translate(662,377)" d="m0 0h1v20h-15l4-2h8v-8z" fill="#013513"/>
<path transform="translate(324,335)" d="m0 0h1l1 6 3-2 2 5-1 4-6 1z" fill="#29C709"/>
<path transform="translate(303,307)" d="m0 0h2v18h5l-1 2-6 1z" fill="#013613"/>
<path transform="translate(598,263)" d="m0 0h1v15h-1v-6h-2l-1 4-2-8v-3z" fill="#0CAC0F"/>
<path transform="translate(661,603)" d="m0 0h4v20l-2-1-1-13-3-3 3-1z" fill="#02311E"/>
<path transform="translate(647,476)" d="m0 0 4 4v6h-3l-1 3v-4h-2v-8z" fill="#02301E"/>
<path transform="translate(171,448)" d="m0 0 2 1 1 16-4-1v-15z" fill="#032B29"/>
<path transform="translate(622,373)" d="m0 0h20v1l-16 2-2 1-1 8h-1l-1-11z" fill="#037517"/>
<path transform="translate(682,367)" d="m0 0h1v7h-20l3-3 15 1z" fill="#013513"/>
<path transform="translate(350,340)" d="m0 0h2v2h7l1 2-2 3h-8z" fill="#02301F"/>
<path transform="translate(515,164)" d="m0 0h21v7l-6-2v-3l-15-1z" fill="#024719"/>
<path transform="translate(278,144)" d="m0 0h1v15l-2 2-1-10-4-2v-2l5-2z" fill="#062A21"/>
<path transform="translate(471,120)" d="m0 0 7 1v5l-2-1-2 3h-2v9h-1z" fill="#022D25"/>
<path transform="translate(398,93)" d="m0 0h5l-3 3h-21v13h-1v-15z" fill="#414917"/>
<path transform="translate(732,858)" d="m0 0h21l-1 3h-23l3-1z" fill="#042B2A"/>
<path transform="translate(218,800)" d="m0 0h1v9l3 1-1 4-1 1h20v1h-21l-1-5z" fill="#941B1D"/>
<path transform="translate(326,657)" d="m0 0 9 1 3 4-2 2v2h-2v-4h-6l-2-2z" fill="#032B29"/>
<path transform="translate(489,638)" d="m0 0h1l1 16-3-3-2-5-1-1v-5h4z" fill="#01311D"/>
<path transform="translate(602,593)" d="m0 0 2 2v5l6-1 3-2 6 3v1h-20l3-1-1-3z" fill="#013513"/>
<path transform="translate(664,397)" d="m0 0h40v1l-36 1-4 3z" fill="#013513"/>
<path transform="translate(213,342)" d="m0 0h7l1 2-2 1v4h21v1h-23l1-3-3-1 1-1-3-1z" fill="#013219"/>
<path transform="translate(316,282)" d="m0 0 5 1 1 1v20l-2-2v-16h-6v-3z" fill="#02311E"/>
<path transform="translate(805,270)" d="m0 0h3l-1 5-8-1-1 2-5-1-2-3h10z" fill="#042B2A"/>
<path transform="translate(192,220)" d="m0 0h1v40l-3 1v-5h1z" fill="#042B2A"/>
<path transform="translate(683,165)" d="m0 0 4 1-1 1-1 20-2 1z" fill="#3C7012"/>
<path transform="translate(516,134)" d="m0 0 4 1 7-1-2 3 11 1v1h-20l1-3z" fill="#022E24"/>
<path transform="translate(629,908)" d="m0 0 2 2-1 1v16h-2l-1-4v-13z" fill="#042B2A"/>
<path transform="translate(281,652)" d="m0 0h1l1 16 1 3h20v1h-23z" fill="#C92B15"/>
<path transform="translate(464,488)" d="m0 0h6v9l-2 4-3 1 1-11-2-1z" fill="#013219"/>
<path transform="translate(849,443)" d="m0 0h16l3 1 1 3-4-1h-16z" fill="#032B29"/>
<path transform="translate(400,420)" d="m0 0 4 1-2 1zm-12 2h14l-2 4h-8l-4-2z" fill="#037616"/>
<path transform="translate(431,378)" d="m0 0 1 4h-16l1-3z" fill="#02311E"/>
<path transform="translate(696,345)" d="m0 0h7v4h-15v-3z" fill="#022F21"/>
<path transform="translate(681,286)" d="m0 0h1v18h-2l-1-2v-13z" fill="#02311E"/>
<path transform="translate(475,177)" d="m0 0h2l1 7v7l-3 1-1-2z" fill="#02311E"/>
<path transform="translate(292,680)" d="m0 0 2 1v8l-1 5-3-1v-12z" fill="#fff"/>
<path transform="translate(351,583)" d="m0 0 5 1 1 4-5 3h-3l1-7z" fill="#037517"/>
<path transform="translate(615,439)" d="m0 0 5 2v2h-20v-2z" fill="#01321A"/>
<path transform="translate(473,284)" d="m0 0 2 4h-3v37h-1v-38z" fill="#042B2A"/>
<path transform="translate(579,95)" d="m0 0h1v23h-14v-1h12l-1-5 1-3z" fill="#056B12"/>
<path transform="translate(370,903)" d="m0 0 4 2-2 1v3l-3 1-2-1-14-1v-1l16-2z" fill="#072A28"/>
<path transform="translate(531,609)" d="m0 0h3l1 8-1 6h-3l-1-7z" fill="#09A211"/>
<path transform="translate(346,602)" d="m0 0h6l1 1h5l2-1-1 3h-17l-6 1-1-3z" fill="#02301E"/>
<path transform="translate(618,560)" d="m0 0h3v15h-3z" fill="#022C26"/>
<path transform="translate(472,510)" d="m0 0h15l5 2-1 4v-3l-19-1z" fill="#014614"/>
<path transform="translate(826,475)" d="m0 0 4 1v5l-2 2 4 2-1 2-7 1z" fill="#02301E"/>
<path transform="translate(526,574)" d="m0 0 4 1 15 1-1 2h-19z" fill="#02311E"/>
<path transform="translate(260,480)" d="m0 0 2 4v10l-4 2v-8z" fill="#032C26"/>
<path transform="translate(688,443)" d="m0 0h8v5l-6 1-2 2-1-5z" fill="#0DB30F"/>
<path transform="translate(581,397)" d="m0 0h7v2h-3l1 6-1 3h-2l-3-8z" fill="#047D16"/>
<path transform="translate(426,234)" d="m0 0h4v5h-2v14l-2-3z" fill="#032B28"/>
<path transform="translate(405,216)" d="m0 0 4 3-2 1 1 5 1 4-5 1v-13z" fill="#032B29"/>
<path transform="translate(871,193)" d="m0 0h1v22h-11l3-2 7-2z" fill="#0D2520"/>
<path transform="translate(674,194)" d="m0 0 2 1v7l-3 4h-2v-10h3z" fill="#042B2A"/>
<path transform="translate(419,720)" d="m0 0h5l-1 6 1 5-4 1-1-6z" fill="#F4C929"/>
<path transform="translate(402,720)" d="m0 0h14l-3 4h-3v-2h-2l-3 5-2-1z" fill="#F5CA2A"/>
<path transform="translate(627,595)" d="m0 0 6 3-1 3h-11l4-5z" fill="#013513"/>
<path transform="translate(280,487)" d="m0 0h1v11l-1 13h-1l-2-13 2-10z" fill="#013219"/>
<path transform="translate(288,482)" d="m0 0 10 2 1 2-18 1 2-2z" fill="#01311C"/>
<path transform="translate(241,444)" d="m0 0h17l-1 4v-3h-14l1 9h-3z" fill="#1EBB0B"/>
<path transform="translate(275,353)" d="m0 0h3v14h-3z" fill="#042B2A"/>
<path transform="translate(578,345)" d="m0 0 1 4-11 1h-9v-2l9-1z" fill="#032B29"/>
<path transform="translate(667,321)" d="m0 0h2l1 4-1 10-3 1v-13z" fill="#042B2A"/>
<path transform="translate(861,316)" d="m0 0 4 1v2l-3 1h-12v-3h9z" fill="#022E24"/>
<path transform="translate(675,269)" d="m0 0 2 3v15h-2l-1-2v-14z" fill="#02311E"/>
<path transform="translate(514,271)" d="m0 0h1v11h-21v-1l17-1 1-1 1-7z" fill="#024F16"/>
<path transform="translate(427,90)" d="m0 0h14v1l6 1v1h-15l-8-1z" fill="#013219"/>
<path transform="translate(523,561)" d="m0 0h2l1 2v12h-3l-1-5z" fill="#042B2A"/>
<path transform="translate(787,556)" d="m0 0h17l-4 3h-13z" fill="#042B2A"/>
<path transform="translate(685,506)" d="m0 0h18v2l-6 1h-9v-2z" fill="#042B2A"/>
<path transform="translate(554,368)" d="m0 0 1 4 2 1h-22l1-2h9l4-1v2l4-2z" fill="#042B2A"/>
<path transform="translate(628,301)" d="m0 0h13l-1 3h-18l2-2z" fill="#032B29"/>
<path transform="translate(196,808)" d="m0 0 1 2 5 2 1-3 5 2 6 1v1l-18 1z" fill="#042B2A"/>
<path transform="translate(403,528)" d="m0 0h1v6h-12l-10-1 1-2 19 1z" fill="#4ED505"/>
<path transform="translate(536,291)" d="m0 0h5l1 5v2l-3 1 3 1h-3v2l-3 1z" fill="#0BA710"/>
<path transform="translate(497,278)" d="m0 0h12l2 1v2h-14z" fill="#032B28"/>
<path transform="translate(658,642)" d="m0 0h13l1 2-2 1h-12z" fill="#042B2A"/>
<path transform="translate(771,596)" d="m0 0h12l1 3h-13l-2-2z" fill="#032B29"/>
<path transform="translate(747,842)" d="m0 0h4l-2 6h-6l-1-5z" fill="#032B29"/>
<path transform="translate(808,767)" d="m0 0h2l1 3-2 1-1 29h-1v-31z" fill="#042A29"/>
<path transform="translate(196,560)" d="m0 0h1v16l-3 1v-15z" fill="#042B2A"/>
<path transform="translate(604,533)" d="m0 0 18 1v1l-17 1-2 1-1 7h-1v-10z" fill="#013413"/>
<path transform="translate(149,512)" d="m0 0h2l1 3-1 15-2 2z" fill="#0A2623"/>
<path transform="translate(300,375)" d="m0 0h3v8l-7-2 2-5z" fill="#02301E"/>
<path transform="translate(304,281)" d="m0 0h18l-1 3-5-1-1 2h-6l-1-2z" fill="#013513"/>
<path transform="translate(642,278)" d="m0 0h6v2h5l1-2h5l-1 3h-12l-5 1-1-3z" fill="#042B2A"/>
<path transform="translate(404,211)" d="m0 0h10v2h-4v3l-6 1z" fill="#032D25"/>
<path transform="translate(766,794)" d="m0 0 14 1 1 2-11 2-2-1v-3z" fill="#042B2A"/>
<path transform="translate(494,688)" d="m0 0h2v2l8 1v1l-5 1 7 1v1h-12z" fill="#042B2A"/>
<path transform="translate(648,469)" d="m0 0h6l-1 4h-3v2l-5 1v-6l3 1z" fill="#032B29"/>
<path transform="translate(386,440)" d="m0 0 17 1 1 2h-20l2-1z" fill="#03601A"/>
<path transform="translate(727,310)" d="m0 0h1v18l-1 2h-6v-1l-5-1v-1h11z" fill="#089D11"/>
<path transform="translate(640,282)" d="m0 0h3v22l-3-1 1-8v-9z" fill="#013513"/>
<path transform="translate(723,245)" d="m0 0h1v12l-1 1h-11v-1l9-2 1-9z" fill="#069014"/>
<path transform="translate(480,121)" d="m0 0h9l1 1v11l-2-4v-3l-2-1 1-2h-6z" fill="#022E24"/>
<path transform="translate(272,837)" d="m0 0h2v2l5 2-1 3h-6l1-3-7-2v-1z" fill="#032B29"/>
<path transform="translate(766,833)" d="m0 0 3 1 15 1v1l-20 1-3 3-1-4z" fill="#042B2A"/>
<path transform="translate(542,665)" d="m0 0 2 1-1 2-3 2 1 2h-2v15h-1l-1-18 3-3z" fill="#042B2A"/>
<path transform="translate(215,580)" d="m0 0 5 1v17l1 4-3-1v-20z" fill="#A51E1C"/>
<path transform="translate(361,555)" d="m0 0h22l-3 3-19-2z" fill="#037517"/>
<path transform="translate(534,546)" d="m0 0h2v14h-3v-13z" fill="#022D25"/>
<path transform="translate(362,536)" d="m0 0h1l1 11-1 7h-2v-17z" fill="#09A211"/>
<path transform="translate(645,466)" d="m0 0 18 1-4 2h-11v2l-3-1z" fill="#02301F"/>
<path transform="translate(126,328)" d="m0 0h1v24h-1l-1-8h-1v-8h1z" fill="#032B29"/>
<path transform="translate(744,301)" d="m0 0 3 3h-20l1-2h15z" fill="#042B2A"/>
<path transform="translate(372,122)" d="m0 0h5l1 2v7l-2 1v-4h-3z" fill="#032B28"/>
<path transform="translate(324,886)" d="m0 0 2 1-1 1v19h3v2h-5v-22z" fill="#10211D"/>
<path transform="translate(330,641)" d="m0 0h2v6l-3 7-4-4 2-3h3z" fill="#042B2A"/>
<path transform="translate(489,627)" d="m0 0 1 4v5l-8-3v-2h3v-2h4z" fill="#02311E"/>
<path transform="translate(256,607)" d="m0 0 2 1 1 5v11l-4-2 1-4z" fill="#02301E"/>
<path transform="translate(645,602)" d="m0 0h22l4 2-3 3h-2l-1-3-20-1z" fill="#013513"/>
<path transform="translate(423,548)" d="m0 0h1v8h-19v-1l16-2z" fill="#05551F"/>
<path transform="translate(622,534)" d="m0 0 2 1v3h-16v-2l13-1z" fill="#042B2A"/>
<path transform="translate(422,392)" d="m0 0 6 1 3 3-4 1-5-1h-10v-1l10-2z" fill="#02311E"/>
<path transform="translate(530,296)" d="m0 0h1l1 6 1-4 3-2 1 8h-10l3-1z" fill="#5EDD04"/>
<path transform="translate(322,281)" d="m0 0 3 2-1 5-1 15 2 1h-3z" fill="#035B1C"/>
<path transform="translate(826,256)" d="m0 0h1v22h-1v-15h-2l-1-3 1-3z" fill="#0F3529"/>
<path transform="translate(750,577)" d="m0 0h2v6l-5 1-2-1 2-5z" fill="#022E23"/>
<path transform="translate(621,556)" d="m0 0h1v24h-4v-3l2-1v-18z" fill="#013513"/>
<path transform="translate(422,556)" d="m0 0h2l-2 4-11-1-4-1v-1z" fill="#02311E"/>
<path transform="translate(804,508)" d="m0 0 4 1-2 2-1 19h-3v-2h2l-1-16z" fill="#042A29"/>
<path transform="translate(619,498)" d="m0 0 3 1v12h-2l-1-5z" fill="#2BC909"/>
<path transform="translate(494,391)" d="m0 0h17v2l-12 1h-6z" fill="#042B2A"/>
<path transform="translate(226,338)" d="m0 0h9v4h-9l-2-3z" fill="#042B2A"/>
<path transform="translate(218,318)" d="m0 0 1 2 1 7 1 1 9 1v1l-10 1-3-3-1-7z" fill="#02311E"/>
<path transform="translate(526,235)" d="m0 0h9v5l-1-2-8 1-2-3z" fill="#032B29"/>
<path transform="translate(414,212)" d="m0 0h8l1 1v9h-1v-8h-6v2h-5l1-2z" fill="#02301E"/>
<path transform="translate(762,176)" d="m0 0 2 2 2 7 1 2-3 3-2-1z" fill="#022E24"/>
<path transform="translate(734,838)" d="m0 0 8 2v8l-4-1v-4l-2-1v-2h-2z" fill="#042B2A"/>
<path transform="translate(557,602)" d="m0 0h9v1l-7 2-1 19h-1z" fill="#013513"/>
<path transform="translate(799,283)" d="m0 0h6v6l-1-3h-13l-2-2z" fill="#079314"/>
<path transform="translate(202,207)" d="m0 0h8l2 1v2h-13z" fill="#022F23"/>
<path transform="translate(348,177)" d="m0 0 2 2v13h-3v-14z" fill="#032B28"/>
<path transform="translate(344,142)" d="m0 0h2v8h-1l-1-5-22-1v-1z" fill="#2E4518"/>
<path transform="translate(168,765)" d="m0 0 5 2-3 2h-10v-2z" fill="#042B2A"/>
<path transform="translate(377,660)" d="m0 0 3 1-1 6-4 1-5-1 3-3h4l-1-3z" fill="#032B29"/>
<path transform="translate(644,648)" d="m0 0 2 2v8l1 1v5l-1 3h-2z" fill="#B3201B"/>
<path transform="translate(219,632)" d="m0 0 4 1-1 5h-2v10h-1z" fill="#F19F1E"/>
<path transform="translate(475,561)" d="m0 0h3l1 3-2 4-5-2 1-4z" fill="#0DB30F"/>
<path transform="translate(168,448)" d="m0 0h2l1 7-1 8-2 1z" fill="#02301E"/>
<path transform="translate(711,321)" d="m0 0 9 3v1h-7l-1 1h-5z" fill="#02311E"/>
<path transform="translate(813,271)" d="m0 0 5 1v7l-4-1z" fill="#042B2A"/>
<path transform="translate(519,240)" d="m0 0h1l1 13-1 4h-2v-14z" fill="#042B2A"/>
<path transform="translate(520,128)" d="m0 0 5 1 1 3-4 1h-6v-3h4z" fill="#022E24"/>
<path transform="translate(537,625)" d="m0 0h4v2h-2l-1 21h-1z" fill="#013513"/>
<path transform="translate(259,344)" d="m0 0h8v4h-6l-1 2-3-1z" fill="#037516"/>
<path transform="translate(517,329)" d="m0 0 4 1v6l-4 2z" fill="#05551F"/>
<path transform="translate(646,313)" d="m0 0h3v6l-2 5-1-4h-2l1-5z" fill="#0DB30F"/>
<path transform="translate(252,837)" d="m0 0h6l1 3-1 2 3 1-5 1-1-4-3-1z" fill="#042B2A"/>
<path transform="translate(737,626)" d="m0 0 1 2 3-1 2 2-1 4-6-1v-5z" fill="#042B2A"/>
<path transform="translate(299,592)" d="m0 0 2 4 1 4h2l-1 3-3-1-2-3v-6z" fill="#01311D"/>
<path transform="translate(149,398)" d="m0 0h1l1 22-3 1z" fill="#2B421F"/>
<path transform="translate(417,387)" d="m0 0 4 1v3h-5v3l-4-1 1-3h3z" fill="#02301E"/>
<path transform="translate(544,367)" d="m0 0 2 1-1 4-8-1v-3z" fill="#02301F"/>
<path transform="translate(199,338)" d="m0 0 7 1 2 3-4 1-5-2z" fill="#042B2A"/>
<path transform="translate(536,334)" d="m0 0 3 2-1 8 1 4-3 2z" fill="#02311E"/>
<path transform="translate(379,329)" d="m0 0h2v6h-2v13h-1v-18z" fill="#022D24"/>
<path transform="translate(178,314)" d="m0 0h10l1 2-4 1h-7l-2-2z" fill="#042B2A"/>
<path transform="translate(322,271)" d="m0 0h1v8l-2 2h-17v-1l15-1 3-1z" fill="#089E11"/>
<path transform="translate(497,275)" d="m0 0h7v2l-7 2v2h-3v-5l2 1z" fill="#013219"/>
<path transform="translate(234,626)" d="m0 0h6v7l-2-1v-2h-4z" fill="#F19F1E"/>
<path transform="translate(641,494)" d="m0 0h1v9l-2 1v-4h-2v-3l-2-1z" fill="#037517"/>
<path transform="translate(609,480)" d="m0 0h1l1 5h9v3l-12-1z" fill="#09A211"/>
<path transform="translate(259,477)" d="m0 0h2v2h2v5l-2-2-2 6h-1v-10z" fill="#01301E"/>
<path transform="translate(404,381)" d="m0 0 6 3-1 2h-8l1-4z" fill="#02311E"/>
<path transform="translate(104,367)" d="m0 0 1 2 2 1v1l12 1v1l-17 1 2-1z" fill="#0D312F"/>
<path transform="translate(524,190)" d="m0 0h11l-1 6h-2l-2-4h-9z" fill="#069114"/>
<path transform="translate(775,189)" d="m0 0 4 1 2 2h-18v-1z" fill="#172723"/>
<path transform="translate(878,181)" d="m0 0h1v7l-2 3v-3h-3v-6l3 1z" fill="#042B2A"/>
<path transform="translate(309,170)" d="m0 0 7 1 3 1v2h-9z" fill="#09A211"/>
<path transform="translate(809,628)" d="m0 0h3l-1 11-2 1z" fill="#032B28"/>
<path transform="translate(545,599)" d="m0 0 2 4h-10l-1-3h7z" fill="#089D11"/>
<path transform="translate(651,497)" d="m0 0h1l1 9-1 5h-2v-13z" fill="#042B2A"/>
<path transform="translate(144,474)" d="m0 0h4l1 8-3 1v-3l-2-1z" fill="#042B2A"/>
<path transform="translate(259,241)" d="m0 0h1l1 16-1 6-2-2z" fill="#032B29"/>
<path transform="translate(403,192)" d="m0 0h1l1 15 5 4h-6l-1-3z" fill="#035C1B"/>
<path transform="translate(376,186)" d="m0 0 5 2v1h-16l4-2z" fill="#013513"/>
<path transform="translate(686,166)" d="m0 0 1 4-1 6h2l-2 9h-1v-18z" fill="#042B2A"/>
<path transform="translate(276,488)" d="m0 0h2v8h-3l-1-6z" fill="#042B2A"/>
<path transform="translate(421,398)" d="m0 0h3v5l-4 2-2-6z" fill="#037517"/>
<path transform="translate(257,384)" d="m0 0h1v12l-9-1v-1l6-1z" fill="#079413"/>
<path transform="translate(403,365)" d="m0 0h1v10h8l-2 2-5 1-2-2z" fill="#013317"/>
<path transform="translate(950,306)" d="m0 0h6v3l2 1-10-1-3-1z" fill="#032B29"/>
<path transform="translate(661,213)" d="m0 0h2v11h-2l-1-7z" fill="#013219"/>
<path transform="translate(324,896)" d="m0 0h1l1 8h2v2h7v1h-10l-1-3z" fill="#032B29"/>
<path transform="translate(195,751)" d="m0 0h1v10l-2-4h-2l1-5z" fill="#02311E"/>
<path transform="translate(730,580)" d="m0 0h6l-2 5h-4z" fill="#022E22"/>
<path transform="translate(403,556)" d="m0 0h19v1l-15 1-3 2z" fill="#013513"/>
<path transform="translate(745,338)" d="m0 0 7 1-1 3-6 1z" fill="#037517"/>
<path transform="translate(551,319)" d="m0 0h2l1 3h-2v2l-5-1-1-3z" fill="#03601A"/>
<path transform="translate(494,212)" d="m0 0 22 1v1l-22 1z" fill="#079314"/>
<path transform="translate(378,182)" d="m0 0h5l-1 4-4 1-2-1z" fill="#02301E"/>
<path transform="translate(372,161)" d="m0 0h3l-1 5-6-1v-2z" fill="#042B2A"/>
<path transform="translate(449,115)" d="m0 0 10 1 5 1v1h-15z" fill="#042B2A"/>
</svg>
