<?xml version="1.0" encoding="UTF-8"?>
<svg version="1.1" viewBox="0 0 1024 1024" width="96" height="96" xmlns="http://www.w3.org/2000/svg">
<path transform="translate(485,30)" d="m0 0h24v25h24v56h25v81l4-1h19v51h16v-51h25v-29l25 1v-49h25v-30h26v239h5v-27h25v-27h25v-27l27 1v-27l28 1v-27h25v-28h26v134h-25v53h-27v26h-26v27h49v-27h47v-27h28l1 55-2 1-23-1 1 24-1 1h-25v26h-26v25h-24v29l-25-1v25l-5 1h-19l-1 3h25v27l26-1v28l-25-1v19h25v39h23v144h-23v32l-25-1v27h-26l1 8v19h-28v27l-27-1v28l-159 1h-202v-29l-52 1v-27h-28v-28h-28v-26h-27v-32l-25 1v-145l24 1v-39h27v-19l-27-1v-25h-24v-27h52v-28h-28v-28h-26v-25h-29v-24l1-3h-26v-25h-29v-54h28v26h56v27h25v-53h-25v-106h-24v-50h24v23h26v27h27l-1 26 30-1 1-186 25 1v27h26v27l25-1 1 2-1 25 28-1v55l26-1 1 52h11l8 1-1-52h24v-80h23v-54h25v-52zm-222 238v27h25v-27z" fill="#011E1F"/>
<path transform="translate(237,609)" d="m0 0h25l1 1v17l-1 5h2v2h25l2 1 1 15 217 1 171-1 10-1 10 1v-12l1-3 2-1 13-1h36v-3h2v-16l1-5h26l1 31 2 8 18-1 4 2 1 141-3 2h-12l-8 1-2 2-1 26-1 1h-23l-1 2-1 24-2 1-22 1-2 1v24l-3 2h-22v25h-2v28l-159 1h-202v-31h5l-2-1v-20l-3-3v-2h-47l-3-2h2l-1-2v-22l-5-1h-15l-6 1-1-2-1-22-2-4-25-1-2-2-1-9h-1v-19l-24-1-1-1v-51h-2v-88l2-1h21l2-3 1-34z" fill="#EB5908"/>
<path transform="translate(237,609)" d="m0 0h25l1 1v17l-1 5h2v2h25l2 1 1 15 217 1 171-1 10-1 10 1v-12l1-3 2-1 13-1h36v-3h2v-16l1-5h26l1 31 2 8 18-1 4 2 1 141-3 2h-12l-8 1-2 2-1 26-1 1h-23l-1 2-1 24-2 1-22 1-2 1v24l-3 2h-22v25h-2v28l-159 1h-202v-31h5l-2-1v-20l-3-3v-2h-47l-3-2h2l-1-2v-22l-5-1h-15l-6 1-1-2-1-22-2-4-25-1-2-2-1-9h-1v-19l-24-1-1-1-1-52 1-1h24l1 1 1 29 28 1 1 3v25l26 1 2 19v9l2-1h21l2 1v28h251v-28h30v-22l1-6 25 1v-30h26v-29l5-1h20l1-27 1-1h26v-20l1-9h26l-1-14-53 1h-227l-169-1-18-1-1-9v-18h-12l-16-1v-25z" fill="#C43811"/>
<path transform="translate(289,163)" d="m0 0h25l1 25 1 2 23 1 2 51 25 1v26l1 2 5-1h16l4 2v52h20l9 1 1 25v26h32l2 26 10 1v-2l7 1 1 1v25l8-1 3 1v36h-1l-1 48 1 33-1 21v20l-1 1h-30l-1-3v-21l-1-27h-29v-28h-28l-1-28-1-2v-22-1h-21l-2 4v16l-2 5h-26l-2-20-2-3h4v-2l-25 1-2-1-22 1-1 3-1 21 12 2 9-1 1 6v21h30v28h-24l-4-1-1-26-4 1-4-1-32-1-11-1v-27h-55v-25h-26v25h-1v-25h-29v-24l1-3h-26v-25h-29v-54h28v26h56l1 28-1 24h53l1 2-1 25h25l4 1v-2l-3-1h4v2h25l1-52-31 1v1h-20l-6-2-1-26h2l-1-27v-26h30v26h27v27h24l3 25h24l1 1v51l3-1v2h7l1-2v2l13-1 1-1v-103h-3l-3-4-8 2-8-2-2-17v-5l-21 1-7-2v-54l-4 1h-17l-4-1z" fill="#054B20"/>
<path transform="translate(755,609)" d="m0 0h26l1 31 2 8 18-1 4 2 1 141-3 2h-12l-8 1-2 2-1 26-1 1h-23l-1 2-1 24-2 1-22 1-2 1v24l-3 2h-22v25h-2v28l-159 1h-202v-29h228v-26h15l13 1v-13l1-16 50 2 1-28h27v-12l1-16 24 1v-11l1-18 1-1h25v-30l3-1h23l1-1v-55l1-1 25 1v109l3 1 17 1-1-2-8-1v-1l7-1-1-14v-16l3-5v-18l-1-6 1-26 2-22-3 1h-18l-1-1v-28h-16v-3l-3-5 1-2 5 1v2l7-1 2 1v-8h-18l-41 1h-15v-1l13-1h36v-3h2v-16z" fill="#931D1A"/>
<path transform="translate(485,83)" d="m0 0 24 1v26l3-1h10l11 1 1 2-1 233 2 1-1 3-1 53h-49l-1-26v-24l1-28h-22l-2-1-1-26v-105l3-1 22 1v-108z" fill="#044A20"/>
<path transform="translate(289,163)" d="m0 0h25l1 25 1 2 23 1 2 51 25 1v26l1 2 5-1h16l4 2v52h20l9 1 1 25v26h30v104h-30v-78l-30 1h-24l-1-1-1-53h-3l-3-4-8 2-8-2-2-17v-5l-21 1-7-2v-54l-4 1h-17l-4-1z" fill="#054B21"/>
<path transform="translate(156,193)" d="m0 0h24v23h26v27h27l-1 26 31-1v27l2 1-1 1 2 1v22l22 1 2 2 2 12v13l22 1 1 22 2 3-1 2-1-3h-2v3h-24v-27h-27v-26h-30l1 26v27h-2l1 2v24h5 3 49v50l-1 2h-25l-1 1-29-1v-26h-29l-24-1v-24l1-1h24v-53h-25v-106h-24z" fill="#011E20"/>
<path transform="translate(320,507)" d="m0 0h45l2 1 1 24 1 2h19l5 2 1 19 1 4 2 1 25 1 1 25h27l2 3v15l1 4 19 1v24l-2 1h-31l-1-2v-22h-15l-3-2v-18l-3-1-50-2v21h26v24l-5 2h-46l-1-1-1-23h-50l-1-1v-11l1-10-23 1-32-1-2-1-1-25 2-1 26 1v-2l2 1h17v-1h10l1 1h23v-24l-51-2-1-6v-20l27 1 1-1h-11v-1h29l5 1 1 2v24l28 1v-28h-21z" fill="#044A20"/>
<path transform="translate(647,164)" d="m0 0 25 1 1 27v104l-1 1-48 1-1 55v22l-2 12-1 13-1 2h-21l1 22-1 5h-45v-52h21v-79h23v-44l2-9 1-1 21-1 1-3 1-24 24 1z" fill="#118917"/>
<path transform="translate(263,82)" d="m0 0 25 1v27h26v28l-25 1v129h25l1 54 13 1h14l2 12v10l10 1 7-2 3 5 1-26h1l1 26v103l-2 2h-21l-3-1-1-27v-24h-24l-2-7-1-11v-11h2l-1-1v-23h-20l-3-3v-12l-2-11-1-1-23-1v-18l1-5-3-1 2-2h23v-27h-25z" fill="#011E20"/>
<path transform="translate(534,111)" d="m0 0h24v81l4-1h19v51h16v-51l25 1v15l-2 14-1 3 2 1v15l-7 3h-17l1 22-1 33h-23v51l-23 1v15l1 8-1 6-1 20-1 2-14-1-2-2v-49-4l-1-25 1-208z" fill="#011E1F"/>
<path transform="translate(780,243)" d="m0 0h27v53l-23 1-3-1 1 42-1 6 2 1-1 3-1 26-5 1h-21v26l-1 1h-26l1 15h1v9l-2 3-25 1v24l-1 1h-51l-1-1v-24l1-1 26-1 1-24 2-12v-8l1-7 1-1 16-1h4l1-26h25v-26l24-1-22-1 3-10h2v-6h-2v-4l6 1v2l5-1h7l1-5h1l1 22v-50h26z" fill="#054B20"/>
<path transform="translate(272,663)" d="m0 0 18 1 1 14h161v25l-33 1-1 33h-127l-1-4 1-4h-3l1 5-1 1h-26l-1-40v-31z" fill="#FA900A"/>
<path transform="translate(341,902)" d="m0 0 361 1v27l-159 1h-202z" fill="#011F20"/>
<path transform="translate(205,608)" d="m0 0h26l1 1v35l-3 4h-23v88h2l1 51 24 1 2 3 1 26 1 1 25 1 3 5 1 24 6-2h15l5 2 1 24 1 1h20l27 1 3 3 1 3-1 19 3 1v1h-5l-1 1-52 1v-27h-28v-28h-28v-26h-27v-32l-25 1v-145l24 1z" fill="#011E20"/>
<path transform="translate(699,346)" d="m0 0 2 1-1 2h3v27h-10l-11 1-1 7v9l-2 11-1 24-1 1-26 1v24l26 1 2 7v10l-2 8-25 1-1 4-1-3-1 26-3 2-4-1-17-1-1 4v22l-3 2-5 1h-13l-4 3v15l-1 7-5 2-14 1h-2v3h-2l1-4-2-1 1 8-1 16-20 1-1 20-1 1-24 1v23l-1 1h-17l-2-6 1-18 6-1h11l1-1 1-21 10-2 1-1 1-21 3-1h15v-22l2-5 13-2 1-5 1-21h22v-14l1-13h25v-24l1-1 8-1h13l1-5h1l1 6v-26l1-6v-19h25l2-4 1-50 7-2h15z" fill="#044A20"/>
<path transform="translate(367,297)" d="m0 0h25v27h20l9 1 1 25v26h30v104h-30v-78l-30 1h-24l-1-1-1-53v-51z" fill="#36BB12"/>
<path transform="translate(313,454)" d="m0 0 3 1h24v2l-3 1 2 2 1 6v14l26-1 1-7v-13l3-5h22l1 1v5h-1v18l1 2v28h28v28l30-1 1 34-1 5h-1l-2 10-3 2h-15l-5-5-2-16-1-4h-25l-3-2-1-4v-19l-11-1h-13l-2-3v-24h-56l-1-27-10 2-11-3v-22l1-3z" fill="#011E1F"/>
<path transform="translate(180,455)" d="m0 0h26v25h55v27h11l17 2-1 3v-2h-22l-5-1 1 3v23h27l25 1v26h-24-3-26-1-27v26h-28v-25h-24v-27h52v-28h-28v-28h-25z" fill="#011E1F"/>
<path transform="translate(485,83)" d="m0 0 23 1v134h-24v26h24v27h-24v26h-25v-105l3-1 22 1v-108z" fill="#36BB12"/>
<path transform="translate(237,609)" d="m0 0h25l1 1v17l-1 5h2v2h25l2 1 1 15 217 1 171-1 10-1 10 1v-12l2-3v17l-70 2v2h6l-2 2-11 1-2 6h-175l-169-1-18-1-1-9v-18h-12l-16-1v-25z" fill="#D23A12"/>
<path transform="translate(533,428)" d="m0 0h20l45 1 1 3v22l-2 2h-20l-1 2h-2v22l-19 1-1 26-1 5v23l-9 1h-16l-1 25-1 1-15 1-2-1v-106l1-2 11-1 3 1 2-6h1l1 28 1-47z" fill="#044A20"/>
<path transform="translate(574,298)" d="m0 0h23l1 25 24 1v-22h1v73l-2 12-1 13-1 2h-21l1 22-1 5h-45v-52h21z" fill="#128C17"/>
<path transform="translate(650,536)" d="m0 0h27v25h3l77-1 2 5-1 23h-62l-9 1-37-1v12l-1 8-1 1-32 1 8 1v1l-22 1-1 2h-2v18h-26v-24l3-1 2 1 19-1 1-17 3-3 18-2-11-1v-1h15v-21l1-1h26z" fill="#044A20"/>
<path transform="translate(338,136)" d="m0 0 2 2-1 25 28-1v55l26-1 1 54-1 10h-1v-8l-4-1h-21v11h-1l-1-13v-13l1-13h-25l-1-1-1-25v-26h-23l-2-3v-25h-25l-1-11v-14z" fill="#022020"/>
<path transform="translate(206,349)" d="m0 0h23l2 2 1 27v24h5 3 49v50l-1 2h-25l-1 1-29-1v-26h-29l-24-1v-24l1-1h24v-52z" fill="#011E1F"/>
<path transform="translate(778,426)" d="m0 0 1 2 2-1h47l1 1v25h-49v26l-25 1-1 28-31 1-20-1v22l-1 4-4 1h-17l-3-2v-25l15-1h9l-1-2-3-1 3-7 1-17 26-1v-25l5-2h19l2 1v-25l23-1z" fill="#054B21"/>
<path transform="translate(759,633)" d="m0 0 18 1v8h-9v-2l-5-1 2 6 7 2v1l9 1 1 28h21v13l-1 11-1 26 1 8v14l-3 5v16l1 11-1 3-2 1 4 2v2h-17l-3-2v-109h-18l-7-1-1-26h-26v16l-1-3-53 1h-52v-9l2 3 11-2-4-1v-2h-8v-1l51-1h27v-17l16-1z" fill="#D23A11"/>
<path transform="translate(552,677)" d="m0 0h53l16 1 3 2v26l-1 1h-204v-4h33v-25z" fill="#F56E07"/>
<path transform="translate(452,376)" d="m0 0h2l2 26 10 1v-2l7 1 1 1v25l8-1 3 1v36h-1l-2 71-29 2-2-5v-21l1-3-28-1-2-3v-24h30z" fill="#054B21"/>
<path transform="translate(508,84)" d="m0 0h1v26l3-1h10l11 1 1 2-1 155-2 4h-23v-27h-24v-26h24z" fill="#054B20"/>
<path transform="translate(833,162)" d="m0 0h26v134h-25l2-2-1-62-1-10-2-4h-25v23l-1 2h-26v-27l28 1v-27h25z" fill="#011F20"/>
<path transform="translate(96,349)" d="m0 0h28v26h56v26l-1 1-28 1 1 24 27 1v26l-1 1h-28v-24l1-3h-26v-25h-29z" fill="#011F1F"/>
<path transform="translate(290,664)" d="m0 0h158l175 1v13h-71l-225 1-36-1-1-6z" fill="#D13A12"/>
<path transform="translate(232,323)" d="m0 0h30v26h27v27h24l1 8v19h-56v1h-20l-6-2-1-26h2l-1-27z" fill="#054C20"/>
<path transform="translate(780,243)" d="m0 0h27v53l-23 1-3-1v27l-1 10h-2l1 8-1 3-7 2-3 1h-10l-4 2h-26v-26l24-1-22-1 3-10h2v-6h-2v-4l6 1v2l5-1h7l1-5h1l1 22v-50h26z" fill="#0B7719"/>
<path transform="translate(289,163)" d="m0 0h25l1 25 1 2 23 1 2 51 25 1v53h-25l-1-3-1-13-1 5-2-2-3 2h-8l-6-4-1-10-1-1v24l11 1v1h-13l-1-53v-52h-25z" fill="#23A316"/>
<path transform="translate(179,401)" d="m0 0 2 2-1 24h53l1 2-1 25h25l3 1v25h-55v-25h-26v25h-1l-1-26 1-26h-27l-1-1v-24z" fill="#0C7919"/>
<path transform="translate(367,297)" d="m0 0h25v27h20l9 1v25h-28v52l-1 1h-24l-1-1-1-53v-51z" fill="#1E9B17"/>
<path transform="translate(647,164)" d="m0 0 25 1 1 27v104l-1 1h-24l-1-25-1-7v-23z" fill="#054B20"/>
<path transform="translate(877,348)" d="m0 0h28l1 55-2 1-23-1 1 24-1 1h-53l1-13h1v12h24l1-3h1l1-7 2-2v-7l4-1v-3l-6-2-1-1-24-1-1 2-1-2v-25h47z" fill="#011F20"/>
<path transform="translate(676,849)" d="m0 0h25l1 1 1 26h23v1h-22v25l-2 1h-359v-1l231-1v-1l48-1v-19l1-5h52v-11z" fill="#79181B"/>
<path transform="translate(288,729)" d="m0 0h3v8h101l1 1v25l-1 6h-99l-3-1v-33l-2-1z" fill="#F56E07"/>
<path transform="translate(484,271)" d="m0 0h24l1 1v40l1 13 2 2 16 2 2 3v13l-1 1-17 1-3 2h-25v-25h-22l-2-1v-26l2-1 22 1z" fill="#118A17"/>
<path transform="translate(290,635)" d="m0 0h1l1 15 217 1 171-1 10-1 10 1v-12l2-3v17l-70 2v2h6l-2 2-11 1-2 6h-173v-12h-110l-50-1z" fill="#79181B"/>
<path transform="translate(792,791)" d="m0 0h14l1 1v31l-25-1v27h-26l1 8v19h-28v27l-25-1-1-3v-20l1-2 22-1 2-1 1-26 26-1v-25l2-1 23-1 1-26 3-3z" fill="#011E20"/>
<path transform="translate(809,217)" d="m0 0h23l1 1v78l-15 1-8 3-1 2-1 18-1 3-4 2-16-1-6-1v-27h26l-1-55 1-23z" fill="#054B20"/>
<path transform="translate(460,84)" d="m0 0h24v108h-24l-1 52-3-1 1-67v-34l2-4z" fill="#011E1F"/>
<path transform="translate(233,822)" d="m0 0h27l2 2 1 24 25 1 1 1 1 27h50l1 25-52 1v-27h-28v-28h-28z" fill="#011E20"/>
<path transform="translate(623,297)" d="m0 0h25l1 5v23l-1 50-4 2-21-1 1 26-1 26-1 1h-24v-27h21l1-15 2-12v-24z" fill="#054B21"/>
<path transform="translate(485,30)" d="m0 0h24v25h24v55l-5 1-6-1h-13v-26h-49v53h-1v-54h25v-52z" fill="#012020"/>
<path transform="translate(366,162)" d="m0 0h1v55l26-1v51l-2 2-2-1-19-1-2-1-1-21v-26l-3-2-9-1-12-1-1-1-1-22-1-6-1-19 1-4z" fill="#011E1F"/>
<path transform="translate(343,704)" d="m0 0 2 1 73 2v30h-78v-16l-2-4v-7h-2l1-2z" fill="#FCA617"/>
<path transform="translate(575,376)" d="m0 0h23l1 48-1 5h-45v-52z" fill="#0B7719"/>
<path transform="translate(272,663)" d="m0 0 18 1 1 14h36v2h-2v27h3l-1 4h-2v2l-10 3-7 4h-10l-7 1-1-11v-15h-29v-31z" fill="#FBA516"/>
<path transform="translate(754,792)" d="m0 0h1v29h25v1h-23l-1 2-1 24-2 1-22 1-2 1v24h-1v-26h-26v-28l26-1 1-27z" fill="#7A181B"/>
<path transform="translate(661,136)" d="m0 0h10l2 2v54h-1v-27h-23l-2-1v53h-23l-1 23-2 4-21 1-2 9h-1v-11l17-1 7-2v-15l-3-1 3-17v-14l-23-1v-1h24v-29l25 1v-26h14z" fill="#02221F"/>
<path transform="translate(339,256)" d="m0 0h1l1 40h25v-14l1-11 5-1h16l4 2v25l-25 1-2 52-5-5-8 2-8-2-2-17v-5h-2v-27h-12l-11-1-1-1v-26l3 3 1 10 5 3h8l2-1 1-6 2 3z" fill="#1C9817"/>
<path transform="translate(180,455)" d="m0 0h26v25h55v27h11v1l-15 1h-24l-28-1v-28h-25z" fill="#011E1F"/>
<path transform="translate(780,323)" d="m0 0h1l1 15-1 6 2 1-1 3-1 26-5 1h-21v26l-1 1h-26v-53l26-1 4-2h12l2-2h6v-11h2z" fill="#054B21"/>
<path transform="translate(780,677)" d="m0 0h23v13l-1 11-1 26 1 8v14l-3 5v16l1 11-1 3-2 1 4 2v2h-17l-3-2z" fill="#D23911"/>
<path transform="translate(261,480)" d="m0 0h31l9 2 9-1 1 6v21h30v28h-24l-4-1-1-26-4 1-4-1-32-1-11-1z" fill="#0B7719"/>
<path transform="translate(262,349)" d="m0 0h27v27h24l1 8v19l-52-1z" fill="#46CB17"/>
<path transform="translate(755,609)" d="m0 0h26l1 31 2 8 18-1 3 1v114l-1 4-1 21h-3l-8-1v-1l7-1-1-14v-16l3-5v-18l-1-6 1-26 2-22-3 1h-18l-1-1v-28h-16v-3l-3-5 1-2 5 1v2l7-1 2 1v-8h-18l-41 1h-15v-1l13-1h36v-3h2v-16z" fill="#B62D15"/>
<path transform="translate(459,241)" d="m0 0 1 3h48v27h-24v26h-25z" fill="#118917"/>
<path transform="translate(484,218)" d="m0 0h46l2 1v51l-1 1h-23v-27h-24z" fill="#0B7719"/>
<path transform="translate(289,402)" d="m0 0h24l3 1 1 3 8-1h9l3 3 1 16v4h2v26h-25l-1-2-1-23h-24z" fill="#0B7719"/>
<path transform="translate(753,242)" d="m0 0 27 1v27h-26l1 10v40l-2 1-1-22-1 4-12 1v-2l-6-1v4h2v6h-2l-1 7-1 2 21 1 2 2h-26l-2-3v-17l1-3 1-31h25z" fill="#011E1F"/>
<path transform="translate(290,664)" d="m0 0h128v14l-91 1-36-1-1-6z" fill="#EB5908"/>
<path transform="translate(533,428)" d="m0 0h20l21 1 1 1-1 25-20 1v11l-1 13h-24v-51z" fill="#0B7719"/>
<path transform="translate(422,480)" d="m0 0h30l1 27 29 1v27l-29 2-2-5v-21l1-3-28-1-2-3z" fill="#0B771A"/>
<path transform="translate(206,736)" d="m0 0h2l1 51 24 1 2 3 1 26 1 1 25 1 3 5 1 24 6-2h15l5 2 1 24 1 1h20l27 1 3 3 1 3-1 19 3 1v1l-7-1v-23l-48 1-3-3-1-25-25-1-1-1v-24h-6v-1l-50-1-1-36z" fill="#B44126"/>
<path transform="translate(482,512)" d="m0 0h1l1 33-1 21v20l-1 1h-30l-1-3v-21l-1-24 1-3 31-1z" fill="#054B20"/>
<path transform="translate(752,298)" d="m0 0h1l1 22 1 3h25v10h-2l1 8-1 3-7 2-3 1h-10l-4 2h-26v-26l24-1-22-1 3-10h2v-6h-2v-4l6 1v2l5-1h7z" fill="#0B771A"/>
<path transform="translate(422,428)" d="m0 0h30v52h-30z" fill="#36BB12"/>
<path transform="translate(393,402)" d="m0 0h29v62h-1l-1-9h-26l-1-1-1-50z" fill="#128B17"/>
<path transform="translate(464,428)" d="m0 0h9l9 1v51h-30v-51z" fill="#0B7719"/>
<path transform="translate(702,480)" d="m0 0h26v27h25l1-3v4l-31 1-20-1v22l-1 4-4 1h-17l-3-2v-25l15-1h9l-1-2-3-1 3-7z" fill="#054B21"/>
<path transform="translate(206,454)" d="m0 0h26l29 1v25h-55z" fill="#36BB12"/>
<path transform="translate(753,848)" d="m0 0h3l1 9v19h-28v27l-25-1-1-3v-20l1-2 22-1 2-1 1-26z" fill="#032221"/>
<path transform="translate(206,270)" d="m0 0h26v53h-26z" fill="#24A415"/>
<path transform="translate(367,297)" d="m0 0h25l1 27v25h-27v-51z" fill="#6CDF1C"/>
<path transform="translate(278,508)" d="m0 0h29l5 1 1 2 1 25-4 1-48-2-1-6v-20l27 1 1-1h-11z" fill="#054B20"/>
<path transform="translate(703,349)" d="m0 0h25v53h-25z" fill="#118B17"/>
<path transform="translate(597,271)" d="m0 0h25l1 31-1 22h-24l-1-1z" fill="#35BA12"/>
<path transform="translate(647,164)" d="m0 0 25 1 1 35-1 18-25-1z" fill="#47CC17"/>
<path transform="translate(290,652)" d="m0 0h50l110 1v12l-102-1-7-1-1-8h-16l-32-1z" fill="#B42C15"/>
<path transform="translate(289,191)" d="m0 0h25v52h-24l-1-1z" fill="#128C17"/>
<path transform="translate(464,138)" d="m0 0h20v54h-22l-2-1v-50z" fill="#0B7719"/>
<path transform="translate(623,216)" d="m0 0 24 1v53h-25v-30z" fill="#49CD18"/>
<path transform="translate(693,375)" d="m0 0h9l1 1v26h9v1h-9v25l-4 2-21-1v-25l2-12v-8l1-7 1-1z" fill="#0B771A"/>
<path transform="translate(485,83)" d="m0 0 23 1v53l-2 1h-22v-54z" fill="#46CB17"/>
<path transform="translate(781,427)" d="m0 0h47l1 1v25h-49v-25z" fill="#1B9717"/>
<path transform="translate(443,242)" d="m0 0 16 2v53h-22l-2-10v-19l1-24z" fill="#054B21"/>
<path transform="translate(620,347)" d="m0 0 3 1v27l-2 12-1 13-1 2h-21v-52h22z" fill="#0A761A"/>
<path transform="translate(315,562)" d="m0 0h33l12 1 4 2 2 3v18l-1 1-22 1-2-1h-20l-6-3z" fill="#011E1F"/>
<path transform="translate(702,562)" d="m0 0h26l9 2 17 1v2l2 1-1 15-7 2h-10l-10 1h-24l-3-1-1-7-2-1-1-8 3-3z" fill="#0A761A"/>
<path transform="translate(508,138)" d="m0 0h22l2 7v39l-2 5h-19l-3 1z" fill="#0A761A"/>
<path transform="translate(232,635)" d="m0 0h16l12 1 1 27h11v1h-11v12h-29z" fill="#F67107"/>
<path transform="translate(290,679)" d="m0 0h34v26l-1 4-3 1h-29l-1-18z" fill="#BBE557"/>
<path transform="translate(341,707)" d="m0 0h35v29h-34l-1-7z" fill="#BBE557"/>
<path transform="translate(755,609)" d="m0 0h26l1 31 2 8h16l4 1v15h-1l-2-12h-20v-3h-16v-3l-3-5 1-2 5 1v2l7-1 2 1v-8h-18l-41 1h-15v-1l13-1h36v-3h2v-16z" fill="#931E1A"/>
<path transform="translate(340,323)" d="m0 0h2l2 12v10l10 1 7-2 3 5 1-26h1l1 26v26l-13 1h-13l-1-1-1-25-1-5h2l-1-4z" fill="#054B21"/>
<path transform="translate(237,609)" d="m0 0h25l1 1v17l-1 5h2v2h25l-1 3h-25l-31-2v-25z" fill="#C43812"/>
<path transform="translate(296,588)" d="m0 0h17l4 1 19 1 2 2v15l-3 1-41 1h-3l1-2v-14z" fill="#0A761A"/>
<path transform="translate(233,480)" d="m0 0h28v27h11v1l-15 1h-24l-3-2h3l-1-3v-13h-1l-1-7 2-1z" fill="#054E20"/>
<path transform="translate(205,272)" d="m0 0h1v51h26l1 26v27h-2l-1-25-1-1h-24l-2-2h2l-1-20-1-6 1 3 1-1z" fill="#054D20"/>
<path transform="translate(699,346)" d="m0 0 2 1-1 2h3v27h-10l-11 1-1 7v9l-2 11-1 11h-1v-65l7-2h15z" fill="#054B21"/>
<path transform="translate(207,791)" d="m0 0h23v2h2l1 28-1 1h-26v-30z" fill="#011E20"/>
<path transform="translate(422,400)" d="m0 0 2 1h20l6 2 2-3v28h-30z" fill="#6DE11C"/>
<path transform="translate(232,323)" d="m0 0h30v26h-30z" fill="#46CB17"/>
<path transform="translate(232,297)" d="m0 0h30l-2 1 2 7v18h-30z" fill="#0B7719"/>
<path transform="translate(233,349)" d="m0 0h29v28l-2-1-27-1z" fill="#0B7719"/>
<path transform="translate(262,268)" d="m0 0h1v27l-3 1-4-1h-21l-1-1v-25z" fill="#011E20"/>
<path transform="translate(810,215)" d="m0 0h21v2l-24 1v23l-1 2h-26v-27h28z" fill="#01211E"/>
<path transform="translate(261,480)" d="m0 0h27v28h-16l-11-1z" fill="#35BA12"/>
<path transform="translate(661,136)" d="m0 0h10l2 2v54h-1v-27h-23l-2-2v-26h14z" fill="#0B7819"/>
<path transform="translate(262,402)" d="m0 0h27v26l-1 1h-26l-1-14-1-5h1z" fill="#054C20"/>
<path transform="translate(262,349)" d="m0 0h27v27l-2-3v-5h-2v6h-3l-1-5 1-15-3-2v6h-1v-6h-2v8l-2-1v-5l-7-1v8l2 3v6l2 9h3v5l-1 5 3 6v4h11l6 2v1h-31z" fill="#36BB12"/>
<path transform="translate(393,350)" d="m0 0h29v25l-1 1-28-1z" fill="#68DF19"/>
<path transform="translate(775,791)" d="m0 0h5l1 30h-26v-29z" fill="#C43711"/>
<path transform="translate(231,644)" d="m0 0h1v33l-25-1v-27l1-2h21z" fill="#C53811"/>
<path transform="translate(732,479)" d="m0 0h21l1 1v24l-1 3h-25v-27z" fill="#128C17"/>
<path transform="translate(151,429)" d="m0 0h26l1 2 1 23-1 1h-28v-24z" fill="#082625"/>
<path transform="translate(340,268)" d="m0 0h12l14 1v27h-25l-1-3z" fill="#6ADF1B"/>
<path transform="translate(829,428)" d="m0 0h27v26h-27z" fill="#011F1F"/>
<path transform="translate(452,376)" d="m0 0h2l2 26 10 1v-2l7 1 1 1v25l8-1 3 1v36h-1v-32h-2v-3h-30z" fill="#054B20"/>
<path transform="translate(755,296)" d="m0 0h25l1 1v26h-26z" fill="#35BA12"/>
<path transform="translate(651,429)" d="m0 0h26v26h-26l-1-1v-24z" fill="#128C17"/>
<path transform="translate(780,243)" d="m0 0h27v26l-15 1h-11l-1-14z" fill="#6DE01D"/>
<path transform="translate(703,849)" d="m0 0h25v27h-25l-1-2v-24z" fill="#C63811"/>
<path transform="translate(647,217)" d="m0 0h24l1 1v25h-24v27h-1l-1-5v-23z" fill="#148E16"/>
<path transform="translate(262,323)" d="m0 0h26l1 1v25h-27z" fill="#0B771A"/>
<path transform="translate(393,324)" d="m0 0h19l9 1v24h-28z" fill="#118A17"/>
<path transform="translate(709,322)" d="m0 0 19 1v26h-25l-1-8-2 3 1-10-1-7 4-4z" fill="#054B20"/>
<path transform="translate(296,348)" d="m0 0 18 1 1 22 2 3-1 2-1-3h-2v3h-24v-27z" fill="#054D20"/>
<path transform="translate(289,242)" d="m0 0 26 1v43h-1v-18l-4 1h-17l-4-1z" fill="#054D20"/>
<path transform="translate(372,270)" d="m0 0h16l4 2v25h-25l-1-1v-14l1-11z" fill="#0B7819"/>
<path transform="translate(729,651)" d="m0 0h26v26h-26z" fill="#941E1A"/>
<path transform="translate(728,323)" d="m0 0h26v26h-26z" fill="#35BA12"/>
<path transform="translate(755,453)" d="m0 0h25v26h-26v-25z" fill="#118B17"/>
<path transform="translate(422,377)" d="m0 0h16l3 1h8l1 1v24l-6-1h-21v-2h-2v-16z" fill="#47CC18"/>
<path transform="translate(289,163)" d="m0 0h25v27h-25z" fill="#6EE01E"/>
<path transform="translate(232,563)" d="m0 0h29v24h-28z" fill="#21A016"/>
<path transform="translate(688,507)" d="m0 0h15v23l-1 4-4 1h-17l-3-2v-25z" fill="#0B771A"/>
<path transform="translate(289,402)" d="m0 0h24l1 1v25l-2 1h-23z" fill="#23A316"/>
<path transform="translate(151,403)" d="m0 0h28v24h-28z" fill="#70DD21"/>
<path transform="translate(728,349)" d="m0 0h26v23l-2 3h-24z" fill="#0B771A"/>
<path transform="translate(206,296)" d="m0 0h23l2 1v24l1 2h-26z" fill="#70E11E"/>
<path transform="translate(486,137)" d="m0 0h22v28l-2 1-22-1v-27z" fill="#6EE11D"/>
<path transform="translate(598,592)" d="m0 0h1v16h-1zm-24 16 10 1 14-1 1 2 25 1v1l-22 1-1 2h-2v18h-26v-24z" fill="#054B21"/>
<path transform="translate(620,243)" d="m0 0 2 1v26l2 1h-27v-17l2-9 1-1z" fill="#0B7719"/>
<path transform="translate(651,562)" d="m0 0h25l1 2v20l-2 2-4 1h-19l-2-1v-22z" fill="#0B771A"/>
<path transform="translate(459,297)" d="m0 0h1v26h22l2 1v25h-25z" fill="#054B21"/>
<path transform="translate(594,259)" d="m0 0h1v10l-1 2h3v27h-23l-1-6v-21l2-1h18z" fill="#054B21"/>
<path transform="translate(180,455)" d="m0 0h26v26l-26-1z" fill="#011E20"/>
<path transform="translate(340,243)" d="m0 0h26v13l-1 13h-13l-12-1z" fill="#46CB17"/>
<path transform="translate(677,876)" d="m0 0h25v26h-25z" fill="#C83C11"/>
<path transform="translate(726,876)" d="m0 0h3v27l-25-1-1-3v-20l1-2z" fill="#012020"/>
<path transform="translate(729,822)" d="m0 0h25v26h-25z" fill="#B62D15"/>
<path transform="translate(180,428)" d="m0 0h25v26h-25z" fill="#6FDE20"/>
<path transform="translate(703,349)" d="m0 0h25v26h-25z" fill="#35BA12"/>
<path transform="translate(484,244)" d="m0 0h24v27h-24z" fill="#36BA12"/>
<path transform="translate(809,217)" d="m0 0h23l1 1v25h-25v-25z" fill="#128C17"/>
<path transform="translate(574,429)" d="m0 0h24l1 3v22l-2 2h-21l-2-1z" fill="#054B21"/>
<path transform="translate(340,217)" d="m0 0h12l9 1 4 4v21h-24l-1-1z" fill="#0B761A"/>
<path transform="translate(574,350)" d="m0 0h24v26l-24 1z" fill="#118B17"/>
<path transform="translate(575,376)" d="m0 0h23v26h-24v-25z" fill="#35BA12"/>
<path transform="translate(460,271)" d="m0 0h24v26h-24z" fill="#35BA12"/>
<path transform="translate(315,217)" d="m0 0h24v26h-20l-4-1z" fill="#6DE11C"/>
<path transform="translate(288,138)" d="m0 0h25v3l1 3v19h-25l-1-11z" fill="#0B7719"/>
<path transform="translate(675,652)" d="m0 0h27v1l-12 1h-15v11h-52v-9l2 3 11-2-4-1v-2h-8v-1z" fill="#B73117"/>
<path transform="translate(832,403)" d="m0 0h24v21l-2 3h-24v-21h2z" fill="#0B7719"/>
<path transform="translate(753,242)" d="m0 0 26 1v13l-1 11-12 1h-8l-5 1z" fill="#012020"/>
<path transform="translate(316,165)" d="m0 0 19 1 2 9 3 15v27h-1v-26h-23l-2-3v-22z" fill="#0B751A"/>
<path transform="translate(418,664)" d="m0 0h30v2l-9 1v2h-15v3h-2v2h26l2-1 2 1 1-2 1 4h167v-8h-6v-1l7-1 1 1v11h-205z" fill="#C73811"/>
<path transform="translate(574,299)" d="m0 0 2 1-1 25h22v25h-23z" fill="#35BA12"/>
<path transform="translate(393,288)" d="m0 0h1l-1 9 8-2h7l5 2 1 6-1 18-1 3h-20v-35z" fill="#054D20"/>
<path transform="translate(571,347)" d="m0 0 1 2h2v28h-21l-1-27 1-1 17-1z" fill="#054B21"/>
<path transform="translate(342,297)" d="m0 0h24v26l-1 27-5-5-8 2-8-2-2-17v-5l12-1v-1l10-1-1-18-2-2h3v-2l-4 1-18-1z" fill="#0B771A"/>
<path transform="translate(779,271)" d="m0 0 2 1v25l-22-1-2-1-1-7v-15l1-1z" fill="#128C17"/>
<path transform="translate(368,374)" d="m0 0h1v26l1-1v-15l2-7 9 3 6 1 2-5 4-1v27l-1 1h-24l-1-1z" fill="#118A17"/>
<path transform="translate(287,135)" d="m0 0 25 1v2l-23 1v105l-2-1-2-4-1-34-1-13v-50l3-6z" fill="#012717"/>
<path transform="translate(574,298)" d="m0 0h23v26h-22v-24z" fill="#118A17"/>
<path transform="translate(553,402)" d="m0 0h17l4 1v26h-21z" fill="#35BA12"/>
<path transform="translate(536,401)" d="m0 0 17 1v26l-17 1-3-1-2-3v-10l1-12z" fill="#054B21"/>
<path transform="translate(485,83)" d="m0 0h3v2h19v25h-22l-1-26z" fill="#1C9917"/>
<path transform="translate(553,377)" d="m0 0h21l1 25v27h-1v-26l-21-1z" fill="#128B17"/>
<path transform="translate(680,503)" d="m0 0h17l5 1v3l-5 1h-19l1 25 2 1 20 1-1 3h-22l1 20 1 1 23-1 2-2h12l15-1 6 2 19 2-2 2-78 1-1-2 1-25-3-1 1-6-1-21 3-3z" fill="#012517"/>
<path transform="translate(696,403)" d="m0 0 6 1v25l-3 1-11-1-7-3-1-1v-19l1-2z" fill="#128B17"/>
<path transform="translate(331,191)" d="m0 0h8v25h-21l-1-2v-22z" fill="#47CC18"/>
<path transform="translate(261,649)" d="m0 0h1l1 9 1 1 8 1v2l16-1 2-2 3 1-1 2h9l-2-5-3-2 2-1h40l3 3 1 4-1 2h7v1h-69l-18-1z" fill="#C53811"/>
<path transform="translate(316,160)" d="m0 0 10 1v1l14 1 1 4-1 1 1 18 1 6 1 22 12 1h7l4 2 2 2v47l21 1h3l2 3-1 10h-1v-8l-4-1h-21v11h-1l-1-13v-26l-1-21-1-3-11-1h-10l-2-1-1-27-3-15-1-7v-2h-21v-3l2-1z" fill="#013015"/>
<path transform="translate(611,587)" d="m0 0h13v21h-25l-1-17 3-3z" fill="#0B771A"/>
<path transform="translate(316,428)" d="m0 0h12l7 1v2l2 1 1 3v12l-2 5h-18l-3-1v-22z" fill="#118B17"/>
<path transform="translate(626,193)" d="m0 0h19l2 20v4h-23l1-23z" fill="#0B7719"/>
<path transform="translate(801,647)" d="m0 0 4 1v114l-1 4-1 21h-3l-8-1v-1l7-1-1-14v-16l3-5v-18l-1-6 1-26 2-27v-22h-20v-1l17-1z" fill="#C53811"/>
<path transform="translate(623,652)" d="m0 0h52v1l-43 1v2h6l-2 2-11 1-2 6h-173v-12l3 4v4l2 1h167v-6l-3-1 4-1z" fill="#941E1A"/>
<path transform="translate(313,454)" d="m0 0 3 1h24v2l-5 1h-39l-4 9v7l17 2 6 4 1 5v19l1 1 23 1v1l-29 1-1-27-10 2-11-3v-22l1-3z" fill="#012217"/>
<path transform="translate(568,888)" d="m0 0h1v14h-228l1-2 224-1 1-1z" fill="#C04620"/>
<path transform="translate(422,350)" d="m0 0h17v26h-17z" fill="#0B7819"/>
<path transform="translate(648,297)" d="m0 0h24l-1 2-15 1-6-1 1 25v41l1 5-2 6h-2l-1 4h-7l-4-1-8 2-1 3 1 1-1 14-2 4-1 25-2-2 1-25v-25h21l4-1z" fill="#012119"/>
<path transform="translate(261,563)" d="m0 0 7 2h16l3 1-1 3-4 1v2h3v2h2l1 8-1 2h-14l-2-6-4 1v5l-4 1-2 2z" fill="#0A751A"/>
<path transform="translate(749,295)" d="m0 0 6 1v24l-2 1-1-22-1 4-12 1v-2l-6-1v4h2v6h-2l-1 7-1 2 21 1 2 2h-26l-2-3v-17l1-3 1-4z" fill="#054F20"/>
<path transform="translate(272,846)" d="m0 0h15l5 2 1 24 1 1h20l27 1 3 3 1 3-1 19 3 1v1l-7-1v-23l-48 1-3-3v-27h-21z" fill="#B03E25"/>
<path transform="translate(509,325)" d="m0 0 7 3 13 1 1 5v11l-1 1-17 1-4 2z" fill="#0B771A"/>
<path transform="translate(759,633)" d="m0 0 18 1v8h-9v-2l-5-1 2 6 7 2-4 3h-11l-1-4 1-8-1-2-42 1-9 1-1 13-2 1v-17l16-1z" fill="#B42C15"/>
<path transform="translate(363,375)" d="m0 0h4v77l-2 2h-21l-3-1-1-27 1-10h2l1 24 1 11h10l7 1 1-6 1-22v-40z" fill="#012519"/>
<path transform="translate(780,453)" d="m0 0h46l2 2-7 1h-27l-1 1-8 1-2 6v10l-1 8-10 2-7-1-5-2-1 3-2 5-1 17-2 2v-28l1-1h25z" fill="#02351D"/>
<path transform="translate(644,185)" d="m0 0 1 3-1 1 3 1v23h-1l-1-20-19 1-1 19-1 3-1 24-2 4-21 1-2 9h-1v-11l17-1 7-2v-15l-3-1 3-17v-14l4-5 19-1z" fill="#054B21"/>
<path transform="translate(233,480)" d="m0 0h28l-1 18-2 7-15-3h-2v-2h-3v-2l9 1 7-2-6-4-1 2-6-1 1-3 7-1 5 1 1-4-5-1-15-1z" fill="#0A731A"/>
<path transform="translate(290,268)" d="m0 0h24l1 54 13 1h12v22h-3v-11l-1-7-7-1h-12l-5-3-1-5 1-18-2-12v-16h-18v-2h-2z" fill="#01221A"/>
<path transform="translate(651,429)" d="m0 0h26v26h-26l-1-1v-24zm15 3-8 1-3 8-2 6 1 6 3-1h17l1-1v-18l-1-1z" fill="#0B771A"/>
<path transform="translate(232,563)" d="m0 0h29l-1 2-26-1v21l26 1-1-2-6-1v-4l-3 1 2 1-1 2h-9l-4 1-3-2v-8l5-1 1-2 7 1v2l9-1 1-2 1 1 2-4v19h-28z" fill="#29AB14"/>
<path transform="translate(232,635)" d="m0 0h16l12 1v11l-28 1z" fill="#EB5908"/>
<path transform="translate(649,480)" d="m0 0 2 2 5-2h18l-4 3-7 1-8 1-2 3 1 11-1 5h-2l-1 5-2 3h-19l-1 1v11l-4 9h-1v-24l2-1h17l4 1 3-1z" fill="#012118"/>
<path transform="translate(232,270)" d="m0 0h2l1 24h22l8 1-1 2 2 1v22l22 1 2 2 2 12v13l2 1h-5l-1-6v-19l-26-1-1-3v-17l-1-5-28-1z" fill="#023A16"/>
<path transform="translate(290,635)" d="m0 0h1l1 15 158 1v2h-110l-50-1z" fill="#841A1B"/>
<path transform="translate(780,243)" d="m0 0h27v26l-15 1h-11l1-6 2 3h8v-2l5-1v-2l3-2v-14h-16l-1 2h-2v8h-1z" fill="#5AD21F"/>
<path transform="translate(180,403)" d="m0 0 2 4v18l9-1 13 1 4-1h22l5 3 2 3v22l19 1v-2h3v2h3v2l-29-1v-26h-29l-24-1z" fill="#01231A"/>
<path transform="translate(240,402)" d="m0 0h22v9l-1 3 1 1v14l27-1v24l-1 2h-17l4-2 8-3 1-2v-16h-10l-8 1-7-2-1-4v-20l-1-2-17-1z" fill="#012218"/>
<path transform="translate(324,705)" d="m0 0 1 2h3l-1 4h-2v2l-10 3-7 4h-10l-7 1v-11l2-1h27z" fill="#FCA617"/>
<path transform="translate(289,191)" d="m0 0h25v49h-1l-1-48-19 1v45l1 2 20 2v1h-24l-1-1z" fill="#0B771A"/>
<path transform="translate(647,164)" d="m0 0 25 1 1 35-1 18-6-1v-1h5l-1-28-1-11-2-8v-3l-16 1-2 49h6v1h-8z" fill="#36BB12"/>
<path transform="translate(233,587)" d="m0 0 35 1h22v21l50 1 1 6-6-3-46-1-2-4-1-13v-3l-24-2h-26l-3-1z" fill="#012415"/>
<path transform="translate(422,563)" d="m0 0 2 2 2 16 4 4h15l3-3 1-9 3-4v17h31l-2 5-5-2h-20l-1 2-1 13 2 3 14 1v1h-17l-2-5v-16l-2-1h-26l-1-1z" fill="#01211A"/>
<path transform="translate(206,267)" d="m0 0h24l1 3h-25v55l-4-1-2-5-1-16v-14l4 1 1-21z" fill="#012415"/>
<path transform="translate(237,609)" d="m0 0h25l1 1v17l-1 5h2v2h25v1h-29l-1-1v-19l-4-2-20 1v18l-1 3h-2v-25z" fill="#AD3C25"/>
<path transform="translate(317,270)" d="m0 0 2 1 1 10 5 3h8l2-1 1-6 3 3v15l-19-1-3-2z" fill="#1C9818"/>
<path transform="translate(805,649)" d="m0 0h1l1 141-3 2-23-1v-4l3 1h17l1-1 1-21 1-4z" fill="#9C2E20"/>
<path transform="translate(232,323)" d="m0 0h30v26h-30zm6 1-4 3v11l2 8 20 1 3 1 1-4v-18l-4-1z" fill="#36BB12"/>
<path transform="translate(314,188)" d="m0 0 2 2 15 1v1h-14l1 23h20l1 2h-24v25l4 1h-3l1 51 11 1v1h-13l-1-53v-52h-25v-1h25z" fill="#34B912"/>
<path transform="translate(801,647)" d="m0 0 4 1v114l-2 4v-116h-20v-1l17-1z" fill="#BD4521"/>
<path transform="translate(551,350)" d="m0 0 2 1v51l-3 1-14-1-4 1v21l1 4h-5l2-23-2-1 1-2h4l1-4 1 1 14 2 1-22 1-9-1-5v-13z" fill="#01211A"/>
<path transform="translate(290,652)" d="m0 0h50l110 1v9h-1v-8l-111 1h-14l-32-1z" fill="#B54227"/>
<path transform="translate(759,565)" d="m0 0h2v21l-2 5-3-1-1 2-9-1h-16l-23-2-8-1v-1h53l6 1v-22z" fill="#012815"/>
<path transform="translate(367,587)" d="m0 0h27l23 1 4 4v16l8 2-4 2-6 1-3-5 2-7v-7l-3-3-8-1-12 1h-6l-5-1h-14l-2 6h-1z" fill="#01211A"/>
<path transform="translate(673,149)" d="m0 0h1l2 21v53l-1 7v9l-1 6h-1z" fill="#012A0D"/>
<path transform="translate(834,220)" d="m0 0h1l1 19 1 55-4 2v-74z" fill="#01201A"/>
<path transform="translate(568,888)" d="m0 0h1v14h-115v-1l34-1 78-1 1-1z" fill="#CE4C18"/>
<path transform="translate(485,428)" d="m0 0 2 4-1 48-1 16-1 42h-1l-1-34 1-72z" fill="#012713"/>
<path transform="translate(315,562)" d="m0 0h33l12 1 4 2 2 3v18l-2 1-2-18-1-2-10-1h-33-3z" fill="#01201A"/>
<path transform="translate(533,219)" d="m0 0 3 1v19l1 22-2 15v20l-1 5h-1z" fill="#012515"/>
<path transform="translate(458,349)" d="m0 0h26v51h-2l-1-11v-9l-1-2v-24l-5-2h-14z" fill="#012119"/>
<path transform="translate(732,479)" d="m0 0h21l1 1v24l-1 3h-25v-27zm1 1-4 3v11l1 6 2 4 5 1 14-1 1-7v-16l-1-1z" fill="#0B7719"/>
<path transform="translate(775,791)" d="m0 0h5l1 30h-26v-29zm-15 2-3 5-1 19 3 3 18-1 1-2v-23l-1-1z" fill="#B54126"/>
<path transform="translate(680,503)" d="m0 0h17l5 1v3l-5 1h-19l1 25 2 2-4 1-3-2 1-6-1-21 3-3z" fill="#012D16"/>
<path transform="translate(815,427)" d="m0 0h13l1 1v25h-45v-1l26-1 4-1 10-1 1-5 1-13-11-2z" fill="#1E9A15"/>
<path transform="translate(367,508)" d="m0 0h1l1 25 14-1 5-1 6 4 2 4v20h20l5 1v1h-24l-3-2-1-4v-19l-11-1h-13l-2-3z" fill="#01211A"/>
<path transform="translate(661,136)" d="m0 0h10l2 2v54h-1l-1-39v-11l-12-2-8 1-1 2-1 19h-2v-25h14z" fill="#06561F"/>
<path transform="translate(421,338)" d="m0 0h1v11l3-1-1-4 1 2 9-1 2 1v2h5l1 2 1 23h9v3h-13v-26h-18z" fill="#033A1B"/>
<path transform="translate(703,508)" d="m0 0h51v1l-18 1-7 1h-9l-12 1-1 16-2 1-1 7h-1l-1-8z" fill="#012516"/>
<path transform="translate(416,508)" d="m0 0h5v28l30-1 1 33-3-3-1-26-2-1h-15l-3 1h-6v-2l-3-1-1-23z" fill="#01211A"/>
<path transform="translate(393,272)" d="m0 0h1v8l2 1-1 13 4-1h11l6 6v15l-1 5 5 2v3h-8l1-22-1-5-4-1h-7l-8 1v-8h-1v-9z" fill="#012515"/>
<path transform="translate(809,217)" d="m0 0h23l1 1v25l-4-1h2v-22h-16l-3 1-1 2v17l1 3h-4v-25z" fill="#128318"/>
<path transform="translate(703,849)" d="m0 0h25v27h-25l-1-2v-24zm0 1v23l2 1h19l2-3v-20l-15-1z" fill="#CB4B1A"/>
<path transform="translate(676,349)" d="m0 0 2 3-1 64h-1l-1-14-1 2h-18v-1l13-1 5-2-1-20 1-4 1-26z" fill="#012118"/>
<path transform="translate(533,112)" d="m0 0h2l1 22 2 5-2 22-1 1-1 25h-1z" fill="#012616"/>
<path transform="translate(811,298)" d="m0 0h5l-3 2-2 1-1 3-1 19-3 3-12 1h-6l-3 3-1 8v9l-2 6h-1l1-8-1-1v-21l22 1 4-1 1-21z" fill="#012317"/>
<path transform="translate(458,140)" d="m0 0h1v104l-3-1 1-67v-34z" fill="#012B0D"/>
<path transform="translate(623,376)" d="m0 0h14l1 2-10 3-1 3 1 1-1 14-2 4-1 25-2-2 1-25z" fill="#012318"/>
<path transform="translate(560,587)" d="m0 0h12l-3 3h-11v2h-2l-1 16-2 3-11 2h-8l-5 2-1 4v-9l24-2 1-16 1-4z" fill="#01211A"/>
<path transform="translate(622,192)" d="m0 0h1v48l-2 4-21 1-2 9h-1v-11l17-1 7-2v-15l-3-1 3-17v-14z" fill="#033A0F"/>
<path transform="translate(676,221)" d="m0 0 1 3-1 32v20l1 15-4 5v-51l1-6v-12z" fill="#01221A"/>
<path transform="translate(312,411)" d="m0 0h1v15l-1 3h-23v-1l5-1v-7l1 3h3l1-5h7l3 5h1z" fill="#199218"/>
<path transform="translate(316,160)" d="m0 0 10 1v1l14 1 1 4-1 1v21l-2-4-2-10-1-7v-2h-21v-3l2-1z" fill="#054B20"/>
<path transform="translate(292,352)" d="m0 0 2 1 1 14 3 1v-2h4l2 2h6l2 6h-21v-14z" fill="#0B771A"/>
<path transform="translate(313,303)" d="m0 0h1l1 19 13 1h12v22h-3v-11l-1-7-7-1h-12l-5-3-1-5 1-14z" fill="#012417"/>
<path transform="translate(342,875)" d="m0 0 3 4-1 20 3 1v1l-7-1v-23l-48 1-2-2z" fill="#972D21"/>
<path transform="translate(729,822)" d="m0 0h25v26h-25zm6 1-4 1-1 8v15h21l2-5-1-16-1-2z" fill="#B44126"/>
<path transform="translate(577,455)" d="m0 0h20v2l-5 1-12 1-3 1-1 19-3 3h-16l-1 4-2 2v-7l1-1h19v-22h2z" fill="#01211A"/>
<path transform="translate(263,402)" d="m0 0h26l-1 7-1 6-7 2-1-5 4-3h3v-2h-18l-4-3z" fill="#0A711A"/>
<path transform="translate(366,254)" d="m0 0h2v12l21 1h3l2 3-1 10h-1v-8l-4-1h-21v11h-1l-1-13v-13z" fill="#033B12"/>
<path transform="translate(179,401)" d="m0 0 2 2-1 24h24v1h-24v52h-1l-1-26 1-26h-27v-1h27v-24h-19v-1z" fill="#0A5F1E"/>
<path transform="translate(206,270)" d="m0 0h25v25l-1-3h-2l-1-4-1 3h-2l-1-5-1-1v-5l3-1 2 1 1-2h1v-6l-22-1v25h-1z" fill="#36BB12"/>
<path transform="translate(755,453)" d="m0 0h5l-3 3-1 9-1 11h22l1-4-1-13 2-1 1 6v15h-26v-25z" fill="#0B7719"/>
<path transform="translate(393,324)" d="m0 0h19l9 1v23l-3-1-1-3v-14l-3-2-5-1h-9l-3 1-2-1v11h-2z" fill="#0B771A"/>
<path transform="translate(647,217)" d="m0 0h24v1h-19l1 5-2 7v2h-3v38h-1l-1-5v-23z" fill="#1E9A16"/>
<path transform="translate(314,140)" d="m0 0 4 5 1 13 1 1 17 1 1 3h-13v-1l-8-1-1 1h7v1h-9l-1-3v-16z" fill="#012119"/>
<path transform="translate(314,349)" d="m0 0 3 2v18l2 2v5l-2 7-1 17 3 1-3 1-2-7-1-11v-11h2l-1-1z" fill="#01211A"/>
<path transform="translate(527,429)" d="m0 0h1l1 24v23l-2 3-1-30-2 5h-3l2-13 2-9h2z" fill="#012715"/>
<path transform="translate(829,403)" d="m0 0 2 4-2 20-50 1v-2l2-1 45-1 1-1 1-19z" fill="#012B0D"/>
<path transform="translate(238,821)" d="m0 0h24l3 3 1 24h23l-1 2-25-1-1-1v-24h-6v-1l-18-1z" fill="#972C20"/>
<path transform="translate(726,452)" d="m0 0 3 1v26l-1 1h-25l2-3 10-1h7l4-4v-8l-1-10z" fill="#012119"/>
<path transform="translate(718,634)" d="m0 0h38v2l-42 1-9 1-1 13-2 1v-17z" fill="#B54226"/>
<path transform="translate(456,175)" d="m0 0 2 4-1 64-1 1h-9l-4-1-5 1v-3l7-1h9l1-1v-61z" fill="#01211A"/>
<path transform="translate(609,272)" d="m0 0h12l-1 16h-1v-8h-2v8h-3l-3-2v-13z" fill="#24A515"/>
<path transform="translate(339,256)" d="m0 0h1l1 37v30h-1v-27h-12l-11-1-1-1v-26h1l1 24 2 1 18 1z" fill="#128718"/>
<path transform="translate(234,567)" d="m0 0 3 1v13 1l4 1 2-1h8l-1-1-8-1v-1l11-1 1 2-1 3h6l1 3h-24l-2-1z" fill="#1B9817"/>
<path transform="translate(623,216)" d="m0 0 24 1v2l-22-1-1 38v10l1 2h20l2-1v3h-25v-30z" fill="#37BB12"/>
<path transform="translate(482,84)" d="m0 0h2v53h-23v-1l20-1v-50z" fill="#012B0D"/>
<path transform="translate(336,458)" d="m0 0 3 2 1 6v14l26-1 2-4v5l-3 3-4 1-3-2-20 1-2-3z" fill="#01211A"/>
<path transform="translate(180,403)" d="m0 0 2 4v18l9-1 9 1 29 1 1 2h-26l-24-1z" fill="#012B0D"/>
<path transform="translate(832,400)" d="m0 0h24l5 3 2 1v3l-4 1 1 8-1 7-3 3v-24h-24z" fill="#012711"/>
<path transform="translate(817,453)" d="m0 0h9l2 2-7 1h-27l-1 1-8 1-2 6v10l-2 3v-23z" fill="#012B11"/>
<path transform="translate(461,296)" d="m0 0 6 1v1h-5l1 23h19l-1 3h-19l-2-1v-26z" fill="#0B7719"/>
<path transform="translate(288,610)" d="m0 0h52l1 6-6-3-46-1z" fill="#012316"/>
<path transform="translate(340,375)" d="m0 0h23l2 9v12l-2 3-1-20-7 1-4-1h-7l-5-2z" fill="#01211A"/>
<path transform="translate(779,243)" d="m0 0h1v27h-24l-1-2 3-1h9l10-1 1-18z" fill="#013111"/>
<path transform="translate(219,427)" d="m0 0h14l1 2-1 25h25v1h-26l-1-6v-10l-1-7-3-2h-20l-2 1v-3z" fill="#055020"/>
<path transform="translate(667,165)" d="m0 0h5l1 35-1 18-6-1v-1h5l-1-28-1-11-2-8z" fill="#38BB13"/>
<path transform="translate(556,535)" d="m0 0 3 1-1 26-18 1 1-3 13-1 1-18z" fill="#012319"/>
<path transform="translate(484,88)" d="m0 0h1v22h11v1h-9v26l-3 1z" fill="#36BB12"/>
<path transform="translate(596,244)" d="m0 0h1l1 21-1 6h-3v-3l-1 2-6 1-10-1 1-2 9-1 6-1v-12l2-2z" fill="#01211A"/>
<path transform="translate(573,295)" d="m0 0h1v54h-2v-41h-2v-8h2z" fill="#012C0F"/>
<path transform="translate(671,135)" d="m0 0 5 2 1 2v26l1 27h-1l-4-43-1-11z" fill="#01231A"/>
<path transform="translate(150,403)" d="m0 0h1l1 24 27 1v25h-1l-1-24-25 1-4-6 1-20z" fill="#012B0D"/>
<path transform="translate(340,243)" d="m0 0h26v13l-1 13h-5l2-3 1-13v-5l-5-2-6-1h-9l-3 1z" fill="#36BB12"/>
<path transform="translate(485,83)" d="m0 0h3v2h19v25h-22l1-2h9l11 1-1-21-1-1-17-1-1 19h-1l-1-21z" fill="#128B17"/>
<path transform="translate(755,609)" d="m0 0h5v2l-2 2-1 3-1 17-1 1-37 1h-15v-1l13-1h36v-3h2v-16z" fill="#7C181B"/>
<path transform="translate(290,872)" d="m0 0 4 1h20l27 1v2h-51z" fill="#B54226"/>
<path transform="translate(727,324)" d="m0 0h1v25h-24l1-3 9-1h8l3-7h1z" fill="#0A711A"/>
<path transform="translate(805,249)" d="m0 0h1l1 11v9l-15 1h-11l1-6 2 3h16v-2h3v-9h2z" fill="#5AD618"/>
<path transform="translate(234,791)" d="m0 0h1l1 26 1 1 25 1v3h-30z" fill="#B94323"/>
<path transform="translate(679,535)" d="m0 0h22l-1 3h-22l1 20 1 1 7 1v1l-10 1-1-2 1-24z" fill="#012514"/>
<path transform="translate(752,270)" d="m0 0h2l1 10v16h-26v-2h22l1-5z" fill="#01241A"/>
<path transform="translate(488,84)" d="m0 0h20v53l-2 1-1-25-1-3h3v-25h-19z" fill="#37BB12"/>
<path transform="translate(598,429)" d="m0 0h21l-1 3h-6l-6-1-5 5 1 6v9l-1 2h-2z" fill="#012119"/>
<path transform="translate(290,635)" d="m0 0h1l1 15 76 1v1h-78z" fill="#79181B"/>
<path transform="translate(616,609)" d="m0 0h32v2l-4 1h-19l-1-1h-25v-1z" fill="#012613"/>
<path transform="translate(753,431)" d="m0 0 2 1v16l-1 5h-25l2-2 20-2 1-1v-15z" fill="#012119"/>
<path transform="translate(231,644)" d="m0 0h1l-1 7h-22l-1 25h-1v-27l1-2h21z" fill="#A63724"/>
<path transform="translate(181,455)" d="m0 0h25v24l-2-1-1-16-1-5h-21z" fill="#013211"/>
<path transform="translate(341,296)" d="m0 0h26l-1 2-24-1 1 3v20l9 2v1h-11z" fill="#1C9915"/>
<path transform="translate(754,270)" d="m0 0h25v2l-22 1v22l2 1h-4z" fill="#0D7B19"/>
<path transform="translate(340,186)" d="m0 0h1l1 6 1 22 12 1h5v2l-18 1-2-1-1-28z" fill="#012B0D"/>
<path transform="translate(292,480)" d="m0 0h21l1 28h-3l-1-27-10 2-8-2z" fill="#054B21"/>
<path transform="translate(729,426)" d="m0 0 1 4-3 2h-20l-2 1-1 20h-1l-1-23 3-1h23z" fill="#012119"/>
<path transform="translate(834,220)" d="m0 0h1l1 19-1 3-1 42h-1v-62z" fill="#012B0D"/>
<path transform="translate(755,698)" d="m0 0h1v35l-2 2h-23v-1l20-1 3-1v-31z" fill="#B6351B"/>
<path transform="translate(780,428)" d="m0 0 4 2h-3l1 19 4 1h23l1 2-30 1z" fill="#108617"/>
<path transform="translate(342,297)" d="m0 0h24v26l-12-1v-1l10-1-1-18-2-2h3v-2l-4 1-18-1z" fill="#108817"/>
<path transform="translate(728,402)" d="m0 0h28l-3 1-1 2h-23v9h-1z" fill="#012317"/>
<path transform="translate(725,298)" d="m0 0h2l1 6-1 1v13h1v5h-15v-2l9-2h2z" fill="#012A15"/>
<path transform="translate(645,221)" d="m0 0h2v46h-3-1v-18h1l2-25-2-1z" fill="#69E019"/>
<path transform="translate(460,137)" d="m0 0h24v1l-20 1-3 2-1 51h-1v-54z" fill="#054B20"/>
<path transform="translate(290,320)" d="m0 0 2 1 1 15v11l6-1 12 1 3 2h-20l-3-3v-12l-2-11-1-2z" fill="#012119"/>
<path transform="translate(413,298)" d="m0 0 3 1v15l-1 5 5 2v3h-8z" fill="#012317"/>
<path transform="translate(511,96)" d="m0 0h1l1 8 7 1h8l3 3v3l-19-2-1-1z" fill="#01201A"/>
<path transform="translate(484,545)" d="m0 0h1v34l-2 6h-1v-22l1-17z" fill="#012218"/>
<path transform="translate(755,479)" d="m0 0h24l-3 2h-20v25l-2 2v-28z" fill="#012B0D"/>
<path transform="translate(370,454)" d="m0 0h14l4 2-4 3-3-1h-8l-4 4-1 10h-1v-13z" fill="#01211A"/>
<path transform="translate(230,375)" d="m0 0 2 3v24h5l1 1 18 1v1h-23l-2-2-1-4z" fill="#01211A"/>
<path transform="translate(806,219)" d="m0 0h1v22l-1 2h-26l2-2 22-1z" fill="#012B0D"/>
<path transform="translate(552,430)" d="m0 0h19v7l-1 3h-3l-1-7-11 1z" fill="#128C17"/>
<path transform="translate(435,244)" d="m0 0h1v43l1 10h-2v-2h-2l1-37v-10z" fill="#01211A"/>
<path transform="translate(783,752)" d="m0 0 2 4 1 5v4 15l2 4-3 1v2l-3-1 1-2z" fill="#C53811"/>
<path transform="translate(232,270)" d="m0 0h2l1 24h22l3 2h-28z" fill="#012B0D"/>
<path transform="translate(650,588)" d="m0 0h22v1h-19v10l-1 8-4 2z" fill="#012516"/>
<path transform="translate(452,297)" d="m0 0h7v27h-1v-7h-2l-1-15-3-3z" fill="#012A16"/>
<path transform="translate(459,241)" d="m0 0 2 4 1 17-1 1-1 34h-1z" fill="#0D7D19"/>
<path transform="translate(508,503)" d="m0 0 2 1-1 37-2-4-1-7 1-16-1-7z" fill="#01211A"/>
<path transform="translate(391,454)" d="m0 0 2 1v5h-1v18l1 2v15h-2l-1-2-1-38z" fill="#012119"/>
<path transform="translate(553,377)" d="m0 0h16v1l-9 2-4 2-1 19-2 1z" fill="#0B771A"/>
<path transform="translate(261,295)" d="m0 0 4 1-1 1 2 1v22h-2l-1-18-2 1-1-5-28-1v-1z" fill="#03391D"/>
<path transform="translate(805,220)" d="m0 0h1v12l-1 8-1 1h-12v-1l7-2 2-7h2z" fill="#022C1B"/>
<path transform="translate(363,375)" d="m0 0h4v40h-1l-2-31z" fill="#012B0D"/>
<path transform="translate(780,243)" d="m0 0h27v4l-3-1h-20l-1 2h-2v8h-1z" fill="#6BCB2D"/>
<path transform="translate(261,649)" d="m0 0h1l1 9 1 1 8 1v2h16l2 2h-11l-18-1z" fill="#CA3D0F"/>
<path transform="translate(206,267)" d="m0 0h24l1 3-26 1z" fill="#044511"/>
<path transform="translate(829,428)" d="m0 0h25v1h-23l1 21-3 4z" fill="#012A0D"/>
<path transform="translate(527,591)" d="m0 0h1v17l-2 2h-17l1-2h13l2-5v-9z" fill="#01201A"/>
<path transform="translate(233,430)" d="m0 0h1l1 21 5 1 16 1v-2h3v2h3v2l-29-1z" fill="#012C0E"/>
<path transform="translate(289,404)" d="m0 0h7v1h-5l1 3v18l4 2h-7z" fill="#26A715"/>
<path transform="translate(452,376)" d="m0 0h2l2 26-4 1z" fill="#023715"/>
<path transform="translate(313,303)" d="m0 0h1l1 19 13 2v1l-11 1-5-3-1-5 1-14z" fill="#01211A"/>
<path transform="translate(647,137)" d="m0 0 13 1-1 2-8 1-1 2-1 19h-2z" fill="#054B21"/>
<path transform="translate(202,461)" d="m0 0 2 1v13l-2 2-4-1v-11l3-1z" fill="#01251B"/>
<path transform="translate(532,323)" d="m0 0h2l2 5v10l1 9-1 3h-2l-1 2 1-6-1-1z" fill="#012118"/>
<path transform="translate(681,877)" d="m0 0h18v2h-11l-6 1-2 8-1 9-2-1 1-16z" fill="#D23A11"/>
<path transform="translate(454,537)" d="m0 0h18l7 1v2l-7 1-5 1-7-3-4 1z" fill="#0B771A"/>
<path transform="translate(729,822)" d="m0 0h7l-3 3h-1l-1 7v13l-1 2h21v1h-22z" fill="#B54227"/>
<path transform="translate(768,634)" d="m0 0h9v8h-9v-2l-2-1h2z" fill="#B72E15"/>
<path transform="translate(242,569)" d="m0 0h16l2 1-1 3-11 1v-2h-7l-3 1 1-3z" fill="#1C9817"/>
<path transform="translate(380,407)" d="m0 0h3v2l3 1-1 2-9 1h-6l-1-3 1-2z" fill="#0B771A"/>
<path transform="translate(456,317)" d="m0 0h2l1 7v24l-3-1v-15l1-5z" fill="#01211A"/>
<path transform="translate(313,484)" d="m0 0h1l2 20 1 1 23 1v1l-26 1-1-1z" fill="#012C0D"/>
<path transform="translate(188,456)" d="m0 0 14 1-2 5h-5l-3-3-4-1v3h-5l-1-4z" fill="#01231A"/>
<path transform="translate(623,534)" d="m0 0v3l-16 2-6 1-1 4v11l-2-1v-14l5-4h13z" fill="#01211A"/>
<path transform="translate(781,427)" d="m0 0h34v3h-17v-1l-17-1z" fill="#0F8318"/>
<path transform="translate(551,350)" d="m0 0 2 1v28h-2v-9l-1-5v-13z" fill="#01221A"/>
<path transform="translate(314,140)" d="m0 0 2 2v20h7v1h-9l-1-3v-16z" fill="#013211"/>
<path transform="translate(554,498)" d="m0 0 2 2v7l-1 7-1 12v9h-1l-1-7v-16z" fill="#01211A"/>
<path transform="translate(313,373)" d="m0 0h2l2 10-1 17 3 1-3 1-2-7-1-11z" fill="#02350E"/>
<path transform="translate(262,610)" d="m0 0h1v17l-1 5h2v2h25v1h-28v-17z" fill="#7C181B"/>
<path transform="translate(539,564)" d="m0 0h1v20l-2 2-8 1 4-3 3-2v-9l-1-4z" fill="#01211A"/>
<path transform="translate(289,536)" d="m0 0h25v12l-1-4-2-1v-3l-1-1-18-1z" fill="#012119"/>
<path transform="translate(207,480)" d="m0 0h26v5l-9-2-16-1z" fill="#012B0D"/>
<path transform="translate(393,428)" d="m0 0h1l1 20 3 5 22 1v1h-26l-1-1z" fill="#0B771A"/>
<path transform="translate(441,350)" d="m0 0h1l1 23h9v3h-12l1-8z" fill="#012B1B"/>
<path transform="translate(316,268)" d="m0 0h1l1 24 2 1 20 1v2h-12l-11-1-1-1z" fill="#128C17"/>
<path transform="translate(205,789)" d="m0 0 28 1v30h-1v-27h-2v-2l-24 1z" fill="#7F191B"/>
<path transform="translate(231,564)" d="m0 0h2v20l-2 3-1-2v-20z" fill="#044211"/>
<path transform="translate(599,272)" d="m0 0h6l-3 1v15l-2 7h-1z" fill="#24A516"/>
<path transform="translate(392,267)" d="m0 0 2 3-1 10h-1v-8l-4-1h-21v11h-1v-13h26z" fill="#044A20"/>
<path transform="translate(535,161)" d="m0 0h1l1 24-3 8h-1l1-31z" fill="#01201A"/>
<path transform="translate(597,485)" d="m0 0h1v19l-1 3-5 1-3-2 5-2 1-15z" fill="#01211A"/>
<path transform="translate(610,233)" d="m0 0 2 1v6l3 1-1 2h-16l2-1v-2l9-2z" fill="#012714"/>
<path transform="translate(434,609)" d="m0 0h5v18h-1l-3-10-1-4-3-1z" fill="#01211A"/>
<path transform="translate(618,224)" d="m0 0 3 1v15l-7 1 2-1z" fill="#022D1F"/>
<path transform="translate(331,191)" d="m0 0h8v25l-2-1v-22h-6z" fill="#5DC726"/>
<path transform="translate(207,785)" d="m0 0 2 2 24 1 1 2h-27l-1-3z" fill="#B54227"/>
<path transform="translate(234,567)" d="m0 0 3 1v13 1l2 2 9 1v1h-12l-2-1z" fill="#189317"/>
<path transform="translate(310,268)" d="m0 0h4v29l-2-3-1-23z" fill="#012B0D"/>
<path transform="translate(574,633)" d="m0 0h24v2l-2 1h-12l-10-2z" fill="#01211A"/>
<path transform="translate(672,588)" d="m0 0h15l5 1v1h-16l-1 2-21-1v-1l16-1z" fill="#01211A"/>
<path transform="translate(701,480)" d="m0 0h1v17l-3 7h-2l1-6 1-7v-9z" fill="#01211A"/>
<path transform="translate(317,395)" d="m0 0h3v4l16 1 2 2h-18l-4-2z" fill="#012416"/>
<path transform="translate(230,349)" d="m0 0h3v27h-2z" fill="#023916"/>
<path transform="translate(602,612)" d="m0 0h9l-3 2-5 2-1 1-1 14-2 1v-17h2z" fill="#01211A"/>
<path transform="translate(677,876)" d="m0 0h25l-1 5-2-4-20 1-1 18h-1z" fill="#B54227"/>
<path transform="translate(646,164)" d="m0 0h1v26l-4-1 1-1 1-23z" fill="#012B0D"/>
<path transform="translate(726,851)" d="m0 0h1l1 23-1 1h-23l1-2h19l1-2z" fill="#B54227"/>
<path transform="translate(598,555)" d="m0 0 2 1v7l-3 2-5 1h-15l2-2 14-1 5-1z" fill="#01211A"/>
<path transform="translate(678,505)" d="m0 0 1 2h9v1h-10l1 25 2 2-4 1-3-2 1-3 1 2 1-26z" fill="#054B21"/>
<path transform="translate(350,504)" d="m0 0 14 3v1h-22l-3-3h9z" fill="#01211A"/>
<path transform="translate(311,380)" d="m0 0h2l1 4v19l-6-1 1-2h3z" fill="#36BB12"/>
<path transform="translate(318,584)" d="m0 0h20l2 2-6 1h-13z" fill="#012316"/>
<path transform="translate(697,504)" d="m0 0h5v3l-5 1-18-1 1-2z" fill="#012D0E"/>
<path transform="translate(815,427)" d="m0 0h13l1 1v10h-1l-2-7-11-2z" fill="#1F9C15"/>
<path transform="translate(752,270)" d="m0 0h2l1 10v16l-4-1h2l-1-6z" fill="#023513"/>
<path transform="translate(649,135)" d="m0 0h19l-1 3h-19z" fill="#012515"/>
<path transform="translate(485,81)" d="m0 0 23 1 1 2h-21l-4-2z" fill="#013010"/>
<path transform="translate(551,379)" d="m0 0h2v23l-3 1z" fill="#012E0F"/>
<path transform="translate(440,350)" d="m0 0h1l1 20-2 6h-1v-25z" fill="#023A16"/>
<path transform="translate(811,298)" d="m0 0h5l-3 2-2 1-1 3-1 19-3 3-4-1 5-2 1-21z" fill="#01211A"/>
<path transform="translate(596,244)" d="m0 0h1l1 21-1 6h-3z" fill="#012C0E"/>
<path transform="translate(621,666)" d="m0 0 2 1v11h-18v-1l16-1v-8h-6v-1z" fill="#CA3811"/>
<path transform="translate(472,613)" d="m0 0h2v15l-3 3v-15z" fill="#01211A"/>
<path transform="translate(598,583)" d="m0 0h6l1 2-5 1 11 1v1l-10 1-3 2-1-2-2 2 1-7z" fill="#033C1E"/>
<path transform="translate(621,568)" d="m0 0 2 4v12h-15v-1l11-1 1-7z" fill="#01211A"/>
<path transform="translate(207,481)" d="m0 0 17 1 6 1v2l-22-1z" fill="#01261A"/>
<path transform="translate(817,453)" d="m0 0h9l2 2-7 1h-26v-2z" fill="#012B0D"/>
<path transform="translate(290,327)" d="m0 0h1l1 8v13l2 1h-5l-1-6z" fill="#012F0F"/>
<path transform="translate(509,296)" d="m0 0h2l-1 25h-1l-1-9v-14z" fill="#023412"/>
<path transform="translate(755,654)" d="m0 0h1v24l-1 5-4-4-7-1v-1h11z" fill="#B6371D"/>
<path transform="translate(474,406)" d="m0 0 2 3 1 12-1 6h5v1h-7z" fill="#012217"/>
<path transform="translate(421,326)" d="m0 0 2 2 1 18 1 1 7 1v1h-10l-1-11z" fill="#012B0D"/>
<path transform="translate(508,612)" d="m0 0h1v16l1 6-3-1-1-6 1-12z" fill="#01211A"/>
<path transform="translate(755,375)" d="m0 0h3l-1 16v9l-2 1z" fill="#01211A"/>
<path transform="translate(573,272)" d="m0 0h1v20l-2-4-1-3v-10z" fill="#01211A"/>
<path transform="translate(654,219)" d="m0 0h15l-2 7-3-3-8-1z" fill="#1A9517"/>
<path transform="translate(528,536)" d="m0 0h8l-5 4h-3l1 19-2 1v-22z" fill="#01211A"/>
<path transform="translate(338,352)" d="m0 0 2 1v22l-2-4-1-14z" fill="#01211A"/>
<path transform="translate(805,249)" d="m0 0h1l1 11v9l-4-1z" fill="#3ABF13"/>
<path transform="translate(341,166)" d="m0 0 2 1-1 19h-2l-1-19z" fill="#012317"/>
<path transform="translate(445,634)" d="m0 0h23l-2 1v2l-18-1z" fill="#01211A"/>
<path transform="translate(569,530)" d="m0 0h5l1 2-2 2-14 1 4-3z" fill="#01211A"/>
<path transform="translate(678,454)" d="m0 0 7 1-4 5v8l-2 4-1-10-1-7z" fill="#012317"/>
<path transform="translate(685,886)" d="m0 0 2 2v7l-1 1h-5l1-5z" fill="#D33A12"/>
<path transform="translate(801,647)" d="m0 0 4 1v16h-1l-1-14h-20v-1l17-1z" fill="#B34126"/>
<path transform="translate(678,565)" d="m0 0 2 1v8l2 2v6l-4 1z" fill="#0B771A"/>
<path transform="translate(230,486)" d="m0 0 3 2v16h-2l-1-7z" fill="#023015"/>
<path transform="translate(645,450)" d="m0 0 1 2-1 2-21 1 1-2 3-1h15z" fill="#01211A"/>
<path transform="translate(488,402)" d="m0 0h24v1l-13 1-2 1h-6z" fill="#01211A"/>
<path transform="translate(455,399)" d="m0 0 17 1 1 2-7-1v2h-10z" fill="#01211A"/>
<path transform="translate(154,400)" d="m0 0h24l1 2-28 1z" fill="#043B10"/>
<path transform="translate(572,610)" d="m0 0h1l1 22h-3v-14z" fill="#01201A"/>
<path transform="translate(573,513)" d="m0 0 2 3v12h-3v-12z" fill="#01201A"/>
<path transform="translate(271,588)" d="m0 0h19v10l-2-1-1-7-16-1z" fill="#012B0D"/>
<path transform="translate(760,453)" d="m0 0h20v11h-1l-2-9h-17z" fill="#168917"/>
<path transform="translate(568,343)" d="m0 0 3 1v5h-17l4-2h7z" fill="#01221A"/>
<path transform="translate(725,298)" d="m0 0h2l1 6-1 1v8l-1 5h-1z" fill="#012318"/>
<path transform="translate(597,243)" d="m0 0h23v1l-20 1-2 9h-1z" fill="#054C20"/>
<path transform="translate(234,508)" d="m0 0 22 1v1l-17 1h-4z" fill="#01201A"/>
<path transform="translate(235,376)" d="m0 0h21v2h-17l-2 1-2-1z" fill="#0B771A"/>
<path transform="translate(240,402)" d="m0 0h22v9h-1v-6l-3-1-18-1z" fill="#012B0D"/>
<path transform="translate(568,325)" d="m0 0 2 1 2 6-2 4h-3z" fill="#01211A"/>
<path transform="translate(460,137)" d="m0 0h24v1l-20 1-5 2z" fill="#064E20"/>
<path transform="translate(530,416)" d="m0 0h1l1 8 1 4h-5l1-11z" fill="#012316"/>
<path transform="translate(818,296)" d="m0 0h14v2l-13 1-3-2z" fill="#01211A"/>
<path transform="translate(456,175)" d="m0 0 2 4v8l-1 5h-2v-14z" fill="#01241A"/>
<path transform="translate(781,640)" d="m0 0h1l2 8h16v1h-19z" fill="#80191B"/>
<path transform="translate(769,374)" d="m0 0h12l-2 1v2l-7 1-1-3z" fill="#01221A"/>
<path transform="translate(698,328)" d="m0 0h3l1 8-2 6-1-3-1-4-1-5z" fill="#01211A"/>
<path transform="translate(148,405)" d="m0 0h1v19l-2 1v-9l-1-4z" fill="#01211A"/>
<path transform="translate(290,320)" d="m0 0 2 1 1 15-2-1-2-12-1-2z" fill="#01261A"/>
<path transform="translate(360,215)" d="m0 0 6 2v5l-3-1v-2l-11-1v-1h8z" fill="#054B21"/>
<path transform="translate(761,425)" d="m0 0h6l7 2v1h-16l3-1z" fill="#01211A"/>
<path transform="translate(828,214)" d="m0 0 7 1 2 1-1 7-3-1-2-7z" fill="#02341D"/>
<path transform="translate(450,535)" d="m0 0 1 4-5-1h-14v-2z" fill="#012418"/>
<path transform="translate(340,401)" d="m0 0h2l2 4-1 7-2 4z" fill="#01211A"/>
<path transform="translate(510,449)" d="m0 0 5 1 1 3-7 2v-5z" fill="#01211A"/>
<path transform="translate(722,325)" d="m0 0h4l-1 7-3 1-2-4v-3z" fill="#0B771A"/>
<path transform="translate(440,372)" d="m0 0h2v2h9l1 2h-12z" fill="#012B0D"/>
<path transform="translate(619,264)" d="m0 0 3 3v3l2 1h-6l-2-4z" fill="#0F8418"/>
<path transform="translate(800,677)" d="m0 0h3v10l-2 1-1-9z" fill="#C53811"/>
<path transform="translate(541,560)" d="m0 0h11l1 2-13 1z" fill="#01211A"/>
<path transform="translate(687,455)" d="m0 0h10l-3 3-3 1-4-2z" fill="#01211A"/>
<path transform="translate(782,264)" d="m0 0 2 3 8 1v2h-11z" fill="#31B512"/>
</svg>
