<?xml version="1.0" encoding="UTF-8"?>
<svg version="1.1" viewBox="0 0 1024 1024" width="1024" height="1024" xmlns="http://www.w3.org/2000/svg">
<path transform="translate(457,34)" d="m0 0 24 1v39h24v62h23l1 72 23 1v118l23-1v50l19-1v-48h22v-46h23v-49h23l-1-50 23 1v-47h24v146h27v-24h24v-25h24v-24h24v-25l23-1 1-24 25-1v18l-1 8h-23v74h-25v47h-24v47h-24v69h-25v45l-1 3h15v-23h24v-24h25v-24l14-1 8 1v-22h23v-25l24 1v-26l23 1v-26h12l13 1v50h-23v46h-22l-2-1v50l-25-1v48l-23-1v25l-22-1v23l-24-1 1 24-1 1h-24v24l-18-1 1 4v19h-20l-3-1v20l86-1v168h-22v25h-24v25h-20v25h-23v24h-45v25h-326v-25h-45v-24h-23v-25h-23l1-25h-22v-25h-23v-167h67v-20l-8 1h-14l-1-21-22-1v-24h-22v-25l-19 1v-23h-28v-23h-21v-24h-31v-25h32v24h49v22l-1 2 40-1v24h23l1-46h-23v-48l-22-1v-45h-22v-23h-21v-25h-24v-26h-24v-28h49v27l10-1 32 1v25h46v26l2-1h20v24h20v-92h-24v-74h-24v-73h-24v-20h24l1 19h24v24h24v25h23v25h24v23h24v49h25v45h24l1 49h24v-117l23 1z" fill="#02220A"/>
<path transform="translate(593,651)" d="m0 0h175l5 2v113l-1 30-3 1h-18v22l1 2h-3v25h-20v25h-23v24h-45v25h-326v-25h-45v-24h-23v-25h-23l1-25h-22v-26l-1-38 1-104 1-1z" fill="#DE2F06"/>
<path transform="translate(457,34)" d="m0 0 24 1v39h24v62h23l1 191 7 1h15v165l-22 1-1 46-22 1-1 43-1 2h-22l1 3-1 40-2 2h-91l-3-1v-3h-2l-1-14h-12l-10-4-2-1-1-16-3-3h-14l-4-2-1-23-24-1-1-23-21-1-1-3v-20h-22v-46h-45v-48l-22-1v-45h-22v-23h-21v-25h-24v-26h-24v-28h49v27l10-1 32 1v25h46v26l2-1h20v24h20v-92h-24v-74h-24v-73h-24v-20h24l1 19h24v24h24v25h23v25h24v23h24v49h25v45h24l1 49h24v-117l23 1z" fill="#026903"/>
<path transform="translate(225,654)" d="m0 0h42l1 2v18l404 1v1h-12l1 3v60l-1 1-23 1v19l-1 10-1 1h-20l-1 25h-24v23l1 2h-23l-1 25h-255l-1-1v-23l-18-1-3-5-1-16-1-4h-19l-1-3v-23l-19 1-3-1-1-2-1-92h-18l-2 4z" fill="#FA5101"/>
<path transform="translate(457,34)" d="m0 0 24 1v39h24v62h-1v-38h-23v165l-2-4h-20l-3 6v109l-1 5-3 1 1 12h-2l2 4h2l1 4v14l-2 4h-4v2h-13l-3 1v96l8 2h12l1 2v37l-4 4h-12l-3-3-1-16-2-3-25-1v-23h-23l-1-1v-22h-48v-48h-24l-1-22v21l-2-2v-16l-5-3h-14l-3-4-1-15-2-2-15-1-2-2-1-22-21-1-1-24h-44v24h-22v-23h-21v-25h-24v-26h-24v-28h49v27l10-1 32 1v25h46v26l2-1h20v24h20v-92h-24v-74h-24v-73h-24v-20h24l1 19h24v24h24v25h23v25h24v23h24v49h25v45h24l1 49h24v-117l23 1z" fill="#02210B"/>
<path transform="translate(593,651)" d="m0 0h175l5 2v113l-1 30-3 1h-18v22l1 2h-3v25h-20v25h-23v24h-45v25h-326v-25h-45v-22l1-2 346-1v-24h22v-24l19-1h5l-1-5 1-20h21v-33l22-1 1-87h-18l3-2 8-1h4l-2-8 1-5-5-3-102-1v-2l-199 1h-192v18h-1v-20z" fill="#AF190D"/>
<path transform="translate(736,284)" d="m0 0h23l1 3v65l-1 69h-25v45h-1v-44h-24v70l-23 1-1 22-2 4-2 13-2 3-9 1h-6v2h-2l-6 12v6l-3 3h-8l-4 2-3 3h-22v23l-19 1-1 3-1 17-3 1h-19v21h-45l-1-6 1-37 1-1 21-1 1-46h22l1-46h22v-24h20v-23l8-1h16v-46h22v-23h22v-22l1-2h23v-23l1-24 25-1 1-2z" fill="#036A03"/>
<path transform="translate(200,352)" d="m0 0h44l1 2v22h21l1 1 1 22 1 1 15 1 3 3 1 15 3 3h13l5 3 1 1v-4l2-1v24h24v48h48l1 22 23 1v23h25v25h24l1 24 3 1h18l2 3-1 31-1 2-9 1-6 1-10 1h-53l-3-1-2 1h-6l-2-3-1-11-2-5-19-1-2-1v-18l-5-3h-15l-7-1-1-21-24-1-1-23-21-1-1-3v-20h-22v-46h-45v-48l-22-1z" fill="#026903"/>
<path transform="translate(889,301)" d="m0 0h12l13 1v50h-23v46h-22l-2-1v50l-25-1v48l-23-1v23h-21v-1l18-1v-19h-15l-3 5-1 12-5 5-13 1-5 5v10l-1 5-4 1-16 1-3 4-1 16-5 4-23 1-11 3-1 12-2 5-3 4h-10l-5 1-2 14-1 4-11 1-14-1-1-8v-10h2l-1-4h2v-2l13-2 3-1 1-3-5-6v-10l-1-1-2-15-6-1v12l-2 6-2 3-4 1h-14l-4 1v16l-2 2-12 3h-8l-2 19-20 1-2 13-3 5-2 1h-14v2l-3-1 1-20 22-1v-17l2-4h19v-23l24-1 1-3 4-2h9l1-2v-7h2l1-6 4-5h2v-2l15-2 2-6 1-9 2-4 1-22 1-1h23v-70h24v47h15v-23h24v-24h25v-24l14-1 8 1v-22h23v-25l24 1v-26l23 1z" fill="#022A03"/>
<path transform="translate(684,136)" d="m0 0h24v146h27v-24h24v-25h24v-24h24v-25l23-1 1-24 25-1v18l-1 8h-23v74h-25v47h-24v47h-23l-1-1v-67l-6 1-17-1v18l-2 3h-25v24l-1 23h-23l-1 24h-22v23h-22v46l-24 1v23l-12 1h-7l-1-1v-25l20 1v-25l8-1h14l-1-13-1-9 3-2 3 1h13l3-1 2 1-1-6h-3v-3h3l1-14-1-17 1-2-2-1-18-1v23l-2 1h-22v-95h23v-49h23l-1-50 23 1z" fill="#049F03"/>
<path transform="translate(216,116)" d="m0 0h24l1 19h24v24h24v25h23v25h24l1 24-1 49h24l1 7v38h24v49h24l1 22v71l-2 1-24-1 1-24h-24l-1-23-24-1-1-25-8 1v1h-15l-1-78-1-37h-46v-74h-24v-73h-24z" fill="#036A03"/>
<path transform="translate(889,301)" d="m0 0h12l13 1v50h-23v46h-49v45l-2 2h-20l-1 47-2 1h-19l-25 1-1 21-4 1h-19l-1 23-4 3-9 1-1 14-3 5h-23v-45l1-1h21l3-1 1-21h14v-23l1-2h23v-22l1-1h23v-24l1-24 14-1 8 1v-22h23v-25l24 1v-26l23 1z" fill="#026A03"/>
<path transform="translate(736,284)" d="m0 0h23l1 3v65h-51v24h-24v69l-1 24h-3l-19 1-1 19-1 3-4 1-16 1-1 21-2 1-20 1-1 20-3 2h-14l-3 1-1 20-3 2-16 1v-3h-2v-21h2v-19l1-2h19v-49h20v-23l8-1h16v-46h22v-23h22v-22l1-2h23v-23l1-24 25-1 1-2z" fill="#03A403"/>
<path transform="translate(639,232)" d="m0 0h46v25l-1 50-7 3-10 1-2 10-1 14v13l2 2h7l2-7h2l2 7 2 1 1-22 1-2h21l5 1-1 24h-23l-1 24h-22v23h-22v46l-24 1v23l-12 1h-7l-1-1v-25l20 1v-25l8-1h14l-1-13-1-9 3-2 3 1h13l3-1 2 1-1-6h-3v-3h3l1-14-1-17 1-2-2-1-18-1v23l-2 1h-22v-95h23z" fill="#026A03"/>
<path transform="translate(291,871)" d="m0 0 42 1 2 1 1 21 1 1h125l191-1 7 1 1 1v24h-326v-25h-45v-22z" fill="#02210A"/>
<path transform="translate(288,677)" d="m0 0h144l1 3v24l-1 2h-34l-2-1 1 7v27h-109z" fill="#FB7A04"/>
<path transform="translate(481,113)" d="m0 0h1v51h6l1 1v43h16v214h-23v48h-23v-88l1-6h21l-1-50z" fill="#3ED409"/>
<path transform="translate(481,98)" d="m0 0h23v38h24v217h-22l-1-1v-144h-16l-1-43-6-1z" fill="#03A403"/>
<path transform="translate(684,136)" d="m0 0h24v146h26l1 1v21l-1 1h-25v23l-26-1-1 22-1 2-3-1-1-7h-2l-1 7-1 1h-7l-3-4v-16l1-10 2-10 1-1 13-2 3-1 1-50 1-25h-23l-1-50 23 1z" fill="#02210A"/>
<path transform="translate(216,116)" d="m0 0h24l1 19h24v24h24v25h23v25h24v23h-26l-1-22-1-1h-19v72l-1 2h-24v-74h-24v-73h-24z" fill="#02210A"/>
<path transform="translate(457,34)" d="m0 0 24 1v39h24v62h-1v-38h-23v165l-2-4h-19v-2h-3z" fill="#02230A"/>
<path transform="translate(736,284)" d="m0 0h23l1 3v65h-51v24h-24l-1 46h-22v23l-19 1-3-1v-46h22v-23h22v-22l1-2h23v-23l1-24 25-1 1-2z" fill="#3DD308"/>
<path transform="translate(245,398)" d="m0 0h19l5 2 15 1 3 3 1 15 3 3h13l5 3 1 1v-4l2-1v24h24v48h24v23h24v20l-4 4h-28l-12-2-3-1v-17l2-2-3-2-1-22-23-1v-23h-23v-24l-21-1-1-4v-19h-22z" fill="#3DD308"/>
<path transform="translate(459,257)" d="m0 0 2 1h18l2 5v113h-21l-1 94h23v-48h23v49h-22l-1 46-2 1-23-1v-257z" fill="#03A303"/>
<path transform="translate(200,352)" d="m0 0h44l1 2v22h21l1 1v22h-21l-1 71h-23v-48l-22-1z" fill="#03A403"/>
<path transform="translate(109,274)" d="m0 0h49v27l10-1 32 1v25h46v21l-1 4h-20l-1-1-18-1-3 2-1-3-1-19-1-1-22-1v25l-2 1h-19v-25h-24v-26h-24z" fill="#02220A"/>
<path transform="translate(101,445)" d="m0 0h32v24h49v22l-1 2 40-1 1 24v23l-41 1v-23h-28v-23h-21v-24h-31z" fill="#02210A"/>
<path transform="translate(456,263)" d="m0 0h1v300h25l2 5 2 14h2l1 2 10-1 2-1 2-7h1v11h-22l1 3-1 40-2 2h-91l-3-1v-3h-2l-1-14h-12l-10-4-2-1-1-16-3-3h-14l-4-2v-2h22l6 4-1 18 21 1 3 6 1 11 1 2h6l4-1 3 1h57l9-2h10l1-33-1-3-21 1-1-2v-24h-24v-24l3 3 1 18h14l3-3v-39l-4 1h-8l-9-3v-96l4-2 13 1v-2l4-1 1-3v-18l-3 1-1-5h2l-2-8 1-5 2-1 1-5v-108z" fill="#023C03"/>
<path transform="translate(663,304)" d="m0 0 1 2h20l-1 2-6 2-10 1-2 10-1 14v13l2 2h7l2-7h2l2 7 2 1 1-22 1-2h21l5 1-1 24h-23l-1 24h-22v23h-22v46l-24 1v23l-12 1h-7l-1-1v-25l20 1v-25l8-1h14l-1-13-1-9 3-2 3 1h13l3-1 2 1-1-6h-3v-3h3l1-14-1-17 1-2-2-1-18-1v23l-2 1h-22v-49h20l4 1 18 1 4-1v-22z" fill="#022D03"/>
<path transform="translate(846,397)" d="m0 0h20l1 1v49l-25-1v48l-23-1v23h-21v-1l18-1v-19h-15l-3 5-1 12-5 5-13 1-5 5v10l-1 5-4 1-16 1-3 4-1 16h-1v-42l1-2 3-1h19l1-19 1-2 3-1 23-1h20v-47l1-1h20l1-1 1-45z" fill="#02220A"/>
<path transform="translate(889,301)" d="m0 0h12l13 1v50h-23v46h-22l-2-1v-22h-25v-24l24 1v-26l23 1z" fill="#02210A"/>
<path transform="translate(337,232)" d="m0 0h23v49h25v45h24l1 49 1 2-26-1v-49h-24l-1-26v-19h-24v-49z" fill="#02220A"/>
<path transform="translate(772,422)" d="m0 0h24v24l-23 1-1 22h-23l-1 25-14 1-3 1v16l-5 1v-2l-9 2-8-1-4-2-1-8 3-6h2l1-4 1-1v-27l-1-18 1-19 4-3 18-1v46h15v-23h24z" fill="#02210A"/>
<path transform="translate(289,208)" d="m0 0h19l2 2v22h27l-1 72-1 1h-23v-23l-7 1h-17v-74z" fill="#036B03"/>
<path transform="translate(223,539)" d="m0 0h45l1 21 1 1 15 1 3 1 1 19 3 3h14l6 2v21l-1 1h-23l-1-19-28-2h-10l-3-1-2 2-20-1-1-3z" fill="#02220A"/>
<path transform="translate(528,208)" d="m0 0 24 1v118l23-1v50h17v2h-16l-3-1-1-48h-40l-4-2z" fill="#02210A"/>
<path transform="translate(854,158)" d="m0 0h2v18l-1 8h-23v74h-23l-2-1v-25h-24v-23h24v-25l23-1 1-24z" fill="#02210A"/>
<path transform="translate(360,493)" d="m0 0h24l1 22 23 1v23h25v46l-1 1h-23l-1-1v-21h-23l-1-23-4-2 3-1 1-22h-24z" fill="#03A503"/>
<path transform="translate(200,629)" d="m0 0h65l-1 3h-61l-1 162h14l3-2v-7l1-2v-126l-1-4 2-2 11-2v1h56l31-1 7 1h210l72-1h141l22 1 4 3v140h17l1-160 2-1v164h-22v25h-21l-2-2 1-22 21-1v-143l-4-1h-175l-369 1-1 105v37l2 1h-25z" fill="#020E05"/>
<path transform="translate(336,306)" d="m0 0h24l1 1v45h23v46l-22 1-1-1-1-23h-24z" fill="#03A503"/>
<path transform="translate(457,376)" d="m0 0h1v7l2 1-1 86h23v-48h23v49h-22l-1 46-2 1-23-1z" fill="#05A603"/>
<path transform="translate(551,331)" d="m0 0 2 2v159l-1 4 1 39 3 1h9l5-1v-10l1-14v-16h2l1-4 1-1 17-1 2-1 1-16h1v21h-22v44l-1 2h-22v46l-1 1h-20v-1l8-2h8l3 1-1-37-2-7-16 4-1 1-1 17-1 1-22 1v-23l1-1h22v-46l1-1 20-1 2 1z" fill="#022A03"/>
<path transform="translate(639,232)" d="m0 0h23l1 43h1v7h-25v46l-23-1v-46h23z" fill="#02230A"/>
<path transform="translate(481,98)" d="m0 0h23l1 38v72h-16l-1-43-6-1z" fill="#03A403"/>
<path transform="translate(730,822)" d="m0 0h18l1 1v23h-20v25h-23v24h-44v-13l1-8 4-3h38l1-3 1-21 2-1 17-1 2-1 1-20z" fill="#020E05"/>
<path transform="translate(441,422)" d="m0 0h15l1 2v93h-7l-4-1-9-3-2-3v-78l2-7-3-2z" fill="#026903"/>
<path transform="translate(265,184)" d="m0 0h23l1 1 20 1 1 1 2-3v25h24v23h-26l-1-22-1-1h-19v72h-1l-1-17v-51l-7-2-1-1-12-1-2-1z" fill="#02220A"/>
<path transform="translate(593,651)" d="m0 0h175l5 2v113l-1 26h-1v-116h-19l-1-4v-14l1-4h-527v18h-1v-20z" fill="#B5390A"/>
<path transform="translate(736,284)" d="m0 0h23l1 3v65h-25l-1-37v-7l-1-1h-20l2 2-2 1-1 15-2 2-1-22 25-1 1-2z" fill="#03A103"/>
<path transform="translate(735,352)" d="m0 0h24v69h-25z" fill="#02210A"/>
<path transform="translate(505,136)" d="m0 0h23v72h-23z" fill="#02220B"/>
<path transform="translate(245,422)" d="m0 0h22l1 10v13h12l9 1v24h-44z" fill="#03A503"/>
<path transform="translate(266,208)" d="m0 0 13 1 8 4 1 51v19h-24v-3h2z" fill="#02210A"/>
<path transform="translate(288,677)" d="m0 0h53l-2 27-1 1h-50z" fill="#3ED409"/>
<path transform="translate(459,257)" d="m0 0 2 1h18l2 5v61h-1v-14h-20l-1 66h-2v-116z" fill="#026C03"/>
<path transform="translate(505,208)" d="m0 0h23v80l-1 26h-1l-1-44-2-7-3-2-13 1v-3h-2z" fill="#036A03"/>
<path transform="translate(846,397)" d="m0 0h20l1 1v49l-27-1 1-3 1-45z" fill="#021F0A"/>
<path transform="translate(651,894)" d="m0 0 9 1 1 1v24h-325v-5h2v3h321v-21h-75l-136 1h-53l-9 1-3-1h-36v-2l115-1z" fill="#030E05"/>
<path transform="translate(759,233)" d="m0 0h24v25l-22 1-1 2-1 21h-24v-24h24z" fill="#022009"/>
<path transform="translate(312,258)" d="m0 0h24v46l-1 1h-23l-1-23v-23z" fill="#3DD308"/>
<path transform="translate(289,208)" d="m0 0h19l2 2 1 22v24l-1 2h-22v-49z" fill="#03A103"/>
<path transform="translate(223,539)" d="m0 0h45v24l-5 1h-40z" fill="#036A03"/>
<path transform="translate(684,327)" d="m0 0h20l5 1-1 24h-23l-1 24h-22v-23l21-1z" fill="#03A503"/>
<path transform="translate(222,422)" d="m0 0h23v48h-23z" fill="#021F0A"/>
<path transform="translate(616,327)" d="m0 0h20l3 1v48h-23z" fill="#026903"/>
<path transform="translate(198,304)" d="m0 0h2v22h46v21l-1 4h-20l-1-1-18-1-3 2-1-3-1-19-3-4z" fill="#02210A"/>
<path transform="translate(784,258)" d="m0 0h22l1 1v46h-24z" fill="#02200A"/>
<path transform="translate(178,327)" d="m0 0h22v49h-22v-23l-2-1h2z" fill="#027103"/>
<path transform="translate(624,445)" d="m0 0h16v25h-24v23l-8 1h-12v-25h20v-23z" fill="#3CD208"/>
<path transform="translate(617,421)" d="m0 0h23v24l-24 1v23l-12 1h-7l-1-1v-25l20 1v-23z" fill="#03A403"/>
<path transform="translate(777,305)" d="m0 0 6 1v46h-23l-1-2 1-44z" fill="#02220B"/>
<path transform="translate(360,516)" d="m0 0h24v20l-4 4h-28l-12-2-3-1v-17l3-3z" fill="#03A503"/>
<path transform="translate(686,492)" d="m0 0h21v1l-15 4-2 4 1 11-4 9 1 7v8l-3 4-9 1h-13l-2 22-21 2-1 3-1 14-8 3-12 1-2 1v-23l24-1 1-3 4-2h9l1-2v-7h2l1-6 4-5h2v-2l15-2 2-6 1-9 2-4 1-22z" fill="#023C03"/>
<path transform="translate(776,493)" d="m0 0h22l-1 3-1 15-5 5h-10l-8 1-1 13-3 5-2 2-15 1-4 1v-21l1-2 3-1h19l1-19 1-2z" fill="#023C03"/>
<path transform="translate(291,871)" d="m0 0 42 1 2 1 1 22h-46v-22z" fill="#02210A"/>
<path transform="translate(221,375)" d="m0 0 2 1v44l-1 1h-22v-45z" fill="#02210A"/>
<path transform="translate(200,328)" d="m0 0 2 1 1 19 1 2 2-2 18 1 1 1 20 1 1-4v5l2-1h20v24h20v1h-19l1 4v14l-1 4 21 1 2 2 1 16 3 2h12l3 3v22l-2-2v-16l-5-3h-14l-3-4-1-15-2-2-15-1-2-2-1-22-21-1-1-24h-44z" fill="#02210A"/>
<path transform="translate(708,515)" d="m0 0h25l-3 1-1 2v-2l-20 1v44h22l2-4 1-14 1-1 9-1 4-2v22l-3 2-37 1v14l-2 5-2 2-16 1-2-5v-15l2-4 16-3v-39l2-1z" fill="#023C03"/>
<path transform="translate(639,232)" d="m0 0h23l-1 3v16l-1 8 1 8-1 10-1 2-3 1h-17z" fill="#021F0A"/>
<path transform="translate(794,632)" d="m0 0h1v164h-22v25h-21l-2-2 1-22 21-1v-30l1-22h2v49h17l1-160z" fill="#020E05"/>
<path transform="translate(101,445)" d="m0 0h32v24h19l7 1v1h-23l-1 1-1 19 20 1 1 1v20l4 1-3 2h-3v-22h-21v-24h-31z" fill="#02220A"/>
<path transform="translate(367,282)" d="m0 0 16 2v41l2 1-1 1h-23l-1-26v-16l1-2z" fill="#02220A"/>
<path transform="translate(267,560)" d="m0 0 3 1 15 1 3 1v22l-8 1h-24l-9-1-2-7v-14l23-1z" fill="#023C03"/>
<path transform="translate(548,492)" d="m0 0 3 2-1 14v23l-2 5-8 2-12 1v-45l1-1z" fill="#023C03"/>
<path transform="translate(854,158)" d="m0 0h2v18l-1 8h-23v74h-23l-1-2h22v-69l-21-1 1 23-3 2-22 1-2 2v-5h24v-25l23-1 1-24z" fill="#041907"/>
<path transform="translate(667,873)" d="m0 0h37l1 7v13h-41v-14l1-5z" fill="#02220B"/>
<path transform="translate(597,587)" d="m0 0h19l-1 8-3 12-2 1-14 1-2 13-3 5-2 1h-14v2l-3-1 1-20 22-1v-17z" fill="#023C03"/>
<path transform="translate(216,116)" d="m0 0h24l1 19h24v19h-1l-1-8 1-9-22 1v70h12v1h-14v-73h-24z" fill="#020E05"/>
<path transform="translate(337,585)" d="m0 0h22l6 4-1 18 21 1 3 6 1 11 1 2h6l4-1 3 1h57l9-2h7l4-1 2 1-1 6h-92l-3-1v-3h-2l-1-14h-12l-10-4-2-1-1-16-3-3h-14l-4-2z" fill="#023C03"/>
<path transform="translate(772,422)" d="m0 0h24v24l-23 1-1 1h-22v19l-2 1v-22h24z" fill="#02220A"/>
<path transform="translate(488,98)" d="m0 0h16v38h-16z" fill="#036A03"/>
<path transform="translate(408,539)" d="m0 0h25v25l-2 1v-2h-23z" fill="#036A03"/>
<path transform="translate(574,493)" d="m0 0h22v25h-19l-1 19-2 1z" fill="#036C03"/>
<path transform="translate(336,282)" d="m0 0h24l1 7v18l-25-1-1-2z" fill="#036F03"/>
<path transform="translate(336,469)" d="m0 0h24v24h-24z" fill="#036E03"/>
<path transform="translate(312,445)" d="m0 0h24v24h-24z" fill="#03A203"/>
<path transform="translate(685,376)" d="m0 0h24v22l-23 1-1 23h-1v-38z" fill="#03A503"/>
<path transform="translate(360,493)" d="m0 0h24l1 23h-25z" fill="#036B03"/>
<path transform="translate(265,184)" d="m0 0h23v24h-23z" fill="#037103"/>
<path transform="translate(312,493)" d="m0 0h23l1 1 1 23-23-1v-2h-2z" fill="#03A503"/>
<path transform="translate(336,306)" d="m0 0h24l1 1v21h-25z" fill="#3ED409"/>
<path transform="translate(458,564)" d="m0 0h22l2 2v16l-1 4h-23l-1-3v-17z" fill="#02220B"/>
<path transform="translate(639,328)" d="m0 0 19 1 4-1-1 23-2 1h-19v23h-1z" fill="#023C03"/>
<path transform="translate(506,540)" d="m0 0h22v22l-1 1-22 1v-23z" fill="#023C03"/>
<path transform="translate(245,822)" d="m0 0h20l2 2v18l2 1v3h-25z" fill="#04260B"/>
<path transform="translate(223,398)" d="m0 0h22l1 2-1 22h-22l-1-2z" fill="#036E03"/>
<path transform="translate(385,516)" d="m0 0h23v23h-23z" fill="#036C03"/>
<path transform="translate(246,445)" d="m0 0h20l2 1v19l-1 2h2v2l-13 1h-11v-24z" fill="#036A03"/>
<path transform="translate(809,397)" d="m0 0 10 1v23l-1 1h-19l-2-1v-23z" fill="#03220B"/>
<path transform="translate(267,847)" d="m0 0h21l1 2v22h-22z" fill="#02210A"/>
<path transform="translate(293,682)" d="m0 0h26l2 1 14 1v3l-4 1-2 6-20 1-1 2h4v3h-12l-3-1v-4l-5-1v-11z" fill="#F7FBF5"/>
<path transform="translate(200,540)" d="m0 0 16 1 4 3 1 4v11l3 5v24h-2v-24h-22z" fill="#021F0A"/>
<path transform="translate(269,677)" d="m0 0h19v27h-19z" fill="#FE7904"/>
<path transform="translate(192,352)" d="m0 0h8v24h-22v-22l1-1z" fill="#02210A"/>
<path transform="translate(223,797)" d="m0 0h19l2 2 1 14-1 5h2l-1 3h-22z" fill="#021F09"/>
<path transform="translate(367,516)" d="m0 0h17v20l-1 2-7 1-15-1-1-1v-17z" fill="#3ED409"/>
<path transform="translate(200,516)" d="m0 0h22v23h-22z" fill="#036A03"/>
<path transform="translate(530,209)" d="m0 0h22v118l23-1v50h17v2h-16l-3-1-1-48h-20l-3-5v-104l1-9h-21z" fill="#030E05"/>
<path transform="translate(291,470)" d="m0 0h21v23h-19l-3-2v-19z" fill="#03A503"/>
<path transform="translate(736,284)" d="m0 0h23l1 3-1 18-8 1h-14l-2-4z" fill="#3ED409"/>
<path transform="translate(312,209)" d="m0 0h24v23l-4-1-10-1h-8l-2-7 1-11h-2z" fill="#02220A"/>
<path transform="translate(311,421)" d="m0 0h1v24h-23v-23h15l5 3 1 1v-4z" fill="#03A503"/>
<path transform="translate(709,352)" d="m0 0h24l-2 16-2 1-1 6h-19z" fill="#03A403"/>
<path transform="translate(596,444)" d="m0 0 20 1v24l-12 1h-7l-1-1z" fill="#036B03"/>
<path transform="translate(819,376)" d="m0 0h23v21l-23 1z" fill="#02220A"/>
<path transform="translate(615,329)" d="m0 0h1l1 46h21l1 2h-3l1 7h-2l-1 8-2 3-11 2-4-3-2-13-1-16-1-34z" fill="#022904"/>
<path transform="translate(245,376)" d="m0 0h21l1 1v22l-22-1z" fill="#03A403"/>
<path transform="translate(223,376)" d="m0 0h22v22h-22z" fill="#3ED409"/>
<path transform="translate(730,822)" d="m0 0h18l1 1v23h-20v-22z" fill="#02220A"/>
<path transform="translate(854,158)" d="m0 0h2v18l-2 7-3-1h-18v-20l1-1 18-1z" fill="#02220B"/>
<path transform="translate(457,36)" d="m0 0h22v1l-20 1v219h-2z" fill="#020E05"/>
<path transform="translate(663,354)" d="m0 0h19v1h-18l1 1h19v20h-22v-21z" fill="#03A503"/>
<path transform="translate(759,233)" d="m0 0h24v4l-4 3-1 7-2 6-3 3-14 1z" fill="#02210A"/>
<path transform="translate(295,587)" d="m0 0h9l5 2 2 2v13l-1 3-2 1h-19l-1-1v-15l2-4z" fill="#023C03"/>
<path transform="translate(554,563)" d="m0 0h19v16l-2 6-15 1-3-5v-15z" fill="#03A503"/>
<path transform="translate(684,136)" d="m0 0h24v147l-3-1 1-144h-20v39h-2z" fill="#020E05"/>
<path transform="translate(456,263)" d="m0 0h1v161l-1-2h-23l1-2 9-1 7 1v-2l4-1 1-3v-18l-3 1-1-5h2l-2-8 1-5 2-1 1-5v-108z" fill="#022B03"/>
<path transform="translate(527,609)" d="m0 0h1v19l2 1-2 1h-20l-1-3v-13l1-3 3-1z" fill="#023C03"/>
<path transform="translate(267,399)" d="m0 0 2 1 15 1 3 3 1 18-21-1z" fill="#03A503"/>
<path transform="translate(753,799)" d="m0 0h15l2 1 2 18-1 3h-19v-3-18z" fill="#02220B"/>
<path transform="translate(711,847)" d="m0 0 16 1 1 19 1 2h-18l-2-1-1-18z" fill="#02220B"/>
<path transform="translate(672,587)" d="m0 0h10l3 4v10l-2 5-1 1h-9l-5 1-4-2-1-4h2l-1-2v-6l3-5z" fill="#023C03"/>
<path transform="translate(217,118)" d="m0 0h21v16l-4 1h-13l-3-1z" fill="#02220B"/>
<path transform="translate(527,562)" d="m0 0v3l-5 2h-15v8l1 2v7l-2 4-6 1h-9l-5 1v25l-2 13-2 1v-43h22l1-22 6-1z" fill="#022A04"/>
<path transform="translate(268,375)" d="m0 0h20v1h-19l1 4v14l-1 4 21 1 2 2 1 16 3 2h12l3 3v22l-2-2v-16l-5-3h-14l-3-4-1-15-2-2-15-1-2-2v-21z" fill="#038203"/>
<path transform="translate(337,585)" d="m0 0h22l6 4-1 18 21 1v19h-1l-1-14h-12l-10-4-2-1-1-16-3-3h-14l-4-2z" fill="#022D03"/>
<path transform="translate(290,282)" d="m0 0h21l1 38v77l-2-1-1-4v-7l1-2v-15l-1-32v-50l-13-1-5-1z" fill="#022F03"/>
<path transform="translate(409,377)" d="m0 0 3 2 1 87-3 5-2 1-14 1-9-3v-1h24z" fill="#022E03"/>
<path transform="translate(291,871)" d="m0 0 42 1 2 1 1 22h-46v-22zm7 2-3 1v2h-3l-1 13v4h42v-13l-2-6-13-1z" fill="#020E05"/>
<path transform="translate(433,422)" d="m0 0h8l-2 3h-2v7h-2l1 78 2 3 9 2 4 1-5 2-13-1z" fill="#023C03"/>
<path transform="translate(222,517)" d="m0 0 2 2 1 16 16 1h24v2l2 1h-44v22l-3-2v-12l-2-4-2-1-14-1-2-2h22z" fill="#023203"/>
<path transform="translate(537,589)" d="m0 0 7 2 1-1h2l1 17-4 2h-8l-3-2v-15l1-2z" fill="#03A503"/>
<path transform="translate(595,472)" d="m0 0h1v21h-22v44l-1 2h-12l-1-2 10-2v-10l1-14v-16h2l1-4 1-1 17-1 2-1z" fill="#022E03"/>
<path transform="translate(288,582)" d="m0 0 4 3h14l6 2v21l-1 1h-23l1-2h21v-16l-2-2-4-1h-14l-2 4-1-2-28-2h-10l-2-1v-2h41z" fill="#022A04"/>
<path transform="translate(434,517)" d="m0 0h23v45l-1 1h-22l-1-2v-21l3 3 1 18h14l3-3v-39l-4 1h-8l-8-2z" fill="#023003"/>
<path transform="translate(527,588)" d="m0 0h1v21l-1 1-19 1v19h64l-1 2h-44l-20-1-3-7 1-9 2-5 2-2 17-1z" fill="#022A04"/>
<path transform="translate(798,492)" d="m0 0 19 1-1 2h-15l-3 5-1 12-5 5-13 1-5 5v10l-1 5-4 1-16 1-3 4-1 16h-1v-21l4-2 15-1 3-3 1-3 1-13 1-1 13-1h5l4-4 1-15z" fill="#022A04"/>
<path transform="translate(384,493)" d="m0 0 1 3 3 1v15l1 1h17l4 2 1 7v15h19l2 2h-24v-23h-23l-1-1z" fill="#022B03"/>
<path transform="translate(507,136)" d="m0 0h21v72l-2-1-1-14v-55h-16z" fill="#020E05"/>
<path transform="translate(336,445)" d="m0 0 2 4v16l20 1 4 4 2 20 20 1v2h-24v-24h-24z" fill="#023103"/>
<path transform="translate(434,258)" d="m0 0 22 1v2h-20l4 3-3 2-1 14v92l-2 1z" fill="#040F06"/>
<path transform="translate(101,445)" d="m0 0h32v21l-4 1 1-11h2l-1-8h-28v19l28 1-1 2h-29z" fill="#020E05"/>
<path transform="translate(660,374)" d="m0 0 2 2v23h-22v22l-24 1v-2l8-1h14l-1-13-1-9 3-2 3 1h13l3-1 2 1-1-6h-3v-3h3z" fill="#023203"/>
<path transform="translate(615,329)" d="m0 0h1l1 46h21l-4 2-10 2 1 8-10-6-1-16-1-34z" fill="#022A04"/>
<path transform="translate(385,329)" d="m0 0 3 2 1 4v39l8-1 9 1 1 2h-22z" fill="#022E03"/>
<path transform="translate(458,564)" d="m0 0h22l2 2v16l-1 4h-23l-1-3v-17zm5 2-3 2v14l4 3h14l2-2v-9l-1-3v-5z" fill="#022A03"/>
<path transform="translate(132,469)" d="m0 0h20l7 1v1h-23l-1 1-1 19 20 1 1 1v20l4 1-3 2h-3v-22h-21z" fill="#020E05"/>
<path transform="translate(528,224)" d="m0 0h1l1 47v33l-1 20 3-1 15 3v2l-15 1-4-2z" fill="#022A03"/>
<path transform="translate(268,516)" d="m0 0h21l1 3v20l6-1 15 1 1 1v23h-1l-1-20h-15l-6-3-1-1-1-20h-12l-7-2z" fill="#022E03"/>
<path transform="translate(288,187)" d="m0 0h1v15h2l4 4 9 1v1l-15 1v72h-1l-1-17v-51l-7-2-1-1-12-1v-1h21z" fill="#022C03"/>
<path transform="translate(109,274)" d="m0 0h49v22l-2-2-1-4 1-2v-8l-1-4h-43l-1 23 21 1v1h-23z" fill="#030E05"/>
<path transform="translate(726,844)" d="m0 0 3 1v23l-2-1v-19h-18l1 18-1 2 20 1v2l-24 1 1-4 1-21 2-1 17-1z" fill="#051005"/>
<path transform="translate(312,445)" d="m0 0h24v24h-8l3-2 1-11v-8l-9 1h-8l-2 6h-1z" fill="#037903"/>
<path transform="translate(637,287)" d="m0 0h2v41l-15-1v-1l10-1 1-5v-32z" fill="#022A03"/>
<path transform="translate(735,352)" d="m0 0h21l-2 1-1 3-13 3h-3v18l-1 22h-1z" fill="#022E03"/>
<path transform="translate(685,232)" d="m0 0 3 1-1 24-1 6 1 17-1 26-3-1 1-48z" fill="#023203"/>
<path transform="translate(781,237)" d="m0 0h2v21l-22 1-2 2 1-5 15-1 3-11v-5z" fill="#023003"/>
<path transform="translate(432,422)" d="m0 0h1v95h-1l-2-8v-12l1-6v-26l-1-4v-10l1-4z" fill="#022A04"/>
<path transform="translate(386,326)" d="m0 0h23v48h-2l-1-22v-24h-20z" fill="#020E05"/>
<path transform="translate(289,400)" d="m0 0 3 1 1 16 3 2h12l3 3v22l-2-2v-16l-5-3h-14l-1-1z" fill="#022A04"/>
<path transform="translate(221,375)" d="m0 0 2 1v40l-3 1v-32l-1-1v-6h-18l-1-2z" fill="#022D03"/>
<path transform="translate(594,327)" d="m0 0h22l-2 2h-17v43l-1 2 2 1h-3l-1-2z" fill="#030E05"/>
<path transform="translate(777,305)" d="m0 0 6 1-4 3-16 1-1 37-1 5-2-2 1-44z" fill="#022F03"/>
<path transform="translate(505,136)" d="m0 0h2l1 6-1 18v47h18v1h-20z" fill="#022E03"/>
<path transform="translate(480,39)" d="m0 0h1v35h24v22h-2l-1-19-21-1-2-2v-34z" fill="#020E05"/>
<path transform="translate(757,353)" d="m0 0h2v68h-8v-2l7-1-1-2z" fill="#020E05"/>
<path transform="translate(201,326)" d="m0 0h45v21l-2 4-1-7v-16h-41z" fill="#020E05"/>
<path transform="translate(216,116)" d="m0 0h24l1 20h-25zm1 2 1 16 3 1h13l4-1v-16z" fill="#031305"/>
<path transform="translate(733,284)" d="m0 0 2 1v19l-1 1h-25l1-2 12-1 3-5 1 4h4l1-15z" fill="#022C03"/>
<path transform="translate(661,234)" d="m0 0h1l1 41h1v7h-24l1-2 18-1 1-13-1-10 1-5v-16z" fill="#022D03"/>
<path transform="translate(267,847)" d="m0 0h21l1 2v22h-22zm8 1-7 1v20h20v-13l-1-5h-2v-2z" fill="#020E05"/>
<path transform="translate(245,822)" d="m0 0h20l2 2v17l-2 1-1-17h-10l-7-1v16l1 2h-2v2h17v1h-18z" fill="#030E05"/>
<path transform="translate(200,328)" d="m0 0 2 1 1 19 1 2 2-2 18 1 1 1 19 1v1h-44z" fill="#022D03"/>
<path transform="translate(782,307)" d="m0 0h1v45h-22v-2h20l-1-41h2z" fill="#030E05"/>
<path transform="translate(846,397)" d="m0 0h18v2l-7 1h-13l1 22-2 18h-1v-42z" fill="#022C03"/>
<path transform="translate(336,233)" d="m0 0h1l2 7v15l-1 1-1 24 21-1v3h-22z" fill="#022904"/>
<path transform="translate(311,184)" d="m0 0h1v26l-1 2h2v11l1 6h14l5 2v1h-23l-1-23 1-1z" fill="#022D03"/>
<path transform="translate(245,470)" d="m0 0h22v46l-2-4v-21l-1-17-1-1-14-1z" fill="#022B04"/>
<path transform="translate(360,285)" d="m0 0h2l1 6v34l4-1h9l9 1-1 2h-23l-1-26z" fill="#022C03"/>
<path transform="translate(596,608)" d="m0 0h12v1l-9 1-2 7-2 12-5 2h-14l-1-3 14-1 3-3 2-10z" fill="#022A04"/>
<path transform="translate(192,352)" d="m0 0h8v22h-2v-14l-1-2-14-1-2-4z" fill="#022C03"/>
<path transform="translate(615,423)" d="m0 0h1v22h-19l-1-2 7-1h7v-7h3l1-10z" fill="#023003"/>
<path transform="translate(595,472)" d="m0 0h1v21h-22v19h-1l-1-15-1-2h2l1-4 1-1 17-1 2-1z" fill="#023303"/>
<path transform="translate(616,281)" d="m0 0 16 1v1l-12 1-2 3v40h-2z" fill="#030E05"/>
<path transform="translate(337,585)" d="m0 0h22l2 6v17h-2l-1-16-3-3h-14l-4-2z" fill="#022C03"/>
<path transform="translate(832,159)" d="m0 0h21l-1 2-18 1-1 20 19-1v2l3-1v2h-23z" fill="#020E05"/>
<path transform="translate(770,448)" d="m0 0h2v21h-23l-1 2 1-4 3-1h17z" fill="#023203"/>
<path transform="translate(795,423)" d="m0 0h1v23h-21l1-3h9l7-1 1-1v-13z" fill="#022A04"/>
<path transform="translate(361,445)" d="m0 0h24v23l-2-2-1-16-2-2h-19z" fill="#023303"/>
<path transform="translate(433,422)" d="m0 0h8l-2 3h-2v7h-2v32l-2 1z" fill="#024A03"/>
<path transform="translate(368,282)" d="m0 0h17v43h-2v-41l-15-1z" fill="#021005"/>
<path transform="translate(820,444)" d="m0 0h19v1h-11v2l-5 1-1 2-2 40h-1v-45z" fill="#023503"/>
<path transform="translate(336,421)" d="m0 0h24l1 1v23l-2-2-2-20h-20z" fill="#023003"/>
<path transform="translate(324,396)" d="m0 0h11l1 2v21h-1l-2-16-1-2-20-1v-2l12-1z" fill="#022A04"/>
<path transform="translate(661,182)" d="m0 0 24 1-3 3-18-1-1 47h-1z" fill="#071309"/>
<path transform="translate(804,229)" d="m0 0 5 3 1 1-1 23-2 1v-25h-23v-2z" fill="#023003"/>
<path transform="translate(357,232)" d="m0 0h3v48l-2-3v-38l-1-2 1-3h-6v-1z" fill="#020E05"/>
<path transform="translate(268,539)" d="m0 0 3 3 1 17 13 1 3 1v2l-18-1-2-2z" fill="#022A04"/>
<path transform="translate(709,422)" d="m0 0h24v1l-18 2-3 2-1 19-2 1z" fill="#023103"/>
<path transform="translate(456,399)" d="m0 0h1v25l-1-2h-23l1-2 9-1 7 1v-2l4-1 1-3z" fill="#022C03"/>
<path transform="translate(200,377)" d="m0 0 2 1v41l6 1v1h-8z" fill="#020E05"/>
<path transform="translate(617,375)" d="m0 0h21l-4 2-10 2 1 8-8-5-1-6z" fill="#023C03"/>
<path transform="translate(200,539)" d="m0 0h20l2 1 1 21-3-2v-12l-2-4-2-1-14-1z" fill="#022904"/>
<path transform="translate(840,446)" d="m0 0h2v48l-21-1v-2l19-1z" fill="#051107"/>
<path transform="translate(660,374)" d="m0 0 2 2v23h-22v-1l13-1 5-2 2 1-1-6h-3v-3h3z" fill="#023E03"/>
<path transform="translate(759,233)" d="m0 0h24v2h-22l1 5-1 16-2 1z" fill="#020F05"/>
<path transform="translate(336,445)" d="m0 0 2 4v16l14 1 5 2v1h-21z" fill="#022C03"/>
<path transform="translate(771,540)" d="m0 0 2 2 1 21-1 1h-24v2h-2l2-4h21l1-1z" fill="#051108"/>
<path transform="translate(312,209)" d="m0 0h24v22l-2-1v-19h-22z" fill="#030E05"/>
<path transform="translate(841,376)" d="m0 0h1v21l-19 1v-3h15l1-4v-13h2z" fill="#022D03"/>
<path transform="translate(248,351)" d="m0 0h20v25l-2-1v-22h-19z" fill="#021905"/>
<path transform="translate(772,422)" d="m0 0h24l-2 2h-20v12l1 6-1 3h-2z" fill="#020E05"/>
<path transform="translate(312,563)" d="m0 0h24l1 3v19h-1l-1-9v-11l-20 1-3-1z" fill="#023103"/>
<path transform="translate(818,398)" d="m0 0h1v23l-1 1h-19l1-2 15-1 1-3 1-15z" fill="#022D03"/>
<path transform="translate(684,327)" d="m0 0h1v29l-10 1-10-1-1 2-1-3-1-2 21-1z" fill="#036B03"/>
<path transform="translate(147,325)" d="m0 0h7l5 3v23h9v1h-11v-24h-8l-3-2z" fill="#020F05"/>
<path transform="translate(310,352)" d="m0 0h2v45l-2-1-1-4v-7l1-2z" fill="#022A04"/>
<path transform="translate(200,540)" d="m0 0 3 4v18h17l1 2h-21z" fill="#020E05"/>
<path transform="translate(784,258)" d="m0 0h22l-2 3-19 1v12h-1z" fill="#022E03"/>
<path transform="translate(748,446)" d="m0 0h23l-1 2h-20v19l-2 1z" fill="#020E05"/>
<path transform="translate(819,376)" d="m0 0h22l-3 2-16 1-1 16h-2z" fill="#021005"/>
<path transform="translate(244,352)" d="m0 0 2 1 2 9 1 10 1 3h14v1h-19z" fill="#024903"/>
<path transform="translate(730,822)" d="m0 0h18l-4 2-12 1-1 17 2 1-4 1v-20z" fill="#030E05"/>
<path transform="translate(359,586)" d="m0 0 5 2 1 4-1 15 2 1h-5l-1-17z" fill="#024103"/>
<path transform="translate(240,563)" d="m0 0h5v12l-3-2-2-6-15-1-1-2z" fill="#022B03"/>
<path transform="translate(290,540)" d="m0 0h22v23h-1l-1-20h-15l-5-2z" fill="#022A04"/>
<path transform="translate(268,375)" d="m0 0h20v1h-19l1 4v14l-1 4-1 2-1-1v-21z" fill="#025003"/>
<path transform="translate(268,391)" d="m0 0 1 3 18 2 1 3h-19l-1-1z" fill="#022A04"/>
<path transform="translate(640,352)" d="m0 0h17l-1 2-11 1-1 5-2 1-1 6h-1z" fill="#022A04"/>
<path transform="translate(288,184)" d="m0 0h23v24h-1l-1-21-20-1z" fill="#030E05"/>
<path transform="translate(747,472)" d="m0 0h1v22h-13l1-2 9-2 1-9z" fill="#022E03"/>
<path transform="translate(244,437)" d="m0 0h1v32l-3-4v-15z" fill="#023003"/>
<path transform="translate(683,327)" d="m0 0h1l-1 24-1 1h-10l3-9h2l2 7 2 1 1-22z" fill="#022A04"/>
<path transform="translate(335,895)" d="m0 0 12 1-1 2h-6l-2 1-1 16-1 5h-1z" fill="#033304"/>
<path transform="translate(409,526)" d="m0 0h1l1 11h19l2 2h-24v-12z" fill="#022A04"/>
<path transform="translate(818,494)" d="m0 0h1v22h-21v-1l18-1 1-19z" fill="#020E05"/>
<path transform="translate(864,371)" d="m0 0h2l1 4h-25v-1l7-2h8z" fill="#022904"/>
<path transform="translate(531,323)" d="m0 0 16 3v2l-15 1-3-1v-4z" fill="#023003"/>
<path transform="translate(401,513)" d="m0 0 7 1 2 1 1 7-2 5h-1v-11h-23l2-2h13z" fill="#023103"/>
<path transform="translate(661,234)" d="m0 0h1v33l-2-1-1-10 1-5v-16z" fill="#022A04"/>
<path transform="translate(222,422)" d="m0 0h23v14l-1-4h-2l-1-7-1-1h-16l-2 1z" fill="#032C04"/>
<path transform="translate(289,421)" d="m0 0h22v23l-2-2v-16l-5-3h-14z" fill="#036A03"/>
<path transform="translate(216,116)" d="m0 0 3 1-1 3v14l16 1v1h-18z" fill="#020F05"/>
<path transform="translate(245,587)" d="m0 0 2 1 1 20 11 1v1h-14z" fill="#113E06"/>
<path transform="translate(797,398)" d="m0 0h11l-1 2h-8v18l-2 1z" fill="#020E05"/>
<path transform="translate(685,232)" d="m0 0 3 1-1 24-2 3z" fill="#022A04"/>
<path transform="translate(201,352)" d="m0 0h6l-3 3-1 3-1 15 18 1v1h-19z" fill="#036B03"/>
<path transform="translate(708,311)" d="m0 0h1v17l-24-1 2-2 19 1z" fill="#024E03"/>
<path transform="translate(200,328)" d="m0 0 2 1 1 19 1 4h-4z" fill="#022A03"/>
<path transform="translate(178,354)" d="m0 0h2l1 18 4 4h-7z" fill="#060E05"/>
<path transform="translate(245,820)" d="m0 0 23 1v24l-2-4v-17l-1-1-20-1z" fill="#A81C0D"/>
<path transform="translate(434,517)" d="m0 0h20l2 2v9h-1l-1-9-4 1h-8l-8-2z" fill="#022A04"/>
<path transform="translate(481,98)" d="m0 0h3v2l3 1-3 3-1 14h-1l-1-5z" fill="#0A7C03"/>
<path transform="translate(480,600)" d="m0 0h2v25l-2 1-1-3z" fill="#024303"/>
<path transform="translate(311,184)" d="m0 0h1v26l-1 22h-1l-1-23 1-1z" fill="#035805"/>
<path transform="translate(684,136)" d="m0 0h20l-1 2h-17v5l-2 1z" fill="#021406"/>
<path transform="translate(353,279)" d="m0 0h5v3h-22v-2z" fill="#022F03"/>
<path transform="translate(781,269)" d="m0 0h1v35l-2 1-7-1v-1h7z" fill="#036A03"/>
<path transform="translate(712,422)" d="m0 0h21v1l-18 2-5 2 1-4z" fill="#022904"/>
<path transform="translate(221,375)" d="m0 0 2 1v21h-1l-1-16-1-3-18-1v-1z" fill="#025103"/>
<path transform="translate(154,495)" d="m0 0h1v18l4 1-3 2h-3v-20z" fill="#030E05"/>
<path transform="translate(134,492)" d="m0 0h20v4l-1-2h-21z" fill="#021305"/>
<path transform="translate(198,519)" d="m0 0h2v17h-2l-1-2v-11z" fill="#023003"/>
<path transform="translate(289,408)" d="m0 0h1v10l6 1h12l2 2h-21z" fill="#023C03"/>
<path transform="translate(842,351)" d="m0 0h7l-3 3h-2v14l-2 1z" fill="#0F2210"/>
<path transform="translate(866,326)" d="m0 0 4 1-1 1-1 18-2 1z" fill="#0E1D10"/>
<path transform="translate(183,324)" d="m0 0h12l4 1v2h-20l1-2z" fill="#023003"/>
<path transform="translate(242,798)" d="m0 0 2 1 1 14-1 5-2-1z" fill="#030E05"/>
<path transform="translate(224,586)" d="m0 0h20v3l-20-1z" fill="#072605"/>
<path transform="translate(595,444)" d="m0 0h1v24h-1l-1-5-1-17h2z" fill="#022A04"/>
<path transform="translate(776,443)" d="m0 0h8l4 1 7 1 1-2v3h-21z" fill="#023303"/>
<path transform="translate(710,306)" d="m0 0 5 2-2 2-1 15-2 2z" fill="#04A403"/>
<path transform="translate(728,590)" d="m0 0 4 1v18l-4-1h2l-1-16z" fill="#021807"/>
<path transform="translate(480,241)" d="m0 0h1v22l-2-4-16-1v-1l16-1z" fill="#022E03"/>
<path transform="translate(332,399)" d="m0 0h4v20h-1l-2-16z" fill="#022A04"/>
<path transform="translate(777,305)" d="m0 0 6 1-4 3h-11l2-3z" fill="#022D04"/>
<path transform="translate(667,229)" d="m0 0 16 1 2 2h-21z" fill="#022A04"/>
<path transform="translate(454,388)" d="m0 0 2 1 1 3v7l-2 1v-4l-3 1-1-5h2z" fill="#022904"/>
<path transform="translate(622,417)" d="m0 0h17l-1 3h-14l-4-2z" fill="#022A04"/>
<path transform="translate(253,372)" d="m0 0 13 2 2 4-4-2-14-1v-2z" fill="#022D03"/>
<path transform="translate(867,376)" d="m0 0 2 3 1 14-1 2h-2z" fill="#022A04"/>
<path transform="translate(247,377)" d="m0 0h18l1 1v16h-1l-1-14-1-1-16-1z" fill="#036A03"/>
<path transform="translate(794,536)" d="m0 0 3 1-1 3-20-1v-1z" fill="#09180D"/>
<path transform="translate(854,158)" d="m0 0h2v18l-1 6h-1l-1-23z" fill="#18480C"/>
<path transform="translate(240,795)" d="m0 0 5 1v10h-1l-1-7-1-1-19-1v-1z" fill="#AB1E0D"/>
<path transform="translate(361,445)" d="m0 0h10l2 1v2h-12z" fill="#022C03"/>
<path transform="translate(187,337)" d="m0 0h2l1 7-1 3-3-1v-7z" fill="#03A503"/>
<path transform="translate(759,262)" d="m0 0h1l2 18-1 2h-2z" fill="#036A03"/>
<path transform="translate(268,391)" d="m0 0 2 3 1 3 17 1v1h-19l-1-1z" fill="#023C03"/>
<path transform="translate(663,304)" d="m0 0 1 2h16v1l-16 1-1 9h-1v-11z" fill="#023C03"/>
<path transform="translate(390,470)" d="m0 0h18v2l-14 1-5-1z" fill="#022A04"/>
<path transform="translate(795,423)" d="m0 0h1v17l-2-4-1-8z" fill="#022D03"/>
<path transform="translate(536,583)" d="m0 0h10l1 2-3 1h-14v-1z" fill="#023203"/>
<path transform="translate(616,281)" d="m0 0 16 1v1l-12 1-1 2h-3z" fill="#021205"/>
<path transform="translate(758,261)" d="m0 0h1v21h-3l1-9z" fill="#023C03"/>
<path transform="translate(268,610)" d="m0 0h1l1 6-1 8h-2v-11z" fill="#020E05"/>
<path transform="translate(242,422)" d="m0 0h3v14l-2-4z" fill="#023C03"/>
<path transform="translate(324,396)" d="m0 0h11l1 3h-8z" fill="#023C03"/>
</svg>
