<?xml version="1.0" encoding="UTF-8"?>
<svg version="1.1" viewBox="0 0 1024 1024" width="1024" height="1024" xmlns="http://www.w3.org/2000/svg">
<path transform="translate(414,169)" d="m0 0h193l1 1v30h63l1 31h30l1 1v93h127l-1 31 31-1 1 1v31l4-1h26l1 1v63h30v158h-30v32h-31v32h-32l1 30-1 1h-190v32l-31-1v32l-194 1v-33h-31l-1-7 1-24h-190v-31h-31v-32h-32v-32h-30l-1-3 1-124h29l1-31h32v-63h30l1-32h31v-30l4-1 92 1v-94h31l-1-29 1-2 62-1zm0 31v32h-63v124h32v31l1 1h84l9-1 3-2v-15l-1-15 55-1 7-1 2-2v-25l8-2 17-1 6-2 1-1 1-88-7-1h-25v-24l-1-2-20-1-7-2-1-1-33-1zm288 156v31h-62l-1 1v32l-24-1h-39v33h-12l-9-1h-9l-1 1v16l2 2 6 1 3-5 1-3h5l3-6 5 1 1-4 3-1v4l4 2v3l-4 1 5 3 2-4 1 2 3-1 1-3 4-1v2l4 1 3-1 1 7-6 1-2 4-2 1 1 4v3l-2 6-2 2v8l3 8h2l2 9h4l2-7v-2l4 1v9l3 4 3 7 3 4-1 4v4l1 4h21l4-1 1-2-1-9-4-1h-8l-2 5 1 2-3-1-1-9 2-5 1-1 2 8h1l2-7h6l1 7 2-4 1-8 2-3h24l12-1-2-2 2-4 9 1 4 5 3 1h10l2-1v-23l-1-10 2 1h61l2-2v-28h28l4-2 1-81-1-11zm-476 30-3 5v26l-16 1-14-1v33h-31v32l-2-1h-24l-6 1v62l1 2 1 29 2 2h7l6-2-1-6-1-11-5-5-3-4h-2l1-2 3-1 20-1 1 1 1 30 1 1h49l73-1 3-1 1-4v-26l31-1 1-7v-25l6 1h15l28-1 7-1 3-5-1-5v-7l2-5 5-2 4-4 13-6h2v-2h3v-2l4 1 4-12v-11l-1-1h-30l-1-31h-32v-32l-33-1zm-33 14v10l2-1v-7zm385 68-5 3-2 9-2 4v9l2 2 2-1 2 5h3l2-4 3-15v-9zm-443 121m-1 5-1 4 3 6h-3l1 3v-2h4l-1-4 2-4h-3l-1-3zm28 2v6l2 3h6v-5l-4-4zm-21 8m25 16-3 8-1 8 1 3h11l2-3-4-2-2-8h-2l-1-6z" fill="#EAD4C8"/>
<path transform="translate(414,169)" d="m0 0h193l1 1v30h62v1h-62v31h63v124h31l1 31-1 1h-62v30l-1 2h-24l-39-1 1 31-1 2-12 1-9-1h-9v16l5 2 3-1 3-7h5l2-5 2-2v2l4 1 1-5h3l1 3 4 2-1 4-3 1 4 2 2-5 1 4 2-1 2-4h4v2h7l1-2v9l-6 1-1 5h-3l2 3v3l-1 6-3 3v8l2 5v3h2l2 5 1 4 3-1 2-8 4 1 1 4-1 5 2 1 5 10 4 4h-2l1 6-1 3v3l17-1h8v-8l-2-3h-10l-1 6-4-1-1-9 3-7 2 1 1 4 3-4 6 1 2 3 1-8 3-4h24l10-1-4-2h5l1-4 10 1 2 4 4 2h12l-1-23v-10h63l1-4v-25l1-1h28l3-1 1-69h1v9l30-1 1 72v54l-2 1h-29v30h-34v32h-95v32h-32v32h-32v32h-160v-32h-33v-64h-30l-1-7v-51l-1-4-41-1v-1l35-1 2-5-1-5v-7l3-6 4-2 5-4 13-6 2 1v-2h3v-2l4-1 3-10v-11h-30l-1-1v-31h-32v-32h-125l-2 4v26l-1 1-16 1-11-1-3-1v33h-31v-63h30l1-32h31v-30l4-1 92 1v-94h31l-1-29 1-2 62-1zm0 31v32h-63v124h32v31l1 1h84l9-1 3-2v-15l-1-15 55-1 7-1 2-2v-25l8-2 17-1 6-2 1-1 1-88-7-1h-25v-24l-1-2-20-1-7-2-1-1-33-1zm-221 200v10l2-1v-7zm385 68-5 3-2 9-2 4v9l2 2 2-1 2 5h3l2-4 3-15v-9z" fill="#FEF3DE"/>
<path transform="translate(799,379)" d="m0 0h1v9l30-1 1 72v54l-2 1h-29v30h-34v32h-95v32h-32v32h-32v32h-160v-32h-33v-64h-30l-1-7v-51l-1-4-41-1v-1l35-1 2-5-1-5v-7l3-6 4-2 5-4 13-6 2 1v-2h3v-2l4-1 3-10 1-9h1v29h128v-31l2 1v16l5 2 3-1 3-7h5l2-5 2-2v2l4 1 1-5h3l1 3 4 2-1 4-3 1 4 2 2-5 1 4 2-1 2-4h4v2h7l1-2v9l-6 1-1 5h-3l2 3v3l-1 6-3 3v8l2 5v3h2l2 5 1 4 3-1 2-8 4 1 1 4-1 5 2 1 5 10 4 4h-2l1 6-1 3v3l17-1h8v-8l-2-3h-10l-1 6-4-1-1-9 3-7 2 1 1 4 3-4 6 1 2 3 1-8 3-4h24l10-1-4-2h5l1-4 10 1 2 4 4 2h12l-1-23v-10h63l1-4v-25l1-1h28l3-1zm-221 89-5 3-2 9-2 4v9l2 2 2-1 2 5h3l2-4 3-15v-9z" fill="#FDF3DE"/>
<path transform="translate(670,200)" d="m0 0h1l1 31h30l1 1v93h127l-1 31 31-1 1 1v31l4-1h26l1 1v63h30v158h-30v32h-31v32h-190l-32-1v-63h32v-32h95v-32h34l-1-16v-9l1-5 30-1v-54l-1-71h-29l-1-32-4 1-124-1v-124h-63v-31z" fill="#E9D4C7"/>
<path transform="translate(544,451)" d="m0 0 2 1v16l5 2 3-1 3-7h5l2-5 2-2v2l4 1 1-5h3l1 3 4 2-1 4-3 1 4 2 2-5 1 4 2-1 2-4h4v2h7l1-2v9l-6 1-1 5h-3l2 3v3l-1 6-3 3v8l2 5v3h2l2 5 1 4 3-1 2-8 4 1 1 4-1 5 2 1 5 10 4 4h-2l1 6-1 3v3l17-1h8v-8l-2-3h-10l-1 6-4-1-1-9 3-7 2 1 1 4 3-4 6 1 2 3 1-8 3-4h24l10-1-4-2h5l1-4 10 1 2 4 9 3v1h-56l-1 30h-31v24l-1 8h-31v31l-1 1h-161v-32h-30l-1-7v-51l-1-4-41-1v-1l35-1 2-5-1-5v-7l3-6 4-2 5-4 13-6 2 1v-2h3v-2l4-1 3-10 1-9h1v29h128zm34 17-5 3-2 9-2 4v9l2 2 2-1 2 5h3l2-4 3-15v-9z" fill="#FEFEFE"/>
<path transform="translate(130,450)" d="m0 0h32v32h-32l1 62 1 2 1 29 1 1h7l5-1-2-12 1-5-4-2-4-6-2-1 1-3 3-1 20-1 2 2 1 30h49l76-1v-30l1-1h31v-30l1-2 62 1 2 5v58h8v1h-40l-1 30-63 1v32l-94 1-64-1v-32h-30l-1-3 1-124h29zm5 139m-1 5-1 4 3 6h-3l1 3v-2h4l-1-4 2-4h-3l-1-3zm28 2v6l2 3h6v-5l-4-4zm-21 8m25 16-3 8-1 8 1 3h11l2-3-4-2-2-8h-2l-1-6z" fill="#FDF3DE"/>
<path transform="translate(414,169)" d="m0 0h193l1 1v30l-126 1-68-1v32h-63v123h-126l-1-30 4-1 92 1v-94h31l-1-29 1-2 62-1z" fill="#D04C7B"/>
<path transform="translate(383,703)" d="m0 0h256v32l-31-1v32l-194 1v-33h-31l-1-7z" fill="#DFA6B3"/>
<path transform="translate(608,232)" d="m0 0h63v124h31l1 31-1 1h-62v30l-1 2h-24l-39-1v-32h31v-31h32v-92l-31-1z" fill="#E9D4C7"/>
<path transform="translate(670,200)" d="m0 0h1l1 31h30l1 1v93h127l-1 32h-34l-124-1v-124h-63v-31z" fill="#99295D"/>
<path transform="translate(829,577)" d="m0 0h30l1 1 1 31v30l-1 1-30 1v30h30l1-3v4h-190l-32-1v-31l1-1h31l127 1v-24l1-8h30z" fill="#E2BBBB"/>
<path transform="translate(860,452)" d="m0 0h31v154h-29v2h30v32h-31v28l-1 3h-30l-1-31 31-1z" fill="#E2BABA"/>
<path transform="translate(416,734)" d="m0 0h107l85 1v31l-194 1v-32z" fill="#B43369"/>
<path transform="translate(639,671)" d="m0 0h32l158 1 1 30-1 1h-190z" fill="#B6386C"/>
<path transform="translate(351,671)" d="m0 0h31l1 1v30l-1 1h-189v-31z" fill="#B6346A"/>
<path transform="translate(130,450)" d="m0 0h32v32h-32v126h-30l-1-3 1-124h29z" fill="#CD4A79"/>
<path transform="translate(892,451)" d="m0 0h30v157h-30z" fill="#B23268"/>
<path transform="translate(416,171)" d="m0 0h160v28h-161v-27z" fill="#D14B7B"/>
<path transform="translate(193,355)" d="m0 0 31 1v61l-1 1-16 1-11-1-3-1v33h-31v-63h30zm0 45v10l2-1v-7z" fill="#C54475"/>
<path transform="translate(224,355)" d="m0 0 38 1 58 1v30h-94l-2 1z" fill="#FDF2DD"/>
<path transform="translate(703,327)" d="m0 0h96v28h-87l-9-1z" fill="#B5336A"/>
<path transform="translate(492,200)" d="m0 0h178v1h-62v31h-57l-7-1-1-26-7 1-19-2-2-2-23-1z" fill="#E9D1C7"/>
<path transform="translate(865,386)" d="m0 0h26l1 1v63h-31v-63z" fill="#B13168"/>
<path transform="translate(670,200)" d="m0 0h1l1 32h-64v-31z" fill="#B23168"/>
<path transform="translate(608,640)" d="m0 0h31v63h-31z" fill="#E9D4C7"/>
<path transform="translate(860,608)" d="m0 0h32v32h-31v28l-1 3h-30l-1-31 31-1z" fill="#99255B"/>
<path transform="translate(686,231)" d="m0 0h16l1 1-1 87-2 1v-25h-28v-62h26l3 1v-2h-15z" fill="#B43269"/>
<path transform="translate(858,355)" d="m0 0 3 1-1 31-36 1h-24l-1-32h30z" fill="#EAD6C9"/>
<path transform="translate(162,387)" d="m0 0h10l4 1 16 1v60h-29v-59l3-1z" fill="#D14B7B"/>
<path transform="translate(350,202)" d="m0 0h62l1 28h-61v-26z" fill="#D04B7B"/>
<path transform="translate(414,169)" d="m0 0h193l1 1v30l-126 1-68-1v31h-63v-28l2 2v24h59v-27h-61v-2l62-1zm2 2-1 1v27h161v-28z" fill="#99265C"/>
<path transform="translate(351,671)" d="m0 0h31l1 1v30l-1 1h-189v-31zm-157 2v28h157v-27h25v-1z" fill="#A03264"/>
<path transform="translate(639,671)" d="m0 0h32l158 1v28h-1v-24l-4-1h4v-2h-157v27l156 1v1l-156 1h-32z" fill="#97245A"/>
<path transform="translate(640,639)" d="m0 0h31v30h156v-29h1v30l-189 1v-31z" fill="#DFA4B2"/>
<path transform="translate(130,544)" d="m0 0 2 2 1 29 1 1h7l5-1-2-12 1-5-4-2-4-6-2-1 1-3 3-1 20-1 2 2 1 31-14 1-2 5v4l12 5 1-6h1v19h-15v-2l-5-1-2-3 1-2h-3l-1-2-2 2v-20h-3z" fill="#FDF3DE"/>
<path transform="translate(225,355)" d="m0 0h126v32h-31v-30h-58l-37-1z" fill="#E8CFC5"/>
<path transform="translate(368,639)" d="m0 0h8l7 1v30h-183v-1h151v-29z" fill="#E1B9BA"/>
<path transform="translate(515,201)" d="m0 0h81v1l-20 1v29h-25l-7-1-1-26-7 1-19-2z" fill="#FDF2DE"/>
<path transform="translate(130,608)" d="m0 0h32v32h-32z" fill="#AE3268"/>
<path transform="translate(129,482)" d="m0 0h1v126h-30l1-2 1-1v-28h27l-1-49v-44z" fill="#B03067"/>
<path transform="translate(381,387)" d="m0 0 2 1v31h-32v-31z" fill="#E9D4C7"/>
<path transform="translate(544,419)" d="m0 0h32l1 31h-33z" fill="#EAD5C8"/>
<path transform="translate(162,640)" d="m0 0h31v31l-5 1h-26z" fill="#B03067"/>
<path transform="translate(608,703)" d="m0 0h31v32l-31-1z" fill="#97245A"/>
<path transform="translate(608,640)" d="m0 0h30v1h-29v30h28v31l-29 1z" fill="#E1B8B9"/>
<path transform="translate(858,355)" d="m0 0 3 1-1 31h-30v-31z" fill="#B23369"/>
<path transform="translate(383,704)" d="m0 0h31v30h-31l-1-7z" fill="#98265B"/>
<path transform="translate(384,420)" d="m0 0h30v30l-30 1-1-1v-29z" fill="#EAD5C8"/>
<path transform="translate(193,388)" d="m0 0h31v29l-1 1-16 1-11-1-3-1v-7l1-1v-7l-1-2z" fill="#FDF1DE"/>
<path transform="translate(828,325)" d="m0 0 2 1-1 31-32-1 2-1v-29z" fill="#96245A"/>
<path transform="translate(889,576)" d="m0 0h2v30h-29l-1 2-1-1v-30z" fill="#DFA4B2"/>
<path transform="translate(132,452)" d="m0 0h30v30l-4-1-26-1z" fill="#D14B7B"/>
<path transform="translate(350,236)" d="m0 0h1v119h-126l-1-30 4-1 15 1 77 1v1h-94v25l4 1 119 1v-117z" fill="#A02A60"/>
<path transform="translate(168,608)" d="m0 0h25v32h-31l1-4v3l11-1 1-1h17l-1-4h-8l-4 1v-2h-2l1-3 5-1h7l-2-6-4 1-1 2-9-1-2-2-2-11z" fill="#EAD5C8"/>
<path transform="translate(829,638)" d="m0 0h28v1l-27 1v31h30l1-3v4h-190l-31-1v-1h188v-31z" fill="#E5C1BF"/>
<path transform="translate(413,199)" d="m0 0h161v1l-92 1-68-1v31h-63v-28l2 2v24h59v-27h-61v-2z" fill="#A63E6B"/>
<path transform="translate(320,231)" d="m0 0h94v1h-63l-1 5-1-4-3 1h-24v90l-1 2h-78v-1h77z" fill="#BB547C"/>
<path transform="translate(640,608)" d="m0 0h31v1h-30v28l17-1v-2l-3-1 2-1-1-4 5-3 5-2 1-7h1l1 6h1l1 16h-31z" fill="#E2BBBB"/>
<path transform="translate(148,577)" d="m0 0h14l-1 29h-25l2-1-2-5 4 1 5 2v2h15l-1-13h-3l-10-4-1-5 2-3-6-1v-1z" fill="#EAD5C8"/>
<path transform="translate(686,231)" d="m0 0h16l1 1-1 87-2 1v-86l1-2h-15z" fill="#B74A75"/>
<path transform="translate(414,169)" d="m0 0 162 1v1l-160 1-1 27h-1z" fill="#97265B"/>
<path transform="translate(543,325)" d="m0 0h1v30l-26 1h-27l-10-1v-1l53-1 7-1 1-1v-25z" fill="#FEFEFE"/>
<path transform="translate(130,450)" d="m0 0h32l-1 29h-1v-27h-28v28h26v1h-28z" fill="#A84971"/>
<path transform="translate(800,356)" d="m0 0h30v31h-6l3-1v-27h-23z" fill="#E2B7BA"/>
<path transform="translate(575,250)" d="m0 0h1v74l-8 1h-22v-1l5-1 17-1 6-2z" fill="#FEFEFE"/>
<path transform="translate(670,200)" d="m0 0h1l1 32h-63v-1l60-1v-27h-2v-2z" fill="#B2376A"/>
<path transform="translate(383,704)" d="m0 0h31v21h-2v6h-1v-25h-28z" fill="#AA2E64"/>
<path transform="translate(859,578)" d="m0 0h1l1 31v30l-1 1h-30v-1l29-1z" fill="#E4BDBD"/>
<path transform="translate(515,201)" d="m0 0h31l-2 1v5l-1-2-7 1-19-2z" fill="#FEFEFE"/>
<path transform="translate(130,577)" d="m0 0h3l1 3v18l2 6h-3v4h-3z" fill="#F4E5D6"/>
<path transform="translate(766,478)" d="m0 0v3h-62v23h-1l-1-15v-10h63z" fill="#FEFEFE"/>
<path transform="translate(865,386)" d="m0 0h26l1 4-2 1v-2l-26 1-2 1v17h-1v-21z" fill="#A44170"/>
<path transform="translate(193,355)" d="m0 0 31 1v2h-30l1 27-2 2z" fill="#AB2E65"/>
<path transform="translate(678,491)" d="m0 0 3 1 1 7 1-7 3 3-1 8h-8l-2-4v-3z" fill="#FEFEFE"/>
<path transform="translate(163,668)" d="m0 0 29 1-2 1v2h-28z" fill="#BF587D"/>
<path transform="translate(101,547)" d="m0 0h1v58l2 1-3 1-2-2h2z" fill="#D77695"/>
<path transform="translate(161,452)" d="m0 0h1v30l-4-1-26-1v-1h29z" fill="#D47C98"/>
<path transform="translate(162,636)" d="m0 0 1 3 11-1 1-1h15l1 3h-29z" fill="#EAD5C8"/>
<path transform="translate(163,608)" d="m0 0 3 1v13l-2 6h-1z" fill="#EAD5C8"/>
<path transform="translate(132,577)" d="m0 0 2 3v18l2 6h-3l-1 4z" fill="#EEDBCC"/>
<path transform="translate(193,355)" d="m0 0h7l-4 3h-2l1 27-2 2z" fill="#AA4672"/>
<path transform="translate(162,387)" d="m0 0h10l12 2v1h-17v-1l-5-1z" fill="#C86A91"/>
<path transform="translate(148,627)" d="m0 0h4v6h-5v-5z" fill="#96245A"/>
<path transform="translate(162,636)" d="m0 0 1 3 11-1 2-1 2 2-2 1h-14z" fill="#F5E8DC"/>
<path transform="translate(701,449)" d="m0 0h2l-1 3z" fill="#FEFEFE"/>
<path transform="translate(610,493)" d="m0 0 2 1-2 1z" fill="#FEFEFE"/>
<path transform="translate(601,501)" d="m0 0" fill="#FEFEFE"/>
<path transform="translate(597,454)" d="m0 0" fill="#FEFEFE"/>
<path transform="translate(603,501)" d="m0 0" fill="#FEFEFE"/>
</svg>
