<?xml version="1.0" encoding="UTF-8"?>
<svg version="1.1" viewBox="0 0 1024 1024" width="1024" height="1024" xmlns="http://www.w3.org/2000/svg">
<path transform="translate(413,41)" d="m0 0h194v24h25l-1 25h26v24h147l-1 24h26v25h24v125h-25v25h-25l1 25-2 1-23-1v25l-50-1v24h75l-1 25 26-1-1 101h-25v25h-24l1 24h-2v18l25 1 1 175h-25l1 25-4 1-21-1v25l-25 1 1 25-3 1-23-1v25h-26l1 24-334 1 1-25h-26l1-25-11 1h-14v-26h-24v-26l-25 1v-26h-24v-176h50l-1-17v-25l-25 1v-26h-24v-76h24v-24l139-1v26l7-1h43v25h25v-48h-25v-25h-189v-24h-24v-25l-25 1v-26h-25v-100h25v-25l164 1v-99h25v-25h25zm120 345v100h25v-18l-1-7h24l1-26h25v-25l23 1 1-1v-24z" fill="#02210E"/>
<path transform="translate(304,603)" d="m0 0h416l32 2 2 2 1 17v32l-1 72h-25v24l-1 1h-24v26h-24v26h-49v24l-1 1h-281l-4-3v-21l-23-1-1-2v-23h-22l-2-1-1-11-2-2 1-9h-6v-1l-16-1v-2l-19 1-4-2v-21l1-3h-2v-121l1-3z" fill="#FC4501"/>
<path transform="translate(437,66)" d="m0 0h144v94l-1 3-23 1v49h-25v49l-2 1h-22v25h-46v-25h-49v75h48v24l-76 1h-136v24h-1v-24h-24v-24l23-1 1-3v-22h-24v-99h115v24h24v25l49-1 1-6v-42h-24l-1-1v-26l9 1 15-1 1-6v-91h24z" fill="#02A802"/>
<path transform="translate(413,41)" d="m0 0h194v24h25l-1 25h26v24h147l-1 23-49 1h-94l-4 1-1 23-5 1h-10l-8-1-1 4-1 14-2 7h-2v2l-18-1-1 4h-1l-1 19-5 1-16 1-2 2v22l24 1-1 2h-22l-1 25-2-1-22-1v18l-1 7-23 1-1 49h-24l-1-1-1-18-2-3v-2h-19v49h-23l-1 48-10 1h-15v-25h-188v-24l136-1h76v-24h-48l-1-26v-16l1-33h49v25h46v-25l24-1v-49h25l-1-49 1-1h23v-71l1-26h-144v24h-24l1 48v43l-2 7-16 1-7-1v25l24 1 1 26v16l-2 7h-49v-25h-24v-24h-115v99h24l1 7v15l-2 4h-48v-26h-25v-100h25v-25l164 1v-99h25v-25h25z" fill="#026202"/>
<path transform="translate(754,163)" d="m0 0h25l2 4v42l2 3h19l1 1 1 19-1 80h-25v26h-49v23l-49 1h-150l-22-1v197l-4 1h-18l-1-6v-141h-33v-1h10v-49h19l5 1v-49l3-1h14l3 3 2-4 1 25 24 1v-50h24l1-25h23l1 2v-25l1-1h22l1-1 1-25h24v-23h25v-26z" fill="#02A802"/>
<path transform="translate(301,600)" d="m0 0 329 1h146l4 2 1 5-1 144-1 1 1 26-4 1-21-1v25l-25 1 1 25-3 1-23-1v25h-26l1 24-334 1 1-25h-26l1-25-11 1h-14v-26h-24v-26l-25 1v-26h-2v-149l5-4h45zm3 3-54 1-1 3v121h2l-1 3v21l5 2 18-1v2l16 1v1h6l-1 9 2 2 1 11 2 1h22v23l1 2 23 1v21l4 3h281l1-1v-24h49v-26h24v-26h24l1-1v-24h25l1-72v-32l-1-17-2-2-32-2z" fill="#970117"/>
<path transform="translate(656,164)" d="m0 0h98v74h-25v25h-25v24h-24v26h-50v24h-71l-1-1v-48h24v-48l1-1h22l1-1 1-25h24v-23h25z" fill="#56CC02"/>
<path transform="translate(415,63)" d="m0 0 21 1 1 2v24h-24l1 48v43l-2 7-16 1-7-1v25l24 1 1 26v16l-2 7h-49v-25h-24v-24h-115v99h24l1 7v15l-2 4h-48v-26h-25v-100h25v-25l164 1v-99h25v-25l25-1z" fill="#02220E"/>
<path transform="translate(656,603)" d="m0 0h64l32 2 2 2 1 17v32l-1 72h-25v24l-1 1h-24v26h-24v26h-49v24l-1 1h-281l-4-3v-21l-1-2h262v-25h25l-1-3 1-23 24-1v-24h25v-24h24v-100h-48z" fill="#CF0F0E"/>
<path transform="translate(437,66)" d="m0 0h95v72h-24v75l-23 1-1 24h-47v-24l-23-1-1-24v-99h24z" fill="#55CB02"/>
<path transform="translate(224,214)" d="m0 0h115v24h24v98l-114 1-1-24h-24z" fill="#56CB02"/>
<path transform="translate(800,136)" d="m0 0 3 1 26 1v25h24v125l-27 1h-21l-1-1-1-59-1-16h-19l-3-4v-42l-1-3h-123v26h-25v23h-24v25h-25l-1-1v-23l2-1v-1l21-1 1-19 2-1 1-3h11l7 1 3-9 1-14 2-4h20l2-2 1-21 5-2h105z" fill="#970117"/>
<path transform="translate(250,604)" d="m0 0h22l7 1v1l-5 1v105l1 13-1 3h24l1 3 1 19-1 3h22l1 1v22l4 2h279l1-25 23-1 1-24h25l1 9v16h-25v26h-25v25l-262 1h-22l-1-2v-23h-22l-2-1-1-11-2-2 1-9h-6v-1l-16-1v-2l-19 1-4-2v-21l1-3h-2v-121z" fill="#F33507"/>
<path transform="translate(632,435)" d="m0 0h97l1 3 1-1h45l2 1v42l-2 4-21 1-1 24-1 2h-195v-24l1-1 24-1h24v-24l1-1h23v-24z" fill="#02A802"/>
<path transform="translate(386,410)" d="m0 0h1v26l7-1h43l1 27 1 2h-2l1 19-4 3h-43l-2-1-1-3v-21h-111l-3 1-1 50-6 1h-17l-1-1-25-1v-76h24v-24z" fill="#970118"/>
<path transform="translate(277,460)" d="m0 0h107l4 1 1 24h48l24 1 1 30v18l-1 1-24 1h-162l-1-1v-24l-1-1v-48z" fill="#02A802"/>
<path transform="translate(634,408)" d="m0 0h167l2 2h26l-1 101-25 1h-37l-10-1-1-1v-24l1-1h23v-49h-25l-23-1-10 1h-89l-1 24-23 1-1 24-3 1h-21l-5-1 1-24h2v-27l26 1v-25h23z" fill="#980117"/>
<path transform="translate(413,181)" d="m0 0h1l1 31 22 1 1 3-1 47h-24v75h48v24l-76 1h-136v24h-1v-24h-24v-24l23-1 2-3v2l3-1h111v-73l49-1 1-6v-42h-24l-1-1v-26l9 1 15-1z" fill="#02A702"/>
<path transform="translate(413,41)" d="m0 0h194v24h25l-1 25h26v24h147l-1 23-49 1h-94l-4 1-1 23-5 1h-10l-8-1-1 4-1 14-2 7h-2v2l-18-1-1 4h-1l-1 19-5 1-16 1-2 2-1-1v-24l1-1 24-1 1-25h24l-1-67-2-5-21-1v-24l-171-1-23-1z" fill="#02210E"/>
<path transform="translate(472,603)" d="m0 0h184l48 1v100h-24v24h-25v-24l4-1 20-1v-72l-5-1-9 1-2 1h-7v-2h-32l-5 1-3-1h-72l-4 2h-9l-3-2h-31l-6 1-10-1h-42l-1 2-1-2-27-1-1-23 6-1z" fill="#F33508"/>
<path transform="translate(507,312)" d="m0 0h1l1 25 24 1v23h146v-22l1-2h48l1 1v23l-49 1h-150l-22-1v197l-4 1h-18l-1-6v-141h-33v-1h10v-49h19l5 1v-49l3-1h14l3 3z" fill="#028202"/>
<path transform="translate(437,288)" d="m0 0h24l1 1v23h23v50l-4 1h-18l-1 48-10 1h-15v-25h-188v-24l136-1h76v-24h-24z" fill="#02210E"/>
<path transform="translate(347,855)" d="m0 0 1 2 4-1h320l7 1 1 22-334 1z" fill="#02210F"/>
<path transform="translate(731,434)" d="m0 0 48 2v49l-23 1v24l12 1h12l23 1v24l-270-1v-23l1-1h23v-50h22l1 3-1 19-1 2 3 1-22 1-1 24 90-1h103l2 1 1-26 1-1 21-1 1-3 1-42h-47l-2 2v-5z" fill="#026102"/>
<path transform="translate(435,65)" d="m0 0h170l2 1v24h22l1 5 1 1v67h-24v25l-1 1-24 1-1 24h-23l-22 1-2 2-1 26h-1v-30h25l-1-49 1-1h23v-71l1-26h-146z" fill="#026202"/>
<path transform="translate(300,628)" d="m0 0h109l28 1v25l-26 1-1 23-18 1h-93l-1-1-1-20v-29z" fill="#F95F05"/>
<path transform="translate(200,212)" d="m0 0h24v101h24l1 7v15l-2 4h-48v-26h-25v-100z" fill="#970217"/>
<path transform="translate(656,164)" d="m0 0h98v25h-73v24l-25 1-1 24-24 1-1 23-1 1h-21l-1-1v-49h24v-23h25z" fill="#DAEC02"/>
<path transform="translate(249,436)" d="m0 0h114l21 1 3 1v20l-1 1-23 1-86 1-3 1-1 24h-2v23h-17l-4-1v-21l-1-1z" fill="#F13708"/>
<path transform="translate(754,163)" d="m0 0h25l2 4v42l2 3h19l1 1 1 19-1 80h-25v26h-49v-25l24-1 1-24h25l-1-77v-44l-5-2h-17l-1 3z" fill="#026202"/>
<path transform="translate(437,66)" d="m0 0h95v24h-70v22l-1 2-14 1h-11v23l-22 1-1-1v-48h24z" fill="#DAEC02"/>
<path transform="translate(558,560)" d="m0 0h215l2 1v16l-2 1h-214l-2-2v-14z" fill="#02380F"/>
<path transform="translate(415,63)" d="m0 0 21 1 1 2v24h-24l1 48v43l-2 7-16 1-9-1-1-98h2v-25l25-1z" fill="#EF3308"/>
<path transform="translate(413,263)" d="m0 0h49v25h46v24l-1 7-2-3v-2h-19v49l-4-1h3v-50h-23l-1-23-24-1v50h-24l-1-26v-16z" fill="#026202"/>
<path transform="translate(632,435)" d="m0 0h97v24l-1 1h-73v26h-48v-25l1-1h23v-24z" fill="#DAEC02"/>
<path transform="translate(803,138)" d="m0 0h26v25h24v125h-25v-123l-3-3h-18l-2-1-1-21z" fill="#02220E"/>
<path transform="translate(632,411)" d="m0 0h146l1 3v18l-3 2-21-1v2h-24l-10 1h-90v-24z" fill="#F43507"/>
<path transform="translate(224,214)" d="m0 0h115v24h-90v12l-1 13h-24z" fill="#DAEC02"/>
<path transform="translate(277,560)" d="m0 0h184l1 3v14l-1 1h-181l-3-1-1-15z" fill="#02370E"/>
<path transform="translate(386,410)" d="m0 0h1v24l-3 1h-20l-10-1-106 1v-24z" fill="#02210F"/>
<path transform="translate(657,139)" d="m0 0h124l-2 1v23l-25 1h-98l1-2z" fill="#F03808"/>
<path transform="translate(304,603)" d="m0 0h168v1l-57 1-5 1v22h27v1h-133l-6-1v-22h-16v-1z" fill="#F74502"/>
<path transform="translate(277,460)" d="m0 0h107l4 1 1 24h48l24 1 1 30v18l-1 1-24 1h-162l-1-1v-24l-1-1v-48h3l-1 1-1 23h2v23l22 1v24h138l1-23h-25v-24h-24l-2-1v-24l-22 1-1-1-86-1z" fill="#026202"/>
<path transform="translate(437,288)" d="m0 0h24l1 1v23h23v50l-4 1h-18l-1 47h-1l-1-46-4-1v2h-8v-3h13v-24h-24z" fill="#02210E"/>
<path transform="translate(413,181)" d="m0 0h1l1 31 22 1 1 3-1 47h-24v25h-25v-25l24-1 1-6v-42h-24l-1-1v-26l9 1 15-1z" fill="#026202"/>
<path transform="translate(174,213)" d="m0 0h25l-1 9 1 91h-25z" fill="#03230F"/>
<path transform="translate(824,410)" d="m0 0h5l-1 101h-25l2-1v-88l1-7h-2v-4z" fill="#02210F"/>
<path transform="translate(300,628)" d="m0 0h38l48 1 1 23-1 2h-89v-25z" fill="#DAEC02"/>
<path transform="translate(276,461)" d="m0 0h87v24l-89 1v-23z" fill="#56CC02"/>
<path transform="translate(435,65)" d="m0 0h170l2 1v72l-2 1h-23v5l-2-4v-48l1-26h-146z" fill="#028802"/>
<path transform="translate(632,164)" d="m0 0h24v26h-25v23h-24v25h-25l-1-1v-23l2-1v-1l21-1 1-19 2-1 1-3h11l7 1 3-9 1-14z" fill="#F43707"/>
<path transform="translate(754,163)" d="m0 0h25l2 4v42l2 3h19l1 1 1 19-1 64h-1l-1-8h-21l-1-1-1-76v-44l-5-2h-17l-1 3z" fill="#028002"/>
<path transform="translate(532,263)" d="m0 0h25l1 18-1 7-23 1-1 49h-24l-1-1v-49l23-1v-21z" fill="#02210E"/>
<path transform="translate(508,337)" d="m0 0 25 1v23h146v-22l1-2h48l1 1v23l-49 1h-150l-22-1z" fill="#026202"/>
<path transform="translate(558,263)" d="m0 0h23l1 2v23h-24v48l-1 2h-24v-50h24z" fill="#027202"/>
<path transform="translate(413,263)" d="m0 0h24v75h-24l-1-26v-16z" fill="#026202"/>
<path transform="translate(224,435)" d="m0 0h23l1 76h-24z" fill="#02210F"/>
<path transform="translate(201,214)" d="m0 0h23v74h-23l-1-56z" fill="#F43607"/>
<path transform="translate(608,436)" d="m0 0h23v24l-23 1-1 24-3 1h-21l-5-1 1-24h3v-2l21-1v-3h2l-1-8 1-10z" fill="#F43C06"/>
<path transform="translate(340,212)" d="m0 0h22v2h2v2l2 1-1 21 6-1h17l1 3 1 18v3l-2 1h-24l-1-24h-24v-25z" fill="#D00F0E"/>
<path transform="translate(631,96)" d="m0 0h1l2 20v33l-2 16-1 1-1 14-2 7h-2v2l-18-1-1 4h-1l-1 19-5 1-16 1-2 2-1-1v-24l1-1 24-1 1-25h24z" fill="#02210E"/>
<path transform="translate(728,459)" d="m0 0 1 2h-25v25h-49v-26z" fill="#56CC02"/>
<path transform="translate(708,805)" d="m0 0h22l1 25-3 1-23-1v25h-24v-19l1-4 4-1h15l2-2 2-21z" fill="#02230F"/>
<path transform="translate(532,66)" d="m0 0h49v24h-49z" fill="#59CC02"/>
<path transform="translate(394,435)" d="m0 0h43v25h-3-20l-24-1-1-1v-22z" fill="#03230E"/>
<path transform="translate(558,213)" d="m0 0h22l1 1 1 25h-1l-1 23h-23v-48z" fill="#03200E"/>
<path transform="translate(485,486)" d="m0 0h1v24h19l3 2v46l-4 1h-18l-1-6z" fill="#026202"/>
<path transform="translate(272,604)" d="m0 0h25l1 2v22l2 1-3 1-1 24-3 1h-17l-1-1-1-48z" fill="#FC6404"/>
<path transform="translate(802,154)" d="m0 0h1v59h-20l-3-4v-45h21z" fill="#BC4A13"/>
<path transform="translate(778,754)" d="m0 0h1l1 25-4 1-21-1v25h-22l-2-3v-19l4-1h18l1-3h2v-23h21z" fill="#02220F"/>
<path transform="translate(632,411)" d="m0 0h146l1 3v18l-3 2-21-1v2h-24l-10 1h-90v-24zm2 2-1 1v18l1 2h95l24-1v-19l-1-1z" fill="#DF4809"/>
<path transform="translate(274,461)" d="m0 0 2 1-1 1-1 23h2v23l22 1v24h139v2h-162l-1-1v-24l-1-1v-48z" fill="#027602"/>
<path transform="translate(277,460)" d="m0 0h107l4 1 1 24h47l1 2v24h-25v-24h-24l-2-1v-24l-22 1-1-1-86-1z" fill="#028203"/>
<path transform="translate(532,263)" d="m0 0h25l1 18-1 7-23 1-1 49h-24l-1-1v-49h1v48h21l1-46v-3-21z" fill="#02210E"/>
<path transform="translate(301,600)" d="m0 0 325 1 4 2-326 1-48 1v1l-7 1-1-4 4-2h44z" fill="#970217"/>
<path transform="translate(508,337)" d="m0 0 25 1v23h146v-22l1-2h8l-1 3-7 1v21h-150l-22-1z" fill="#026202"/>
<path transform="translate(632,164)" d="m0 0h24v26h-48v-2h11l7 1 3-9 1-14z" fill="#F43507"/>
<path transform="translate(201,214)" d="m0 0h23v74h-2v-49h-21l-1-7z" fill="#CC190E"/>
<path transform="translate(413,181)" d="m0 0h1l1 31-1 1h-26v-26l9 1 15-1z" fill="#028B02"/>
<path transform="translate(803,238)" d="m0 0h1l1 50h23v25h-25z" fill="#02210E"/>
<path transform="translate(778,312)" d="m0 0h25l1 26-2 1-22-1-2-1z" fill="#03260F"/>
<path transform="translate(437,263)" d="m0 0h25v25h-25z" fill="#026202"/>
<path transform="translate(340,212)" d="m0 0h22l1 2v24h-24v-25z" fill="#E7330A"/>
<path transform="translate(339,238)" d="m0 0h24v24l-1 1h-23l-1-4v-18z" fill="#04A602"/>
<path transform="translate(584,65)" d="m0 0h21l2 1v24l-6-1-2 1-17-1v-23z" fill="#027103"/>
<path transform="translate(413,263)" d="m0 0h24v25h-24z" fill="#02210E"/>
<path transform="translate(437,338)" d="m0 0h24v24h-45v-1h21z" fill="#027E02"/>
<path transform="translate(558,263)" d="m0 0h23l1 2v23h-24z" fill="#02A802"/>
<path transform="translate(414,213)" d="m0 0h23l1 3-1 22-5 1h-18z" fill="#02A902"/>
<path transform="translate(778,511)" d="m0 0 25 1v24h-24z" fill="#02210E"/>
<path transform="translate(251,728)" d="m0 0h22v25l-19 1-4-2v-21z" fill="#D00F0E"/>
<path transform="translate(410,461)" d="m0 0h2v24l-1 1h-20l-2-1-1-3v-20z" fill="#CE0E0E"/>
<path transform="translate(581,434)" d="m0 0 26 1 1 2h-3v18h-2v3l-3 1h-18l-1 2z" fill="#02240E"/>
<path transform="translate(247,338)" d="m0 0h1v24l-24 1v-24z" fill="#02210E"/>
<path transform="translate(607,410)" d="m0 0h22l1 5v14l-1 5-5 1h-17z" fill="#0A280E"/>
<path transform="translate(388,264)" d="m0 0 24 1 1 23h-25z" fill="#027103"/>
<path transform="translate(582,461)" d="m0 0h22l1 3v19l-3 2h-17l-3-1-1-3v-17z" fill="#F43607"/>
<path transform="translate(273,780)" d="m0 0 3 2 4-2 15 1 1 3v19l1 2h-24z" fill="#02210F"/>
<path transform="translate(322,832)" d="m0 0h23l1 1v20l-1 2h-24z" fill="#03210F"/>
<path transform="translate(462,368)" d="m0 0h1v20h22v21l-4 2h-18l-1-1z" fill="#02A902"/>
<path transform="translate(388,65)" d="m0 0h25l-1 4-1 17-2 3h-16l-5-1z" fill="#02240E"/>
<path transform="translate(302,807)" d="m0 0h18l1 23-10 1h-14v-23z" fill="#05250E"/>
<path transform="translate(199,313)" d="m0 0 1 2 16-1 6 1 1 23-24 1z" fill="#02220F"/>
<path transform="translate(248,754)" d="m0 0 1 2 22 1 1 9v13l-24 1z" fill="#03260E"/>
<path transform="translate(557,461)" d="m0 0h22l1 3-1 19-1 2 3 1h-22l-1-1z" fill="#04240E"/>
<path transform="translate(754,411)" d="m0 0h24l1 3v18l-3 2-22-1z" fill="#CE110E"/>
<path transform="translate(363,437)" d="m0 0h21l3 1v20l-1 1h-23z" fill="#D00F0E"/>
<path transform="translate(437,288)" d="m0 0h24l1 1v23h23v50l-4 1-6-1v-1l7-2v-44l-17 1h-4l-3-6v-14l-5-3v-3l-3 3h-8l-1 2-1 42 2 1h-5z" fill="#022C0B"/>
<path transform="translate(201,288)" d="m0 0h21v23l-3 1h-12l-6-1z" fill="#D00F0E"/>
<path transform="translate(583,214)" d="m0 0h22v3 20h-22z" fill="#F53607"/>
<path transform="translate(414,66)" d="m0 0h21v21l-2 2h-17l-2-1z" fill="#F43607"/>
<path transform="translate(250,486)" d="m0 0h21v23h-17l-4-1z" fill="#D00F0E"/>
<path transform="translate(779,141)" d="m0 0h20l2 3v16l-1 2h-16l-5-1z" fill="#CF0E0E"/>
<path transform="translate(484,480)" d="m0 0h1l1 74v5l22-1v-56h1l1 11 1 43-5 5-4 1v3h-4v-2h-8l-6 2-2-1v-64l1-4z" fill="#022B0B"/>
<path transform="translate(415,63)" d="m0 0 21 1 1 2v24h-24l1 48v43l-2 7-16 1-6-1 1-2h20v-95l-23-1 1-3 4 1h16l1-2 1-17 2-5zm-1 3v22l2 1h17l2-2v-21z" fill="#B94212"/>
<path transform="translate(532,263)" d="m0 0h25l1 18-1 7-23 1-1 49h-24l-1-1v-49h1v48h21l1-46v-3-21zm2 2-1 1v18l1 3h18l1-7-1-8 3 1 1-1v-6l-6 1-6-2z" fill="#02270A"/>
<path transform="translate(225,314)" d="m0 0 3 2h-2v2l9-1 4-2h6l1 3-1 17-20 1z" fill="#D00F0E"/>
<path transform="translate(488,416)" d="m0 0h2v22l1 3v9l-1 5 1 1 1 13 1 3v32l-2 2h-3v-8l1-2h-2v-79z" fill="#028B03"/>
<path transform="translate(363,214)" d="m0 0 1 2 2 1-1 21 6-1h17l1 3 1 18v3l-2 1h-24l-1-22zm5 27-1 4v9h2l-1 4h-2v2h21v-18l-1-1z" fill="#970118"/>
<path transform="translate(277,460)" d="m0 0h107l4 1 1 24h46v3h-22l-25-1-2-1v-24l-22 1-1-1-86-1z" fill="#028203"/>
<path transform="translate(605,437)" d="m0 0h2v48l-3 1h-21l-5-1 1-24h3v-2l21-1v-3h2l-1-8zm-23 24-1 3v17l2 3 2 1h17l3-2v-19l-1-3z" fill="#DA500C"/>
<path transform="translate(631,424)" d="m0 0h1v8h2v2l95-1h24l2 2h-24l-10 1h-90z" fill="#D1520E"/>
<path transform="translate(274,461)" d="m0 0 2 1-1 1-1 23h2v24l1 8v15l10-2 1-1h5v3l5 2v1h-23l-1-1v-24l-1-1v-48z" fill="#026202"/>
<path transform="translate(606,191)" d="m0 0h1v47h-25l-1-1v-23l15 1v1h-13l1 20 21 1-1-5v-15l-2-2-18-1-1-2 21-1 1-19z" fill="#B83F13"/>
<path transform="translate(601,88)" d="m0 0 6 2v48l-2 1h-23v5l-2-4 1-2h2v-2l5-1 2 1-1-7 4-1 3 9 7-1 1-6v-27l-1-11-4-2z" fill="#028203"/>
<path transform="translate(457,481)" d="m0 0 4 1 3 6 1 35-1 12-2 1h-25v-1l24-1v-48h-24v-1l16-2z" fill="#022C0B"/>
<path transform="translate(412,214)" d="m0 0h1l1 26v16l-2 7h-49v-23h1v22l28-1 4-2h6l4-1 4 2v-17l1-4v-24z" fill="#02380B"/>
<path transform="translate(413,263)" d="m0 0h24v25h-24zm3 2-2 4 1 17 1-2 6 1 11 2 1-1 1-20-1-1z" fill="#02290A"/>
<path transform="translate(413,181)" d="m0 0h1v8l-2 2h-19l1 2v13l-2 4 4 1-4 2h-4v-26l9 1 15-1z" fill="#027F02"/>
<path transform="translate(680,337)" d="m0 0h8l-1 3-7 1v21h-147v-1h146v-22z" fill="#028103"/>
<path transform="translate(558,213)" d="m0 0h18l2 2-2 1-17 1 1 4v34l-2 5 2 1-3 1v-48z" fill="#022D0B"/>
<path transform="translate(731,434)" d="m0 0 48 2v49h-24v-1l21-1 1-3 1-42h-47l-2 2v-5z" fill="#027A02"/>
<path transform="translate(412,90)" d="m0 0h1l1 48v43l-2 7-16 1-6-1 1-2h20v-95z" fill="#BA4B13"/>
<path transform="translate(779,216)" d="m0 0 6 3-2 4-1 1v54l-1-4h-2z" fill="#028B03"/>
<path transform="translate(553,500)" d="m0 0h3l1 11-23 1-1 24-4-2 1-14v-7l3-4 15-2 3-1z" fill="#022D0B"/>
<path transform="translate(531,287)" d="m0 0 2 2v49h-24l-1-1v-49h1v48h21l1-46z" fill="#02380F"/>
<path transform="translate(768,337)" d="m0 0h8l2 2-2 1-17 1h-13l-14-1v15l-2 5h-1v-22z" fill="#022D0B"/>
<path transform="translate(461,289)" d="m0 0h1v23h23v50l-4 1-6-1v-1l7-2v-45h-19l-2-1z" fill="#02280A"/>
<path transform="translate(631,96)" d="m0 0h1l2 20v33l-1 11-2 3z" fill="#022E0C"/>
<path transform="translate(508,502)" d="m0 0h1l1 11 1 43-3 4h-23v-6h1v5l22-1z" fill="#022F0C"/>
<path transform="translate(680,361)" d="m0 0h48l-2 4-14-1h-40v-2z" fill="#022D0B"/>
<path transform="translate(453,289)" d="m0 0h8v24h21l1 4-1-2-17 1h-4l-3-6v-14l-5-3z" fill="#02270A"/>
<path transform="translate(461,338)" d="m0 0 3 1v20l3 3-4 1-1 47h-1l-1-46-4-1v2h-8v-3h13z" fill="#02360A"/>
<path transform="translate(386,461)" d="m0 0h2l1 24h46v3h-22l-25-1-2-1z" fill="#027602"/>
<path transform="translate(584,65)" d="m0 0h21l2 1v24h-2l-2-10v-11l-2-1h-9l-8-1z" fill="#026802"/>
<path transform="translate(582,189)" d="m0 0h23l-2 1v2l-18 1-1 14-2 5h-1v-22z" fill="#02270A"/>
<path transform="translate(410,461)" d="m0 0h2v19l-2-3v-14l-18 1v11l-2 6-2-2v-17z" fill="#B33C14"/>
<path transform="translate(388,90)" d="m0 0h24l-1 2h-17l-1 2h-3l-1 66h-1z" fill="#DD4809"/>
<path transform="translate(754,288)" d="m0 0h7v1h-6l1 23-5 4h-17l-4 8h-1v-11l24-1z" fill="#027002"/>
<path transform="translate(557,163)" d="m0 0 2 1-1 50-22 1-2 2-1 26h-1v-30h25l-1-49z" fill="#027902"/>
<path transform="translate(707,402)" d="m0 0h44v3l-12 1-4-1-30-1z" fill="#02270A"/>
<path transform="translate(605,437)" d="m0 0h2v24h-25v-2l21-1v-3h2l-1-8z" fill="#950117"/>
<path transform="translate(532,263)" d="m0 0h25v5l-1-2-6 2-6-2h-10l-1 17-2-1v-16z" fill="#022D0C"/>
<path transform="translate(631,165)" d="m0 0h1v24l-1 1h-23v-2h11l7 1 3-9 1-14z" fill="#970118"/>
<path transform="translate(439,263)" d="m0 0h23v25l-2-3-1-13v-3-3h-18z" fill="#027503"/>
<path transform="translate(274,461)" d="m0 0 2 1-1 1-1 23h2v23l-3 1v-48z" fill="#028203"/>
<path transform="translate(606,191)" d="m0 0h1v22l-1 1h-22l-1-2 21-1 1-19z" fill="#970118"/>
<path transform="translate(628,191)" d="m0 0h3v22h-24v-3h21l1-1z" fill="#C04C12"/>
<path transform="translate(582,461)" d="m0 0h22v2l-20 1v19l-2 1-1-3v-17z" fill="#EC4705"/>
<path transform="translate(680,337)" d="m0 0h8l-1 3-7 1v21h-37v-1h36v-22z" fill="#027802"/>
<path transform="translate(581,66)" d="m0 0h1v23h10l7 1-2 4-10-1-6-2z" fill="#038C02"/>
<path transform="translate(412,66)" d="m0 0h1v24h-25l1-3 4 1h16l1-2 1-17z" fill="#950117"/>
<path transform="translate(777,436)" d="m0 0h2v49h-24v-1l21-1 1-3 1-42-2-1z" fill="#028203"/>
<path transform="translate(629,436)" d="m0 0h2v24l-24 1v-5h2v3l19-1v-21z" fill="#BC4913"/>
<path transform="translate(632,164)" d="m0 0h24l-2 4v-3l-4 1h-10l-5 2-1 12v6l1 2h-3z" fill="#F94801"/>
<path transform="translate(580,238)" d="m0 0h26l-1 2h-22l-1 22-4-2h2z" fill="#02520A"/>
<path transform="translate(754,163)" d="m0 0h25l2 4-1 21h-1l-1-21-5-2h-17l-1 3z" fill="#028203"/>
<path transform="translate(655,165)" d="m0 0h1v25h-25l1-2h22z" fill="#B33E14"/>
<path transform="translate(607,163)" d="m0 0h21v2l-18 1-1 4v12l-2 3z" fill="#022C0B"/>
<path transform="translate(340,214)" d="m0 0h23v24l-2-4-1-18h-18l-2 3z" fill="#EE4D04"/>
<path transform="translate(508,361)" d="m0 0h22l-3 3-13 1-4 1-2 2z" fill="#022C0B"/>
<path transform="translate(553,500)" d="m0 0h3l1 11-22-1 2-2 13-1z" fill="#02270A"/>
<path transform="translate(607,68)" d="m0 0 2 1v19h16l3 2h-21z" fill="#02270A"/>
<path transform="translate(463,516)" d="m0 0 2 2-1 17-2 1h-25v-1l24-1 1-17z" fill="#022D0B"/>
<path transform="translate(461,289)" d="m0 0h1v23h23v9l-2-3-1-4h-19l-2-1z" fill="#02380F"/>
<path transform="translate(584,138)" d="m0 0h21v1l-19 1-3 7-1 16h-2l1-19 1-5z" fill="#027103"/>
<path transform="translate(532,338)" d="m0 0h1v24h-3l1-7-2-7-2-2 3-2 1-5z" fill="#027102"/>
<path transform="translate(533,288)" d="m0 0h24v1h-11v2l-11 2-1 3z" fill="#026202"/>
<path transform="translate(584,65)" d="m0 0h21l2 1v2l-4 1-2-1h-9l-8-1z" fill="#026402"/>
<path transform="translate(778,312)" d="m0 0h22v1l-18 1-1 3h-2v20h-1z" fill="#02380F"/>
<path transform="translate(413,263)" d="m0 0h17v1l-14 1-1 4-1 18 3 1h-4z" fill="#02380F"/>
<path transform="translate(579,461)" d="m0 0h3v21l-1 3h-3z" fill="#970118"/>
<path transform="translate(410,461)" d="m0 0h2v19l-2-3v-14l-15 1v-2z" fill="#BB4A13"/>
<path transform="translate(582,189)" d="m0 0h23l-2 2h-19l-1 1-1 20h-1v-22z" fill="#02380F"/>
<path transform="translate(509,288)" d="m0 0h21l-4 2-1 1h-12l-3-2-1 4z" fill="#02270A"/>
<path transform="translate(292,514)" d="m0 0h2l1 9-1 4h-3l-1-9z" fill="#026202"/>
<path transform="translate(437,511)" d="m0 0h2l1 4v17l-1 2h-2z" fill="#027103"/>
<path transform="translate(581,485)" d="m0 0h26v3h-20l-6-2z" fill="#028203"/>
<path transform="translate(328,456)" d="m0 0h7l1 2-2 1h-30v-1l20-1z" fill="#FD4601"/>
<path transform="translate(413,181)" d="m0 0h1v8l-2 2-21-1v-1l21-2z" fill="#026D03"/>
<path transform="translate(410,482)" d="m0 0h2l-1 4h-20l2-3 7 1z" fill="#BA4B14"/>
<path transform="translate(485,388)" d="m0 0 3 2v10l1 4-2 3h-2z" fill="#028A03"/>
<path transform="translate(363,460)" d="m0 0h21l2 2-22 1z" fill="#025708"/>
<path transform="translate(415,63)" d="m0 0 21 1-1 2h-22v-2z" fill="#970118"/>
<path transform="translate(657,140)" d="m0 0 2 4 1 16 2 2h-5z" fill="#FD4601"/>
<path transform="translate(581,482)" d="m0 0 4 2h17l4-2 1 3-3 1h-21l-2-1z" fill="#BA4B14"/>
<path transform="translate(730,341)" d="m0 0 2 1v13l-2 5h-1v-16z" fill="#02270A"/>
<path transform="translate(782,313)" d="m0 0h18l1 2-18 1-2 1z" fill="#02270A"/>
<path transform="translate(487,311)" d="m0 0h16l4 2v6l-2-3v-2h-18z" fill="#027103"/>
<path transform="translate(387,190)" d="m0 0h1l1 24-4-1-1-4 2-2z" fill="#022A0B"/>
<path transform="translate(280,514)" d="m0 0 2 3v7l-1 2h-3v-11z" fill="#026202"/>
<path transform="translate(456,483)" d="m0 0 5 2v1h-24v-1z" fill="#02380F"/>
<path transform="translate(296,754)" d="m0 0 2 2-1 12-3-2 1-9h-6v-1z" fill="#D00F0E"/>
<path transform="translate(532,214)" d="m0 0 4 1-2 2-1 26h-1z" fill="#027103"/>
<path transform="translate(508,263)" d="m0 0 3 1-1 5-1 18h-1z" fill="#027103"/>
<path transform="translate(435,82)" d="m0 0h2v8h-13v-1l9-1z" fill="#BA4B14"/>
<path transform="translate(768,337)" d="m0 0h8l2 2-2 1h-10l2-1z" fill="#022B0B"/>
<path transform="translate(780,160)" d="m0 0 4 1 14 1v1l-19 1z" fill="#980317"/>
</svg>
