<?xml version="1.0" encoding="UTF-8"?>
<svg version="1.1" viewBox="0 0 1024 1024" width="1024" height="1024" xmlns="http://www.w3.org/2000/svg">
<path transform="translate(398,68)" d="m0 0h204v26h30l1 27 28 1v84l-28 1v16l-1 8h102v28l56-1v120h-23l-4-1v30h-229v69l-1 5h30l-1-29 37 1v-26h191v26h29v86h-26l-3-1v29h-25l-2-1v34h31v170h-30v26h-30l1 9v22l-30-1v29h-32l1 27h-362l-1-26h-30v-29h-29v-30h-28l-1-4 1-23-30 1v-171l53-1v-31h-30v-29h-29v-86h30l-1-26 151-1v27h43l-1 27h22v-74h-215v-29l-30 1v-30h-31v-31h-28v-86l9-1 19 1v-26h184v-84h28l-1-29 31 1z" fill="#023213"/>
<path transform="translate(398,68)" d="m0 0h204v26h30l1 27 28 1v84l-28 1v16l-1 8h102v29h29v113l-1 3h-27l-1-29-1-57-1-2-31-1-1 31h-29v29l-4 1h-166l-1 4 1 15-1 3v5l-19-1h-15l-3-5v-21l-1 28 3 1h36l1 3 1 156v64h-37l-2-1-1-197h-1v12h1v26h-2l1 23 1 1v47l-4-1v-2l-3 1v-2l-9 4h-13l1-3h-2l-1-12h2l2-11h-3l-1-2-1 29h32v26l-6 1h-24l-2-1v28h-156l2-7v-14l-1-5-2-1h-25l-31-1-1-84 2-1h69l80 1v27l40-1h24v-74h-215v-29l-30 1v-30h-31v-31h-28v-86l9-1 19 1v-26h184v-84h28l-1-29 31 1z" fill="#023112"/>
<path transform="translate(224,625)" d="m0 0h536l2 4 1 9v129l-3 2h-27l-1 3-1 20-5 2h-18l-3 1-1 28-1 1h-29v2h-2v25l-1 1-15 1h-341l-2-5v-21l-2-1h-30l-1-29-27-1-1-24-28-1z" fill="#FA4501"/>
<path transform="translate(131,230)" d="m0 0 25 1 1 85 30 1 1 30 29 1v28h29v-27l-25-1-3-1-1-29h151v-30h29v29l33 1 1 29h31v29l3 1h36l1 3 1 156v64h-37l-2-1-1-197h-1v12h1v26h-2l1 23 1 1v47l-4-1v-2l-3 1v-2l-9 4h-13l1-3h-2l-1-12h2l2-11h-3l-1-2-1 29h32v26l-6 1h-24l-2-1v28h-156l2-7v-14l-1-5-2-1h-25l-31-1-1-84 2-1h69l80 1v27l40-1h24v-74h-215v-29l-30 1v-30h-31v-31h-28v-86z" fill="#023012"/>
<path transform="translate(889,242)" d="m0 0h30l1 1 1 35h30l1 1v39h31l1 1v92h-31v33h-93v-33l-32 1v-94h31v-39l4-1 26 1z" fill="#10BCC7"/>
<path transform="translate(794,41)" d="m0 0h33l-1 34h31v47h31l1 20v64h-33v33h-92l1-33h-33v-84h32v-46h30z" fill="#028BCF"/>
<path transform="translate(219,453)" d="m0 0h69l80 1v27l40-1h24l-1 32h32v26l-6 1h-24l-2-1v28h-156l2-7v-14l-1-5-2-1h-25l-31-1-1-84z" fill="#15A102"/>
<path transform="translate(600,453)" d="m0 0h76l87 1v56l-1 1-28 1-2 48-1 5-2 1h-195l-1-5 1-25v-25l29-1v-29h36v-27z" fill="#027807"/>
<path transform="translate(399,93)" d="m0 0h137l8 1v1h-9v55l-5 1h-27l-1 60h-28v48h-76v-28h-30v-109h30v-28z" fill="#4FC901"/>
<path transform="translate(752,626)" d="m0 0 10 1 1 11v129l-3 2h-27l-1 3-1 20-5 2h-18l-3 1-1 28-1 1h-29v2h-2v25l-1 1-15 1h-341l-2-5v-21l-2-1-28-1 1-3v2l36-1 307-1 3-1 1-2 1-26h36v-30h66v-136z" fill="#C10910"/>
<path transform="translate(156,231)" d="m0 0h153l-1 2 1 15 1 9 2 2h56v59l-150 1v28l26 1 2 1v27h-29v-28h-29l-1-1v-30h-30l-1-1z" fill="#4FC901"/>
<path transform="translate(536,93)" d="m0 0h32l2 2v19l1 6 2 1h29v109l-1 1h-32v26l-1 2h-33v27l-1 1h-32v30h-38v-30h-33v-27l42-1 1-48h28v-61h33v-55z" fill="#16A202"/>
<path transform="translate(368,288)" d="m0 0h29v29l33 1 1 29h31v29h-216v-27l-25-1-3-1-1-29h151z" fill="#16A202"/>
<path transform="translate(224,771)" d="m0 0h28l1 1v24h27l1 1v29h29l1 1 1 26 361 1 1 28h-362l-1-26h-30v-29h-29v-30h-28l-1-4z" fill="#023212"/>
<path transform="translate(602,259)" d="m0 0h128v1h-29l1 27-1 2-1 29h-29v29l-4 1h-131v-30h32l1-31h33z" fill="#50C901"/>
<path transform="translate(600,453)" d="m0 0h76l87 1v56l-1 1-58 1h-141v-31h36v-27z" fill="#4FC801"/>
<path transform="translate(219,453)" d="m0 0h69l80 1v27h29v30l-45 1h-104v26h-30l-1-84z" fill="#4FC802"/>
<path transform="translate(949,278)" d="m0 0 3 1v39h31l1 1v92h-31v33h-93v-33l-32 1v-94h31l1 2v65h30v1h-30v24h92v-91h-31v-40z" fill="#033C62"/>
<path transform="translate(701,287)" d="m0 0h31l2 3v57l-1 5v24l-1 1h-230v-30h168l1-29 17-1h11l1-28z" fill="#18A302"/>
<path transform="translate(599,427)" d="m0 0h191v26h29v86h-26l-3-1v23l-2-1v-21l-4 1h-17l-2 1-1 20h-1v-22l1-1 25-1 1-83h-190l-1 27h-36l-1-29 37 1z" fill="#023112"/>
<path transform="translate(500,377)" d="m0 0 2 1 1 158v64h-37l-2-1-1-221z" fill="#026610"/>
<path transform="translate(156,231)" d="m0 0h121l-4 1v24l-1 3-16 1h-39v28l-28 1v24l2 2 23 1 4 4v27l26 1 2 1v27h-29v-28h-29l-1-1v-30h-30l-1-1z" fill="#E5220A"/>
<path transform="translate(594,121)" d="m0 0h8v109l-1 1h-32v26l-1 2h-33v27l-1 1h-32v30h-38v-29h36v-3h2v-26l31-1 1-15 1-32h34v-89h14z" fill="#027807"/>
<path transform="translate(794,41)" d="m0 0h33l-1 34h31v47h31l1 20v64h-33v-84h-29v28h-1v-74l-31 1-1 45h-30v-46h30z" fill="#033B60"/>
<path transform="translate(399,93)" d="m0 0h75l1 2-1 27h-44v28l-30 1-1 2v83h-1v-5h-30v-109h30v-28z" fill="#F94A02"/>
<path transform="translate(253,646)" d="m0 0h26l2 2 1-2h102l1 1v28l-1 1-68 1 3 2 1-2h49l-1 3h15v2h-2v2h3v2h-2v8l-2 3-11 3-4 2h-46l-22-2h-13l-2-4-2-11 1-5v-2l-2-2h-24l-2 1z" fill="#FD5F03"/>
<path transform="translate(410,68)" d="m0 0h192v53l-8 1h-21l-3-2-1-6v-19l-1-1-168-2-1-1v-21l11-1z" fill="#023112"/>
<path transform="translate(859,317)" d="m0 0 1 2h29v1h-28v25l29-1 2 2 1 38h28v-65h31v91l-89 1-3-1v-25z" fill="#028BCE"/>
<path transform="translate(734,625)" d="m0 0h26v1l-8 1h-18v136l-34 1h-30l-2-3v-25h32v-108l-3-1 7-1z" fill="#EA200A"/>
<path transform="translate(412,481)" d="m0 0h19v31h32v26l-6 1h-24l-2-1v28h-156l2-7v-14l-1-5-2-1h-25l1-3 29 1h149l1-1v-53l-17-1z" fill="#027807"/>
<path transform="translate(534,511)" d="m0 0h200l-2 9v17l-1 1h-197z" fill="#18A202"/>
<path transform="translate(353,426)" d="m0 0h15v27h43l-1 27-2 1h-40v-27h-80v-1l-48-1h-20l-2-1-1-24z" fill="#023313"/>
<path transform="translate(795,76)" d="m0 0h31v103l-62 1v-58h30v-45z" fill="#0EBCC7"/>
<path transform="translate(602,259)" d="m0 0h128v1h-29l1 27-23 1h-44l-1 29-8 1h-57v-31h33z" fill="#FCBD03"/>
<path transform="translate(219,453)" d="m0 0h69l80 1-1 2-53-1v25l-1 1h-64v31l-1 26h-30l-1-84z" fill="#EA2009"/>
<path transform="translate(131,230)" d="m0 0 25 1 1 85 30 1 1 30 29 1v28h28v1h-27v5h-1v-5l-30 1v-30h-31v-31h-28v-86z" fill="#083114"/>
<path transform="translate(730,259)" d="m0 0 33 1v113l-1 3h-27l-1-29-1-57-1-2-30-1-1-1v-26z" fill="#CA1C0F"/>
<path transform="translate(224,771)" d="m0 0h28l1 1v24h27l1 1v29h29l1 1 1 26 361 1 1 28h-362l-1-26h-30v-29h-29v-30h-28l-1-4zm89 85v24h359v-24z" fill="#080E07"/>
<path transform="translate(600,453)" d="m0 0h76l58 1v1h-33v25l-2 1-97 1-2-1-1 7v20l-2 2-30 1-4-1v-29h36v-27z" fill="#F8BE05"/>
<path transform="translate(784,258)" d="m0 0h6v120h-23l-4-1v30l-227-1-2-2 227-1v-25h-27v-2h28l1-116h-29v-1z" fill="#023213"/>
<path transform="translate(763,454)" d="m0 0h27v83l-1 1-25 1-1 26-2 1-25-1-1-2-1-34 1-17 26-1 1-1z" fill="#C10910"/>
<path transform="translate(219,450)" d="m0 0 4 1h24l68 1v1l-96 1-1 1v83h56l3 2 1 5v14l-2 6-1 1h-26l-2-1-1-24-4-1h-22l-2 1v-2h-30v-86h30z" fill="#043113"/>
<path transform="translate(602,94)" d="m0 0h30l1 27 28 1v84l-28 1v16l-1 8h102v27h-1v-26h-102l-1-26 1-1 1-83h-29l-1 4z" fill="#043511"/>
<path transform="translate(185,231)" d="m0 0h92l-4 1v24l-1 3-16 1h-39v28l-29 1v-57z" fill="#FCBD03"/>
<path transform="translate(399,93)" d="m0 0h75l1 2-1 27h-44v28l-30 1-2 2-1-9 1-32v-18z" fill="#FCBD03"/>
<path transform="translate(282,646)" d="m0 0h102l1 1v28l-1 1h-102z" fill="#FCBD03"/>
<path transform="translate(765,206)" d="m0 0h91v33h-92z" fill="#033B60"/>
<path transform="translate(952,320)" d="m0 0h31v89l-2 1-29-1z" fill="#033C65"/>
<path transform="translate(856,122)" d="m0 0h32l1 20v64h-33z" fill="#073F61"/>
<path transform="translate(732,122)" d="m0 0h32v58l4 1h-4l1 25h-33z" fill="#023B5E"/>
<path transform="translate(466,407)" d="m0 0h12l2 1v157h-16v-155z" fill="#15A102"/>
<path transform="translate(603,122)" d="m0 0h29v83l-2 1h-27l-1-4v-76z" fill="#A52116"/>
<path transform="translate(792,455)" d="m0 0h25v47h2v37h-26l-2-3v-78z" fill="#043314"/>
<path transform="translate(130,232)" d="m0 0h24l1 6v79h-27v-2h2l-1-3z" fill="#023112"/>
<path transform="translate(602,259)" d="m0 0h2v28l31-1-1 31-8 1h-57v-31h33z" fill="#FCBD03"/>
<path transform="translate(760,625)" d="m0 0h4l1 7v112l-1 25-1 2-28 1-1 23-1 1-26 1-2 58-393-1-1-1-1-26-22-1v-1h23l3 2v21l1 4h341l15-1 1-25h2v-2l4-1h25l1-26 4-4h18l4-1 1-20 4-4h25l2-1v-135l-1-4-8-1v-1z" fill="#972113"/>
<path transform="translate(249,453)" d="m0 0h39l80 1-1 2-53-1v25l-1 1h-64v31h-1v-57z" fill="#F8BE04"/>
<path transform="translate(156,231)" d="m0 0h29l3 1v56h-30v24h-2z" fill="#FB4601"/>
<path transform="translate(763,454)" d="m0 0 5 1-4 1 2 45-1 10-1 2h-2v15h-2v2h2l1 5 26-1v-53h1v56l-1 1-25 1-1 26-2 1-25-1-1-2-1-34 1-17 26-1 1-1z" fill="#A42115"/>
<path transform="translate(735,771)" d="m0 0h29v25h-30l1 9v22l-29-1v-29l1-1 26-1 1-23z" fill="#023213"/>
<path transform="translate(734,454)" d="m0 0h29v2h-2l1 50-2 4h-26z" fill="#16A102"/>
<path transform="translate(794,41)" d="m0 0h27v1h-25v33l-1 2-1 45h-30v-46h30z" fill="#03395B"/>
<path transform="translate(949,278)" d="m0 0 3 1v39h31l1 1v92h-31l-1-2h30l1-89h-31l-31-1v-40z" fill="#063D55"/>
<path transform="translate(668,763)" d="m0 0h1v60l-5 1-26-1v-3h-2l-1 3v-15l-1 16h-314v-1l307-1 3-1 1-2 1-26h36z" fill="#CD1C0E"/>
<path transform="translate(859,317)" d="m0 0 1 2h29v1h-28v25l29-1 1 1v39l-1 1h-30z" fill="#E4FFF9"/>
<path transform="translate(281,793)" d="m0 0 319 1v1h-286v29h-30l-1-2v-27h-2z" fill="#EA1F0A"/>
<path transform="translate(860,278)" d="m0 0 29 1v40h-29l-1-2v-38z" fill="#033D63"/>
<path transform="translate(764,122)" d="m0 0h29l-1 2h-25l-1 2-1 13 2 1 27 1v38l-30 1z" fill="#E4FFF9"/>
<path transform="translate(502,347)" d="m0 0h34v1h-33v28h197v-28l33-1v29l-1 1h-230z" fill="#027508"/>
<path transform="translate(369,453)" d="m0 0h42l-1 27-2 1h-40v-27z" fill="#023112"/>
<path transform="translate(762,260)" d="m0 0h1v113l-1 3h-27l-1-29v-55h1v21h2v31l7 1h12l3-3 1-54 1-2v-25z" fill="#832110"/>
<path transform="translate(224,625)" d="m0 0h510v1l-30 1-478 1-1 141h-1z" fill="#FD5F04"/>
<path transform="translate(889,242)" d="m0 0h30l1 1v36h-31z" fill="#043C62"/>
<path transform="translate(398,68)" d="m0 0 90 1v1l-88 1v20l73 1v1l-74 1v26l-1 2h-30l-1-30 31 1z" fill="#023012"/>
<path transform="translate(563,481)" d="m0 0 32 1 3 1 1 5v20l-2 2-30 1-4-1z" fill="#FA4601"/>
<path transform="translate(368,122)" d="m0 0h30v22l-2 7-3 1h-22l-1 54h-2z" fill="#FD6303"/>
<path transform="translate(602,94)" d="m0 0h30l1 27 24 1v1h-24v81h-1v-82h-29l-1 4z" fill="#042A11"/>
<path transform="translate(575,93)" d="m0 0h27v28l-8 1h-21l-3-2-1-6v-19z" fill="#AA2613"/>
<path transform="translate(730,259)" d="m0 0 32 1v1h-28v29l-2-2-30-1-1-1v-26z" fill="#FB4801"/>
<path transform="translate(292,623)" d="m0 0h458l14 1v1h-540v145h-26l1-2h23v-143l1-1z" fill="#0C0E07"/>
<path transform="translate(219,453)" d="m0 0h30l-1 28-1 5h-1v-5h-27l1 56h-2l-1-83z" fill="#FB4601"/>
<path transform="translate(214,317)" d="m0 0 3 1 1 2v27l26 1 2 1v27h-29v-28h-29v-1h28l-1-28z" fill="#CC1D0E"/>
<path transform="translate(217,539)" d="m0 0h25l5 2 1 23 1 4-1 30h-1v-30h-30z" fill="#063613"/>
<path transform="translate(399,93)" d="m0 0h9v1l25 1-2 1v23l-2 3h-31v-28z" fill="#FDB606"/>
<path transform="translate(226,736)" d="m0 0h27v33h-25l-2-1z" fill="#EA1F0A"/>
<path transform="translate(600,453)" d="m0 0h32v27h-32l-1-8v-18z" fill="#FB4601"/>
<path transform="translate(920,278)" d="m0 0h1v15l-1 11h-1l-1-16h-2l1 14-1 2-4-1v10l-3 4-5 1h-7l-2-3h2l-3-5 1-7-1-9-3 2-2-17z" fill="#038CCF"/>
<path transform="translate(188,313)" d="m0 0 3 2 23 1 2 3v28h-28z" fill="#EB200A"/>
<path transform="translate(307,232)" d="m0 0h34l-1 28h-28l-3-3-1-9z" fill="#FB4601"/>
<path transform="translate(431,512)" d="m0 0h32v26l-6 1h-24l-2-1z" fill="#026611"/>
<path transform="translate(603,122)" d="m0 0h29v83l-2 1h-27l-1-4v-76zm6 2-4 2v3l1 1-1 3h2l-1 3v40l-1 6 1 6 1 9-2 5 6-1-1-2 13 1 1 2 4-2-2-3 1-5h2v-8h-2l1-5h1v-51l-3-2 2-1-1-1z" fill="#832110"/>
<path transform="translate(539,507)" d="m0 0 21 1 4 3h-30l1 26-1 28h197l2-53 1-1h27v1h-26v17l-1 11v25l-3 4h-197l-4-5 2-20 1-32h-2l1-3z" fill="#02370D"/>
<path transform="translate(704,825)" d="m0 0h1v29l-29-1-2-2v-24l1-1z" fill="#022D11"/>
<path transform="translate(562,452)" d="m0 0 5 2h30v25l-1 1h-30l-1-1-2 2z" fill="#023313"/>
<path transform="translate(283,647)" d="m0 0h29v26l-1 2h-26l-3-3v-19z" fill="#FEFFFE"/>
<path transform="translate(248,538)" d="m0 0h26l3 2 1 5v14l-2 6-1 1h-26l-1-2z" fill="#A52116"/>
<path transform="translate(763,537)" d="m0 0h26v1l-25 1-1 26-2 1-25-1-1-2v-25z" fill="#832210"/>
<path transform="translate(159,318)" d="m0 0h15l12 1v25l-1 3-27 1v-29z" fill="#023112"/>
<path transform="translate(341,259)" d="m0 0h27v28h-27l-1-7v-17z" fill="#17A301"/>
<path transform="translate(283,827)" d="m0 0h25l2 5v18 3l-4 2-25 1v-11h1z" fill="#043315"/>
<path transform="translate(224,771)" d="m0 0h28l1 1v27l-1-2h-28l-1-4z" fill="#023213"/>
<path transform="translate(734,259)" d="m0 0h30l1 5-1 112h21v1l-18 1-4-1v30l-227-1-2-2 227-1v-25h-27v-2h28l1-116h-29z" fill="#080E07"/>
<path transform="translate(254,798)" d="m0 0h25l1 2v23l-1 2h-25z" fill="#023212"/>
<path transform="translate(764,454)" d="m0 0h26v27h-25l-1-1z" fill="#D4240C"/>
<path transform="translate(156,205)" d="m0 0h183l1 2h-182l1 21 115 1-2 2h-116z" fill="#0C0E07"/>
<path transform="translate(736,262)" d="m0 0h22l2 2v17l-1 6-5 1-17-1-3-2v-20z" fill="#EB200A"/>
<path transform="translate(737,772)" d="m0 0h25l1 22-1 1h-26l-1-3v-17z" fill="#023213"/>
<path transform="translate(371,206)" d="m0 0h26v25l-2-2-5 1h-18l-2-4v-19z" fill="#E6200A"/>
<path transform="translate(384,646)" d="m0 0h5v2l9 1 1 1h8l3 8v7l-3 7-7 2h-6l-4 2-5-1z" fill="#FD5D03"/>
<path transform="translate(131,230)" d="m0 0 25 1 1 85 30 1 1 30 27 1v1l-25 1-1 2-1 24h-1v-28h-27v-1h25l1-28h-27l-1 29h-2l-1-31-1-13v-66l-1-5h-17l-6-1v83h-2v-84z" fill="#090F08"/>
<path transform="translate(288,825)" d="m0 0h23l3 2v21l1 4h341l15-1 2-3 2 3 1 1 28 1 1 2-393-1-1-1-1-26-22-1z" fill="#A52116"/>
<path transform="translate(480,416)" d="m0 0h1l2 43 1 5 1 53 1 44-2 3-4 1z" fill="#027907"/>
<path transform="translate(462,347)" d="m0 0 2 1v21l2 4h22l12 2-1-6 1-2-1-18 3-2v30h6l-2 6-2 2v126l-2 1-1-134h-36l-3-2z" fill="#02360D"/>
<path transform="translate(604,260)" d="m0 0 4 1-1 2 2 3h20l2 3-3 3-5 2h2l4-1 3 2-1 6 1 3-6 1-3-1h-10l9 1-1 2h-17z" fill="#FD6404"/>
<path transform="translate(463,397)" d="m0 0h1v196l-2-2-3-18-1-7 3-5 1-1 1-48h-32v-29l2-1v3h3l-2 11h-2l1 3v9h2v2h12l9-3 3 1 1 2 3 1-1-47-1-1v-23h2l-1-24h-1v-16z" fill="#02370D"/>
<path transform="translate(785,427)" d="m0 0h5v26h29v49h-2v-47h-25v81l24 1v1h-26v23l-2-1v-21l-4 1h-17l-2 1-1 20h-1v-22l1-1 25-1 1-83h-26l1-2h23v-24z" fill="#061509"/>
<path transform="translate(632,232)" d="m0 0h101l1 27h-132v28h-28l-4-2h30l1-27 1-1h130v-24h-100z" fill="#191208"/>
<path transform="translate(328,646)" d="m0 0h56l1 1v28l-69-1-1-2 1-8h3l3 4 4-1 2 1v2l16-1 1-3h6l1 3h10l3-2 2-4h3l4 8h9v-23h-31l-24-1z" fill="#FDB606"/>
<path transform="translate(632,799)" d="m0 0 5 1 2-1 1 17 2 1h-2l-1 6-1-3h-2l-1 3v-15l-1 16h-314v-1l307-1 3-1 1-2z" fill="#EB200A"/>
<path transform="translate(788,600)" d="m0 0h6v170l-31 1 1-4 12 1h16v-166h-5z" fill="#275C09"/>
<path transform="translate(426,259)" d="m0 0h47v1h-42v27h33v30h38l-1 2-6 1h-30l-2-1-1-5 1-11h-2l-2-4v-10h-28l-3-1-2-20v-6l2-1z" fill="#02370D"/>
<path transform="translate(609,260)" d="m0 0h21l5 1 2 5-1 8 4 1-1 4-2 4v1l-4 3h-12v-1l-13-1v-1l5-1h10l9 1-2-5 1-4-3-1-5 2-1-3 7-3v-3h-21v-3l-3-1z" fill="#FDB105"/>
<path transform="translate(701,455)" d="m0 0 3 1-1 20-1 5-5 2h-61l-32 1-3 1v24l-3 3h-35l4-2 30-1 1-4v-19l2-5 101-1z" fill="#63BB16"/>
<path transform="translate(430,122)" d="m0 0h44l-4 2-37 1-1 25-4 2-8 1-19 1-1 46-2 2v-49l2-3h30z" fill="#63BB16"/>
<path transform="translate(280,566)" d="m0 0h151l-4 3-146-1z" fill="#02370D"/>
<path transform="translate(591,96)" d="m0 0 4 4 1 12h2l-1 3h-3v5l-4-2h2v-3l-16-1v-2h2l-1-9 2-4z" fill="#FB4601"/>
<path transform="translate(398,68)" d="m0 0 90 1v1l-88 1v20l73 1v1l-74 1v26l-1 2h-30v-2l28-1v-24l-1-2h3z" fill="#070E07"/>
<path transform="translate(635,287)" d="m0 0h66v1l-11 1h-53v27l-5 4h-64l1-4v2l65-1v-29z" fill="#63BB16"/>
<path transform="translate(577,125)" d="m0 0h17v2l3 1-1 3-1 1v36l2-3 1 2v8h-4v-2l-4-1-1-4 2-5-1-2v-18l1-1v-11l-8-1-4-1v-2z" fill="#16A202"/>
<path transform="translate(760,625)" d="m0 0h4l1 7v112l-1 25-4-1 2-1v-135l-1-4-8-1v-1z" fill="#972113"/>
<path transform="translate(222,656)" d="m0 0h2v114h-26l1-2h23z" fill="#080E07"/>
<path transform="translate(952,411)" d="m0 0h1v33h-93v-29h1v27h90v-30z" fill="#0A4319"/>
<path transform="translate(761,286)" d="m0 0h1v61l-11 1-17-1v-55h1v21h2v31l7 1h12l3-3 1-54z" fill="#A52116"/>
<path transform="translate(218,349)" d="m0 0 13 1-4 1 1 17 3 3 9 1v1l-18 1v-6h-3v7h27v1h-29z" fill="#FB4A01"/>
<path transform="translate(156,231)" d="m0 0h29l3 1v33h-1v-32l-28 1-1 78h-2z" fill="#FD5E03"/>
<path transform="translate(735,771)" d="m0 0h29v25h-30l-1 3-6-1-19 1-1 26h24v1h-25v-29l1-1 26-1 1-23zm2 1-2 3v17l1 3h26l1-2-1-21z" fill="#070E07"/>
<path transform="translate(216,454)" d="m0 0 2 1v83h30v27h-1l-1-24-4-1h-22l-2 1-1-2-3-2h2z" fill="#33140A"/>
<path transform="translate(788,261)" d="m0 0h2v117l-4-2h2z" fill="#091009"/>
<path transform="translate(248,538)" d="m0 0h26l3 2 1 5v14l-2 6-1 1h-26l-1-2zm8 2-6 1-1 2v9l2 13 10-1h12l2-3v-17l-2-4z" fill="#832210"/>
<path transform="translate(274,538)" d="m0 0 6 1 1 3-1 23h151v1h-156l2-7v-14l-1-5z" fill="#026611"/>
<path transform="translate(570,94)" d="m0 0 2 2v18h3l1-2v2h14l2 1v4l10 1v1l-8 1h-21l-3-2-1-6v-19z" fill="#A52116"/>
<path transform="translate(632,204)" d="m0 0h28v2l-27 1v16l-1 8h102v27h-1v-26h-102l-1-26z" fill="#023812"/>
<path transform="translate(515,377)" d="m0 0h133v1l-14 1-1 1h-47v-1l-71-1z" fill="#051E0A"/>
<path transform="translate(277,231)" d="m0 0h11l-2 2h-10l-2 24-1 3-9 2h-44l-1 25-2 1v-28l39-1h16l1-27z" fill="#63BB16"/>
<path transform="translate(790,462)" d="m0 0h2v74l24 1v1h-26v23l-2-1v-21l-4 1h-17l-2 1-1 20h-1v-22l1-1 25-1z" fill="#080E07"/>
<path transform="translate(189,288)" d="m0 0h28v1l-8 2h-17v22l23 1 4 2-1 3-4-2-23-1-3-3v-24z" fill="#63BB16"/>
<path transform="translate(340,121)" d="m0 0h28l-1 3-25-1v81h-1l-1-8z" fill="#2D442C"/>
<path transform="translate(668,763)" d="m0 0h1v60h-2l-1-27h-34v-3h36z" fill="#DD1B0C"/>
<path transform="translate(602,208)" d="m0 0h1l1 16 1 5-1 4-6 1h-22l-2 2-2 5v14 3l-4 1 1-28 32-1z" fill="#02370D"/>
<path transform="translate(426,259)" d="m0 0h47v1h-42v27h33v1h-36l-2-20v-6l2-1z" fill="#02510A"/>
<path transform="translate(247,481)" d="m0 0h1v57h-30v-1l17-1 9-1 1-23 1-24z" fill="#CB1B0F"/>
<path transform="translate(775,460)" d="m0 0h8l2 2-1 5-2 2-1 5-1 2h-4v-2l-5-2-2-4v-6z" fill="#EB200A"/>
<path transform="translate(188,313)" d="m0 0 3 2 23 1 2 3v28h-28zm2 6-1 1v24l3 2h22l1-1v-24l-5-2z" fill="#FC5102"/>
<path transform="translate(214,317)" d="m0 0 3 1 1 2v27l26 1 2 1v26h-1l-1-24-2-1-20-1-1 3-2 1-1 17h-1v-22h-29v-1h28l-1-28z" fill="#8B2111"/>
<path transform="translate(566,453)" d="m0 0h34l-1 28h-35v-25h1l1 23h30v-24h-29z" fill="#070E07"/>
<path transform="translate(763,561)" d="m0 0h2v4l23-1 1-3h1v6h-25l-2-1v32h-2v-30h-9l-8-1v-2h19z" fill="#1F2E1C"/>
<path transform="translate(764,626)" d="m0 0 3 1-1 134-1 6h-1z" fill="#080E07"/>
<path transform="translate(765,179)" d="m0 0h26l3 3h-29l1 21 29 1-1 2h-29l-1-1v-24z" fill="#0FBDC7"/>
<path transform="translate(313,480)" d="m0 0 2 1-2 2-62 1v27l-2 1v-31z" fill="#63BB16"/>
<path transform="translate(763,454)" d="m0 0 5 1-4 1 2 45-1 10-1 2-27 1-1 23-2 1 1-26 26-1 1-1z" fill="#8C2211"/>
<path transform="translate(503,68)" d="m0 0h99v25l-4-1h2v-22l-97-1z" fill="#024112"/>
<path transform="translate(219,453)" d="m0 0h30l-1 3h-25l-3-1v82h-2l-1-83z" fill="#FD5703"/>
<path transform="translate(224,771)" d="m0 0h28l1 1v12l-1 10h-1l-1-10v-10l-8-1h-16l-1 22h22v1l-6 1h-17l-1-4z" fill="#0B110A"/>
<path transform="translate(705,799)" d="m0 0h1v27l-31 1-1 24-2-3v-22h2v-2l4-1h25l1-3z" fill="#832110"/>
<path transform="translate(321,681)" d="m0 0h46l4 2-3 1h-47z" fill="#FB4601"/>
<path transform="translate(763,373)" d="m0 0 1 3h21v1l-18 1-4-1v28l-2-1v-26h-27v-2h28z" fill="#091008"/>
<path transform="translate(600,453)" d="m0 0h32v27l-2-1v-23h-28l-1 24h-1l-1-8v-18z" fill="#E75108"/>
<path transform="translate(307,232)" d="m0 0h34l-1 28h-28l-1-2h25l1-2h1l1-22-30-1 1 5v19h-1l-1-9z" fill="#FD7303"/>
<path transform="translate(761,456)" d="m0 0h2v54l-1 1h-25v-1l23-1 1-8z" fill="#6BBB14"/>
<path transform="translate(224,349)" d="m0 0h18l3 2v24h-26v-7h3l1 5h19l2 1-1-6v-17h-11l-8-1z" fill="#A52116"/>
<path transform="translate(734,511)" d="m0 0h27v1h-26v17l-1 11v25l-5 1 2-1 2-53z" fill="#03480D"/>
<path transform="translate(397,288)" d="m0 0 2 2 1 9v13h28l1 2-9 1h-20v2h-3z" fill="#02370D"/>
<path transform="translate(304,231)" d="m0 0h5l-1 2 1 15 1 9 2 2h29v2h-32l-4-4 1-1v-18l-2-5h-5v-1z" fill="#63BB16"/>
<path transform="translate(539,507)" d="m0 0 21 1 4 3h-30l1 26-2 1v-26h-2l1-3z" fill="#023A0D"/>
<path transform="translate(563,481)" d="m0 0 32 1v1h-28v25 3l-4-1z" fill="#E75008"/>
<path transform="translate(696,765)" d="m0 0h4v28l-4-1h3l-1-8-3 1-2-6v-11h2z" fill="#CC1C0F"/>
<path transform="translate(599,472)" d="m0 0h1v8h30v1l-14 1h-14l-2-1-1 5h-1l-1 13h-1l-1-16-31-1v-1h35z" fill="#FC9303"/>
<path transform="translate(511,286)" d="m0 0h15l8 1v1l-30 1v20l1 7-3 1v-30z" fill="#02370D"/>
<path transform="translate(860,278)" d="m0 0 28 1v1h-27v39l-2-2v-38z" fill="#0E3A17"/>
<path transform="translate(535,259)" d="m0 0h33l-3 2-22 1-6-2 1 18-2 7h-1z" fill="#02370D"/>
<path transform="translate(785,427)" d="m0 0h5l1 27h-27l1-2h23v-24z" fill="#070F07"/>
<path transform="translate(229,743)" d="m0 0 3 1 2 8-1 15h-4l-1-6v-9z" fill="#FB4601"/>
<path transform="translate(429,344)" d="m0 0h2v3h31v29l-2-2v-22l-2-1-10-1v-2l-17 1z" fill="#037808"/>
<path transform="translate(570,94)" d="m0 0 2 2v23l30 1v1l-8 1h-21l-3-2-1-6v-19z" fill="#832110"/>
<path transform="translate(395,93)" d="m0 0h3l1 27-1 2h-30v-2l28-1v-24z" fill="#35160A"/>
<path transform="translate(734,292)" d="m0 0h1v21h2v12l-1 19-2 3z" fill="#5F190E"/>
<path transform="translate(632,204)" d="m0 0h28v2l-27 1v25h-2l-1-26z" fill="#1D3F23"/>
<path transform="translate(535,481)" d="m0 0h28v29l-2-2v-24l-28-1z" fill="#080E07"/>
<path transform="translate(601,258)" d="m0 0h1v29h-28l-4-2h30z" fill="#070F07"/>
<path transform="translate(283,676)" d="m0 0h86v1h-49l-1 3-1-2-35-1z" fill="#D23906"/>
<path transform="translate(431,538)" d="m0 0h28l-1 2-13 2h-9l-3 2v19l-2 3z" fill="#02370D"/>
<path transform="translate(247,481)" d="m0 0h1v57h-30v-1l26-1 2-1z" fill="#8F2112"/>
<path transform="translate(399,93)" d="m0 0h9v1l16 1v1h-24l1 24-3 2v-28z" fill="#FC9103"/>
<path transform="translate(253,796)" d="m0 0h27l1 1v26h-1l-1-25-26 1z" fill="#080E07"/>
<path transform="translate(708,793)" d="m0 0h14l10 2v1l-25 1-1 2-1 21h-1v-23z" fill="#A22413"/>
<path transform="translate(634,378)" d="m0 0h54l10 1v1l-17 1-48-1z" fill="#02370D"/>
<path transform="translate(733,347)" d="m0 0h2v29l-3-1v-23z" fill="#04470D"/>
<path transform="translate(288,825)" d="m0 0h23l3 2-1 26h-2l-1-26-22-1z" fill="#982113"/>
<path transform="translate(274,538)" d="m0 0 6 1 1 3-1 20 1 4h-6l2-7v-14l-1-5z" fill="#026310"/>
<path transform="translate(765,179)" d="m0 0h26l3 3-30 1z" fill="#16A981"/>
<path transform="translate(596,227)" d="m0 0h4l1 4h-32l1-2 20-1z" fill="#026610"/>
<path transform="translate(643,802)" d="m0 0h8l3 3-1 3-6 1-7-1v-5z" fill="#EB200A"/>
<path transform="translate(341,259)" d="m0 0h27v21h-1l-1-18-24-1z" fill="#027906"/>
<path transform="translate(669,763)" d="m0 0 19 1v3l-17-1v20h-1z" fill="#C8150F"/>
<path transform="translate(889,242)" d="m0 0 19 1v1l-16 1-2 33h-1z" fill="#0C2212"/>
<path transform="translate(395,207)" d="m0 0h1v24h-27v-8h2v5l1 1h23z" fill="#FB4B01"/>
<path transform="translate(593,68)" d="m0 0h9v25l-4-1h2v-22h-9z" fill="#1F4E09"/>
<path transform="translate(535,318)" d="m0 0h1v29l-5-1-2-6 5-2z" fill="#02440E"/>
<path transform="translate(674,851)" d="m0 0 2 1 28 1 1 2h-32z" fill="#6A7E71"/>
<path transform="translate(791,453)" d="m0 0h28l-2 2h-25l-1 7h-1v-8z" fill="#081908"/>
<path transform="translate(219,453)" d="m0 0h30l-1 3h-30l-1-2z" fill="#F35C05"/>
<path transform="translate(394,656)" d="m0 0 4 1 1 2v10l-4 1-1-1z" fill="#FB4601"/>
<path transform="translate(393,160)" d="m0 0 2 4v23l-1-4h-2v-17z" fill="#FE6004"/>
<path transform="translate(474,93)" d="m0 0h4l-1 3v18l-1 3 1 4-3 1z" fill="#63BB16"/>
<path transform="translate(321,653)" d="m0 0 1 3 7-1 5 2v2l-10 2-4-1v-6z" fill="#FCB605"/>
<path transform="translate(408,480)" d="m0 0h24v1l-13 1v1h-22v-2z" fill="#25990D"/>
<path transform="translate(471,599)" d="m0 0h30l-1 4-5-1-19-1-5-1z" fill="#02370D"/>
<path transform="translate(532,259)" d="m0 0h3v27l-1 1h-8l4-1v-3h2l1-3v-19z" fill="#026611"/>
<path transform="translate(178,268)" d="m0 0 2 2-1 8h-3l-1 3h-7l-3-2 9-2 1-2h2v-6z" fill="#FE6004"/>
<path transform="translate(341,232)" d="m0 0 2 1-1 25h-2v-25z" fill="#4B160D"/>
<path transform="translate(412,481)" d="m0 0h19v16l-2-1v-13l-17-1z" fill="#03730A"/>
<path transform="translate(277,231)" d="m0 0h11l-2 2h-10l-2 22h-1v-23z" fill="#77C639"/>
<path transform="translate(734,261)" d="m0 0h27l1 2v9h-2l-1-8-1-1h-22v2h-2z" fill="#CD1C0E"/>
<path transform="translate(658,800)" d="m0 0h6l2 2v7l-5-1-3-2z" fill="#EB200A"/>
<path transform="translate(189,233)" d="m0 0h2v3h20v2h-20v2h-2z" fill="#FDB606"/>
<path transform="translate(733,773)" d="m0 0h1v22l-2 1-7-1v-1l6-1 1-19z" fill="#832110"/>
<path transform="translate(430,318)" d="m0 0 2 1v19l1 2v4l7 1-2 2h-7l-1-3-1-25z" fill="#02390C"/>
<path transform="translate(156,231)" d="m0 0 3 1-1 24-2 1z" fill="#FD8403"/>
<path transform="translate(733,800)" d="m0 0h1l1 5v22l-4-2h2z" fill="#183717"/>
<path transform="translate(347,256)" d="m0 0 21 2v1h-28l4-2z" fill="#02370D"/>
<path transform="translate(305,227)" d="m0 0h3v4h-36v-1l33-1z" fill="#02360D"/>
<path transform="translate(367,92)" d="m0 0 8 1-1 2h-4l-1 25h-1z" fill="#1E2F1C"/>
<path transform="translate(677,823)" d="m0 0 24 1v1l-29 2 2-1v-2z" fill="#9A2114"/>
<path transform="translate(219,368)" d="m0 0h3l1 5h17v1l-8 1h-13z" fill="#D71D0D"/>
<path transform="translate(258,377)" d="m0 0h13l1 3h-16z" fill="#023410"/>
<path transform="translate(563,481)" d="m0 0 32 1v1h-28v2h-3l-1 2z" fill="#F25805"/>
<path transform="translate(598,488)" d="m0 0h1v20l-2 2-4-1 2-1 1-8 1-1z" fill="#FC8202"/>
<path transform="translate(312,677)" d="m0 0 1 2-5 1v2l-4 1v-3l-16-1v-1z" fill="#FB4601"/>
<path transform="translate(250,536)" d="m0 0 29 1 1 2h-31z" fill="#026F07"/>
<path transform="translate(217,346)" d="m0 0 7 2-2 1-1 3-2 1-1 17h-1z" fill="#B02413"/>
<path transform="translate(672,848)" d="m0 0 2 4-1 2h-17l1-2 14-1z" fill="#A22115"/>
<path transform="translate(730,259)" d="m0 0 32 1v1l-30 1z" fill="#FD5D03"/>
<path transform="translate(648,818)" d="m0 0h8l-1 4-2 1h-8l3-2-2-2z" fill="#EB200A"/>
<path transform="translate(304,231)" d="m0 0h5l-1 2v10h-1l-2-7-1-3h-5v-1z" fill="#6ABF23"/>
<path transform="translate(252,784)" d="m0 0h1v15l-1-2h-11v-1l10-2z" fill="#35270E"/>
<path transform="translate(532,316)" d="m0 0h5l-2 5-1 15h-1z" fill="#02370D"/>
<path transform="translate(336,652)" d="m0 0h14l-1 2-5 1-8-2z" fill="#FDB606"/>
<path transform="translate(183,280)" d="m0 0 4 2v6l-5-1z" fill="#FD5F03"/>
<path transform="translate(694,261)" d="m0 0 6 1v5l-7-3z" fill="#FDB606"/>
</svg>
